%TF.GenerationSoftware,KiCad,Pcbnew,(6.0.9-0)*%
%TF.CreationDate,2022-12-21T10:02:25+01:00*%
%TF.ProjectId,BluerPill,426c7565-7250-4696-9c6c-2e6b69636164,rev?*%
%TF.SameCoordinates,Original*%
%TF.FileFunction,Soldermask,Bot*%
%TF.FilePolarity,Negative*%
%FSLAX46Y46*%
G04 Gerber Fmt 4.6, Leading zero omitted, Abs format (unit mm)*
G04 Created by KiCad (PCBNEW (6.0.9-0)) date 2022-12-21 10:02:25*
%MOMM*%
%LPD*%
G01*
G04 APERTURE LIST*
%ADD10C,0.650000*%
%ADD11O,1.000000X1.600000*%
%ADD12O,1.000000X2.100000*%
%ADD13R,1.700000X1.700000*%
%ADD14O,1.700000X1.700000*%
G04 APERTURE END LIST*
D10*
%TO.C,J3*%
X82835000Y-101977500D03*
X88615000Y-101977500D03*
D11*
X90045000Y-98327500D03*
D12*
X90045000Y-102507500D03*
X81405000Y-102507500D03*
D11*
X81405000Y-98327500D03*
%TD*%
D13*
%TO.C,J4*%
X88250000Y-140965000D03*
D14*
X88250000Y-143505000D03*
X85710000Y-140965000D03*
X85710000Y-143505000D03*
X83170000Y-140965000D03*
X83170000Y-143505000D03*
%TD*%
D13*
%TO.C,J1*%
X95885000Y-121920000D03*
D14*
X98425000Y-121920000D03*
X100965000Y-121920000D03*
X103505000Y-121920000D03*
X106045000Y-121920000D03*
X108585000Y-121920000D03*
X111125000Y-121920000D03*
X113665000Y-121920000D03*
X116205000Y-121920000D03*
X118745000Y-121920000D03*
X121285000Y-121920000D03*
X123825000Y-121920000D03*
X126365000Y-121920000D03*
X128905000Y-121920000D03*
X131445000Y-121920000D03*
X133985000Y-121920000D03*
X136525000Y-121920000D03*
%TD*%
D13*
%TO.C,J2*%
X95885000Y-132080000D03*
D14*
X98425000Y-132080000D03*
X100965000Y-132080000D03*
X103505000Y-132080000D03*
X106045000Y-132080000D03*
X108585000Y-132080000D03*
X111125000Y-132080000D03*
X113665000Y-132080000D03*
X116205000Y-132080000D03*
X118745000Y-132080000D03*
X121285000Y-132080000D03*
X123825000Y-132080000D03*
X126365000Y-132080000D03*
X128905000Y-132080000D03*
X131445000Y-132080000D03*
X133985000Y-132080000D03*
X136525000Y-132080000D03*
%TD*%
M02*
