%TF.GenerationSoftware,KiCad,Pcbnew,(6.0.9-0)*%
%TF.CreationDate,2022-12-21T10:04:28+01:00*%
%TF.ProjectId,BluerPill,426c7565-7250-4696-9c6c-2e6b69636164,rev?*%
%TF.SameCoordinates,Original*%
%TF.FileFunction,Drillmap*%
%TF.FilePolarity,Positive*%
%FSLAX45Y45*%
G04 Gerber Fmt 4.5, Leading zero omitted, Abs format (unit mm)*
G04 Created by KiCad (PCBNEW (6.0.9-0)) date 2022-12-21 10:04:28*
%MOMM*%
%LPD*%
G01*
G04 APERTURE LIST*
%ADD10C,0.100000*%
%ADD11C,0.200000*%
%ADD12C,0.025000*%
%ADD13C,0.060000*%
G04 APERTURE END LIST*
D10*
X9207500Y-11811000D02*
G75*
G03*
X9461500Y-12065000I254000J0D01*
G01*
X13652500Y-13335000D02*
G75*
G03*
X13779500Y-13208000I0J127000D01*
G01*
X8064500Y-9652000D02*
X9080500Y-9652000D01*
X8064500Y-9652000D02*
G75*
G03*
X7937500Y-9779000I0J-127000D01*
G01*
X9461500Y-12065000D02*
X13652500Y-12065000D01*
X13779500Y-12192000D02*
G75*
G03*
X13652500Y-12065000I-127000J0D01*
G01*
X13652500Y-13335000D02*
X9715500Y-13335000D01*
X9207500Y-9779000D02*
G75*
G03*
X9080500Y-9652000I-127000J0D01*
G01*
X13779500Y-12192000D02*
X13779500Y-13208000D01*
X9080500Y-15748000D02*
G75*
G03*
X9207500Y-15621000I0J127000D01*
G01*
X8064500Y-15748000D02*
X9080500Y-15748000D01*
X9207500Y-11811000D02*
X9207500Y-9779000D01*
X9207500Y-13843000D02*
X9207500Y-15621000D01*
X9715500Y-13335000D02*
G75*
G03*
X9207500Y-13843000I0J-508000D01*
G01*
X7937500Y-9779000D02*
X7937500Y-15621000D01*
X7937500Y-15621000D02*
G75*
G03*
X8064500Y-15748000I127000J0D01*
G01*
D11*
D12*
X8000000Y-15087500D02*
X8025000Y-15112500D01*
X8025000Y-15087500D02*
X8000000Y-15112500D01*
X8026250Y-10515250D02*
X8051250Y-10540250D01*
X8051250Y-10515250D02*
X8026250Y-10540250D01*
X8030000Y-10347500D02*
X8055000Y-10372500D01*
X8055000Y-10347500D02*
X8030000Y-10372500D01*
X8060000Y-10007500D02*
X8085000Y-10032500D01*
X8085000Y-10007500D02*
X8060000Y-10032500D01*
X8077450Y-13007500D02*
X8102450Y-13032500D01*
X8102450Y-13007500D02*
X8077450Y-13032500D01*
X8080000Y-11747500D02*
X8105000Y-11772500D01*
X8105000Y-11747500D02*
X8080000Y-11772500D01*
X8080000Y-13247500D02*
X8105000Y-13272500D01*
X8105000Y-13247500D02*
X8080000Y-13272500D01*
X8100000Y-12097500D02*
X8125000Y-12122500D01*
X8125000Y-12097500D02*
X8100000Y-12122500D01*
X8100000Y-14627500D02*
X8125000Y-14652500D01*
X8125000Y-14627500D02*
X8100000Y-14652500D01*
X8170000Y-14737500D02*
X8195000Y-14762500D01*
X8195000Y-14737500D02*
X8170000Y-14762500D01*
X8190000Y-11737500D02*
X8215000Y-11762500D01*
X8215000Y-11737500D02*
X8190000Y-11762500D01*
X8190000Y-14197500D02*
X8215000Y-14222500D01*
X8215000Y-14197500D02*
X8190000Y-14222500D01*
X8195000Y-12322500D02*
X8220000Y-12347500D01*
X8220000Y-12322500D02*
X8195000Y-12347500D01*
X8260000Y-14927500D02*
X8285000Y-14952500D01*
X8285000Y-14927500D02*
X8260000Y-14952500D01*
X8270000Y-12537500D02*
X8295000Y-12562500D01*
X8295000Y-12537500D02*
X8270000Y-12562500D01*
X8290000Y-12947500D02*
X8315000Y-12972500D01*
X8315000Y-12947500D02*
X8290000Y-12972500D01*
X8315000Y-13222500D02*
X8340000Y-13247500D01*
X8340000Y-13222500D02*
X8315000Y-13247500D01*
X8330000Y-12477500D02*
X8355000Y-12502500D01*
X8355000Y-12477500D02*
X8330000Y-12502500D01*
X8340000Y-9797500D02*
X8365000Y-9822500D01*
X8365000Y-9797500D02*
X8340000Y-9822500D01*
X8350000Y-10067500D02*
X8375000Y-10092500D01*
X8375000Y-10067500D02*
X8350000Y-10092500D01*
X8350000Y-15097500D02*
X8375000Y-15122500D01*
X8375000Y-15097500D02*
X8350000Y-15122500D01*
X8360000Y-13367500D02*
X8385000Y-13392500D01*
X8385000Y-13367500D02*
X8360000Y-13392500D01*
X8370000Y-12877500D02*
X8395000Y-12902500D01*
X8395000Y-12877500D02*
X8370000Y-12902500D01*
X8380000Y-14787500D02*
X8405000Y-14812500D01*
X8405000Y-14787500D02*
X8380000Y-14812500D01*
X8380000Y-15347500D02*
X8405000Y-15372500D01*
X8405000Y-15347500D02*
X8380000Y-15372500D01*
X8390000Y-11767500D02*
X8415000Y-11792500D01*
X8415000Y-11767500D02*
X8390000Y-11792500D01*
X8410000Y-12397500D02*
X8435000Y-12422500D01*
X8435000Y-12397500D02*
X8410000Y-12422500D01*
X8410000Y-12730305D02*
X8435000Y-12755305D01*
X8435000Y-12730305D02*
X8410000Y-12755305D01*
X8440000Y-12467500D02*
X8465000Y-12492500D01*
X8465000Y-12467500D02*
X8440000Y-12492500D01*
X8460000Y-12887500D02*
X8485000Y-12912500D01*
X8485000Y-12887500D02*
X8460000Y-12912500D01*
X8470000Y-10967500D02*
X8495000Y-10992500D01*
X8495000Y-10967500D02*
X8470000Y-10992500D01*
X8470000Y-11127500D02*
X8495000Y-11152500D01*
X8495000Y-11127500D02*
X8470000Y-11152500D01*
X8480000Y-11247500D02*
X8505000Y-11272500D01*
X8505000Y-11247500D02*
X8480000Y-11272500D01*
X8510000Y-12417500D02*
X8535000Y-12442500D01*
X8535000Y-12417500D02*
X8510000Y-12442500D01*
X8520000Y-12037500D02*
X8545000Y-12062500D01*
X8545000Y-12037500D02*
X8520000Y-12062500D01*
X8530000Y-12817500D02*
X8555000Y-12842500D01*
X8555000Y-12817500D02*
X8530000Y-12842500D01*
X8538388Y-12897500D02*
X8563388Y-12922500D01*
X8563388Y-12897500D02*
X8538388Y-12922500D01*
X8540000Y-11047500D02*
X8565000Y-11072500D01*
X8565000Y-11047500D02*
X8540000Y-11072500D01*
X8560000Y-9917500D02*
X8585000Y-9942500D01*
X8585000Y-9917500D02*
X8560000Y-9942500D01*
X8560000Y-11187500D02*
X8585000Y-11212500D01*
X8585000Y-11187500D02*
X8560000Y-11212500D01*
X8560000Y-12127500D02*
X8585000Y-12152500D01*
X8585000Y-12127500D02*
X8560000Y-12152500D01*
X8570000Y-11287500D02*
X8595000Y-11312500D01*
X8595000Y-11287500D02*
X8570000Y-11312500D01*
X8580000Y-12677500D02*
X8605000Y-12702500D01*
X8605000Y-12677500D02*
X8580000Y-12702500D01*
X8606206Y-12058650D02*
X8631206Y-12083650D01*
X8631206Y-12058650D02*
X8606206Y-12083650D01*
X8630000Y-10627500D02*
X8655000Y-10652500D01*
X8655000Y-10627500D02*
X8630000Y-10652500D01*
X8630000Y-11957500D02*
X8655000Y-11982500D01*
X8655000Y-11957500D02*
X8630000Y-11982500D01*
X8650000Y-13284950D02*
X8675000Y-13309950D01*
X8675000Y-13284950D02*
X8650000Y-13309950D01*
X8660000Y-10987500D02*
X8685000Y-11012500D01*
X8685000Y-10987500D02*
X8660000Y-11012500D01*
X8660000Y-11187500D02*
X8685000Y-11212500D01*
X8685000Y-11187500D02*
X8660000Y-11212500D01*
X8660000Y-12597500D02*
X8685000Y-12622500D01*
X8685000Y-12597500D02*
X8660000Y-12622500D01*
X8660000Y-12677500D02*
X8685000Y-12702500D01*
X8685000Y-12677500D02*
X8660000Y-12702500D01*
X8677934Y-12036910D02*
X8702934Y-12061910D01*
X8702934Y-12036910D02*
X8677934Y-12061910D01*
X8680000Y-14977500D02*
X8705000Y-15002500D01*
X8705000Y-14977500D02*
X8680000Y-15002500D01*
X8690000Y-11827500D02*
X8715000Y-11852500D01*
X8715000Y-11827500D02*
X8690000Y-11852500D01*
X8740000Y-12677500D02*
X8765000Y-12702500D01*
X8765000Y-12677500D02*
X8740000Y-12702500D01*
X8750000Y-10917500D02*
X8775000Y-10942500D01*
X8775000Y-10917500D02*
X8750000Y-10942500D01*
X8750000Y-13837500D02*
X8775000Y-13862500D01*
X8775000Y-13837500D02*
X8750000Y-13862500D01*
X8760000Y-11087500D02*
X8785000Y-11112500D01*
X8785000Y-11087500D02*
X8760000Y-11112500D01*
X8760000Y-11277500D02*
X8785000Y-11302500D01*
X8785000Y-11277500D02*
X8760000Y-11302500D01*
X8760000Y-12037500D02*
X8785000Y-12062500D01*
X8785000Y-12037500D02*
X8760000Y-12062500D01*
X8770000Y-9807500D02*
X8795000Y-9832500D01*
X8795000Y-9807500D02*
X8770000Y-9832500D01*
X8790000Y-10077500D02*
X8815000Y-10102500D01*
X8815000Y-10077500D02*
X8790000Y-10102500D01*
X8830000Y-11997500D02*
X8855000Y-12022500D01*
X8855000Y-11997500D02*
X8830000Y-12022500D01*
X8830000Y-12597500D02*
X8855000Y-12622500D01*
X8855000Y-12597500D02*
X8830000Y-12622500D01*
X8860000Y-10987500D02*
X8885000Y-11012500D01*
X8885000Y-10987500D02*
X8860000Y-11012500D01*
X8860000Y-11187500D02*
X8885000Y-11212500D01*
X8885000Y-11187500D02*
X8860000Y-11212500D01*
X8910000Y-11847500D02*
X8935000Y-11872500D01*
X8935000Y-11847500D02*
X8910000Y-11872500D01*
X8910000Y-12237500D02*
X8935000Y-12262500D01*
X8935000Y-12237500D02*
X8910000Y-12262500D01*
X9000000Y-10647500D02*
X9025000Y-10672500D01*
X9025000Y-10647500D02*
X9000000Y-10672500D01*
X9000000Y-13537500D02*
X9025000Y-13562500D01*
X9025000Y-13537500D02*
X9000000Y-13562500D01*
X9010000Y-14887500D02*
X9035000Y-14912500D01*
X9035000Y-14887500D02*
X9010000Y-14912500D01*
X9020000Y-12227500D02*
X9045000Y-12252500D01*
X9045000Y-12227500D02*
X9020000Y-12252500D01*
X9040000Y-15097500D02*
X9065000Y-15122500D01*
X9065000Y-15097500D02*
X9040000Y-15122500D01*
X9060000Y-15307500D02*
X9085000Y-15332500D01*
X9085000Y-15307500D02*
X9060000Y-15332500D01*
X9070000Y-10007500D02*
X9095000Y-10032500D01*
X9095000Y-10007500D02*
X9070000Y-10032500D01*
X9070000Y-14617500D02*
X9095000Y-14642500D01*
X9095000Y-14617500D02*
X9070000Y-14642500D01*
X9110000Y-13947500D02*
X9135000Y-13972500D01*
X9135000Y-13947500D02*
X9110000Y-13972500D01*
X9280000Y-13387500D02*
X9305000Y-13412500D01*
X9305000Y-13387500D02*
X9280000Y-13412500D01*
X11730000Y-12687500D02*
X11755000Y-12712500D01*
X11755000Y-12687500D02*
X11730000Y-12712500D01*
X12250000Y-12687500D02*
X12275000Y-12712500D01*
X12275000Y-12687500D02*
X12250000Y-12712500D01*
X12740000Y-12687500D02*
X12765000Y-12712500D01*
X12765000Y-12687500D02*
X12740000Y-12712500D01*
X13350000Y-12697500D02*
X13375000Y-12722500D01*
X13375000Y-12697500D02*
X13350000Y-12722500D01*
D13*
X8170500Y-9832750D02*
G75*
G03*
X8170500Y-9832750I-30000J0D01*
G01*
D11*
X8170500Y-9862750D02*
X8170500Y-9802750D01*
X8110500Y-9862750D02*
X8110500Y-9802750D01*
X8170500Y-9802750D02*
G75*
G03*
X8110500Y-9802750I-30000J0D01*
G01*
X8110500Y-9862750D02*
G75*
G03*
X8170500Y-9862750I30000J0D01*
G01*
D13*
X8170500Y-10250750D02*
G75*
G03*
X8170500Y-10250750I-30000J0D01*
G01*
D11*
X8170500Y-10305750D02*
X8170500Y-10195750D01*
X8110500Y-10305750D02*
X8110500Y-10195750D01*
X8170500Y-10195750D02*
G75*
G03*
X8110500Y-10195750I-30000J0D01*
G01*
X8110500Y-10305750D02*
G75*
G03*
X8170500Y-10305750I30000J0D01*
G01*
D13*
X9034500Y-9832750D02*
G75*
G03*
X9034500Y-9832750I-30000J0D01*
G01*
D11*
X9034500Y-9862750D02*
X9034500Y-9802750D01*
X8974500Y-9862750D02*
X8974500Y-9802750D01*
X9034500Y-9802750D02*
G75*
G03*
X8974500Y-9802750I-30000J0D01*
G01*
X8974500Y-9862750D02*
G75*
G03*
X9034500Y-9862750I30000J0D01*
G01*
D13*
X9034500Y-10250750D02*
G75*
G03*
X9034500Y-10250750I-30000J0D01*
G01*
D11*
X9034500Y-10305750D02*
X9034500Y-10195750D01*
X8974500Y-10305750D02*
X8974500Y-10195750D01*
X9034500Y-10195750D02*
G75*
G03*
X8974500Y-10195750I-30000J0D01*
G01*
X8974500Y-10305750D02*
G75*
G03*
X9034500Y-10305750I30000J0D01*
G01*
D10*
X8317000Y-14046500D02*
X8317000Y-14146500D01*
X8267000Y-14096500D02*
X8367000Y-14096500D01*
X8317000Y-14300500D02*
X8317000Y-14400500D01*
X8267000Y-14350500D02*
X8367000Y-14350500D01*
X8571000Y-14046500D02*
X8571000Y-14146500D01*
X8521000Y-14096500D02*
X8621000Y-14096500D01*
X8571000Y-14300500D02*
X8571000Y-14400500D01*
X8521000Y-14350500D02*
X8621000Y-14350500D01*
X8825000Y-14046500D02*
X8825000Y-14146500D01*
X8775000Y-14096500D02*
X8875000Y-14096500D01*
X8825000Y-14300500D02*
X8825000Y-14400500D01*
X8775000Y-14350500D02*
X8875000Y-14350500D01*
X9588500Y-12142000D02*
X9588500Y-12242000D01*
X9538500Y-12192000D02*
X9638500Y-12192000D01*
X9588500Y-13158000D02*
X9588500Y-13258000D01*
X9538500Y-13208000D02*
X9638500Y-13208000D01*
X9842500Y-12142000D02*
X9842500Y-12242000D01*
X9792500Y-12192000D02*
X9892500Y-12192000D01*
X9842500Y-13158000D02*
X9842500Y-13258000D01*
X9792500Y-13208000D02*
X9892500Y-13208000D01*
X10096500Y-12142000D02*
X10096500Y-12242000D01*
X10046500Y-12192000D02*
X10146500Y-12192000D01*
X10096500Y-13158000D02*
X10096500Y-13258000D01*
X10046500Y-13208000D02*
X10146500Y-13208000D01*
X10350500Y-12142000D02*
X10350500Y-12242000D01*
X10300500Y-12192000D02*
X10400500Y-12192000D01*
X10350500Y-13158000D02*
X10350500Y-13258000D01*
X10300500Y-13208000D02*
X10400500Y-13208000D01*
X10604500Y-12142000D02*
X10604500Y-12242000D01*
X10554500Y-12192000D02*
X10654500Y-12192000D01*
X10604500Y-13158000D02*
X10604500Y-13258000D01*
X10554500Y-13208000D02*
X10654500Y-13208000D01*
X10858500Y-12142000D02*
X10858500Y-12242000D01*
X10808500Y-12192000D02*
X10908500Y-12192000D01*
X10858500Y-13158000D02*
X10858500Y-13258000D01*
X10808500Y-13208000D02*
X10908500Y-13208000D01*
X11112500Y-12142000D02*
X11112500Y-12242000D01*
X11062500Y-12192000D02*
X11162500Y-12192000D01*
X11112500Y-13158000D02*
X11112500Y-13258000D01*
X11062500Y-13208000D02*
X11162500Y-13208000D01*
X11366500Y-12142000D02*
X11366500Y-12242000D01*
X11316500Y-12192000D02*
X11416500Y-12192000D01*
X11366500Y-13158000D02*
X11366500Y-13258000D01*
X11316500Y-13208000D02*
X11416500Y-13208000D01*
X11620500Y-12142000D02*
X11620500Y-12242000D01*
X11570500Y-12192000D02*
X11670500Y-12192000D01*
X11620500Y-13158000D02*
X11620500Y-13258000D01*
X11570500Y-13208000D02*
X11670500Y-13208000D01*
X11874500Y-12142000D02*
X11874500Y-12242000D01*
X11824500Y-12192000D02*
X11924500Y-12192000D01*
X11874500Y-13158000D02*
X11874500Y-13258000D01*
X11824500Y-13208000D02*
X11924500Y-13208000D01*
X12128500Y-12142000D02*
X12128500Y-12242000D01*
X12078500Y-12192000D02*
X12178500Y-12192000D01*
X12128500Y-13158000D02*
X12128500Y-13258000D01*
X12078500Y-13208000D02*
X12178500Y-13208000D01*
X12382500Y-12142000D02*
X12382500Y-12242000D01*
X12332500Y-12192000D02*
X12432500Y-12192000D01*
X12382500Y-13158000D02*
X12382500Y-13258000D01*
X12332500Y-13208000D02*
X12432500Y-13208000D01*
X12636500Y-12142000D02*
X12636500Y-12242000D01*
X12586500Y-12192000D02*
X12686500Y-12192000D01*
X12636500Y-13158000D02*
X12636500Y-13258000D01*
X12586500Y-13208000D02*
X12686500Y-13208000D01*
X12890500Y-12142000D02*
X12890500Y-12242000D01*
X12840500Y-12192000D02*
X12940500Y-12192000D01*
X12890500Y-13158000D02*
X12890500Y-13258000D01*
X12840500Y-13208000D02*
X12940500Y-13208000D01*
X13144500Y-12142000D02*
X13144500Y-12242000D01*
X13094500Y-12192000D02*
X13194500Y-12192000D01*
X13144500Y-13158000D02*
X13144500Y-13258000D01*
X13094500Y-13208000D02*
X13194500Y-13208000D01*
X13398500Y-12142000D02*
X13398500Y-12242000D01*
X13348500Y-12192000D02*
X13448500Y-12192000D01*
X13398500Y-13158000D02*
X13398500Y-13258000D01*
X13348500Y-13208000D02*
X13448500Y-13208000D01*
X13652500Y-12142000D02*
X13652500Y-12242000D01*
X13602500Y-12192000D02*
X13702500Y-12192000D01*
X13652500Y-13158000D02*
X13652500Y-13258000D01*
X13602500Y-13208000D02*
X13702500Y-13208000D01*
D11*
X8190119Y-16063476D02*
X8190119Y-15863476D01*
X8237738Y-15863476D01*
X8266309Y-15873000D01*
X8285357Y-15892048D01*
X8294881Y-15911095D01*
X8304405Y-15949190D01*
X8304405Y-15977762D01*
X8294881Y-16015857D01*
X8285357Y-16034905D01*
X8266309Y-16053952D01*
X8237738Y-16063476D01*
X8190119Y-16063476D01*
X8390119Y-16063476D02*
X8390119Y-15930143D01*
X8390119Y-15968238D02*
X8399643Y-15949190D01*
X8409167Y-15939667D01*
X8428214Y-15930143D01*
X8447262Y-15930143D01*
X8513929Y-16063476D02*
X8513929Y-15930143D01*
X8513929Y-15863476D02*
X8504405Y-15873000D01*
X8513929Y-15882524D01*
X8523452Y-15873000D01*
X8513929Y-15863476D01*
X8513929Y-15882524D01*
X8637738Y-16063476D02*
X8618690Y-16053952D01*
X8609167Y-16034905D01*
X8609167Y-15863476D01*
X8742500Y-16063476D02*
X8723452Y-16053952D01*
X8713929Y-16034905D01*
X8713929Y-15863476D01*
X8971071Y-16063476D02*
X8971071Y-15863476D01*
X9037738Y-16006333D01*
X9104405Y-15863476D01*
X9104405Y-16063476D01*
X9285357Y-16063476D02*
X9285357Y-15958714D01*
X9275833Y-15939667D01*
X9256786Y-15930143D01*
X9218690Y-15930143D01*
X9199643Y-15939667D01*
X9285357Y-16053952D02*
X9266310Y-16063476D01*
X9218690Y-16063476D01*
X9199643Y-16053952D01*
X9190119Y-16034905D01*
X9190119Y-16015857D01*
X9199643Y-15996809D01*
X9218690Y-15987286D01*
X9266310Y-15987286D01*
X9285357Y-15977762D01*
X9380595Y-15930143D02*
X9380595Y-16130143D01*
X9380595Y-15939667D02*
X9399643Y-15930143D01*
X9437738Y-15930143D01*
X9456786Y-15939667D01*
X9466310Y-15949190D01*
X9475833Y-15968238D01*
X9475833Y-16025381D01*
X9466310Y-16044428D01*
X9456786Y-16053952D01*
X9437738Y-16063476D01*
X9399643Y-16063476D01*
X9380595Y-16053952D01*
X9561548Y-16044428D02*
X9571071Y-16053952D01*
X9561548Y-16063476D01*
X9552024Y-16053952D01*
X9561548Y-16044428D01*
X9561548Y-16063476D01*
X9561548Y-15939667D02*
X9571071Y-15949190D01*
X9561548Y-15958714D01*
X9552024Y-15949190D01*
X9561548Y-15939667D01*
X9561548Y-15958714D01*
D12*
X7907500Y-16380500D02*
X7932500Y-16405500D01*
X7932500Y-16380500D02*
X7907500Y-16405500D01*
D11*
X8228214Y-16283476D02*
X8247262Y-16283476D01*
X8266309Y-16293000D01*
X8275833Y-16302524D01*
X8285357Y-16321571D01*
X8294881Y-16359667D01*
X8294881Y-16407286D01*
X8285357Y-16445381D01*
X8275833Y-16464428D01*
X8266309Y-16473952D01*
X8247262Y-16483476D01*
X8228214Y-16483476D01*
X8209167Y-16473952D01*
X8199643Y-16464428D01*
X8190119Y-16445381D01*
X8180595Y-16407286D01*
X8180595Y-16359667D01*
X8190119Y-16321571D01*
X8199643Y-16302524D01*
X8209167Y-16293000D01*
X8228214Y-16283476D01*
X8380595Y-16464428D02*
X8390119Y-16473952D01*
X8380595Y-16483476D01*
X8371071Y-16473952D01*
X8380595Y-16464428D01*
X8380595Y-16483476D01*
X8466310Y-16302524D02*
X8475833Y-16293000D01*
X8494881Y-16283476D01*
X8542500Y-16283476D01*
X8561548Y-16293000D01*
X8571071Y-16302524D01*
X8580595Y-16321571D01*
X8580595Y-16340619D01*
X8571071Y-16369190D01*
X8456786Y-16483476D01*
X8580595Y-16483476D01*
X8761548Y-16283476D02*
X8666310Y-16283476D01*
X8656786Y-16378714D01*
X8666310Y-16369190D01*
X8685357Y-16359667D01*
X8732976Y-16359667D01*
X8752024Y-16369190D01*
X8761548Y-16378714D01*
X8771071Y-16397762D01*
X8771071Y-16445381D01*
X8761548Y-16464428D01*
X8752024Y-16473952D01*
X8732976Y-16483476D01*
X8685357Y-16483476D01*
X8666310Y-16473952D01*
X8656786Y-16464428D01*
X8894881Y-16283476D02*
X8913929Y-16283476D01*
X8932976Y-16293000D01*
X8942500Y-16302524D01*
X8952024Y-16321571D01*
X8961548Y-16359667D01*
X8961548Y-16407286D01*
X8952024Y-16445381D01*
X8942500Y-16464428D01*
X8932976Y-16473952D01*
X8913929Y-16483476D01*
X8894881Y-16483476D01*
X8875833Y-16473952D01*
X8866310Y-16464428D01*
X8856786Y-16445381D01*
X8847262Y-16407286D01*
X8847262Y-16359667D01*
X8856786Y-16321571D01*
X8866310Y-16302524D01*
X8875833Y-16293000D01*
X8894881Y-16283476D01*
X9047262Y-16483476D02*
X9047262Y-16350143D01*
X9047262Y-16369190D02*
X9056786Y-16359667D01*
X9075833Y-16350143D01*
X9104405Y-16350143D01*
X9123452Y-16359667D01*
X9132976Y-16378714D01*
X9132976Y-16483476D01*
X9132976Y-16378714D02*
X9142500Y-16359667D01*
X9161548Y-16350143D01*
X9190119Y-16350143D01*
X9209167Y-16359667D01*
X9218690Y-16378714D01*
X9218690Y-16483476D01*
X9313929Y-16483476D02*
X9313929Y-16350143D01*
X9313929Y-16369190D02*
X9323452Y-16359667D01*
X9342500Y-16350143D01*
X9371071Y-16350143D01*
X9390119Y-16359667D01*
X9399643Y-16378714D01*
X9399643Y-16483476D01*
X9399643Y-16378714D02*
X9409167Y-16359667D01*
X9428214Y-16350143D01*
X9456786Y-16350143D01*
X9475833Y-16359667D01*
X9485357Y-16378714D01*
X9485357Y-16483476D01*
X9875833Y-16273952D02*
X9704405Y-16531095D01*
X10132976Y-16283476D02*
X10152024Y-16283476D01*
X10171071Y-16293000D01*
X10180595Y-16302524D01*
X10190119Y-16321571D01*
X10199643Y-16359667D01*
X10199643Y-16407286D01*
X10190119Y-16445381D01*
X10180595Y-16464428D01*
X10171071Y-16473952D01*
X10152024Y-16483476D01*
X10132976Y-16483476D01*
X10113929Y-16473952D01*
X10104405Y-16464428D01*
X10094881Y-16445381D01*
X10085357Y-16407286D01*
X10085357Y-16359667D01*
X10094881Y-16321571D01*
X10104405Y-16302524D01*
X10113929Y-16293000D01*
X10132976Y-16283476D01*
X10285357Y-16464428D02*
X10294881Y-16473952D01*
X10285357Y-16483476D01*
X10275833Y-16473952D01*
X10285357Y-16464428D01*
X10285357Y-16483476D01*
X10418690Y-16283476D02*
X10437738Y-16283476D01*
X10456786Y-16293000D01*
X10466310Y-16302524D01*
X10475833Y-16321571D01*
X10485357Y-16359667D01*
X10485357Y-16407286D01*
X10475833Y-16445381D01*
X10466310Y-16464428D01*
X10456786Y-16473952D01*
X10437738Y-16483476D01*
X10418690Y-16483476D01*
X10399643Y-16473952D01*
X10390119Y-16464428D01*
X10380595Y-16445381D01*
X10371071Y-16407286D01*
X10371071Y-16359667D01*
X10380595Y-16321571D01*
X10390119Y-16302524D01*
X10399643Y-16293000D01*
X10418690Y-16283476D01*
X10609167Y-16283476D02*
X10628214Y-16283476D01*
X10647262Y-16293000D01*
X10656786Y-16302524D01*
X10666310Y-16321571D01*
X10675833Y-16359667D01*
X10675833Y-16407286D01*
X10666310Y-16445381D01*
X10656786Y-16464428D01*
X10647262Y-16473952D01*
X10628214Y-16483476D01*
X10609167Y-16483476D01*
X10590119Y-16473952D01*
X10580595Y-16464428D01*
X10571071Y-16445381D01*
X10561548Y-16407286D01*
X10561548Y-16359667D01*
X10571071Y-16321571D01*
X10580595Y-16302524D01*
X10590119Y-16293000D01*
X10609167Y-16283476D01*
X10771071Y-16483476D02*
X10809167Y-16483476D01*
X10828214Y-16473952D01*
X10837738Y-16464428D01*
X10856786Y-16435857D01*
X10866310Y-16397762D01*
X10866310Y-16321571D01*
X10856786Y-16302524D01*
X10847262Y-16293000D01*
X10828214Y-16283476D01*
X10790119Y-16283476D01*
X10771071Y-16293000D01*
X10761548Y-16302524D01*
X10752024Y-16321571D01*
X10752024Y-16369190D01*
X10761548Y-16388238D01*
X10771071Y-16397762D01*
X10790119Y-16407286D01*
X10828214Y-16407286D01*
X10847262Y-16397762D01*
X10856786Y-16388238D01*
X10866310Y-16369190D01*
X10980595Y-16369190D02*
X10961548Y-16359667D01*
X10952024Y-16350143D01*
X10942500Y-16331095D01*
X10942500Y-16321571D01*
X10952024Y-16302524D01*
X10961548Y-16293000D01*
X10980595Y-16283476D01*
X11018690Y-16283476D01*
X11037738Y-16293000D01*
X11047262Y-16302524D01*
X11056786Y-16321571D01*
X11056786Y-16331095D01*
X11047262Y-16350143D01*
X11037738Y-16359667D01*
X11018690Y-16369190D01*
X10980595Y-16369190D01*
X10961548Y-16378714D01*
X10952024Y-16388238D01*
X10942500Y-16407286D01*
X10942500Y-16445381D01*
X10952024Y-16464428D01*
X10961548Y-16473952D01*
X10980595Y-16483476D01*
X11018690Y-16483476D01*
X11037738Y-16473952D01*
X11047262Y-16464428D01*
X11056786Y-16445381D01*
X11056786Y-16407286D01*
X11047262Y-16388238D01*
X11037738Y-16378714D01*
X11018690Y-16369190D01*
X11132976Y-16283476D02*
X11132976Y-16321571D01*
X11209167Y-16283476D02*
X11209167Y-16321571D01*
X11504405Y-16559667D02*
X11494881Y-16550143D01*
X11475833Y-16521571D01*
X11466309Y-16502524D01*
X11456786Y-16473952D01*
X11447262Y-16426333D01*
X11447262Y-16388238D01*
X11456786Y-16340619D01*
X11466309Y-16312048D01*
X11475833Y-16293000D01*
X11494881Y-16264428D01*
X11504405Y-16254905D01*
X11609167Y-16369190D02*
X11590119Y-16359667D01*
X11580595Y-16350143D01*
X11571071Y-16331095D01*
X11571071Y-16321571D01*
X11580595Y-16302524D01*
X11590119Y-16293000D01*
X11609167Y-16283476D01*
X11647262Y-16283476D01*
X11666309Y-16293000D01*
X11675833Y-16302524D01*
X11685357Y-16321571D01*
X11685357Y-16331095D01*
X11675833Y-16350143D01*
X11666309Y-16359667D01*
X11647262Y-16369190D01*
X11609167Y-16369190D01*
X11590119Y-16378714D01*
X11580595Y-16388238D01*
X11571071Y-16407286D01*
X11571071Y-16445381D01*
X11580595Y-16464428D01*
X11590119Y-16473952D01*
X11609167Y-16483476D01*
X11647262Y-16483476D01*
X11666309Y-16473952D01*
X11675833Y-16464428D01*
X11685357Y-16445381D01*
X11685357Y-16407286D01*
X11675833Y-16388238D01*
X11666309Y-16378714D01*
X11647262Y-16369190D01*
X11761548Y-16302524D02*
X11771071Y-16293000D01*
X11790119Y-16283476D01*
X11837738Y-16283476D01*
X11856786Y-16293000D01*
X11866309Y-16302524D01*
X11875833Y-16321571D01*
X11875833Y-16340619D01*
X11866309Y-16369190D01*
X11752024Y-16483476D01*
X11875833Y-16483476D01*
X12113928Y-16483476D02*
X12113928Y-16283476D01*
X12199643Y-16483476D02*
X12199643Y-16378714D01*
X12190119Y-16359667D01*
X12171071Y-16350143D01*
X12142500Y-16350143D01*
X12123452Y-16359667D01*
X12113928Y-16369190D01*
X12323452Y-16483476D02*
X12304405Y-16473952D01*
X12294881Y-16464428D01*
X12285357Y-16445381D01*
X12285357Y-16388238D01*
X12294881Y-16369190D01*
X12304405Y-16359667D01*
X12323452Y-16350143D01*
X12352024Y-16350143D01*
X12371071Y-16359667D01*
X12380595Y-16369190D01*
X12390119Y-16388238D01*
X12390119Y-16445381D01*
X12380595Y-16464428D01*
X12371071Y-16473952D01*
X12352024Y-16483476D01*
X12323452Y-16483476D01*
X12504405Y-16483476D02*
X12485357Y-16473952D01*
X12475833Y-16454905D01*
X12475833Y-16283476D01*
X12656786Y-16473952D02*
X12637738Y-16483476D01*
X12599643Y-16483476D01*
X12580595Y-16473952D01*
X12571071Y-16454905D01*
X12571071Y-16378714D01*
X12580595Y-16359667D01*
X12599643Y-16350143D01*
X12637738Y-16350143D01*
X12656786Y-16359667D01*
X12666309Y-16378714D01*
X12666309Y-16397762D01*
X12571071Y-16416809D01*
X12742500Y-16473952D02*
X12761548Y-16483476D01*
X12799643Y-16483476D01*
X12818690Y-16473952D01*
X12828214Y-16454905D01*
X12828214Y-16445381D01*
X12818690Y-16426333D01*
X12799643Y-16416809D01*
X12771071Y-16416809D01*
X12752024Y-16407286D01*
X12742500Y-16388238D01*
X12742500Y-16378714D01*
X12752024Y-16359667D01*
X12771071Y-16350143D01*
X12799643Y-16350143D01*
X12818690Y-16359667D01*
X12894881Y-16559667D02*
X12904405Y-16550143D01*
X12923452Y-16521571D01*
X12932976Y-16502524D01*
X12942500Y-16473952D01*
X12952024Y-16426333D01*
X12952024Y-16388238D01*
X12942500Y-16340619D01*
X12932976Y-16312048D01*
X12923452Y-16293000D01*
X12904405Y-16264428D01*
X12894881Y-16254905D01*
D13*
X7932500Y-16657000D02*
G75*
G03*
X7932500Y-16657000I-30000J0D01*
G01*
D11*
X8228214Y-16547476D02*
X8247262Y-16547476D01*
X8266309Y-16557000D01*
X8275833Y-16566524D01*
X8285357Y-16585571D01*
X8294881Y-16623667D01*
X8294881Y-16671286D01*
X8285357Y-16709381D01*
X8275833Y-16728428D01*
X8266309Y-16737952D01*
X8247262Y-16747476D01*
X8228214Y-16747476D01*
X8209167Y-16737952D01*
X8199643Y-16728428D01*
X8190119Y-16709381D01*
X8180595Y-16671286D01*
X8180595Y-16623667D01*
X8190119Y-16585571D01*
X8199643Y-16566524D01*
X8209167Y-16557000D01*
X8228214Y-16547476D01*
X8380595Y-16728428D02*
X8390119Y-16737952D01*
X8380595Y-16747476D01*
X8371071Y-16737952D01*
X8380595Y-16728428D01*
X8380595Y-16747476D01*
X8561548Y-16547476D02*
X8523452Y-16547476D01*
X8504405Y-16557000D01*
X8494881Y-16566524D01*
X8475833Y-16595095D01*
X8466310Y-16633190D01*
X8466310Y-16709381D01*
X8475833Y-16728428D01*
X8485357Y-16737952D01*
X8504405Y-16747476D01*
X8542500Y-16747476D01*
X8561548Y-16737952D01*
X8571071Y-16728428D01*
X8580595Y-16709381D01*
X8580595Y-16661762D01*
X8571071Y-16642714D01*
X8561548Y-16633190D01*
X8542500Y-16623667D01*
X8504405Y-16623667D01*
X8485357Y-16633190D01*
X8475833Y-16642714D01*
X8466310Y-16661762D01*
X8704405Y-16547476D02*
X8723452Y-16547476D01*
X8742500Y-16557000D01*
X8752024Y-16566524D01*
X8761548Y-16585571D01*
X8771071Y-16623667D01*
X8771071Y-16671286D01*
X8761548Y-16709381D01*
X8752024Y-16728428D01*
X8742500Y-16737952D01*
X8723452Y-16747476D01*
X8704405Y-16747476D01*
X8685357Y-16737952D01*
X8675833Y-16728428D01*
X8666310Y-16709381D01*
X8656786Y-16671286D01*
X8656786Y-16623667D01*
X8666310Y-16585571D01*
X8675833Y-16566524D01*
X8685357Y-16557000D01*
X8704405Y-16547476D01*
X8894881Y-16547476D02*
X8913929Y-16547476D01*
X8932976Y-16557000D01*
X8942500Y-16566524D01*
X8952024Y-16585571D01*
X8961548Y-16623667D01*
X8961548Y-16671286D01*
X8952024Y-16709381D01*
X8942500Y-16728428D01*
X8932976Y-16737952D01*
X8913929Y-16747476D01*
X8894881Y-16747476D01*
X8875833Y-16737952D01*
X8866310Y-16728428D01*
X8856786Y-16709381D01*
X8847262Y-16671286D01*
X8847262Y-16623667D01*
X8856786Y-16585571D01*
X8866310Y-16566524D01*
X8875833Y-16557000D01*
X8894881Y-16547476D01*
X9047262Y-16747476D02*
X9047262Y-16614143D01*
X9047262Y-16633190D02*
X9056786Y-16623667D01*
X9075833Y-16614143D01*
X9104405Y-16614143D01*
X9123452Y-16623667D01*
X9132976Y-16642714D01*
X9132976Y-16747476D01*
X9132976Y-16642714D02*
X9142500Y-16623667D01*
X9161548Y-16614143D01*
X9190119Y-16614143D01*
X9209167Y-16623667D01*
X9218690Y-16642714D01*
X9218690Y-16747476D01*
X9313929Y-16747476D02*
X9313929Y-16614143D01*
X9313929Y-16633190D02*
X9323452Y-16623667D01*
X9342500Y-16614143D01*
X9371071Y-16614143D01*
X9390119Y-16623667D01*
X9399643Y-16642714D01*
X9399643Y-16747476D01*
X9399643Y-16642714D02*
X9409167Y-16623667D01*
X9428214Y-16614143D01*
X9456786Y-16614143D01*
X9475833Y-16623667D01*
X9485357Y-16642714D01*
X9485357Y-16747476D01*
X9875833Y-16537952D02*
X9704405Y-16795095D01*
X10132976Y-16547476D02*
X10152024Y-16547476D01*
X10171071Y-16557000D01*
X10180595Y-16566524D01*
X10190119Y-16585571D01*
X10199643Y-16623667D01*
X10199643Y-16671286D01*
X10190119Y-16709381D01*
X10180595Y-16728428D01*
X10171071Y-16737952D01*
X10152024Y-16747476D01*
X10132976Y-16747476D01*
X10113929Y-16737952D01*
X10104405Y-16728428D01*
X10094881Y-16709381D01*
X10085357Y-16671286D01*
X10085357Y-16623667D01*
X10094881Y-16585571D01*
X10104405Y-16566524D01*
X10113929Y-16557000D01*
X10132976Y-16547476D01*
X10285357Y-16728428D02*
X10294881Y-16737952D01*
X10285357Y-16747476D01*
X10275833Y-16737952D01*
X10285357Y-16728428D01*
X10285357Y-16747476D01*
X10418690Y-16547476D02*
X10437738Y-16547476D01*
X10456786Y-16557000D01*
X10466310Y-16566524D01*
X10475833Y-16585571D01*
X10485357Y-16623667D01*
X10485357Y-16671286D01*
X10475833Y-16709381D01*
X10466310Y-16728428D01*
X10456786Y-16737952D01*
X10437738Y-16747476D01*
X10418690Y-16747476D01*
X10399643Y-16737952D01*
X10390119Y-16728428D01*
X10380595Y-16709381D01*
X10371071Y-16671286D01*
X10371071Y-16623667D01*
X10380595Y-16585571D01*
X10390119Y-16566524D01*
X10399643Y-16557000D01*
X10418690Y-16547476D01*
X10561548Y-16566524D02*
X10571071Y-16557000D01*
X10590119Y-16547476D01*
X10637738Y-16547476D01*
X10656786Y-16557000D01*
X10666310Y-16566524D01*
X10675833Y-16585571D01*
X10675833Y-16604619D01*
X10666310Y-16633190D01*
X10552024Y-16747476D01*
X10675833Y-16747476D01*
X10742500Y-16547476D02*
X10866310Y-16547476D01*
X10799643Y-16623667D01*
X10828214Y-16623667D01*
X10847262Y-16633190D01*
X10856786Y-16642714D01*
X10866310Y-16661762D01*
X10866310Y-16709381D01*
X10856786Y-16728428D01*
X10847262Y-16737952D01*
X10828214Y-16747476D01*
X10771071Y-16747476D01*
X10752024Y-16737952D01*
X10742500Y-16728428D01*
X11037738Y-16547476D02*
X10999643Y-16547476D01*
X10980595Y-16557000D01*
X10971071Y-16566524D01*
X10952024Y-16595095D01*
X10942500Y-16633190D01*
X10942500Y-16709381D01*
X10952024Y-16728428D01*
X10961548Y-16737952D01*
X10980595Y-16747476D01*
X11018690Y-16747476D01*
X11037738Y-16737952D01*
X11047262Y-16728428D01*
X11056786Y-16709381D01*
X11056786Y-16661762D01*
X11047262Y-16642714D01*
X11037738Y-16633190D01*
X11018690Y-16623667D01*
X10980595Y-16623667D01*
X10961548Y-16633190D01*
X10952024Y-16642714D01*
X10942500Y-16661762D01*
X11132976Y-16547476D02*
X11132976Y-16585571D01*
X11209167Y-16547476D02*
X11209167Y-16585571D01*
X11504405Y-16823667D02*
X11494881Y-16814143D01*
X11475833Y-16785571D01*
X11466309Y-16766524D01*
X11456786Y-16737952D01*
X11447262Y-16690333D01*
X11447262Y-16652238D01*
X11456786Y-16604619D01*
X11466309Y-16576048D01*
X11475833Y-16557000D01*
X11494881Y-16528428D01*
X11504405Y-16518905D01*
X11618690Y-16547476D02*
X11637738Y-16547476D01*
X11656786Y-16557000D01*
X11666309Y-16566524D01*
X11675833Y-16585571D01*
X11685357Y-16623667D01*
X11685357Y-16671286D01*
X11675833Y-16709381D01*
X11666309Y-16728428D01*
X11656786Y-16737952D01*
X11637738Y-16747476D01*
X11618690Y-16747476D01*
X11599643Y-16737952D01*
X11590119Y-16728428D01*
X11580595Y-16709381D01*
X11571071Y-16671286D01*
X11571071Y-16623667D01*
X11580595Y-16585571D01*
X11590119Y-16566524D01*
X11599643Y-16557000D01*
X11618690Y-16547476D01*
X11923452Y-16747476D02*
X11923452Y-16547476D01*
X12009167Y-16747476D02*
X12009167Y-16642714D01*
X11999643Y-16623667D01*
X11980595Y-16614143D01*
X11952024Y-16614143D01*
X11932976Y-16623667D01*
X11923452Y-16633190D01*
X12132976Y-16747476D02*
X12113928Y-16737952D01*
X12104405Y-16728428D01*
X12094881Y-16709381D01*
X12094881Y-16652238D01*
X12104405Y-16633190D01*
X12113928Y-16623667D01*
X12132976Y-16614143D01*
X12161548Y-16614143D01*
X12180595Y-16623667D01*
X12190119Y-16633190D01*
X12199643Y-16652238D01*
X12199643Y-16709381D01*
X12190119Y-16728428D01*
X12180595Y-16737952D01*
X12161548Y-16747476D01*
X12132976Y-16747476D01*
X12313928Y-16747476D02*
X12294881Y-16737952D01*
X12285357Y-16718905D01*
X12285357Y-16547476D01*
X12466309Y-16737952D02*
X12447262Y-16747476D01*
X12409167Y-16747476D01*
X12390119Y-16737952D01*
X12380595Y-16718905D01*
X12380595Y-16642714D01*
X12390119Y-16623667D01*
X12409167Y-16614143D01*
X12447262Y-16614143D01*
X12466309Y-16623667D01*
X12475833Y-16642714D01*
X12475833Y-16661762D01*
X12380595Y-16680809D01*
X12552024Y-16737952D02*
X12571071Y-16747476D01*
X12609167Y-16747476D01*
X12628214Y-16737952D01*
X12637738Y-16718905D01*
X12637738Y-16709381D01*
X12628214Y-16690333D01*
X12609167Y-16680809D01*
X12580595Y-16680809D01*
X12561548Y-16671286D01*
X12552024Y-16652238D01*
X12552024Y-16642714D01*
X12561548Y-16623667D01*
X12580595Y-16614143D01*
X12609167Y-16614143D01*
X12628214Y-16623667D01*
X12875833Y-16671286D02*
X13028214Y-16671286D01*
X12952024Y-16747476D02*
X12952024Y-16595095D01*
X13361548Y-16614143D02*
X13361548Y-16747476D01*
X13313928Y-16537952D02*
X13266309Y-16680809D01*
X13390119Y-16680809D01*
X13609167Y-16737952D02*
X13628214Y-16747476D01*
X13666309Y-16747476D01*
X13685357Y-16737952D01*
X13694881Y-16718905D01*
X13694881Y-16709381D01*
X13685357Y-16690333D01*
X13666309Y-16680809D01*
X13637738Y-16680809D01*
X13618690Y-16671286D01*
X13609167Y-16652238D01*
X13609167Y-16642714D01*
X13618690Y-16623667D01*
X13637738Y-16614143D01*
X13666309Y-16614143D01*
X13685357Y-16623667D01*
X13809167Y-16747476D02*
X13790119Y-16737952D01*
X13780595Y-16718905D01*
X13780595Y-16547476D01*
X13913928Y-16747476D02*
X13894881Y-16737952D01*
X13885357Y-16728428D01*
X13875833Y-16709381D01*
X13875833Y-16652238D01*
X13885357Y-16633190D01*
X13894881Y-16623667D01*
X13913928Y-16614143D01*
X13942500Y-16614143D01*
X13961548Y-16623667D01*
X13971071Y-16633190D01*
X13980595Y-16652238D01*
X13980595Y-16709381D01*
X13971071Y-16728428D01*
X13961548Y-16737952D01*
X13942500Y-16747476D01*
X13913928Y-16747476D01*
X14037738Y-16614143D02*
X14113928Y-16614143D01*
X14066309Y-16547476D02*
X14066309Y-16718905D01*
X14075833Y-16737952D01*
X14094881Y-16747476D01*
X14113928Y-16747476D01*
X14171071Y-16737952D02*
X14190119Y-16747476D01*
X14228214Y-16747476D01*
X14247262Y-16737952D01*
X14256786Y-16718905D01*
X14256786Y-16709381D01*
X14247262Y-16690333D01*
X14228214Y-16680809D01*
X14199643Y-16680809D01*
X14180595Y-16671286D01*
X14171071Y-16652238D01*
X14171071Y-16642714D01*
X14180595Y-16623667D01*
X14199643Y-16614143D01*
X14228214Y-16614143D01*
X14247262Y-16623667D01*
X14323452Y-16823667D02*
X14332976Y-16814143D01*
X14352024Y-16785571D01*
X14361548Y-16766524D01*
X14371071Y-16737952D01*
X14380595Y-16690333D01*
X14380595Y-16652238D01*
X14371071Y-16604619D01*
X14361548Y-16576048D01*
X14352024Y-16557000D01*
X14332976Y-16528428D01*
X14323452Y-16518905D01*
D10*
X7882500Y-16871000D02*
X7882500Y-16971000D01*
X7832500Y-16921000D02*
X7932500Y-16921000D01*
D11*
X8294881Y-17011476D02*
X8180595Y-17011476D01*
X8237738Y-17011476D02*
X8237738Y-16811476D01*
X8218690Y-16840048D01*
X8199643Y-16859095D01*
X8180595Y-16868619D01*
X8380595Y-16992429D02*
X8390119Y-17001952D01*
X8380595Y-17011476D01*
X8371071Y-17001952D01*
X8380595Y-16992429D01*
X8380595Y-17011476D01*
X8513929Y-16811476D02*
X8532976Y-16811476D01*
X8552024Y-16821000D01*
X8561548Y-16830524D01*
X8571071Y-16849571D01*
X8580595Y-16887667D01*
X8580595Y-16935286D01*
X8571071Y-16973381D01*
X8561548Y-16992429D01*
X8552024Y-17001952D01*
X8532976Y-17011476D01*
X8513929Y-17011476D01*
X8494881Y-17001952D01*
X8485357Y-16992429D01*
X8475833Y-16973381D01*
X8466310Y-16935286D01*
X8466310Y-16887667D01*
X8475833Y-16849571D01*
X8485357Y-16830524D01*
X8494881Y-16821000D01*
X8513929Y-16811476D01*
X8704405Y-16811476D02*
X8723452Y-16811476D01*
X8742500Y-16821000D01*
X8752024Y-16830524D01*
X8761548Y-16849571D01*
X8771071Y-16887667D01*
X8771071Y-16935286D01*
X8761548Y-16973381D01*
X8752024Y-16992429D01*
X8742500Y-17001952D01*
X8723452Y-17011476D01*
X8704405Y-17011476D01*
X8685357Y-17001952D01*
X8675833Y-16992429D01*
X8666310Y-16973381D01*
X8656786Y-16935286D01*
X8656786Y-16887667D01*
X8666310Y-16849571D01*
X8675833Y-16830524D01*
X8685357Y-16821000D01*
X8704405Y-16811476D01*
X8894881Y-16811476D02*
X8913929Y-16811476D01*
X8932976Y-16821000D01*
X8942500Y-16830524D01*
X8952024Y-16849571D01*
X8961548Y-16887667D01*
X8961548Y-16935286D01*
X8952024Y-16973381D01*
X8942500Y-16992429D01*
X8932976Y-17001952D01*
X8913929Y-17011476D01*
X8894881Y-17011476D01*
X8875833Y-17001952D01*
X8866310Y-16992429D01*
X8856786Y-16973381D01*
X8847262Y-16935286D01*
X8847262Y-16887667D01*
X8856786Y-16849571D01*
X8866310Y-16830524D01*
X8875833Y-16821000D01*
X8894881Y-16811476D01*
X9047262Y-17011476D02*
X9047262Y-16878143D01*
X9047262Y-16897190D02*
X9056786Y-16887667D01*
X9075833Y-16878143D01*
X9104405Y-16878143D01*
X9123452Y-16887667D01*
X9132976Y-16906714D01*
X9132976Y-17011476D01*
X9132976Y-16906714D02*
X9142500Y-16887667D01*
X9161548Y-16878143D01*
X9190119Y-16878143D01*
X9209167Y-16887667D01*
X9218690Y-16906714D01*
X9218690Y-17011476D01*
X9313929Y-17011476D02*
X9313929Y-16878143D01*
X9313929Y-16897190D02*
X9323452Y-16887667D01*
X9342500Y-16878143D01*
X9371071Y-16878143D01*
X9390119Y-16887667D01*
X9399643Y-16906714D01*
X9399643Y-17011476D01*
X9399643Y-16906714D02*
X9409167Y-16887667D01*
X9428214Y-16878143D01*
X9456786Y-16878143D01*
X9475833Y-16887667D01*
X9485357Y-16906714D01*
X9485357Y-17011476D01*
X9875833Y-16801952D02*
X9704405Y-17059095D01*
X10132976Y-16811476D02*
X10152024Y-16811476D01*
X10171071Y-16821000D01*
X10180595Y-16830524D01*
X10190119Y-16849571D01*
X10199643Y-16887667D01*
X10199643Y-16935286D01*
X10190119Y-16973381D01*
X10180595Y-16992429D01*
X10171071Y-17001952D01*
X10152024Y-17011476D01*
X10132976Y-17011476D01*
X10113929Y-17001952D01*
X10104405Y-16992429D01*
X10094881Y-16973381D01*
X10085357Y-16935286D01*
X10085357Y-16887667D01*
X10094881Y-16849571D01*
X10104405Y-16830524D01*
X10113929Y-16821000D01*
X10132976Y-16811476D01*
X10285357Y-16992429D02*
X10294881Y-17001952D01*
X10285357Y-17011476D01*
X10275833Y-17001952D01*
X10285357Y-16992429D01*
X10285357Y-17011476D01*
X10418690Y-16811476D02*
X10437738Y-16811476D01*
X10456786Y-16821000D01*
X10466310Y-16830524D01*
X10475833Y-16849571D01*
X10485357Y-16887667D01*
X10485357Y-16935286D01*
X10475833Y-16973381D01*
X10466310Y-16992429D01*
X10456786Y-17001952D01*
X10437738Y-17011476D01*
X10418690Y-17011476D01*
X10399643Y-17001952D01*
X10390119Y-16992429D01*
X10380595Y-16973381D01*
X10371071Y-16935286D01*
X10371071Y-16887667D01*
X10380595Y-16849571D01*
X10390119Y-16830524D01*
X10399643Y-16821000D01*
X10418690Y-16811476D01*
X10552024Y-16811476D02*
X10675833Y-16811476D01*
X10609167Y-16887667D01*
X10637738Y-16887667D01*
X10656786Y-16897190D01*
X10666310Y-16906714D01*
X10675833Y-16925762D01*
X10675833Y-16973381D01*
X10666310Y-16992429D01*
X10656786Y-17001952D01*
X10637738Y-17011476D01*
X10580595Y-17011476D01*
X10561548Y-17001952D01*
X10552024Y-16992429D01*
X10771071Y-17011476D02*
X10809167Y-17011476D01*
X10828214Y-17001952D01*
X10837738Y-16992429D01*
X10856786Y-16963857D01*
X10866310Y-16925762D01*
X10866310Y-16849571D01*
X10856786Y-16830524D01*
X10847262Y-16821000D01*
X10828214Y-16811476D01*
X10790119Y-16811476D01*
X10771071Y-16821000D01*
X10761548Y-16830524D01*
X10752024Y-16849571D01*
X10752024Y-16897190D01*
X10761548Y-16916238D01*
X10771071Y-16925762D01*
X10790119Y-16935286D01*
X10828214Y-16935286D01*
X10847262Y-16925762D01*
X10856786Y-16916238D01*
X10866310Y-16897190D01*
X11037738Y-16878143D02*
X11037738Y-17011476D01*
X10990119Y-16801952D02*
X10942500Y-16944810D01*
X11066310Y-16944810D01*
X11132976Y-16811476D02*
X11132976Y-16849571D01*
X11209167Y-16811476D02*
X11209167Y-16849571D01*
X11504405Y-17087667D02*
X11494881Y-17078143D01*
X11475833Y-17049571D01*
X11466309Y-17030524D01*
X11456786Y-17001952D01*
X11447262Y-16954333D01*
X11447262Y-16916238D01*
X11456786Y-16868619D01*
X11466309Y-16840048D01*
X11475833Y-16821000D01*
X11494881Y-16792429D01*
X11504405Y-16782905D01*
X11666309Y-16878143D02*
X11666309Y-17011476D01*
X11618690Y-16801952D02*
X11571071Y-16944810D01*
X11694881Y-16944810D01*
X11809167Y-16811476D02*
X11828214Y-16811476D01*
X11847262Y-16821000D01*
X11856786Y-16830524D01*
X11866309Y-16849571D01*
X11875833Y-16887667D01*
X11875833Y-16935286D01*
X11866309Y-16973381D01*
X11856786Y-16992429D01*
X11847262Y-17001952D01*
X11828214Y-17011476D01*
X11809167Y-17011476D01*
X11790119Y-17001952D01*
X11780595Y-16992429D01*
X11771071Y-16973381D01*
X11761548Y-16935286D01*
X11761548Y-16887667D01*
X11771071Y-16849571D01*
X11780595Y-16830524D01*
X11790119Y-16821000D01*
X11809167Y-16811476D01*
X12113928Y-17011476D02*
X12113928Y-16811476D01*
X12199643Y-17011476D02*
X12199643Y-16906714D01*
X12190119Y-16887667D01*
X12171071Y-16878143D01*
X12142500Y-16878143D01*
X12123452Y-16887667D01*
X12113928Y-16897190D01*
X12323452Y-17011476D02*
X12304405Y-17001952D01*
X12294881Y-16992429D01*
X12285357Y-16973381D01*
X12285357Y-16916238D01*
X12294881Y-16897190D01*
X12304405Y-16887667D01*
X12323452Y-16878143D01*
X12352024Y-16878143D01*
X12371071Y-16887667D01*
X12380595Y-16897190D01*
X12390119Y-16916238D01*
X12390119Y-16973381D01*
X12380595Y-16992429D01*
X12371071Y-17001952D01*
X12352024Y-17011476D01*
X12323452Y-17011476D01*
X12504405Y-17011476D02*
X12485357Y-17001952D01*
X12475833Y-16982905D01*
X12475833Y-16811476D01*
X12656786Y-17001952D02*
X12637738Y-17011476D01*
X12599643Y-17011476D01*
X12580595Y-17001952D01*
X12571071Y-16982905D01*
X12571071Y-16906714D01*
X12580595Y-16887667D01*
X12599643Y-16878143D01*
X12637738Y-16878143D01*
X12656786Y-16887667D01*
X12666309Y-16906714D01*
X12666309Y-16925762D01*
X12571071Y-16944810D01*
X12742500Y-17001952D02*
X12761548Y-17011476D01*
X12799643Y-17011476D01*
X12818690Y-17001952D01*
X12828214Y-16982905D01*
X12828214Y-16973381D01*
X12818690Y-16954333D01*
X12799643Y-16944810D01*
X12771071Y-16944810D01*
X12752024Y-16935286D01*
X12742500Y-16916238D01*
X12742500Y-16906714D01*
X12752024Y-16887667D01*
X12771071Y-16878143D01*
X12799643Y-16878143D01*
X12818690Y-16887667D01*
X12894881Y-17087667D02*
X12904405Y-17078143D01*
X12923452Y-17049571D01*
X12932976Y-17030524D01*
X12942500Y-17001952D01*
X12952024Y-16954333D01*
X12952024Y-16916238D01*
X12942500Y-16868619D01*
X12932976Y-16840048D01*
X12923452Y-16821000D01*
X12904405Y-16792429D01*
X12894881Y-16782905D01*
M02*
