M48
; DRILL file {KiCad (6.0.9-0)} date 2022 December 21, Wednesday 10:03:46
; FORMAT={-:-/ absolute / metric / decimal}
; #@! TF.CreationDate,2022-12-21T10:03:46+01:00
; #@! TF.GenerationSoftware,Kicad,Pcbnew,(6.0.9-0)
; #@! TF.FileFunction,Plated,1,4,PTH
FMAT,2
METRIC
; #@! TA.AperFunction,Plated,PTH,ViaDrill
T1C0.250
; #@! TA.AperFunction,Plated,PTH,ComponentDrill
T2C0.600
; #@! TA.AperFunction,Plated,PTH,ComponentDrill
T3C1.000
%
G90
G05
T1
X80.125Y-151.0
X80.388Y-105.277
X80.425Y-103.6
X80.725Y-100.2
X80.9Y-130.2
X80.925Y-117.6
X80.925Y-132.6
X81.125Y-121.1
X81.125Y-146.4
X81.825Y-147.5
X82.025Y-117.5
X82.025Y-142.1
X82.075Y-123.35
X82.725Y-149.4
X82.825Y-125.5
X83.025Y-129.6
X83.275Y-132.35
X83.425Y-124.9
X83.525Y-98.1
X83.625Y-100.8
X83.625Y-151.1
X83.725Y-133.8
X83.825Y-128.9
X83.925Y-148.0
X83.925Y-153.6
X84.025Y-117.8
X84.225Y-124.1
X84.225Y-127.428
X84.525Y-124.8
X84.725Y-129.0
X84.825Y-109.8
X84.825Y-111.4
X84.925Y-112.6
X85.225Y-124.3
X85.325Y-120.5
X85.425Y-128.3
X85.509Y-129.1
X85.525Y-110.6
X85.725Y-99.3
X85.725Y-112.0
X85.725Y-121.4
X85.825Y-113.0
X85.925Y-126.9
X86.187Y-120.712
X86.425Y-106.4
X86.425Y-119.7
X86.625Y-132.975
X86.725Y-110.0
X86.725Y-112.0
X86.725Y-126.1
X86.725Y-126.9
X86.904Y-120.494
X86.925Y-149.9
X87.025Y-118.4
X87.525Y-126.9
X87.625Y-109.3
X87.625Y-138.5
X87.725Y-111.0
X87.725Y-112.9
X87.725Y-120.5
X87.825Y-98.2
X88.025Y-100.9
X88.425Y-120.1
X88.425Y-126.1
X88.725Y-110.0
X88.725Y-112.0
X89.225Y-118.6
X89.225Y-122.5
X90.125Y-106.6
X90.125Y-135.5
X90.225Y-149.0
X90.325Y-122.4
X90.525Y-151.1
X90.725Y-153.2
X90.825Y-100.2
X90.825Y-146.3
X91.225Y-139.6
X92.925Y-134.0
X117.425Y-127.0
X122.625Y-127.0
X127.525Y-127.0
X133.625Y-127.1
T3
X83.17Y-140.965
X83.17Y-143.505
X85.71Y-140.965
X85.71Y-143.505
X88.25Y-140.965
X88.25Y-143.505
X95.885Y-121.92
X95.885Y-132.08
X98.425Y-121.92
X98.425Y-132.08
X100.965Y-121.92
X100.965Y-132.08
X103.505Y-121.92
X103.505Y-132.08
X106.045Y-121.92
X106.045Y-132.08
X108.585Y-121.92
X108.585Y-132.08
X111.125Y-121.92
X111.125Y-132.08
X113.665Y-121.92
X113.665Y-132.08
X116.205Y-121.92
X116.205Y-132.08
X118.745Y-121.92
X118.745Y-132.08
X121.285Y-121.92
X121.285Y-132.08
X123.825Y-121.92
X123.825Y-132.08
X126.365Y-121.92
X126.365Y-132.08
X128.905Y-121.92
X128.905Y-132.08
X131.445Y-121.92
X131.445Y-132.08
X133.985Y-121.92
X133.985Y-132.08
X136.525Y-121.92
X136.525Y-132.08
T2
X81.405Y-98.627G85X81.405Y-98.027
G05
X81.405Y-103.057G85X81.405Y-101.957
G05
X90.045Y-98.627G85X90.045Y-98.027
G05
X90.045Y-103.057G85X90.045Y-101.957
G05
T0
M30
