%TF.GenerationSoftware,KiCad,Pcbnew,(6.0.9-0)*%
%TF.CreationDate,2022-12-21T10:02:25+01:00*%
%TF.ProjectId,BluerPill,426c7565-7250-4696-9c6c-2e6b69636164,rev?*%
%TF.SameCoordinates,Original*%
%TF.FileFunction,Copper,L1,Top*%
%TF.FilePolarity,Positive*%
%FSLAX46Y46*%
G04 Gerber Fmt 4.6, Leading zero omitted, Abs format (unit mm)*
G04 Created by KiCad (PCBNEW (6.0.9-0)) date 2022-12-21 10:02:25*
%MOMM*%
%LPD*%
G01*
G04 APERTURE LIST*
G04 Aperture macros list*
%AMRoundRect*
0 Rectangle with rounded corners*
0 $1 Rounding radius*
0 $2 $3 $4 $5 $6 $7 $8 $9 X,Y pos of 4 corners*
0 Add a 4 corners polygon primitive as box body*
4,1,4,$2,$3,$4,$5,$6,$7,$8,$9,$2,$3,0*
0 Add four circle primitives for the rounded corners*
1,1,$1+$1,$2,$3*
1,1,$1+$1,$4,$5*
1,1,$1+$1,$6,$7*
1,1,$1+$1,$8,$9*
0 Add four rect primitives between the rounded corners*
20,1,$1+$1,$2,$3,$4,$5,0*
20,1,$1+$1,$4,$5,$6,$7,0*
20,1,$1+$1,$6,$7,$8,$9,0*
20,1,$1+$1,$8,$9,$2,$3,0*%
G04 Aperture macros list end*
%TA.AperFunction,SMDPad,CuDef*%
%ADD10RoundRect,0.225000X-0.225000X-0.250000X0.225000X-0.250000X0.225000X0.250000X-0.225000X0.250000X0*%
%TD*%
%TA.AperFunction,SMDPad,CuDef*%
%ADD11R,0.900000X1.700000*%
%TD*%
%TA.AperFunction,SMDPad,CuDef*%
%ADD12RoundRect,0.135000X-0.135000X-0.185000X0.135000X-0.185000X0.135000X0.185000X-0.135000X0.185000X0*%
%TD*%
%TA.AperFunction,SMDPad,CuDef*%
%ADD13R,0.600000X1.450000*%
%TD*%
%TA.AperFunction,SMDPad,CuDef*%
%ADD14R,0.300000X1.450000*%
%TD*%
%TA.AperFunction,ComponentPad*%
%ADD15O,1.000000X1.600000*%
%TD*%
%TA.AperFunction,ComponentPad*%
%ADD16O,1.000000X2.100000*%
%TD*%
%TA.AperFunction,SMDPad,CuDef*%
%ADD17RoundRect,0.218750X-0.218750X-0.256250X0.218750X-0.256250X0.218750X0.256250X-0.218750X0.256250X0*%
%TD*%
%TA.AperFunction,SMDPad,CuDef*%
%ADD18RoundRect,0.140000X-0.140000X-0.170000X0.140000X-0.170000X0.140000X0.170000X-0.140000X0.170000X0*%
%TD*%
%TA.AperFunction,SMDPad,CuDef*%
%ADD19RoundRect,0.135000X0.135000X0.185000X-0.135000X0.185000X-0.135000X-0.185000X0.135000X-0.185000X0*%
%TD*%
%TA.AperFunction,SMDPad,CuDef*%
%ADD20RoundRect,0.218750X-0.256250X0.218750X-0.256250X-0.218750X0.256250X-0.218750X0.256250X0.218750X0*%
%TD*%
%TA.AperFunction,SMDPad,CuDef*%
%ADD21RoundRect,0.140000X0.140000X0.170000X-0.140000X0.170000X-0.140000X-0.170000X0.140000X-0.170000X0*%
%TD*%
%TA.AperFunction,SMDPad,CuDef*%
%ADD22RoundRect,0.140000X-0.170000X0.140000X-0.170000X-0.140000X0.170000X-0.140000X0.170000X0.140000X0*%
%TD*%
%TA.AperFunction,SMDPad,CuDef*%
%ADD23R,1.500000X2.000000*%
%TD*%
%TA.AperFunction,SMDPad,CuDef*%
%ADD24R,3.800000X2.000000*%
%TD*%
%TA.AperFunction,SMDPad,CuDef*%
%ADD25RoundRect,0.250000X0.475000X-0.250000X0.475000X0.250000X-0.475000X0.250000X-0.475000X-0.250000X0*%
%TD*%
%TA.AperFunction,SMDPad,CuDef*%
%ADD26R,1.400000X1.200000*%
%TD*%
%TA.AperFunction,ComponentPad*%
%ADD27R,1.700000X1.700000*%
%TD*%
%TA.AperFunction,ComponentPad*%
%ADD28O,1.700000X1.700000*%
%TD*%
%TA.AperFunction,SMDPad,CuDef*%
%ADD29RoundRect,0.075000X0.075000X-0.662500X0.075000X0.662500X-0.075000X0.662500X-0.075000X-0.662500X0*%
%TD*%
%TA.AperFunction,SMDPad,CuDef*%
%ADD30RoundRect,0.075000X0.662500X-0.075000X0.662500X0.075000X-0.662500X0.075000X-0.662500X-0.075000X0*%
%TD*%
%TA.AperFunction,SMDPad,CuDef*%
%ADD31RoundRect,0.250000X-0.475000X0.337500X-0.475000X-0.337500X0.475000X-0.337500X0.475000X0.337500X0*%
%TD*%
%TA.AperFunction,ViaPad*%
%ADD32C,0.550000*%
%TD*%
%TA.AperFunction,Conductor*%
%ADD33C,0.500000*%
%TD*%
%TA.AperFunction,Conductor*%
%ADD34C,0.300000*%
%TD*%
%TA.AperFunction,Conductor*%
%ADD35C,0.261112*%
%TD*%
G04 APERTURE END LIST*
D10*
%TO.P,C7,1*%
%TO.N,+3.3V*%
X88918750Y-136421250D03*
%TO.P,C7,2*%
%TO.N,GND*%
X90468750Y-136421250D03*
%TD*%
D11*
%TO.P,SW2,1,1*%
%TO.N,GND*%
X90917500Y-154940000D03*
%TO.P,SW2,2,2*%
%TO.N,nRST*%
X87517500Y-154940000D03*
%TD*%
D12*
%TO.P,R3,1*%
%TO.N,/USB_CC1*%
X88390000Y-106362500D03*
%TO.P,R3,2*%
%TO.N,GND*%
X89410000Y-106362500D03*
%TD*%
D11*
%TO.P,SW1,1,1*%
%TO.N,BOOT0*%
X80532500Y-154940000D03*
%TO.P,SW1,2,2*%
%TO.N,+3.3V*%
X83932500Y-154940000D03*
%TD*%
D13*
%TO.P,J3,A1,GND*%
%TO.N,GND*%
X88975000Y-103422500D03*
%TO.P,J3,A4,VBUS*%
%TO.N,VBUS*%
X88175000Y-103422500D03*
D14*
%TO.P,J3,A5,CC1*%
%TO.N,/USB_CC1*%
X86975000Y-103422500D03*
%TO.P,J3,A6,D+*%
%TO.N,USB_D+*%
X85975000Y-103422500D03*
%TO.P,J3,A7,D-*%
%TO.N,USB_D-*%
X85475000Y-103422500D03*
%TO.P,J3,A8,SBU1*%
%TO.N,unconnected-(J3-PadA8)*%
X84475000Y-103422500D03*
D13*
%TO.P,J3,A9,VBUS*%
%TO.N,VBUS*%
X83275000Y-103422500D03*
%TO.P,J3,A12,GND*%
%TO.N,GND*%
X82475000Y-103422500D03*
%TO.P,J3,B1,GND*%
X82475000Y-103422500D03*
%TO.P,J3,B4,VBUS*%
%TO.N,VBUS*%
X83275000Y-103422500D03*
D14*
%TO.P,J3,B5,CC2*%
%TO.N,/USB_CC2*%
X83975000Y-103422500D03*
%TO.P,J3,B6,D+*%
%TO.N,USB_D+*%
X84975000Y-103422500D03*
%TO.P,J3,B7,D-*%
%TO.N,USB_D-*%
X86475000Y-103422500D03*
%TO.P,J3,B8,SBU2*%
%TO.N,unconnected-(J3-PadB8)*%
X87475000Y-103422500D03*
D13*
%TO.P,J3,B9,VBUS*%
%TO.N,VBUS*%
X88175000Y-103422500D03*
%TO.P,J3,B12,GND*%
%TO.N,GND*%
X88975000Y-103422500D03*
D15*
%TO.P,J3,S1,SHIELD*%
%TO.N,unconnected-(J3-PadS1)*%
X90045000Y-98327500D03*
D16*
X90045000Y-102507500D03*
X81405000Y-102507500D03*
D15*
X81405000Y-98327500D03*
%TD*%
D12*
%TO.P,R5,1*%
%TO.N,/PWLED*%
X85177500Y-118210000D03*
%TO.P,R5,2*%
%TO.N,GND*%
X86197500Y-118210000D03*
%TD*%
D17*
%TO.P,D1,1,K*%
%TO.N,/PWLED*%
X84900000Y-116622500D03*
%TO.P,D1,2,A*%
%TO.N,+3.3V*%
X86475000Y-116622500D03*
%TD*%
D18*
%TO.P,C4,1*%
%TO.N,+3.3V*%
X81105000Y-131230000D03*
%TO.P,C4,2*%
%TO.N,GND*%
X82065000Y-131230000D03*
%TD*%
D12*
%TO.P,R6,1*%
%TO.N,/C13LED*%
X85215000Y-148590000D03*
%TO.P,R6,2*%
%TO.N,PC13*%
X86235000Y-148590000D03*
%TD*%
D19*
%TO.P,R1,1*%
%TO.N,GND*%
X82742500Y-148590000D03*
%TO.P,R1,2*%
%TO.N,BOOT0*%
X81722500Y-148590000D03*
%TD*%
D20*
%TO.P,D2,1,K*%
%TO.N,/C13LED*%
X85725000Y-154152500D03*
%TO.P,D2,2,A*%
%TO.N,+3.3V*%
X85725000Y-155727500D03*
%TD*%
D18*
%TO.P,C9,1*%
%TO.N,/HSE_IN*%
X82225000Y-133667500D03*
%TO.P,C9,2*%
%TO.N,GND*%
X83185000Y-133667500D03*
%TD*%
%TO.P,C8,1*%
%TO.N,nRST*%
X88737500Y-148590000D03*
%TO.P,C8,2*%
%TO.N,GND*%
X89697500Y-148590000D03*
%TD*%
%TO.P,C2,1*%
%TO.N,+3.3V*%
X90007500Y-123190000D03*
%TO.P,C2,2*%
%TO.N,GND*%
X90967500Y-123190000D03*
%TD*%
D21*
%TO.P,C5,1*%
%TO.N,+3.3VA*%
X87633750Y-133667500D03*
%TO.P,C5,2*%
%TO.N,GND*%
X86673750Y-133667500D03*
%TD*%
D22*
%TO.P,C3,1*%
%TO.N,+3.3V*%
X81915000Y-121757500D03*
%TO.P,C3,2*%
%TO.N,GND*%
X81915000Y-122717500D03*
%TD*%
D23*
%TO.P,U2,1,GND*%
%TO.N,GND*%
X85610000Y-114400000D03*
%TO.P,U2,2,VO*%
%TO.N,+3.3V*%
X87910000Y-114400000D03*
D24*
X87910000Y-108100000D03*
D23*
%TO.P,U2,3,VI*%
%TO.N,VBUS*%
X90210000Y-114400000D03*
%TD*%
D25*
%TO.P,C1,1*%
%TO.N,+3.3V*%
X80962500Y-120330000D03*
%TO.P,C1,2*%
%TO.N,GND*%
X80962500Y-118430000D03*
%TD*%
D12*
%TO.P,R2,1*%
%TO.N,+3.3V*%
X82992500Y-121285000D03*
%TO.P,R2,2*%
%TO.N,USB_D+*%
X84012500Y-121285000D03*
%TD*%
D26*
%TO.P,Y1,1,1*%
%TO.N,/HSE_OUT*%
X84920000Y-135040000D03*
%TO.P,Y1,2,2*%
%TO.N,GND*%
X82720000Y-135040000D03*
%TO.P,Y1,3,3*%
%TO.N,/HSE_IN*%
X82720000Y-136740000D03*
%TO.P,Y1,4,4*%
%TO.N,GND*%
X84920000Y-136740000D03*
%TD*%
D19*
%TO.P,R4,1*%
%TO.N,/USB_CC2*%
X83060000Y-105277500D03*
%TO.P,R4,2*%
%TO.N,GND*%
X82040000Y-105277500D03*
%TD*%
D20*
%TO.P,FB1,1*%
%TO.N,+3.3VA*%
X87312500Y-134998750D03*
%TO.P,FB1,2*%
%TO.N,+3.3V*%
X87312500Y-136573750D03*
%TD*%
D27*
%TO.P,J4,1,Pin_1*%
%TO.N,+3.3V*%
X88250000Y-140965000D03*
D28*
%TO.P,J4,2,Pin_2*%
%TO.N,SWDIO*%
X88250000Y-143505000D03*
%TO.P,J4,3,Pin_3*%
%TO.N,nRST*%
X85710000Y-140965000D03*
%TO.P,J4,4,Pin_4*%
%TO.N,SWCLK*%
X85710000Y-143505000D03*
%TO.P,J4,5,Pin_5*%
%TO.N,GND*%
X83170000Y-140965000D03*
%TO.P,J4,6,Pin_6*%
%TO.N,SWO*%
X83170000Y-143505000D03*
%TD*%
D29*
%TO.P,U1,1,VBAT*%
%TO.N,+3.3V*%
X82975000Y-131162500D03*
%TO.P,U1,2,PC13*%
%TO.N,PC13*%
X83475000Y-131162500D03*
%TO.P,U1,3,PC14*%
%TO.N,PC14*%
X83975000Y-131162500D03*
%TO.P,U1,4,PC15*%
%TO.N,PC15*%
X84475000Y-131162500D03*
%TO.P,U1,5,PD0*%
%TO.N,/HSE_IN*%
X84975000Y-131162500D03*
%TO.P,U1,6,PD1*%
%TO.N,/HSE_OUT*%
X85475000Y-131162500D03*
%TO.P,U1,7,NRST*%
%TO.N,nRST*%
X85975000Y-131162500D03*
%TO.P,U1,8,VSSA*%
%TO.N,GND*%
X86475000Y-131162500D03*
%TO.P,U1,9,VDDA*%
%TO.N,+3.3VA*%
X86975000Y-131162500D03*
%TO.P,U1,10,PA0*%
%TO.N,PA0*%
X87475000Y-131162500D03*
%TO.P,U1,11,PA1*%
%TO.N,PA1*%
X87975000Y-131162500D03*
%TO.P,U1,12,PA2*%
%TO.N,PA2*%
X88475000Y-131162500D03*
D30*
%TO.P,U1,13,PA3*%
%TO.N,PA3*%
X89887500Y-129750000D03*
%TO.P,U1,14,PA4*%
%TO.N,PA4*%
X89887500Y-129250000D03*
%TO.P,U1,15,PA5*%
%TO.N,PA5*%
X89887500Y-128750000D03*
%TO.P,U1,16,PA6*%
%TO.N,PA6*%
X89887500Y-128250000D03*
%TO.P,U1,17,PA7*%
%TO.N,PA7*%
X89887500Y-127750000D03*
%TO.P,U1,18,PB0*%
%TO.N,PB0*%
X89887500Y-127250000D03*
%TO.P,U1,19,PB1*%
%TO.N,PB1*%
X89887500Y-126750000D03*
%TO.P,U1,20,PB2*%
%TO.N,unconnected-(U1-Pad20)*%
X89887500Y-126250000D03*
%TO.P,U1,21,PB10*%
%TO.N,PB10*%
X89887500Y-125750000D03*
%TO.P,U1,22,PB11*%
%TO.N,PB11*%
X89887500Y-125250000D03*
%TO.P,U1,23,VSS*%
%TO.N,GND*%
X89887500Y-124750000D03*
%TO.P,U1,24,VDD*%
%TO.N,+3.3V*%
X89887500Y-124250000D03*
D29*
%TO.P,U1,25,PB12*%
%TO.N,PB12*%
X88475000Y-122837500D03*
%TO.P,U1,26,PB13*%
%TO.N,PB13*%
X87975000Y-122837500D03*
%TO.P,U1,27,PB14*%
%TO.N,PB14*%
X87475000Y-122837500D03*
%TO.P,U1,28,PB15*%
%TO.N,PB15*%
X86975000Y-122837500D03*
%TO.P,U1,29,PA8*%
%TO.N,PA8*%
X86475000Y-122837500D03*
%TO.P,U1,30,PA9*%
%TO.N,PA9*%
X85975000Y-122837500D03*
%TO.P,U1,31,PA10*%
%TO.N,PA10*%
X85475000Y-122837500D03*
%TO.P,U1,32,PA11*%
%TO.N,USB_D-*%
X84975000Y-122837500D03*
%TO.P,U1,33,PA12*%
%TO.N,USB_D+*%
X84475000Y-122837500D03*
%TO.P,U1,34,PA13*%
%TO.N,SWDIO*%
X83975000Y-122837500D03*
%TO.P,U1,35,VSS*%
%TO.N,GND*%
X83475000Y-122837500D03*
%TO.P,U1,36,VDD*%
%TO.N,+3.3V*%
X82975000Y-122837500D03*
D30*
%TO.P,U1,37,PA14*%
%TO.N,SWCLK*%
X81562500Y-124250000D03*
%TO.P,U1,38,PA15*%
%TO.N,PA15*%
X81562500Y-124750000D03*
%TO.P,U1,39,PB3*%
%TO.N,SWO*%
X81562500Y-125250000D03*
%TO.P,U1,40,PB4*%
%TO.N,PB4*%
X81562500Y-125750000D03*
%TO.P,U1,41,PB5*%
%TO.N,PB5*%
X81562500Y-126250000D03*
%TO.P,U1,42,PB6*%
%TO.N,PB6*%
X81562500Y-126750000D03*
%TO.P,U1,43,PB7*%
%TO.N,PB7*%
X81562500Y-127250000D03*
%TO.P,U1,44,BOOT0*%
%TO.N,BOOT0*%
X81562500Y-127750000D03*
%TO.P,U1,45,PB8*%
%TO.N,PB8*%
X81562500Y-128250000D03*
%TO.P,U1,46,PB9*%
%TO.N,PB9*%
X81562500Y-128750000D03*
%TO.P,U1,47,VSS*%
%TO.N,GND*%
X81562500Y-129250000D03*
%TO.P,U1,48,VDD*%
%TO.N,+3.3V*%
X81562500Y-129750000D03*
%TD*%
D10*
%TO.P,C6,1*%
%TO.N,+3.3VA*%
X88918750Y-134675000D03*
%TO.P,C6,2*%
%TO.N,GND*%
X90468750Y-134675000D03*
%TD*%
D21*
%TO.P,C10,1*%
%TO.N,/HSE_OUT*%
X85252500Y-133667500D03*
%TO.P,C10,2*%
%TO.N,GND*%
X84292500Y-133667500D03*
%TD*%
D31*
%TO.P,C12,1*%
%TO.N,+3.3V*%
X88227500Y-116537500D03*
%TO.P,C12,2*%
%TO.N,GND*%
X88227500Y-118612500D03*
%TD*%
%TO.P,C11,1*%
%TO.N,VBUS*%
X90450000Y-116537500D03*
%TO.P,C11,2*%
%TO.N,GND*%
X90450000Y-118612500D03*
%TD*%
D27*
%TO.P,J1,1,Pin_1*%
%TO.N,+3.3V*%
X95885000Y-121920000D03*
D28*
%TO.P,J1,2,Pin_2*%
%TO.N,GND*%
X98425000Y-121920000D03*
%TO.P,J1,3,Pin_3*%
%TO.N,VBUS*%
X100965000Y-121920000D03*
%TO.P,J1,4,Pin_4*%
%TO.N,PB13*%
X103505000Y-121920000D03*
%TO.P,J1,5,Pin_5*%
%TO.N,PB12*%
X106045000Y-121920000D03*
%TO.P,J1,6,Pin_6*%
%TO.N,PB11*%
X108585000Y-121920000D03*
%TO.P,J1,7,Pin_7*%
%TO.N,PB10*%
X111125000Y-121920000D03*
%TO.P,J1,8,Pin_8*%
%TO.N,PB1*%
X113665000Y-121920000D03*
%TO.P,J1,9,Pin_9*%
%TO.N,PB0*%
X116205000Y-121920000D03*
%TO.P,J1,10,Pin_10*%
%TO.N,PA7*%
X118745000Y-121920000D03*
%TO.P,J1,11,Pin_11*%
%TO.N,PA6*%
X121285000Y-121920000D03*
%TO.P,J1,12,Pin_12*%
%TO.N,PA5*%
X123825000Y-121920000D03*
%TO.P,J1,13,Pin_13*%
%TO.N,PA4*%
X126365000Y-121920000D03*
%TO.P,J1,14,Pin_14*%
%TO.N,PA3*%
X128905000Y-121920000D03*
%TO.P,J1,15,Pin_15*%
%TO.N,PA2*%
X131445000Y-121920000D03*
%TO.P,J1,16,Pin_16*%
%TO.N,PA1*%
X133985000Y-121920000D03*
%TO.P,J1,17,Pin_17*%
%TO.N,PA0*%
X136525000Y-121920000D03*
%TD*%
D27*
%TO.P,J2,1,Pin_1*%
%TO.N,+3.3V*%
X95885000Y-132080000D03*
D28*
%TO.P,J2,2,Pin_2*%
%TO.N,GND*%
X98425000Y-132080000D03*
%TO.P,J2,3,Pin_3*%
%TO.N,PC13*%
X100965000Y-132080000D03*
%TO.P,J2,4,Pin_4*%
%TO.N,PB9*%
X103505000Y-132080000D03*
%TO.P,J2,5,Pin_5*%
%TO.N,PC14*%
X106045000Y-132080000D03*
%TO.P,J2,6,Pin_6*%
%TO.N,PC15*%
X108585000Y-132080000D03*
%TO.P,J2,7,Pin_7*%
%TO.N,PB8*%
X111125000Y-132080000D03*
%TO.P,J2,8,Pin_8*%
%TO.N,PB5*%
X113665000Y-132080000D03*
%TO.P,J2,9,Pin_9*%
%TO.N,PB6*%
X116205000Y-132080000D03*
%TO.P,J2,10,Pin_10*%
%TO.N,PB7*%
X118745000Y-132080000D03*
%TO.P,J2,11,Pin_11*%
%TO.N,PB4*%
X121285000Y-132080000D03*
%TO.P,J2,12,Pin_12*%
%TO.N,PA15*%
X123825000Y-132080000D03*
%TO.P,J2,13,Pin_13*%
%TO.N,PA10*%
X126365000Y-132080000D03*
%TO.P,J2,14,Pin_14*%
%TO.N,PA9*%
X128905000Y-132080000D03*
%TO.P,J2,15,Pin_15*%
%TO.N,PA8*%
X131445000Y-132080000D03*
%TO.P,J2,16,Pin_16*%
%TO.N,PB14*%
X133985000Y-132080000D03*
%TO.P,J2,17,Pin_17*%
%TO.N,PB15*%
X136525000Y-132080000D03*
%TD*%
D32*
%TO.N,+3.3V*%
X88725000Y-110000000D03*
X81125000Y-121100000D03*
X80899500Y-130200000D03*
X87725000Y-111000000D03*
X86725000Y-112000000D03*
X83925000Y-153600000D03*
X87625000Y-109300000D03*
X89225000Y-122500000D03*
X86725000Y-110000000D03*
X88725000Y-112000000D03*
X87725000Y-112900000D03*
X87625000Y-138500000D03*
%TO.N,GND*%
X86925000Y-149900000D03*
X84825000Y-111400000D03*
X90125000Y-106600000D03*
X83925000Y-148000000D03*
X88025000Y-100900000D03*
X88425000Y-126100000D03*
X85325000Y-120500000D03*
X84825000Y-109800000D03*
X90525000Y-151100000D03*
X90725000Y-153200000D03*
X80387500Y-105277500D03*
X86425000Y-106400000D03*
X86725000Y-126900000D03*
X92925000Y-134000000D03*
X80125000Y-151000000D03*
X80425000Y-103600000D03*
X127525000Y-127000000D03*
X87825000Y-98200000D03*
X133625000Y-127100000D03*
X80925000Y-132600000D03*
X82725000Y-149400000D03*
X80925000Y-117600000D03*
X83525000Y-98100000D03*
X83625000Y-151100000D03*
X86425000Y-119700000D03*
X84025000Y-117800000D03*
X83025000Y-129600000D03*
X82075000Y-123350000D03*
X85725000Y-99300000D03*
X91225000Y-139600000D03*
X80725000Y-100200000D03*
X90225000Y-149000000D03*
X86625000Y-132974500D03*
X117425000Y-127000000D03*
X85725000Y-112000000D03*
X90825000Y-100200000D03*
X83625000Y-100800000D03*
X81125000Y-146400000D03*
X89225000Y-118600000D03*
X90125000Y-135500000D03*
X122625000Y-127000000D03*
X84525000Y-124800000D03*
X85825000Y-113000000D03*
X88425000Y-120100000D03*
X90825000Y-146300000D03*
X82025000Y-142100000D03*
X83725000Y-133800000D03*
X82025000Y-117500000D03*
X87025000Y-118400000D03*
X90325000Y-122400000D03*
X85525000Y-110600000D03*
X84925000Y-112600000D03*
%TO.N,PB9*%
X83825000Y-128900000D03*
%TO.N,PB8*%
X85425000Y-128300000D03*
%TO.N,PB7*%
X85925000Y-126900000D03*
%TO.N,PB6*%
X86725000Y-126100000D03*
%TO.N,PB5*%
X87525000Y-126900000D03*
%TO.N,PB4*%
X82825000Y-125500000D03*
%TO.N,PA15*%
X83425000Y-124900000D03*
%TO.N,PA10*%
X85225000Y-124300000D03*
%TO.N,PA9*%
X85725000Y-121400000D03*
%TO.N,PA8*%
X86187056Y-120711501D03*
%TO.N,PB15*%
X86904335Y-120494096D03*
%TO.N,PB14*%
X87725000Y-120500000D03*
%TO.N,PC13*%
X83275000Y-132350000D03*
%TO.N,PC14*%
X84725000Y-129000000D03*
%TO.N,PC15*%
X85508884Y-129100000D03*
%TO.N,SWDIO*%
X84225000Y-124100000D03*
%TO.N,BOOT0*%
X84225000Y-127428053D03*
X81825000Y-147500000D03*
%TD*%
D33*
%TO.N,+3.3V*%
X91425000Y-134100000D02*
X91425000Y-138100000D01*
X91025000Y-138500000D02*
X87625000Y-138500000D01*
X85725000Y-155727500D02*
X84720000Y-155727500D01*
X91425000Y-138100000D02*
X91025000Y-138500000D01*
X89915000Y-123190000D02*
X89225000Y-122500000D01*
X83932500Y-153607500D02*
X83925000Y-153600000D01*
X90007500Y-123190000D02*
X89915000Y-123190000D01*
X83932500Y-154940000D02*
X83932500Y-153607500D01*
X95885000Y-132080000D02*
X93445000Y-132080000D01*
D34*
X81562500Y-129750000D02*
X81349500Y-129750000D01*
D33*
X93445000Y-132080000D02*
X91425000Y-134100000D01*
X84720000Y-155727500D02*
X83932500Y-154940000D01*
D34*
X81349500Y-129750000D02*
X80899500Y-130200000D01*
%TO.N,GND*%
X86475000Y-133150000D02*
X86475000Y-133124500D01*
X90425000Y-122400000D02*
X90325000Y-122400000D01*
X89815000Y-148590000D02*
X90225000Y-149000000D01*
D33*
X90967500Y-123190000D02*
X90967500Y-122942500D01*
D34*
X81915000Y-122717500D02*
X81915000Y-123190000D01*
D33*
X80962500Y-118430000D02*
X80962500Y-117637500D01*
X80962500Y-117637500D02*
X80925000Y-117600000D01*
D34*
X81915000Y-123190000D02*
X82725000Y-124000000D01*
D33*
X90967500Y-122942500D02*
X90525000Y-122500000D01*
D34*
X89887500Y-106362500D02*
X90125000Y-106600000D01*
X86475000Y-133190000D02*
X86655000Y-133370000D01*
X86475000Y-131162500D02*
X86475000Y-133150000D01*
X89410000Y-106362500D02*
X89887500Y-106362500D01*
X82725000Y-124000000D02*
X83225000Y-124000000D01*
X82742500Y-149382500D02*
X82725000Y-149400000D01*
X86475000Y-133150000D02*
X86475000Y-133190000D01*
X90525000Y-122500000D02*
X90425000Y-122400000D01*
X90917500Y-154940000D02*
X90917500Y-153392500D01*
X90917500Y-153392500D02*
X90725000Y-153200000D01*
X82475000Y-104850000D02*
X82475000Y-103422500D01*
X83475000Y-123750000D02*
X83475000Y-122837500D01*
X82040000Y-105285000D02*
X82475000Y-104850000D01*
X83225000Y-124000000D02*
X83475000Y-123750000D01*
X82742500Y-148590000D02*
X82742500Y-149382500D01*
X86475000Y-133124500D02*
X86625000Y-132974500D01*
X89697500Y-148590000D02*
X89815000Y-148590000D01*
%TO.N,nRST*%
X88737500Y-148590000D02*
X88737500Y-146387500D01*
X89025000Y-142200000D02*
X87085000Y-142200000D01*
X88737500Y-150187500D02*
X87517500Y-151407500D01*
X85975000Y-138815000D02*
X85975000Y-131162500D01*
X85710000Y-140965000D02*
X85710000Y-139080000D01*
X90025000Y-143200000D02*
X89025000Y-142200000D01*
X88737500Y-148590000D02*
X88737500Y-150187500D01*
X85710000Y-139080000D02*
X85975000Y-138815000D01*
X87085000Y-142200000D02*
X85850000Y-140965000D01*
X90025000Y-145100000D02*
X90025000Y-143200000D01*
X88737500Y-146387500D02*
X90025000Y-145100000D01*
X87517500Y-151407500D02*
X87517500Y-154940000D01*
%TO.N,/HSE_IN*%
X81565000Y-133935000D02*
X81565000Y-136435000D01*
X82225000Y-133667500D02*
X81832500Y-133667500D01*
X84975000Y-132636041D02*
X84603541Y-133007500D01*
X81870000Y-136740000D02*
X82720000Y-136740000D01*
X82225000Y-133375000D02*
X82225000Y-133667500D01*
X84603541Y-133007500D02*
X82592500Y-133007500D01*
X81565000Y-136435000D02*
X81870000Y-136740000D01*
X82592500Y-133007500D02*
X82225000Y-133375000D01*
X84975000Y-131162500D02*
X84975000Y-132636041D01*
X81832500Y-133667500D02*
X81565000Y-133935000D01*
%TO.N,/HSE_OUT*%
X85252500Y-134707500D02*
X84920000Y-135040000D01*
X85252500Y-133667500D02*
X85252500Y-134707500D01*
X85475000Y-133025000D02*
X85475000Y-131797500D01*
X85252500Y-133667500D02*
X85252500Y-133247500D01*
X85252500Y-133247500D02*
X85475000Y-133025000D01*
%TO.N,VBUS*%
X93925000Y-123500000D02*
X99385000Y-123500000D01*
X91525000Y-120000000D02*
X93225000Y-121700000D01*
X99385000Y-123500000D02*
X100965000Y-121920000D01*
X93225000Y-121700000D02*
X93225000Y-122800000D01*
X93225000Y-122800000D02*
X93925000Y-123500000D01*
X90450000Y-116537500D02*
X91525000Y-117612500D01*
X91525000Y-117612500D02*
X91525000Y-120000000D01*
%TO.N,/C13LED*%
X85225000Y-151200000D02*
X85725000Y-151700000D01*
X85725000Y-151700000D02*
X85725000Y-154152500D01*
X85225000Y-148600000D02*
X85225000Y-151200000D01*
X85215000Y-148590000D02*
X85225000Y-148600000D01*
%TO.N,PB9*%
X81562500Y-128750000D02*
X83675000Y-128750000D01*
X83675000Y-128750000D02*
X83825000Y-128900000D01*
%TO.N,PB8*%
X83875000Y-128250000D02*
X81562500Y-128250000D01*
X85425000Y-128300000D02*
X83875000Y-128250000D01*
%TO.N,PB7*%
X83382106Y-127250000D02*
X83828553Y-126803553D01*
X81562500Y-127250000D02*
X83382106Y-127250000D01*
X85828553Y-126803553D02*
X85925000Y-126900000D01*
X83828553Y-126803553D02*
X85828553Y-126803553D01*
%TO.N,PB6*%
X81562500Y-126750000D02*
X83175000Y-126750000D01*
X83175000Y-126750000D02*
X83725000Y-126200000D01*
X85432106Y-126100000D02*
X86725000Y-126100000D01*
X85332106Y-126200000D02*
X85432106Y-126100000D01*
X83725000Y-126200000D02*
X85332106Y-126200000D01*
%TO.N,PB5*%
X85125000Y-125700000D02*
X85725000Y-125100000D01*
X82958884Y-126250000D02*
X83508884Y-125700000D01*
X81562500Y-126250000D02*
X82958884Y-126250000D01*
X86925000Y-125100000D02*
X87525000Y-125700000D01*
X85725000Y-125100000D02*
X86925000Y-125100000D01*
X83508884Y-125700000D02*
X85125000Y-125700000D01*
X87525000Y-125700000D02*
X87525000Y-126900000D01*
%TO.N,PB4*%
X82575000Y-125750000D02*
X82825000Y-125500000D01*
X81562500Y-125750000D02*
X82575000Y-125750000D01*
%TO.N,SWO*%
X80723959Y-125250000D02*
X80275000Y-125698959D01*
X81275000Y-139950000D02*
X81275000Y-142950000D01*
X81562500Y-125250000D02*
X80723959Y-125250000D01*
X81275000Y-142950000D02*
X81830000Y-143505000D01*
X80275000Y-138950000D02*
X81275000Y-139950000D01*
X81830000Y-143505000D02*
X83170000Y-143505000D01*
X80275000Y-125698959D02*
X80275000Y-138950000D01*
%TO.N,PA15*%
X83275000Y-124750000D02*
X83425000Y-124900000D01*
X81562500Y-124750000D02*
X83275000Y-124750000D01*
%TO.N,PA10*%
X85400000Y-123751041D02*
X85475000Y-123676041D01*
X85400000Y-124125000D02*
X85400000Y-123751041D01*
X85475000Y-123676041D02*
X85475000Y-123600000D01*
X85225000Y-124300000D02*
X85400000Y-124125000D01*
%TO.N,PA9*%
X85975000Y-121650000D02*
X85725000Y-121400000D01*
X85975000Y-122837500D02*
X85975000Y-121650000D01*
%TO.N,PA8*%
X86187056Y-120711501D02*
X86475000Y-120999445D01*
X86475000Y-120999445D02*
X86475000Y-122837500D01*
%TO.N,PB15*%
X86975000Y-122837500D02*
X86975000Y-120564761D01*
X86975000Y-120564761D02*
X86904335Y-120494096D01*
%TO.N,PB14*%
X87475000Y-120850000D02*
X87475000Y-122837500D01*
X87725000Y-120500000D02*
X87475000Y-120850000D01*
%TO.N,PB13*%
X92325000Y-122000000D02*
X92325000Y-122300000D01*
X92325000Y-123100000D02*
X92325000Y-122300000D01*
X87975000Y-122837500D02*
X87975000Y-121998960D01*
X88625000Y-120700000D02*
X91025000Y-120700000D01*
X101425000Y-124000000D02*
X93225000Y-124000000D01*
X87975000Y-121998960D02*
X87975000Y-121350000D01*
X87975000Y-121350000D02*
X88625000Y-120700000D01*
X93225000Y-124000000D02*
X92325000Y-123100000D01*
X103505000Y-121920000D02*
X101425000Y-124000000D01*
X91025000Y-120700000D02*
X92325000Y-122000000D01*
%TO.N,PB12*%
X103465000Y-124500000D02*
X106045000Y-121920000D01*
X88475000Y-122837500D02*
X88475000Y-121950000D01*
X91725000Y-123300000D02*
X92925000Y-124500000D01*
X88475000Y-121950000D02*
X88825000Y-121600000D01*
X90825000Y-121600000D02*
X91725000Y-122500000D01*
X92925000Y-124500000D02*
X103465000Y-124500000D01*
X88825000Y-121600000D02*
X90825000Y-121600000D01*
X91725000Y-122500000D02*
X91725000Y-123300000D01*
%TO.N,PC13*%
X87050000Y-142925000D02*
X87050000Y-146675000D01*
X86225000Y-148580000D02*
X86235000Y-148590000D01*
X83475000Y-132150000D02*
X83125000Y-132500000D01*
X80825000Y-133600000D02*
X80825000Y-137800000D01*
X86325000Y-142200000D02*
X87050000Y-142925000D01*
X83475000Y-131162500D02*
X83475000Y-132150000D01*
X81925000Y-132500000D02*
X80825000Y-133600000D01*
X83725000Y-138800000D02*
X84510000Y-139585000D01*
X84510000Y-139585000D02*
X84510000Y-141685000D01*
X80825000Y-137800000D02*
X81825000Y-138800000D01*
X85025000Y-142200000D02*
X86325000Y-142200000D01*
X87050000Y-146675000D02*
X86225000Y-147500000D01*
X83125000Y-132500000D02*
X81925000Y-132500000D01*
X84510000Y-141685000D02*
X85025000Y-142200000D01*
X81825000Y-138800000D02*
X83725000Y-138800000D01*
X86225000Y-147500000D02*
X86225000Y-148580000D01*
%TO.N,PC14*%
X84725000Y-129000000D02*
X83975000Y-129950000D01*
X83975000Y-129950000D02*
X83975000Y-131162500D01*
%TO.N,PC15*%
X84725000Y-129983884D02*
X84475000Y-130233884D01*
X84475000Y-130233884D02*
X84475000Y-131162500D01*
X85508884Y-129100000D02*
X84725000Y-129983884D01*
%TO.N,PA0*%
X93703168Y-130500000D02*
X91403168Y-132800000D01*
X88064999Y-132800000D02*
X87475000Y-132210001D01*
X91403168Y-132800000D02*
X88064999Y-132800000D01*
X127945000Y-130500000D02*
X93703168Y-130500000D01*
X87475000Y-132210001D02*
X87475000Y-131162500D01*
X136525000Y-121920000D02*
X127945000Y-130500000D01*
%TO.N,PA1*%
X133985000Y-121920000D02*
X125905000Y-130000000D01*
X91196062Y-132300000D02*
X89225000Y-132300000D01*
X88272105Y-132300000D02*
X89225000Y-132300000D01*
X125905000Y-130000000D02*
X93496062Y-130000000D01*
X87975000Y-132002895D02*
X88272105Y-132300000D01*
X93496062Y-130000000D02*
X91196062Y-132300000D01*
X87975000Y-131162500D02*
X87975000Y-132002895D01*
%TO.N,PA2*%
X90988956Y-131800000D02*
X88525000Y-131800000D01*
X88525000Y-131800000D02*
X88475000Y-131750000D01*
X131445000Y-121920000D02*
X123865000Y-129500000D01*
X88475000Y-131750000D02*
X88475000Y-131162500D01*
X88475000Y-131162500D02*
X88475000Y-131795788D01*
X123865000Y-129500000D02*
X93288956Y-129500000D01*
X93288956Y-129500000D02*
X90988956Y-131800000D01*
%TO.N,PA3*%
X121825000Y-129000000D02*
X93081850Y-129000000D01*
X93081850Y-129000000D02*
X92331850Y-129750000D01*
X128905000Y-121920000D02*
X121825000Y-129000000D01*
X92331850Y-129750000D02*
X89887500Y-129750000D01*
%TO.N,PA4*%
X126365000Y-121920000D02*
X119785000Y-128500000D01*
X92124744Y-129250000D02*
X89887500Y-129250000D01*
X92874744Y-128500000D02*
X92124744Y-129250000D01*
X119785000Y-128500000D02*
X92874744Y-128500000D01*
%TO.N,PA5*%
X117745000Y-128000000D02*
X92667638Y-128000000D01*
X92667638Y-128000000D02*
X91917638Y-128750000D01*
X91917638Y-128750000D02*
X89887500Y-128750000D01*
X123825000Y-121920000D02*
X117745000Y-128000000D01*
%TO.N,PA6*%
X92460532Y-127500000D02*
X91710532Y-128250000D01*
X115705000Y-127500000D02*
X92460532Y-127500000D01*
X91710532Y-128250000D02*
X89887500Y-128250000D01*
X121285000Y-121920000D02*
X115705000Y-127500000D01*
%TO.N,PA7*%
X92253426Y-127000000D02*
X91503426Y-127750000D01*
X91503426Y-127750000D02*
X89887500Y-127750000D01*
X118745000Y-121920000D02*
X113665000Y-127000000D01*
X113665000Y-127000000D02*
X92253426Y-127000000D01*
%TO.N,PB0*%
X92046320Y-126500000D02*
X91296320Y-127250000D01*
X111625000Y-126500000D02*
X92046320Y-126500000D01*
X91296320Y-127250000D02*
X89887500Y-127250000D01*
X116205000Y-121920000D02*
X111625000Y-126500000D01*
%TO.N,PB1*%
X113665000Y-121920000D02*
X109585000Y-126000000D01*
X91839214Y-126000000D02*
X91089214Y-126750000D01*
X91089214Y-126750000D02*
X89887500Y-126750000D01*
X109585000Y-126000000D02*
X91839214Y-126000000D01*
%TO.N,PB10*%
X111125000Y-121920000D02*
X107545000Y-125500000D01*
X107545000Y-125500000D02*
X91632107Y-125500000D01*
X91382107Y-125750000D02*
X89887500Y-125750000D01*
X91632107Y-125500000D02*
X91382107Y-125750000D01*
%TO.N,PB11*%
X108585000Y-121920000D02*
X105505000Y-125000000D01*
X91425000Y-125000000D02*
X91175000Y-125250000D01*
X91175000Y-125250000D02*
X89887500Y-125250000D01*
X105505000Y-125000000D02*
X91425000Y-125000000D01*
%TO.N,/USB_CC1*%
X86975000Y-103422500D02*
X86975000Y-105950000D01*
X87387500Y-106362500D02*
X88390000Y-106362500D01*
X86975000Y-105950000D02*
X87387500Y-106362500D01*
D35*
%TO.N,USB_D+*%
X84975000Y-104510001D02*
X84975000Y-103422500D01*
X84492843Y-122819657D02*
X84492843Y-121423069D01*
X84992844Y-106503836D02*
X84992844Y-104527845D01*
X84994444Y-102366944D02*
X85891944Y-102366944D01*
X84992844Y-104527845D02*
X84975000Y-104510001D01*
X82892844Y-119823070D02*
X82892844Y-108603836D01*
X84492843Y-121423069D02*
X82892844Y-119823070D01*
X85975000Y-102450000D02*
X85975000Y-103422500D01*
X84975000Y-103422500D02*
X84975000Y-102386388D01*
X82892844Y-108603836D02*
X84992844Y-106503836D01*
X85891944Y-102366944D02*
X85975000Y-102450000D01*
X84975000Y-102386388D02*
X84994444Y-102366944D01*
%TO.N,USB_D-*%
X84957157Y-122819657D02*
X84957157Y-121230743D01*
X85457156Y-104527845D02*
X85475000Y-104510001D01*
X83357156Y-108796164D02*
X85457156Y-106696164D01*
X84975000Y-122837500D02*
X84957157Y-122819657D01*
X86475000Y-104458612D02*
X86405767Y-104527845D01*
X85457156Y-106696164D02*
X85457156Y-104527845D01*
X86405767Y-104527845D02*
X85457156Y-104527845D01*
X85475000Y-104510001D02*
X85475000Y-103422500D01*
X86475000Y-103422500D02*
X86475000Y-104458612D01*
X83357156Y-119630742D02*
X83357156Y-108796164D01*
X84957157Y-121230743D02*
X83357156Y-119630742D01*
D34*
%TO.N,/USB_CC2*%
X83975000Y-104350000D02*
X83060000Y-105265000D01*
X83975000Y-103422500D02*
X83975000Y-104350000D01*
%TO.N,SWDIO*%
X83975000Y-123850000D02*
X84225000Y-124100000D01*
X83975000Y-122837500D02*
X83975000Y-123850000D01*
%TO.N,SWCLK*%
X79775000Y-143750000D02*
X81825000Y-145800000D01*
X84725000Y-145800000D02*
X85710000Y-144815000D01*
X80375000Y-124250000D02*
X79775000Y-124850000D01*
X81825000Y-145800000D02*
X84725000Y-145800000D01*
X81562500Y-124250000D02*
X80375000Y-124250000D01*
X85710000Y-144815000D02*
X85710000Y-143505000D01*
X79775000Y-124850000D02*
X79775000Y-143750000D01*
%TO.N,BOOT0*%
X81722500Y-148590000D02*
X81722500Y-147602500D01*
X80532500Y-152092500D02*
X80532500Y-154940000D01*
X81722500Y-148590000D02*
X81722500Y-150902500D01*
X81722500Y-147602500D02*
X81825000Y-147500000D01*
X81562500Y-127750000D02*
X83678553Y-127750000D01*
X83903053Y-127750000D02*
X84225000Y-127428053D01*
X81722500Y-150902500D02*
X80532500Y-152092500D01*
X83678553Y-127750000D02*
X83903053Y-127750000D01*
%TD*%
%TA.AperFunction,Conductor*%
%TO.N,GND*%
G36*
X90989393Y-122902863D02*
G01*
X91041602Y-122913248D01*
X91095312Y-122935495D01*
X91127134Y-122956757D01*
X91168244Y-122997867D01*
X91189505Y-123029687D01*
X91211752Y-123083398D01*
X91222137Y-123135607D01*
X91225000Y-123164675D01*
X91225000Y-124635325D01*
X91222137Y-124664393D01*
X91220533Y-124672457D01*
X91183812Y-124744528D01*
X91173853Y-124755302D01*
X91169796Y-124759522D01*
X91074765Y-124854553D01*
X91007970Y-124893117D01*
X90998476Y-124895330D01*
X90992135Y-124896592D01*
X90991902Y-124896638D01*
X90962839Y-124899500D01*
X90215780Y-124899500D01*
X90141280Y-124879538D01*
X90086742Y-124825000D01*
X90066780Y-124750500D01*
X90086742Y-124676000D01*
X90141280Y-124621462D01*
X90201175Y-124602218D01*
X90211338Y-124601217D01*
X90225943Y-124600499D01*
X90577132Y-124600499D01*
X90657495Y-124584515D01*
X90748624Y-124523624D01*
X90809515Y-124432495D01*
X90825500Y-124352133D01*
X90825499Y-124147868D01*
X90809515Y-124067505D01*
X90748624Y-123976376D01*
X90696719Y-123941694D01*
X90645866Y-123883707D01*
X90630500Y-123817806D01*
X90630500Y-123098821D01*
X90628742Y-123071998D01*
X90628423Y-123069577D01*
X90628185Y-123067160D01*
X90629141Y-123067066D01*
X90638713Y-122994578D01*
X90685690Y-122933406D01*
X90747277Y-122905515D01*
X90760603Y-122902864D01*
X90789675Y-122900000D01*
X90960325Y-122900000D01*
X90989393Y-122902863D01*
G37*
%TD.AperFunction*%
%TD*%
%TA.AperFunction,Conductor*%
%TO.N,+3.3VA*%
G36*
X87048999Y-130900590D02*
G01*
X87103537Y-130955128D01*
X87120636Y-131000560D01*
X87121638Y-131005596D01*
X87124500Y-131034661D01*
X87124500Y-132156732D01*
X87121164Y-132188084D01*
X87120162Y-132192739D01*
X87117337Y-132198247D01*
X87122467Y-132213692D01*
X87123615Y-132223388D01*
X87124140Y-132228615D01*
X87124493Y-132232883D01*
X87124500Y-132233053D01*
X87124500Y-132239116D01*
X87124833Y-132241116D01*
X87125000Y-132245165D01*
X87125000Y-132372500D01*
X87290259Y-132521233D01*
X87295942Y-132526625D01*
X87779489Y-133010172D01*
X87787190Y-133019708D01*
X87787204Y-133019696D01*
X87795493Y-133028806D01*
X87802174Y-133039152D01*
X87826018Y-133057949D01*
X87830076Y-133061266D01*
X87833398Y-133064081D01*
X87837746Y-133068429D01*
X87842743Y-133072000D01*
X87842748Y-133072004D01*
X87851635Y-133078354D01*
X87857252Y-133082571D01*
X87893810Y-133111392D01*
X87901788Y-133114194D01*
X87908669Y-133119111D01*
X87945320Y-133130072D01*
X88002304Y-133162073D01*
X88125000Y-133272500D01*
X89060325Y-133272500D01*
X89089393Y-133275363D01*
X89141602Y-133285748D01*
X89195312Y-133307995D01*
X89227134Y-133329257D01*
X89268244Y-133370367D01*
X89289505Y-133402187D01*
X89311752Y-133455898D01*
X89322137Y-133508107D01*
X89325000Y-133537175D01*
X89325000Y-133665872D01*
X89323638Y-133684310D01*
X89323846Y-133684336D01*
X89323623Y-133686140D01*
X89323353Y-133687964D01*
X89320490Y-133717032D01*
X89319500Y-133737175D01*
X89319500Y-134200229D01*
X89320015Y-134204578D01*
X89320015Y-134204582D01*
X89323967Y-134237970D01*
X89325000Y-134255483D01*
X89325000Y-135094517D01*
X89323967Y-135112029D01*
X89319500Y-135149771D01*
X89319500Y-135335476D01*
X89316637Y-135364545D01*
X89311752Y-135389103D01*
X89289505Y-135442813D01*
X89268244Y-135474633D01*
X89227134Y-135515743D01*
X89195313Y-135537005D01*
X89141602Y-135559252D01*
X89089393Y-135569637D01*
X89060325Y-135572500D01*
X86589675Y-135572500D01*
X86560607Y-135569637D01*
X86508398Y-135559252D01*
X86454687Y-135537005D01*
X86422866Y-135515743D01*
X86381756Y-135474633D01*
X86360495Y-135442813D01*
X86338248Y-135389103D01*
X86328363Y-135339408D01*
X86325500Y-135310339D01*
X86325500Y-134325731D01*
X86345462Y-134251231D01*
X86400000Y-134196693D01*
X86474500Y-134176731D01*
X86484251Y-134177050D01*
X86488997Y-134177361D01*
X86493849Y-134178000D01*
X86498736Y-134178000D01*
X86674026Y-134177999D01*
X86853650Y-134177999D01*
X86875744Y-134175091D01*
X86891935Y-134172960D01*
X86891937Y-134172959D01*
X86903237Y-134171472D01*
X87012066Y-134120724D01*
X87096974Y-134035816D01*
X87147722Y-133926987D01*
X87154250Y-133877401D01*
X87154249Y-133457600D01*
X87151341Y-133435506D01*
X87149210Y-133419315D01*
X87149209Y-133419313D01*
X87147722Y-133408013D01*
X87096974Y-133299184D01*
X87087758Y-133289968D01*
X87086417Y-133288053D01*
X87060037Y-133215577D01*
X87074378Y-133137626D01*
X87078021Y-133130106D01*
X87082649Y-133120554D01*
X87085473Y-133103769D01*
X87104291Y-132991921D01*
X87104291Y-132991917D01*
X87105247Y-132986237D01*
X87105390Y-132974500D01*
X87093056Y-132888371D01*
X87087586Y-132850179D01*
X87087586Y-132850178D01*
X87086081Y-132839671D01*
X87055368Y-132772120D01*
X87034100Y-132725343D01*
X87034098Y-132725340D01*
X87029706Y-132715680D01*
X86940796Y-132612496D01*
X86893457Y-132581812D01*
X86841799Y-132524540D01*
X86825500Y-132456780D01*
X86825500Y-132231204D01*
X86832414Y-132205401D01*
X86825500Y-132161377D01*
X86825500Y-131133385D01*
X86825499Y-131133382D01*
X86825499Y-131029628D01*
X86845461Y-130955128D01*
X86899999Y-130900590D01*
X86974499Y-130880628D01*
X87048999Y-130900590D01*
G37*
%TD.AperFunction*%
%TD*%
%TA.AperFunction,Conductor*%
%TO.N,GND*%
G36*
X86598773Y-117700279D02*
G01*
X86606206Y-117700735D01*
X86615655Y-117701314D01*
X86633744Y-117703541D01*
X86650392Y-117706634D01*
X86659267Y-117708567D01*
X86917892Y-117773223D01*
X87395143Y-117892536D01*
X87395147Y-117892537D01*
X87425000Y-117900000D01*
X91025500Y-117900000D01*
X91100000Y-117919962D01*
X91154538Y-117974500D01*
X91174500Y-118049000D01*
X91174500Y-119251000D01*
X91154538Y-119325500D01*
X91100000Y-119380038D01*
X91025500Y-119400000D01*
X87532360Y-119400000D01*
X87505728Y-119397601D01*
X87457634Y-119388864D01*
X87407772Y-119370129D01*
X87365824Y-119345034D01*
X87344206Y-119329305D01*
X87339858Y-119325500D01*
X87025000Y-119050000D01*
X86625000Y-118700000D01*
X86089675Y-118700000D01*
X86060607Y-118697137D01*
X86008398Y-118686752D01*
X85954687Y-118664505D01*
X85922866Y-118643243D01*
X85881756Y-118602133D01*
X85860495Y-118570313D01*
X85838248Y-118516602D01*
X85827863Y-118464393D01*
X85825000Y-118435325D01*
X85825000Y-117964675D01*
X85827863Y-117935607D01*
X85838248Y-117883398D01*
X85860495Y-117829687D01*
X85881756Y-117797867D01*
X85922866Y-117756757D01*
X85954688Y-117735495D01*
X86008398Y-117713248D01*
X86060607Y-117702863D01*
X86089675Y-117700000D01*
X86589655Y-117700000D01*
X86598773Y-117700279D01*
G37*
%TD.AperFunction*%
%TD*%
%TA.AperFunction,Conductor*%
%TO.N,GND*%
G36*
X82538354Y-129103363D02*
G01*
X82588049Y-129113248D01*
X82641759Y-129135496D01*
X82686020Y-129165070D01*
X82708600Y-129183600D01*
X82941400Y-129416400D01*
X82959930Y-129438980D01*
X82989504Y-129483241D01*
X83011752Y-129536952D01*
X83022137Y-129589161D01*
X83025000Y-129618229D01*
X83025000Y-130075501D01*
X83005038Y-130150001D01*
X82950500Y-130204539D01*
X82887247Y-130221487D01*
X82887473Y-130223783D01*
X82880185Y-130224501D01*
X82872868Y-130224501D01*
X82792505Y-130240485D01*
X82780304Y-130248638D01*
X82780303Y-130248638D01*
X82745250Y-130272060D01*
X82701376Y-130301376D01*
X82640485Y-130392505D01*
X82637622Y-130406896D01*
X82637622Y-130406897D01*
X82625927Y-130465692D01*
X82624500Y-130472867D01*
X82624500Y-130798619D01*
X82604538Y-130873119D01*
X82551945Y-130925712D01*
X82552124Y-130925996D01*
X82474686Y-130974654D01*
X82420149Y-131029192D01*
X82409697Y-131040457D01*
X82366963Y-131121315D01*
X82347002Y-131195813D01*
X82346366Y-131200644D01*
X82346365Y-131200649D01*
X82345410Y-131207908D01*
X82340000Y-131248999D01*
X82340000Y-131351000D01*
X82320038Y-131425500D01*
X82265500Y-131480038D01*
X82191000Y-131500000D01*
X81989675Y-131500000D01*
X81960607Y-131497137D01*
X81944715Y-131493976D01*
X81909932Y-131487057D01*
X81840758Y-131452944D01*
X81797908Y-131388814D01*
X81790001Y-131340921D01*
X81790000Y-131065799D01*
X81809962Y-130991298D01*
X81833641Y-130960439D01*
X81842453Y-130951627D01*
X81859697Y-130936833D01*
X81895810Y-130910354D01*
X81950348Y-130855816D01*
X81960802Y-130844551D01*
X81976876Y-130814137D01*
X81999627Y-130771090D01*
X81999628Y-130771087D01*
X82003536Y-130763693D01*
X82023498Y-130689193D01*
X82030500Y-130636006D01*
X82030500Y-130249499D01*
X82050462Y-130174999D01*
X82105000Y-130120461D01*
X82179500Y-130100499D01*
X82252132Y-130100499D01*
X82332495Y-130084515D01*
X82345986Y-130075501D01*
X82411421Y-130031778D01*
X82423624Y-130023624D01*
X82484515Y-129932495D01*
X82500500Y-129852133D01*
X82500499Y-129647868D01*
X82484515Y-129567505D01*
X82423624Y-129476376D01*
X82332495Y-129415485D01*
X82318104Y-129412622D01*
X82318103Y-129412622D01*
X82259308Y-129400927D01*
X82259306Y-129400927D01*
X82252133Y-129399500D01*
X81982133Y-129399500D01*
X81907633Y-129379538D01*
X81853095Y-129325000D01*
X81833133Y-129250500D01*
X81853095Y-129176000D01*
X81907633Y-129121462D01*
X81953065Y-129104363D01*
X81958100Y-129103362D01*
X81987161Y-129100500D01*
X82509285Y-129100500D01*
X82538354Y-129103363D01*
G37*
%TD.AperFunction*%
%TD*%
%TA.AperFunction,Conductor*%
%TO.N,GND*%
G36*
X90689393Y-133475363D02*
G01*
X90741602Y-133485748D01*
X90795312Y-133507995D01*
X90827134Y-133529257D01*
X90868244Y-133570367D01*
X90889505Y-133602187D01*
X90911752Y-133655898D01*
X90922137Y-133708107D01*
X90925000Y-133737175D01*
X90925000Y-136907825D01*
X90922137Y-136936893D01*
X90911752Y-136989102D01*
X90889505Y-137042813D01*
X90868244Y-137074633D01*
X90827134Y-137115743D01*
X90795313Y-137137005D01*
X90741602Y-137159252D01*
X90689393Y-137169637D01*
X90660325Y-137172500D01*
X89789675Y-137172500D01*
X89760607Y-137169637D01*
X89708398Y-137159252D01*
X89654687Y-137137005D01*
X89622866Y-137115743D01*
X89581756Y-137074633D01*
X89560495Y-137042813D01*
X89538248Y-136989102D01*
X89527863Y-136936893D01*
X89525000Y-136907825D01*
X89525000Y-136896021D01*
X89541240Y-136828377D01*
X89548144Y-136814827D01*
X89553469Y-136804376D01*
X89569250Y-136704738D01*
X89569250Y-136137762D01*
X89553469Y-136038124D01*
X89541240Y-136014123D01*
X89525000Y-135946479D01*
X89525000Y-135149771D01*
X89541240Y-135082127D01*
X89548144Y-135068577D01*
X89553469Y-135058126D01*
X89569250Y-134958488D01*
X89569250Y-134391512D01*
X89553469Y-134291874D01*
X89541240Y-134267873D01*
X89525000Y-134200229D01*
X89525000Y-133737175D01*
X89527863Y-133708107D01*
X89538248Y-133655898D01*
X89560495Y-133602187D01*
X89581756Y-133570367D01*
X89622866Y-133529257D01*
X89654688Y-133507995D01*
X89708398Y-133485748D01*
X89760607Y-133475363D01*
X89789675Y-133472500D01*
X90660325Y-133472500D01*
X90689393Y-133475363D01*
G37*
%TD.AperFunction*%
%TD*%
%TA.AperFunction,Conductor*%
%TO.N,+3.3V*%
G36*
X81530185Y-119803188D02*
G01*
X81585037Y-119814720D01*
X81641154Y-119839406D01*
X81686718Y-119872047D01*
X81709782Y-119892490D01*
X82113902Y-120333348D01*
X82175000Y-120400000D01*
X82725000Y-121000000D01*
X82960325Y-121000000D01*
X82989393Y-121002863D01*
X83041602Y-121013248D01*
X83095312Y-121035495D01*
X83127134Y-121056757D01*
X83168244Y-121097867D01*
X83189505Y-121129687D01*
X83211752Y-121183398D01*
X83222137Y-121235607D01*
X83225000Y-121264675D01*
X83225000Y-121895821D01*
X83205038Y-121970321D01*
X83199889Y-121978601D01*
X83140485Y-122067505D01*
X83137622Y-122081896D01*
X83137622Y-122081897D01*
X83134021Y-122100000D01*
X83124500Y-122147867D01*
X83124500Y-122155181D01*
X83123782Y-122162472D01*
X83121487Y-122162246D01*
X83104538Y-122225500D01*
X83050000Y-122280038D01*
X82975500Y-122300000D01*
X82943229Y-122300000D01*
X82914161Y-122297137D01*
X82861952Y-122286752D01*
X82808241Y-122264504D01*
X82763980Y-122234930D01*
X82741400Y-122216400D01*
X82625000Y-122100000D01*
X81737154Y-122100000D01*
X81709440Y-122097400D01*
X81692865Y-122094262D01*
X81659506Y-122087947D01*
X81607913Y-122067686D01*
X81564894Y-122040638D01*
X81542816Y-122023685D01*
X80357925Y-120923430D01*
X80316150Y-120884639D01*
X80295997Y-120861643D01*
X80263815Y-120816259D01*
X80239496Y-120760492D01*
X80228138Y-120706031D01*
X80225000Y-120675611D01*
X80225000Y-120064675D01*
X80227863Y-120035607D01*
X80238248Y-119983398D01*
X80260495Y-119929687D01*
X80281756Y-119897867D01*
X80322866Y-119856757D01*
X80354688Y-119835495D01*
X80408398Y-119813248D01*
X80460607Y-119802863D01*
X80489675Y-119800000D01*
X81499530Y-119800000D01*
X81530185Y-119803188D01*
G37*
%TD.AperFunction*%
%TD*%
%TA.AperFunction,Conductor*%
%TO.N,+3.3V*%
G36*
X81591900Y-129603362D02*
G01*
X81641603Y-129613248D01*
X81695312Y-129635495D01*
X81727134Y-129656757D01*
X81768244Y-129697867D01*
X81789505Y-129729687D01*
X81811752Y-129783398D01*
X81822137Y-129835607D01*
X81825000Y-129864675D01*
X81825000Y-130636006D01*
X81805038Y-130710506D01*
X81750500Y-130765044D01*
X81738974Y-130771044D01*
X81738501Y-130771265D01*
X81738498Y-130771267D01*
X81726684Y-130776776D01*
X81641776Y-130861684D01*
X81591028Y-130970513D01*
X81584500Y-131020099D01*
X81584501Y-131439900D01*
X81591028Y-131489487D01*
X81641776Y-131598316D01*
X81726684Y-131683224D01*
X81835513Y-131733972D01*
X81856082Y-131736680D01*
X81880257Y-131739863D01*
X81880264Y-131739863D01*
X81885099Y-131740500D01*
X81889980Y-131740500D01*
X82065166Y-131740499D01*
X82244900Y-131740499D01*
X82266994Y-131737591D01*
X82283185Y-131735460D01*
X82283187Y-131735459D01*
X82294487Y-131733972D01*
X82403316Y-131683224D01*
X82488224Y-131598316D01*
X82538972Y-131489487D01*
X82545500Y-131439901D01*
X82545500Y-131248999D01*
X82565461Y-131174501D01*
X82619998Y-131119963D01*
X82694499Y-131100000D01*
X82960325Y-131100000D01*
X82989388Y-131102862D01*
X83004566Y-131105881D01*
X83073739Y-131139991D01*
X83116591Y-131204119D01*
X83124500Y-131252018D01*
X83124500Y-131800509D01*
X83104538Y-131875009D01*
X83055010Y-131926521D01*
X82963650Y-131984165D01*
X82873628Y-132086096D01*
X82873624Y-132086099D01*
X82873487Y-132086255D01*
X82873468Y-132086238D01*
X82820290Y-132133615D01*
X82753347Y-132149500D01*
X81978269Y-132149500D01*
X81966081Y-132148203D01*
X81966080Y-132148222D01*
X81953783Y-132147642D01*
X81941739Y-132145049D01*
X81929505Y-132146497D01*
X81929504Y-132146497D01*
X81911616Y-132148614D01*
X81906379Y-132149141D01*
X81902035Y-132149500D01*
X81895885Y-132149500D01*
X81889818Y-132150510D01*
X81889815Y-132150510D01*
X81879044Y-132152303D01*
X81872094Y-132153292D01*
X81838093Y-132157316D01*
X81838091Y-132157317D01*
X81825862Y-132158764D01*
X81818242Y-132162423D01*
X81809897Y-132163812D01*
X81787250Y-132176032D01*
X81775950Y-132182129D01*
X81705196Y-132200000D01*
X81226241Y-132200000D01*
X81145198Y-132176032D01*
X81135406Y-132169685D01*
X81126501Y-132163913D01*
X81116337Y-132160873D01*
X81116334Y-132160872D01*
X81021152Y-132132407D01*
X80955495Y-132091936D01*
X80939874Y-132072312D01*
X80873071Y-131972107D01*
X80862307Y-131953065D01*
X80845144Y-131916704D01*
X80832495Y-131874926D01*
X80826607Y-131835158D01*
X80825000Y-131813335D01*
X80825000Y-129864675D01*
X80827863Y-129835607D01*
X80838248Y-129783398D01*
X80860495Y-129729687D01*
X80881756Y-129697867D01*
X80922866Y-129656757D01*
X80954688Y-129635495D01*
X81008398Y-129613248D01*
X81058094Y-129603363D01*
X81087162Y-129600500D01*
X81199972Y-129600500D01*
X81562840Y-129600499D01*
X81591900Y-129603362D01*
G37*
%TD.AperFunction*%
%TD*%
%TA.AperFunction,Conductor*%
%TO.N,GND*%
G36*
X85706412Y-109419962D02*
G01*
X85760950Y-109474500D01*
X85778154Y-109520465D01*
X86246821Y-111922381D01*
X86247805Y-111973837D01*
X86246279Y-111983636D01*
X86246279Y-111983644D01*
X86244646Y-111994131D01*
X86262306Y-112129186D01*
X86266580Y-112138899D01*
X86266580Y-112138900D01*
X86300305Y-112215546D01*
X86310165Y-112247020D01*
X86516742Y-113305725D01*
X86519500Y-113334260D01*
X86519500Y-115262976D01*
X86516637Y-115292045D01*
X86511752Y-115316603D01*
X86489505Y-115370313D01*
X86468244Y-115402133D01*
X86427134Y-115443243D01*
X86395313Y-115464505D01*
X86341602Y-115486752D01*
X86289393Y-115497137D01*
X86260325Y-115500000D01*
X84789675Y-115500000D01*
X84760607Y-115497137D01*
X84708398Y-115486752D01*
X84654687Y-115464505D01*
X84622866Y-115443243D01*
X84581756Y-115402133D01*
X84560495Y-115370313D01*
X84538248Y-115316602D01*
X84527863Y-115264393D01*
X84525000Y-115235325D01*
X84525000Y-109664675D01*
X84527863Y-109635607D01*
X84538248Y-109583398D01*
X84560495Y-109529687D01*
X84581756Y-109497867D01*
X84622866Y-109456757D01*
X84654688Y-109435495D01*
X84708398Y-109413248D01*
X84760607Y-109402863D01*
X84789675Y-109400000D01*
X85631912Y-109400000D01*
X85706412Y-109419962D01*
G37*
%TD.AperFunction*%
%TD*%
%TA.AperFunction,Conductor*%
%TO.N,VBUS*%
G36*
X88289393Y-103602863D02*
G01*
X88341602Y-103613248D01*
X88395309Y-103635493D01*
X88408278Y-103644158D01*
X88459132Y-103702143D01*
X88474500Y-103768048D01*
X88474500Y-104167248D01*
X88486133Y-104225731D01*
X88525000Y-104283899D01*
X88525000Y-104400000D01*
X91675500Y-104400000D01*
X91750000Y-104419962D01*
X91804538Y-104474500D01*
X91824500Y-104549000D01*
X91824500Y-117151000D01*
X91804538Y-117225500D01*
X91750000Y-117280038D01*
X91675500Y-117300000D01*
X89589675Y-117300000D01*
X89560607Y-117297137D01*
X89508398Y-117286752D01*
X89454687Y-117264505D01*
X89422866Y-117243243D01*
X89381756Y-117202133D01*
X89360495Y-117170313D01*
X89338248Y-117116603D01*
X89332417Y-117087289D01*
X89329734Y-117050904D01*
X89330410Y-117037163D01*
X89330410Y-117037149D01*
X89330500Y-117035325D01*
X89330500Y-113334260D01*
X89333258Y-113305725D01*
X90121290Y-109267060D01*
X90121386Y-109266569D01*
X90122272Y-109261719D01*
X90123467Y-109254703D01*
X90124244Y-109249787D01*
X90126168Y-109236564D01*
X90127357Y-109226730D01*
X90128734Y-109212472D01*
X90129448Y-109202614D01*
X90130089Y-109189320D01*
X90130267Y-109184376D01*
X90130440Y-109177200D01*
X90130500Y-109172247D01*
X90130500Y-107264675D01*
X90129510Y-107244532D01*
X90127183Y-107220911D01*
X90139747Y-107144816D01*
X90188677Y-107085196D01*
X90236275Y-107062557D01*
X90305541Y-107043673D01*
X90305540Y-107043673D01*
X90315786Y-107040880D01*
X90357091Y-107015519D01*
X90422815Y-106975165D01*
X90422818Y-106975163D01*
X90431858Y-106969612D01*
X90447296Y-106952557D01*
X90484506Y-106911447D01*
X90523261Y-106868631D01*
X90582649Y-106746054D01*
X90601220Y-106635673D01*
X90604291Y-106617421D01*
X90604291Y-106617417D01*
X90605247Y-106611737D01*
X90605390Y-106600000D01*
X90586081Y-106465171D01*
X90557894Y-106403176D01*
X90534100Y-106350843D01*
X90534098Y-106350840D01*
X90529706Y-106341180D01*
X90440796Y-106237996D01*
X90326501Y-106163913D01*
X90196006Y-106124887D01*
X90185386Y-106124822D01*
X90184683Y-106124717D01*
X90115325Y-106093274D01*
X90114755Y-106094072D01*
X90110710Y-106091181D01*
X90110705Y-106091179D01*
X90109757Y-106090501D01*
X90109752Y-106090497D01*
X90100877Y-106084155D01*
X90095259Y-106079937D01*
X90068362Y-106058733D01*
X90068359Y-106058731D01*
X90058689Y-106051108D01*
X90050713Y-106048307D01*
X90043831Y-106043389D01*
X90032039Y-106039863D01*
X90032036Y-106039861D01*
X89999198Y-106030041D01*
X89992521Y-106027871D01*
X89957440Y-106015551D01*
X89957436Y-106015550D01*
X89948594Y-106012445D01*
X89943456Y-106012000D01*
X89940242Y-106012000D01*
X89938640Y-106011931D01*
X89932036Y-106009956D01*
X89919730Y-106010439D01*
X89907512Y-106008896D01*
X89907673Y-106007619D01*
X89844853Y-105993405D01*
X89808869Y-105966900D01*
X89740404Y-105898435D01*
X89633173Y-105848432D01*
X89613008Y-105845777D01*
X89589158Y-105842637D01*
X89589151Y-105842637D01*
X89584316Y-105842000D01*
X89235684Y-105842000D01*
X89230849Y-105842637D01*
X89230842Y-105842637D01*
X89206992Y-105845777D01*
X89186827Y-105848432D01*
X89079596Y-105898435D01*
X89005359Y-105972672D01*
X88938564Y-106011236D01*
X88861436Y-106011236D01*
X88794641Y-105972672D01*
X88720404Y-105898435D01*
X88613173Y-105848432D01*
X88593008Y-105845777D01*
X88569158Y-105842637D01*
X88569151Y-105842637D01*
X88564316Y-105842000D01*
X88215684Y-105842000D01*
X88210849Y-105842637D01*
X88210842Y-105842637D01*
X88186992Y-105845777D01*
X88166827Y-105848432D01*
X88059596Y-105898435D01*
X87989672Y-105968359D01*
X87922877Y-106006923D01*
X87884313Y-106012000D01*
X87594400Y-106012000D01*
X87519900Y-105992038D01*
X87489041Y-105968359D01*
X87369141Y-105848459D01*
X87330577Y-105781664D01*
X87325500Y-105743100D01*
X87325500Y-104497000D01*
X87345462Y-104422500D01*
X87400000Y-104367962D01*
X87474500Y-104348000D01*
X87644748Y-104348000D01*
X87651921Y-104346573D01*
X87651923Y-104346573D01*
X87688834Y-104339231D01*
X87688835Y-104339231D01*
X87703231Y-104336367D01*
X87769552Y-104292052D01*
X87813867Y-104225731D01*
X87825500Y-104167248D01*
X87825500Y-103749000D01*
X87845462Y-103674500D01*
X87900000Y-103619962D01*
X87974500Y-103600000D01*
X88260325Y-103600000D01*
X88289393Y-103602863D01*
G37*
%TD.AperFunction*%
%TD*%
%TA.AperFunction,Conductor*%
%TO.N,VBUS*%
G36*
X87935839Y-101402863D02*
G01*
X87988048Y-101413248D01*
X88041759Y-101435496D01*
X88083829Y-101463606D01*
X88134684Y-101521593D01*
X88149731Y-101597239D01*
X88124939Y-101670274D01*
X88119267Y-101678191D01*
X88112302Y-101687267D01*
X88054313Y-101827264D01*
X88034534Y-101977500D01*
X88035809Y-101987185D01*
X88051045Y-102102910D01*
X88054313Y-102127736D01*
X88058050Y-102136758D01*
X88060441Y-102142531D01*
X88112302Y-102267733D01*
X88118246Y-102275480D01*
X88118247Y-102275481D01*
X88163937Y-102335025D01*
X88204549Y-102387951D01*
X88324767Y-102480198D01*
X88365330Y-102497000D01*
X88386435Y-102505742D01*
X88447625Y-102552696D01*
X88477139Y-102623953D01*
X88475854Y-102663211D01*
X88476645Y-102663289D01*
X88475927Y-102670577D01*
X88474500Y-102677752D01*
X88474500Y-103231952D01*
X88454538Y-103306452D01*
X88408278Y-103355842D01*
X88395313Y-103364505D01*
X88395310Y-103364507D01*
X88341602Y-103386752D01*
X88289393Y-103397137D01*
X88260325Y-103400000D01*
X88089675Y-103400000D01*
X88060607Y-103397137D01*
X88008398Y-103386752D01*
X87954687Y-103364505D01*
X87941725Y-103355844D01*
X87922866Y-103343243D01*
X87881756Y-103302133D01*
X87860495Y-103270313D01*
X87838248Y-103216603D01*
X87828363Y-103166908D01*
X87825500Y-103137839D01*
X87825500Y-102677752D01*
X87813867Y-102619269D01*
X87797988Y-102595504D01*
X87777706Y-102565151D01*
X87769552Y-102552948D01*
X87737266Y-102531375D01*
X87715436Y-102516788D01*
X87715435Y-102516788D01*
X87703231Y-102508633D01*
X87688835Y-102505769D01*
X87688834Y-102505769D01*
X87651923Y-102498427D01*
X87651921Y-102498427D01*
X87644748Y-102497000D01*
X87305252Y-102497000D01*
X87298079Y-102498427D01*
X87298077Y-102498427D01*
X87254068Y-102507181D01*
X87195932Y-102507181D01*
X87151923Y-102498427D01*
X87151921Y-102498427D01*
X87144748Y-102497000D01*
X86805252Y-102497000D01*
X86798079Y-102498427D01*
X86798077Y-102498427D01*
X86754068Y-102507181D01*
X86695932Y-102507181D01*
X86651923Y-102498427D01*
X86651921Y-102498427D01*
X86644748Y-102497000D01*
X86444660Y-102497000D01*
X86370160Y-102477038D01*
X86315622Y-102422500D01*
X86300745Y-102386592D01*
X86300206Y-102384582D01*
X86297390Y-102371889D01*
X86290890Y-102335025D01*
X86284505Y-102323965D01*
X86283902Y-102322054D01*
X86282975Y-102320274D01*
X86279668Y-102307932D01*
X86258208Y-102277283D01*
X86251226Y-102266324D01*
X86239036Y-102245211D01*
X86239035Y-102245210D01*
X86232516Y-102233919D01*
X86203856Y-102209871D01*
X86194274Y-102201090D01*
X86140854Y-102147670D01*
X86132073Y-102138087D01*
X86116404Y-102119413D01*
X86116402Y-102119411D01*
X86108025Y-102109428D01*
X86096736Y-102102910D01*
X86075620Y-102090718D01*
X86064659Y-102083735D01*
X86044693Y-102069755D01*
X86044694Y-102069755D01*
X86034012Y-102062276D01*
X86021670Y-102058969D01*
X86019890Y-102058042D01*
X86017979Y-102057439D01*
X86006919Y-102051054D01*
X85970055Y-102044554D01*
X85957409Y-102041751D01*
X85921243Y-102032060D01*
X85908258Y-102033196D01*
X85908257Y-102033196D01*
X85883969Y-102035321D01*
X85870983Y-102035888D01*
X85015403Y-102035888D01*
X85002416Y-102035321D01*
X84978131Y-102033196D01*
X84978130Y-102033196D01*
X84965145Y-102032060D01*
X84928979Y-102041751D01*
X84916333Y-102044554D01*
X84879469Y-102051054D01*
X84868409Y-102057439D01*
X84866498Y-102058042D01*
X84864718Y-102058969D01*
X84852376Y-102062276D01*
X84841694Y-102069755D01*
X84841695Y-102069755D01*
X84821729Y-102083735D01*
X84810768Y-102090718D01*
X84789655Y-102102908D01*
X84789654Y-102102909D01*
X84778363Y-102109428D01*
X84769981Y-102119417D01*
X84758966Y-102132544D01*
X84740604Y-102150907D01*
X84717484Y-102170307D01*
X84710965Y-102181598D01*
X84710964Y-102181599D01*
X84698774Y-102202712D01*
X84691792Y-102213671D01*
X84670332Y-102244320D01*
X84667025Y-102256662D01*
X84666098Y-102258442D01*
X84665495Y-102260353D01*
X84659110Y-102271413D01*
X84652610Y-102308277D01*
X84649807Y-102320923D01*
X84640116Y-102357089D01*
X84640765Y-102364510D01*
X84615667Y-102433464D01*
X84556583Y-102483040D01*
X84493614Y-102497000D01*
X84305252Y-102497000D01*
X84298079Y-102498427D01*
X84298077Y-102498427D01*
X84254068Y-102507181D01*
X84195932Y-102507181D01*
X84151923Y-102498427D01*
X84151921Y-102498427D01*
X84144748Y-102497000D01*
X83805252Y-102497000D01*
X83798079Y-102498427D01*
X83798077Y-102498427D01*
X83761166Y-102505769D01*
X83761165Y-102505769D01*
X83746769Y-102508633D01*
X83734565Y-102516788D01*
X83734564Y-102516788D01*
X83712734Y-102531375D01*
X83680448Y-102552948D01*
X83672294Y-102565151D01*
X83652013Y-102595504D01*
X83636133Y-102619269D01*
X83624500Y-102677752D01*
X83624500Y-103251000D01*
X83604538Y-103325500D01*
X83550000Y-103380038D01*
X83475500Y-103400000D01*
X83189675Y-103400000D01*
X83160607Y-103397137D01*
X83108398Y-103386752D01*
X83054690Y-103364507D01*
X83054687Y-103364505D01*
X83041722Y-103355842D01*
X82990868Y-103297857D01*
X82975500Y-103231952D01*
X82975500Y-102677752D01*
X82974073Y-102670577D01*
X82973355Y-102663289D01*
X82975062Y-102663121D01*
X82979494Y-102595504D01*
X83022345Y-102531375D01*
X83063565Y-102505742D01*
X83084670Y-102497000D01*
X83125233Y-102480198D01*
X83245451Y-102387951D01*
X83286063Y-102335025D01*
X83331753Y-102275481D01*
X83331754Y-102275480D01*
X83337698Y-102267733D01*
X83389559Y-102142531D01*
X83391950Y-102136758D01*
X83395687Y-102127736D01*
X83398956Y-102102910D01*
X83414191Y-101987185D01*
X83415466Y-101977500D01*
X83395687Y-101827264D01*
X83337698Y-101687267D01*
X83330742Y-101678202D01*
X83330107Y-101676668D01*
X83326870Y-101671062D01*
X83327608Y-101670636D01*
X83301225Y-101606948D01*
X83311290Y-101530479D01*
X83358241Y-101469288D01*
X83366171Y-101463606D01*
X83408241Y-101435496D01*
X83461952Y-101413248D01*
X83514161Y-101402863D01*
X83543229Y-101400000D01*
X87906771Y-101400000D01*
X87935839Y-101402863D01*
G37*
%TD.AperFunction*%
%TD*%
%TA.AperFunction,Conductor*%
%TO.N,+3.3V*%
G36*
X90097164Y-122819962D02*
G01*
X90105226Y-122824966D01*
X90109347Y-122827709D01*
X90109349Y-122827710D01*
X90118187Y-122833593D01*
X90128318Y-122836758D01*
X90128320Y-122836759D01*
X90233429Y-122869597D01*
X90294356Y-122906459D01*
X90381359Y-122993462D01*
X90419923Y-123060257D01*
X90425000Y-123098821D01*
X90425000Y-124135325D01*
X90422137Y-124164393D01*
X90411752Y-124216602D01*
X90389505Y-124270313D01*
X90368244Y-124302133D01*
X90327134Y-124343243D01*
X90305222Y-124357884D01*
X90295313Y-124364505D01*
X90241602Y-124386752D01*
X90191906Y-124396637D01*
X90162838Y-124399500D01*
X89702854Y-124399501D01*
X89437164Y-124399501D01*
X89408099Y-124396638D01*
X89377531Y-124390558D01*
X89323816Y-124368307D01*
X89308218Y-124357884D01*
X89267116Y-124316782D01*
X89256693Y-124301184D01*
X89234442Y-124247468D01*
X89227863Y-124214393D01*
X89225000Y-124185325D01*
X89225000Y-124100291D01*
X89227115Y-124075274D01*
X89234833Y-124029958D01*
X89251392Y-123982752D01*
X89273676Y-123942541D01*
X89287649Y-123921689D01*
X89425000Y-123750000D01*
X89625000Y-123500000D01*
X89625000Y-123064675D01*
X89627863Y-123035607D01*
X89638248Y-122983398D01*
X89660495Y-122929687D01*
X89681757Y-122897866D01*
X89722866Y-122856757D01*
X89754688Y-122835495D01*
X89808398Y-122813248D01*
X89860607Y-122802863D01*
X89889675Y-122800000D01*
X90022664Y-122800000D01*
X90097164Y-122819962D01*
G37*
%TD.AperFunction*%
%TD*%
%TA.AperFunction,Conductor*%
%TO.N,+3.3V*%
G36*
X89689393Y-107002863D02*
G01*
X89741602Y-107013248D01*
X89795312Y-107035495D01*
X89827134Y-107056757D01*
X89868244Y-107097867D01*
X89889505Y-107129687D01*
X89911752Y-107183398D01*
X89922137Y-107235607D01*
X89925000Y-107264675D01*
X89925000Y-109172247D01*
X89924827Y-109179423D01*
X89924186Y-109192717D01*
X89922809Y-109206975D01*
X89920885Y-109220198D01*
X89919690Y-109227214D01*
X89125000Y-113300000D01*
X89125000Y-117035325D01*
X89122137Y-117064393D01*
X89111752Y-117116602D01*
X89089505Y-117170313D01*
X89068244Y-117202133D01*
X89027134Y-117243243D01*
X88995313Y-117264505D01*
X88941602Y-117286752D01*
X88889393Y-117297137D01*
X88860325Y-117300000D01*
X86189675Y-117300000D01*
X86160607Y-117297137D01*
X86108398Y-117286752D01*
X86054687Y-117264505D01*
X86022866Y-117243243D01*
X85981756Y-117202133D01*
X85960495Y-117170313D01*
X85938248Y-117116602D01*
X85927863Y-117064393D01*
X85925000Y-117035325D01*
X85925000Y-116329371D01*
X85928367Y-116297876D01*
X85940530Y-116241635D01*
X85966559Y-116184272D01*
X86000877Y-116138081D01*
X86022361Y-116114809D01*
X86633649Y-115579932D01*
X86633650Y-115579931D01*
X86639626Y-115574702D01*
X86725000Y-115500000D01*
X86725000Y-113300000D01*
X85930310Y-109227214D01*
X85929115Y-109220198D01*
X85927191Y-109206975D01*
X85925814Y-109192717D01*
X85925173Y-109179423D01*
X85925000Y-109172247D01*
X85925000Y-107264675D01*
X85927863Y-107235607D01*
X85938248Y-107183398D01*
X85960495Y-107129687D01*
X85981756Y-107097867D01*
X86022866Y-107056757D01*
X86054688Y-107035495D01*
X86108398Y-107013248D01*
X86160607Y-107002863D01*
X86189675Y-107000000D01*
X89660325Y-107000000D01*
X89689393Y-107002863D01*
G37*
%TD.AperFunction*%
%TD*%
%TA.AperFunction,Conductor*%
%TO.N,+3.3V*%
G36*
X89112288Y-135779917D02*
G01*
X89141603Y-135785748D01*
X89195312Y-135807995D01*
X89227134Y-135829257D01*
X89268244Y-135870367D01*
X89289505Y-135902187D01*
X89311752Y-135955898D01*
X89322137Y-136008107D01*
X89325000Y-136037175D01*
X89325000Y-136840767D01*
X89323967Y-136858279D01*
X89319500Y-136896021D01*
X89319500Y-136907825D01*
X89320490Y-136927968D01*
X89323353Y-136957036D01*
X89323623Y-136958860D01*
X89323846Y-136960664D01*
X89323638Y-136960690D01*
X89325000Y-136979128D01*
X89325000Y-137169322D01*
X89324998Y-137170146D01*
X89324989Y-137171773D01*
X89324972Y-137173293D01*
X89324946Y-137174922D01*
X89324937Y-137175380D01*
X89230632Y-141513464D01*
X89227224Y-141542070D01*
X89215998Y-141593383D01*
X89193194Y-141645994D01*
X89171782Y-141677116D01*
X89130794Y-141717222D01*
X89099211Y-141737954D01*
X89046119Y-141759608D01*
X89013613Y-141765982D01*
X88994578Y-141769715D01*
X88965906Y-141772500D01*
X87589675Y-141772500D01*
X87560607Y-141769637D01*
X87508398Y-141759252D01*
X87454687Y-141737005D01*
X87422866Y-141715743D01*
X87381756Y-141674633D01*
X87362621Y-141645994D01*
X87360495Y-141642812D01*
X87338248Y-141589102D01*
X87327863Y-141536893D01*
X87325000Y-141507825D01*
X87325000Y-140472500D01*
X86336662Y-137112149D01*
X86334025Y-137101835D01*
X86329825Y-137082559D01*
X86326790Y-137061483D01*
X86325881Y-137048792D01*
X86325500Y-137038147D01*
X86325500Y-136034661D01*
X86328363Y-136005592D01*
X86338248Y-135955897D01*
X86360495Y-135902187D01*
X86381756Y-135870367D01*
X86422866Y-135829257D01*
X86454688Y-135807995D01*
X86508397Y-135785748D01*
X86537712Y-135779917D01*
X86574093Y-135777234D01*
X86580745Y-135777561D01*
X86587837Y-135777910D01*
X86587851Y-135777910D01*
X86589675Y-135778000D01*
X89060325Y-135778000D01*
X89062149Y-135777910D01*
X89062163Y-135777910D01*
X89069255Y-135777561D01*
X89075907Y-135777234D01*
X89112288Y-135779917D01*
G37*
%TD.AperFunction*%
%TD*%
%TA.AperFunction,Conductor*%
%TO.N,/PWLED*%
G36*
X85289393Y-116102863D02*
G01*
X85341602Y-116113248D01*
X85395312Y-116135495D01*
X85427134Y-116156757D01*
X85468244Y-116197867D01*
X85489505Y-116229687D01*
X85511752Y-116283398D01*
X85522137Y-116335607D01*
X85525000Y-116364675D01*
X85525000Y-118335325D01*
X85522137Y-118364393D01*
X85511752Y-118416602D01*
X85489505Y-118470313D01*
X85468244Y-118502133D01*
X85427134Y-118543243D01*
X85395313Y-118564505D01*
X85341602Y-118586752D01*
X85289393Y-118597137D01*
X85260325Y-118600000D01*
X85089675Y-118600000D01*
X85060607Y-118597137D01*
X85008398Y-118586752D01*
X84954687Y-118564505D01*
X84922866Y-118543243D01*
X84881756Y-118502133D01*
X84860495Y-118470313D01*
X84838248Y-118416602D01*
X84827863Y-118364393D01*
X84825000Y-118335325D01*
X84825000Y-117800000D01*
X84462735Y-117166037D01*
X84454263Y-117148685D01*
X84440757Y-117115767D01*
X84430858Y-117078492D01*
X84426253Y-117043208D01*
X84425000Y-117023925D01*
X84425000Y-116364675D01*
X84427863Y-116335607D01*
X84438248Y-116283398D01*
X84460495Y-116229687D01*
X84481756Y-116197867D01*
X84522866Y-116156757D01*
X84554688Y-116135495D01*
X84608398Y-116113248D01*
X84660607Y-116102863D01*
X84689675Y-116100000D01*
X85260325Y-116100000D01*
X85289393Y-116102863D01*
G37*
%TD.AperFunction*%
%TD*%
%TA.AperFunction,Conductor*%
%TO.N,GND*%
G36*
X90786413Y-96772545D02*
G01*
X90790607Y-96772545D01*
X90805000Y-96775408D01*
X90819392Y-96772545D01*
X90821873Y-96772545D01*
X90834859Y-96773112D01*
X90969047Y-96784852D01*
X90994625Y-96789362D01*
X91141098Y-96828609D01*
X91165504Y-96837492D01*
X91302934Y-96901577D01*
X91325427Y-96914564D01*
X91449645Y-97001543D01*
X91469541Y-97018237D01*
X91576763Y-97125459D01*
X91593457Y-97145355D01*
X91680436Y-97269573D01*
X91693423Y-97292065D01*
X91709908Y-97327419D01*
X91757508Y-97429496D01*
X91766391Y-97453902D01*
X91805638Y-97600375D01*
X91810148Y-97625953D01*
X91821888Y-97760141D01*
X91822455Y-97773127D01*
X91822455Y-97775608D01*
X91819592Y-97790000D01*
X91822455Y-97804393D01*
X91822455Y-97808587D01*
X91824500Y-97829350D01*
X91824500Y-104045500D01*
X91804538Y-104120000D01*
X91750000Y-104174538D01*
X91675500Y-104194500D01*
X88829000Y-104194500D01*
X88754500Y-104174538D01*
X88699962Y-104120000D01*
X88680000Y-104045500D01*
X88680000Y-103768048D01*
X88676476Y-103737417D01*
X88675500Y-103720387D01*
X88675500Y-103275897D01*
X88676775Y-103256449D01*
X88679363Y-103236794D01*
X88679363Y-103236787D01*
X88680000Y-103231952D01*
X88680000Y-102702481D01*
X88680718Y-102687873D01*
X88680745Y-102687601D01*
X88680745Y-102687597D01*
X88681155Y-102683437D01*
X88681068Y-102677242D01*
X88681229Y-102676099D01*
X88681272Y-102675083D01*
X88681372Y-102675087D01*
X88682090Y-102669979D01*
X88681243Y-102669951D01*
X88681244Y-102669934D01*
X88681318Y-102667679D01*
X88683363Y-102660935D01*
X88687424Y-102632070D01*
X88687534Y-102631706D01*
X88691832Y-102633005D01*
X88703697Y-102593872D01*
X88759984Y-102541141D01*
X88773218Y-102534881D01*
X88896211Y-102483935D01*
X88905233Y-102480198D01*
X89025451Y-102387951D01*
X89077293Y-102320390D01*
X89138480Y-102273440D01*
X89214949Y-102263373D01*
X89286206Y-102292888D01*
X89333158Y-102354078D01*
X89344500Y-102411098D01*
X89344500Y-103100016D01*
X89359724Y-103225820D01*
X89419655Y-103384423D01*
X89515688Y-103524151D01*
X89522395Y-103530126D01*
X89522396Y-103530128D01*
X89635572Y-103630965D01*
X89635576Y-103630968D01*
X89642279Y-103636940D01*
X89650217Y-103641143D01*
X89650220Y-103641145D01*
X89657966Y-103645246D01*
X89792119Y-103716276D01*
X89800832Y-103718465D01*
X89800833Y-103718465D01*
X89808485Y-103720387D01*
X89956559Y-103757581D01*
X90060998Y-103758128D01*
X90117127Y-103758422D01*
X90126105Y-103758469D01*
X90158221Y-103750759D01*
X90282235Y-103720985D01*
X90282238Y-103720984D01*
X90290968Y-103718888D01*
X90298947Y-103714770D01*
X90298949Y-103714769D01*
X90433647Y-103645246D01*
X90433648Y-103645245D01*
X90441631Y-103641125D01*
X90448398Y-103635221D01*
X90448402Y-103635219D01*
X90562627Y-103535574D01*
X90569396Y-103529669D01*
X90666887Y-103390953D01*
X90728476Y-103232987D01*
X90745500Y-103103674D01*
X90745500Y-101914984D01*
X90730276Y-101789180D01*
X90670345Y-101630577D01*
X90574312Y-101490849D01*
X90562974Y-101480747D01*
X90454428Y-101384035D01*
X90454424Y-101384032D01*
X90447721Y-101378060D01*
X90439783Y-101373857D01*
X90439780Y-101373855D01*
X90305823Y-101302929D01*
X90297881Y-101298724D01*
X90289168Y-101296535D01*
X90289167Y-101296535D01*
X90216691Y-101278330D01*
X90133441Y-101257419D01*
X90029002Y-101256872D01*
X89972873Y-101256578D01*
X89963895Y-101256531D01*
X89955164Y-101258627D01*
X89955165Y-101258627D01*
X89807765Y-101294015D01*
X89807762Y-101294016D01*
X89799032Y-101296112D01*
X89791053Y-101300230D01*
X89791051Y-101300231D01*
X89697439Y-101348548D01*
X89648369Y-101373875D01*
X89641602Y-101379779D01*
X89641598Y-101379781D01*
X89592962Y-101422209D01*
X89520604Y-101485331D01*
X89423113Y-101624047D01*
X89419853Y-101632409D01*
X89419848Y-101632418D01*
X89396966Y-101691107D01*
X89351305Y-101753266D01*
X89280681Y-101784267D01*
X89204019Y-101775802D01*
X89141860Y-101730141D01*
X89126710Y-101704522D01*
X89126319Y-101704748D01*
X89121435Y-101696288D01*
X89117698Y-101687267D01*
X89080645Y-101638978D01*
X89031397Y-101574798D01*
X89025451Y-101567049D01*
X88918955Y-101485331D01*
X88912981Y-101480747D01*
X88912980Y-101480746D01*
X88905233Y-101474802D01*
X88835235Y-101445808D01*
X88774258Y-101420550D01*
X88765236Y-101416813D01*
X88755555Y-101415538D01*
X88755553Y-101415538D01*
X88657562Y-101402637D01*
X88657555Y-101402637D01*
X88652720Y-101402000D01*
X88577280Y-101402000D01*
X88572445Y-101402637D01*
X88572438Y-101402637D01*
X88522770Y-101409176D01*
X88464764Y-101416813D01*
X88455739Y-101420551D01*
X88455733Y-101420553D01*
X88454371Y-101421117D01*
X88452910Y-101421309D01*
X88446305Y-101423079D01*
X88446072Y-101422209D01*
X88377902Y-101431183D01*
X88306646Y-101401666D01*
X88285338Y-101381709D01*
X88238330Y-101328108D01*
X88197998Y-101292738D01*
X88188106Y-101286128D01*
X88158967Y-101266658D01*
X88158959Y-101266653D01*
X88155928Y-101264628D01*
X88120401Y-101245639D01*
X88117026Y-101244241D01*
X88070071Y-101224791D01*
X88070063Y-101224788D01*
X88066690Y-101223391D01*
X88063187Y-101222328D01*
X88063183Y-101222327D01*
X88050408Y-101218452D01*
X88028139Y-101211697D01*
X88024552Y-101210983D01*
X88024546Y-101210982D01*
X87977731Y-101201670D01*
X87977722Y-101201668D01*
X87975930Y-101201312D01*
X87974110Y-101201042D01*
X87957805Y-101198623D01*
X87957788Y-101198621D01*
X87955982Y-101198353D01*
X87926914Y-101195490D01*
X87925088Y-101195400D01*
X87925071Y-101195399D01*
X87916842Y-101194995D01*
X87906771Y-101194500D01*
X83543229Y-101194500D01*
X83533158Y-101194995D01*
X83524929Y-101195399D01*
X83524912Y-101195400D01*
X83523086Y-101195490D01*
X83494018Y-101198353D01*
X83492212Y-101198621D01*
X83492195Y-101198623D01*
X83475890Y-101201042D01*
X83474070Y-101201312D01*
X83472278Y-101201668D01*
X83472269Y-101201670D01*
X83425454Y-101210982D01*
X83425448Y-101210983D01*
X83421861Y-101211697D01*
X83399592Y-101218452D01*
X83386817Y-101222327D01*
X83386813Y-101222328D01*
X83383310Y-101223391D01*
X83379937Y-101224788D01*
X83379929Y-101224791D01*
X83332974Y-101244241D01*
X83329599Y-101245639D01*
X83294072Y-101264628D01*
X83291041Y-101266653D01*
X83291033Y-101266658D01*
X83256064Y-101290024D01*
X83252002Y-101292738D01*
X83251410Y-101293148D01*
X83246998Y-101296201D01*
X83246958Y-101296229D01*
X83246480Y-101296560D01*
X83246036Y-101296878D01*
X83245995Y-101296907D01*
X83243460Y-101298724D01*
X83238550Y-101302242D01*
X83195204Y-101344192D01*
X83191866Y-101348542D01*
X83191861Y-101348548D01*
X83171884Y-101374585D01*
X83110696Y-101421539D01*
X83034228Y-101431609D01*
X82996659Y-101421544D01*
X82994261Y-101420551D01*
X82994259Y-101420551D01*
X82985236Y-101416813D01*
X82975555Y-101415538D01*
X82975553Y-101415538D01*
X82877562Y-101402637D01*
X82877555Y-101402637D01*
X82872720Y-101402000D01*
X82797280Y-101402000D01*
X82792445Y-101402637D01*
X82792438Y-101402637D01*
X82694447Y-101415538D01*
X82694445Y-101415538D01*
X82684764Y-101416813D01*
X82675742Y-101420550D01*
X82614765Y-101445808D01*
X82544767Y-101474802D01*
X82537020Y-101480746D01*
X82537019Y-101480747D01*
X82531045Y-101485331D01*
X82424549Y-101567049D01*
X82418603Y-101574798D01*
X82369356Y-101638978D01*
X82332302Y-101687267D01*
X82328565Y-101696288D01*
X82323681Y-101704748D01*
X82321949Y-101703748D01*
X82282655Y-101754952D01*
X82211397Y-101784464D01*
X82134929Y-101774394D01*
X82073741Y-101727438D01*
X82052576Y-101689409D01*
X82030345Y-101630577D01*
X81934312Y-101490849D01*
X81922974Y-101480747D01*
X81814428Y-101384035D01*
X81814424Y-101384032D01*
X81807721Y-101378060D01*
X81799783Y-101373857D01*
X81799780Y-101373855D01*
X81665823Y-101302929D01*
X81657881Y-101298724D01*
X81649168Y-101296535D01*
X81649167Y-101296535D01*
X81576691Y-101278330D01*
X81493441Y-101257419D01*
X81389002Y-101256872D01*
X81332873Y-101256578D01*
X81323895Y-101256531D01*
X81315164Y-101258627D01*
X81315165Y-101258627D01*
X81167765Y-101294015D01*
X81167762Y-101294016D01*
X81159032Y-101296112D01*
X81151053Y-101300230D01*
X81151051Y-101300231D01*
X81057439Y-101348548D01*
X81008369Y-101373875D01*
X81001602Y-101379779D01*
X81001598Y-101379781D01*
X80952962Y-101422209D01*
X80880604Y-101485331D01*
X80783113Y-101624047D01*
X80721524Y-101782013D01*
X80704500Y-101911326D01*
X80704500Y-103100016D01*
X80719724Y-103225820D01*
X80779655Y-103384423D01*
X80875688Y-103524151D01*
X80882395Y-103530126D01*
X80882396Y-103530128D01*
X80995572Y-103630965D01*
X80995576Y-103630968D01*
X81002279Y-103636940D01*
X81010217Y-103641143D01*
X81010220Y-103641145D01*
X81017966Y-103645246D01*
X81152119Y-103716276D01*
X81160832Y-103718465D01*
X81160833Y-103718465D01*
X81168485Y-103720387D01*
X81316559Y-103757581D01*
X81420998Y-103758128D01*
X81477127Y-103758422D01*
X81486105Y-103758469D01*
X81518221Y-103750759D01*
X81642235Y-103720985D01*
X81642238Y-103720984D01*
X81650968Y-103718888D01*
X81658947Y-103714770D01*
X81658949Y-103714769D01*
X81793647Y-103645246D01*
X81793648Y-103645245D01*
X81801631Y-103641125D01*
X81808398Y-103635221D01*
X81808402Y-103635219D01*
X81922627Y-103535574D01*
X81929396Y-103529669D01*
X82026887Y-103390953D01*
X82088476Y-103232987D01*
X82105500Y-103103674D01*
X82105500Y-102411098D01*
X82125462Y-102336598D01*
X82180000Y-102282060D01*
X82254500Y-102262098D01*
X82329000Y-102282060D01*
X82372707Y-102320389D01*
X82424549Y-102387951D01*
X82544767Y-102480198D01*
X82553785Y-102483933D01*
X82553786Y-102483934D01*
X82677934Y-102535358D01*
X82739123Y-102582311D01*
X82768638Y-102653568D01*
X82769898Y-102675099D01*
X82769897Y-102675142D01*
X82768845Y-102683437D01*
X82769563Y-102690725D01*
X82769669Y-102691440D01*
X82769622Y-102694801D01*
X82770000Y-102702481D01*
X82770000Y-103231952D01*
X82770487Y-103236182D01*
X82770487Y-103236188D01*
X82773524Y-103262583D01*
X82774500Y-103279613D01*
X82774500Y-104167248D01*
X82775927Y-104174421D01*
X82775927Y-104174423D01*
X82785377Y-104221932D01*
X82780332Y-104298895D01*
X82737482Y-104363025D01*
X82668308Y-104397137D01*
X82639240Y-104400000D01*
X79774500Y-104400000D01*
X79700000Y-104380038D01*
X79645462Y-104325500D01*
X79625500Y-104251000D01*
X79625500Y-98670016D01*
X80704500Y-98670016D01*
X80719724Y-98795820D01*
X80779655Y-98954423D01*
X80875688Y-99094151D01*
X80882395Y-99100126D01*
X80882396Y-99100128D01*
X80995572Y-99200965D01*
X80995576Y-99200968D01*
X81002279Y-99206940D01*
X81010217Y-99211143D01*
X81010220Y-99211145D01*
X81017966Y-99215246D01*
X81152119Y-99286276D01*
X81160832Y-99288465D01*
X81160833Y-99288465D01*
X81170866Y-99290985D01*
X81316559Y-99327581D01*
X81420998Y-99328128D01*
X81477127Y-99328422D01*
X81486105Y-99328469D01*
X81518221Y-99320759D01*
X81642235Y-99290985D01*
X81642238Y-99290984D01*
X81650968Y-99288888D01*
X81658947Y-99284770D01*
X81658949Y-99284769D01*
X81793647Y-99215246D01*
X81793648Y-99215245D01*
X81801631Y-99211125D01*
X81808398Y-99205221D01*
X81808402Y-99205219D01*
X81922627Y-99105574D01*
X81929396Y-99099669D01*
X82026887Y-98960953D01*
X82088476Y-98802987D01*
X82105500Y-98673674D01*
X82105500Y-98670016D01*
X89344500Y-98670016D01*
X89359724Y-98795820D01*
X89419655Y-98954423D01*
X89515688Y-99094151D01*
X89522395Y-99100126D01*
X89522396Y-99100128D01*
X89635572Y-99200965D01*
X89635576Y-99200968D01*
X89642279Y-99206940D01*
X89650217Y-99211143D01*
X89650220Y-99211145D01*
X89657966Y-99215246D01*
X89792119Y-99286276D01*
X89800832Y-99288465D01*
X89800833Y-99288465D01*
X89810866Y-99290985D01*
X89956559Y-99327581D01*
X90060998Y-99328128D01*
X90117127Y-99328422D01*
X90126105Y-99328469D01*
X90158221Y-99320759D01*
X90282235Y-99290985D01*
X90282238Y-99290984D01*
X90290968Y-99288888D01*
X90298947Y-99284770D01*
X90298949Y-99284769D01*
X90433647Y-99215246D01*
X90433648Y-99215245D01*
X90441631Y-99211125D01*
X90448398Y-99205221D01*
X90448402Y-99205219D01*
X90562627Y-99105574D01*
X90569396Y-99099669D01*
X90666887Y-98960953D01*
X90728476Y-98802987D01*
X90745500Y-98673674D01*
X90745500Y-97984984D01*
X90730276Y-97859180D01*
X90670345Y-97700577D01*
X90574312Y-97560849D01*
X90567604Y-97554872D01*
X90454428Y-97454035D01*
X90454424Y-97454032D01*
X90447721Y-97448060D01*
X90439783Y-97443857D01*
X90439780Y-97443855D01*
X90305823Y-97372929D01*
X90297881Y-97368724D01*
X90289168Y-97366535D01*
X90289167Y-97366535D01*
X90216691Y-97348330D01*
X90133441Y-97327419D01*
X90029002Y-97326872D01*
X89972873Y-97326578D01*
X89963895Y-97326531D01*
X89955164Y-97328627D01*
X89955165Y-97328627D01*
X89807765Y-97364015D01*
X89807762Y-97364016D01*
X89799032Y-97366112D01*
X89791053Y-97370230D01*
X89791051Y-97370231D01*
X89656353Y-97439754D01*
X89648369Y-97443875D01*
X89641602Y-97449779D01*
X89641598Y-97449781D01*
X89636722Y-97454035D01*
X89520604Y-97555331D01*
X89423113Y-97694047D01*
X89361524Y-97852013D01*
X89344500Y-97981326D01*
X89344500Y-98670016D01*
X82105500Y-98670016D01*
X82105500Y-97984984D01*
X82090276Y-97859180D01*
X82030345Y-97700577D01*
X81934312Y-97560849D01*
X81927604Y-97554872D01*
X81814428Y-97454035D01*
X81814424Y-97454032D01*
X81807721Y-97448060D01*
X81799783Y-97443857D01*
X81799780Y-97443855D01*
X81665823Y-97372929D01*
X81657881Y-97368724D01*
X81649168Y-97366535D01*
X81649167Y-97366535D01*
X81576691Y-97348330D01*
X81493441Y-97327419D01*
X81389002Y-97326872D01*
X81332873Y-97326578D01*
X81323895Y-97326531D01*
X81315164Y-97328627D01*
X81315165Y-97328627D01*
X81167765Y-97364015D01*
X81167762Y-97364016D01*
X81159032Y-97366112D01*
X81151053Y-97370230D01*
X81151051Y-97370231D01*
X81016353Y-97439754D01*
X81008369Y-97443875D01*
X81001602Y-97449779D01*
X81001598Y-97449781D01*
X80996722Y-97454035D01*
X80880604Y-97555331D01*
X80783113Y-97694047D01*
X80721524Y-97852013D01*
X80704500Y-97981326D01*
X80704500Y-98670016D01*
X79625500Y-98670016D01*
X79625500Y-97829350D01*
X79627545Y-97808587D01*
X79627545Y-97804393D01*
X79630408Y-97790000D01*
X79627545Y-97775608D01*
X79627545Y-97773127D01*
X79628112Y-97760141D01*
X79639852Y-97625953D01*
X79644362Y-97600375D01*
X79683609Y-97453902D01*
X79692492Y-97429496D01*
X79740092Y-97327419D01*
X79756577Y-97292065D01*
X79769564Y-97269573D01*
X79856543Y-97145355D01*
X79873237Y-97125459D01*
X79980459Y-97018237D01*
X80000355Y-97001543D01*
X80124573Y-96914564D01*
X80147066Y-96901577D01*
X80284496Y-96837492D01*
X80308902Y-96828609D01*
X80455375Y-96789362D01*
X80480953Y-96784852D01*
X80615141Y-96773112D01*
X80628127Y-96772545D01*
X80630608Y-96772545D01*
X80645000Y-96775408D01*
X80659393Y-96772545D01*
X80663587Y-96772545D01*
X80684350Y-96770500D01*
X90765650Y-96770500D01*
X90786413Y-96772545D01*
G37*
%TD.AperFunction*%
%TD*%
%TA.AperFunction,Conductor*%
%TO.N,GND*%
G36*
X84562464Y-133359297D02*
G01*
X84562465Y-133359279D01*
X84574764Y-133359859D01*
X84586802Y-133362451D01*
X84588893Y-133362203D01*
X84656202Y-133383686D01*
X84708109Y-133440734D01*
X84724703Y-133509069D01*
X84724703Y-134090500D01*
X84704741Y-134165000D01*
X84650203Y-134219538D01*
X84575703Y-134239500D01*
X84200252Y-134239500D01*
X84193079Y-134240927D01*
X84193077Y-134240927D01*
X84156166Y-134248269D01*
X84156165Y-134248269D01*
X84141769Y-134251133D01*
X84075448Y-134295448D01*
X84031133Y-134361769D01*
X84019500Y-134420252D01*
X84019500Y-135659748D01*
X84031133Y-135718231D01*
X84075448Y-135784552D01*
X84141769Y-135828867D01*
X84156165Y-135831731D01*
X84156166Y-135831731D01*
X84193077Y-135839073D01*
X84193079Y-135839073D01*
X84200252Y-135840500D01*
X85475500Y-135840500D01*
X85550000Y-135860462D01*
X85604538Y-135915000D01*
X85624500Y-135989500D01*
X85624500Y-137071346D01*
X85621637Y-137100415D01*
X85611455Y-137151603D01*
X85589208Y-137205313D01*
X85567947Y-137237133D01*
X85526837Y-137278243D01*
X85495016Y-137299505D01*
X85441305Y-137321752D01*
X85389096Y-137332137D01*
X85360028Y-137335000D01*
X83769500Y-137335000D01*
X83695000Y-137315038D01*
X83640462Y-137260500D01*
X83620500Y-137186000D01*
X83620500Y-136120252D01*
X83608867Y-136061769D01*
X83564552Y-135995448D01*
X83552349Y-135987294D01*
X83510436Y-135959288D01*
X83510435Y-135959288D01*
X83498231Y-135951133D01*
X83483835Y-135948269D01*
X83483834Y-135948269D01*
X83446923Y-135940927D01*
X83446921Y-135940927D01*
X83439748Y-135939500D01*
X82064500Y-135939500D01*
X81990000Y-135919538D01*
X81935462Y-135865000D01*
X81915500Y-135790500D01*
X81915500Y-134327000D01*
X81935462Y-134252500D01*
X81990000Y-134197962D01*
X82064500Y-134178000D01*
X82332682Y-134177999D01*
X82404900Y-134177999D01*
X82426994Y-134175091D01*
X82443185Y-134172960D01*
X82443187Y-134172959D01*
X82454487Y-134171472D01*
X82563316Y-134120724D01*
X82648224Y-134035816D01*
X82698972Y-133926987D01*
X82703746Y-133890726D01*
X82704863Y-133882243D01*
X82704863Y-133882236D01*
X82705500Y-133877401D01*
X82705499Y-133507000D01*
X82725461Y-133432500D01*
X82779999Y-133377962D01*
X82854499Y-133358000D01*
X84550272Y-133358000D01*
X84562464Y-133359297D01*
G37*
%TD.AperFunction*%
%TD*%
M02*
