%TF.GenerationSoftware,KiCad,Pcbnew,(6.0.9-0)*%
%TF.CreationDate,2022-12-21T10:02:25+01:00*%
%TF.ProjectId,BluerPill,426c7565-7250-4696-9c6c-2e6b69636164,rev?*%
%TF.SameCoordinates,Original*%
%TF.FileFunction,Legend,Top*%
%TF.FilePolarity,Positive*%
%FSLAX46Y46*%
G04 Gerber Fmt 4.6, Leading zero omitted, Abs format (unit mm)*
G04 Created by KiCad (PCBNEW (6.0.9-0)) date 2022-12-21 10:02:25*
%MOMM*%
%LPD*%
G01*
G04 APERTURE LIST*
G04 Aperture macros list*
%AMRoundRect*
0 Rectangle with rounded corners*
0 $1 Rounding radius*
0 $2 $3 $4 $5 $6 $7 $8 $9 X,Y pos of 4 corners*
0 Add a 4 corners polygon primitive as box body*
4,1,4,$2,$3,$4,$5,$6,$7,$8,$9,$2,$3,0*
0 Add four circle primitives for the rounded corners*
1,1,$1+$1,$2,$3*
1,1,$1+$1,$4,$5*
1,1,$1+$1,$6,$7*
1,1,$1+$1,$8,$9*
0 Add four rect primitives between the rounded corners*
20,1,$1+$1,$2,$3,$4,$5,0*
20,1,$1+$1,$4,$5,$6,$7,0*
20,1,$1+$1,$6,$7,$8,$9,0*
20,1,$1+$1,$8,$9,$2,$3,0*%
G04 Aperture macros list end*
%ADD10C,0.100000*%
%ADD11C,0.150000*%
%ADD12C,0.225000*%
%ADD13C,0.120000*%
%ADD14RoundRect,0.225000X-0.225000X-0.250000X0.225000X-0.250000X0.225000X0.250000X-0.225000X0.250000X0*%
%ADD15R,0.900000X1.700000*%
%ADD16RoundRect,0.135000X-0.135000X-0.185000X0.135000X-0.185000X0.135000X0.185000X-0.135000X0.185000X0*%
%ADD17C,0.650000*%
%ADD18R,0.600000X1.450000*%
%ADD19R,0.300000X1.450000*%
%ADD20O,1.000000X1.600000*%
%ADD21O,1.000000X2.100000*%
%ADD22RoundRect,0.218750X-0.218750X-0.256250X0.218750X-0.256250X0.218750X0.256250X-0.218750X0.256250X0*%
%ADD23RoundRect,0.140000X-0.140000X-0.170000X0.140000X-0.170000X0.140000X0.170000X-0.140000X0.170000X0*%
%ADD24RoundRect,0.135000X0.135000X0.185000X-0.135000X0.185000X-0.135000X-0.185000X0.135000X-0.185000X0*%
%ADD25RoundRect,0.218750X-0.256250X0.218750X-0.256250X-0.218750X0.256250X-0.218750X0.256250X0.218750X0*%
%ADD26RoundRect,0.140000X0.140000X0.170000X-0.140000X0.170000X-0.140000X-0.170000X0.140000X-0.170000X0*%
%ADD27RoundRect,0.140000X-0.170000X0.140000X-0.170000X-0.140000X0.170000X-0.140000X0.170000X0.140000X0*%
%ADD28R,1.500000X2.000000*%
%ADD29R,3.800000X2.000000*%
%ADD30RoundRect,0.250000X0.475000X-0.250000X0.475000X0.250000X-0.475000X0.250000X-0.475000X-0.250000X0*%
%ADD31R,1.400000X1.200000*%
%ADD32R,1.700000X1.700000*%
%ADD33O,1.700000X1.700000*%
%ADD34RoundRect,0.075000X0.075000X-0.662500X0.075000X0.662500X-0.075000X0.662500X-0.075000X-0.662500X0*%
%ADD35RoundRect,0.075000X0.662500X-0.075000X0.662500X0.075000X-0.662500X0.075000X-0.662500X-0.075000X0*%
%ADD36RoundRect,0.250000X-0.475000X0.337500X-0.475000X-0.337500X0.475000X-0.337500X0.475000X0.337500X0*%
G04 APERTURE END LIST*
D10*
X103612142Y-129457857D02*
X103580714Y-129552142D01*
X103549285Y-129583571D01*
X103486428Y-129615000D01*
X103392142Y-129615000D01*
X103329285Y-129583571D01*
X103297857Y-129552142D01*
X103266428Y-129489285D01*
X103266428Y-129237857D01*
X103926428Y-129237857D01*
X103926428Y-129457857D01*
X103895000Y-129520714D01*
X103863571Y-129552142D01*
X103800714Y-129583571D01*
X103737857Y-129583571D01*
X103675000Y-129552142D01*
X103643571Y-129520714D01*
X103612142Y-129457857D01*
X103612142Y-129237857D01*
X103266428Y-129929285D02*
X103266428Y-130055000D01*
X103297857Y-130117857D01*
X103329285Y-130149285D01*
X103423571Y-130212142D01*
X103549285Y-130243571D01*
X103800714Y-130243571D01*
X103863571Y-130212142D01*
X103895000Y-130180714D01*
X103926428Y-130117857D01*
X103926428Y-129992142D01*
X103895000Y-129929285D01*
X103863571Y-129897857D01*
X103800714Y-129866428D01*
X103643571Y-129866428D01*
X103580714Y-129897857D01*
X103549285Y-129929285D01*
X103517857Y-129992142D01*
X103517857Y-130117857D01*
X103549285Y-130180714D01*
X103580714Y-130212142D01*
X103643571Y-130243571D01*
X106152142Y-123746071D02*
X106120714Y-123840357D01*
X106089285Y-123871785D01*
X106026428Y-123903214D01*
X105932142Y-123903214D01*
X105869285Y-123871785D01*
X105837857Y-123840357D01*
X105806428Y-123777500D01*
X105806428Y-123526071D01*
X106466428Y-123526071D01*
X106466428Y-123746071D01*
X106435000Y-123808928D01*
X106403571Y-123840357D01*
X106340714Y-123871785D01*
X106277857Y-123871785D01*
X106215000Y-123840357D01*
X106183571Y-123808928D01*
X106152142Y-123746071D01*
X106152142Y-123526071D01*
X105806428Y-124531785D02*
X105806428Y-124154642D01*
X105806428Y-124343214D02*
X106466428Y-124343214D01*
X106372142Y-124280357D01*
X106309285Y-124217500D01*
X106277857Y-124154642D01*
X106403571Y-124783214D02*
X106435000Y-124814642D01*
X106466428Y-124877500D01*
X106466428Y-125034642D01*
X106435000Y-125097500D01*
X106403571Y-125128928D01*
X106340714Y-125160357D01*
X106277857Y-125160357D01*
X106183571Y-125128928D01*
X105806428Y-124751785D01*
X105806428Y-125160357D01*
X118852142Y-129457857D02*
X118820714Y-129552142D01*
X118789285Y-129583571D01*
X118726428Y-129615000D01*
X118632142Y-129615000D01*
X118569285Y-129583571D01*
X118537857Y-129552142D01*
X118506428Y-129489285D01*
X118506428Y-129237857D01*
X119166428Y-129237857D01*
X119166428Y-129457857D01*
X119135000Y-129520714D01*
X119103571Y-129552142D01*
X119040714Y-129583571D01*
X118977857Y-129583571D01*
X118915000Y-129552142D01*
X118883571Y-129520714D01*
X118852142Y-129457857D01*
X118852142Y-129237857D01*
X119166428Y-129835000D02*
X119166428Y-130275000D01*
X118506428Y-129992142D01*
X134092142Y-129143571D02*
X134060714Y-129237857D01*
X134029285Y-129269285D01*
X133966428Y-129300714D01*
X133872142Y-129300714D01*
X133809285Y-129269285D01*
X133777857Y-129237857D01*
X133746428Y-129175000D01*
X133746428Y-128923571D01*
X134406428Y-128923571D01*
X134406428Y-129143571D01*
X134375000Y-129206428D01*
X134343571Y-129237857D01*
X134280714Y-129269285D01*
X134217857Y-129269285D01*
X134155000Y-129237857D01*
X134123571Y-129206428D01*
X134092142Y-129143571D01*
X134092142Y-128923571D01*
X133746428Y-129929285D02*
X133746428Y-129552142D01*
X133746428Y-129740714D02*
X134406428Y-129740714D01*
X134312142Y-129677857D01*
X134249285Y-129615000D01*
X134217857Y-129552142D01*
X134186428Y-130495000D02*
X133746428Y-130495000D01*
X134437857Y-130337857D02*
X133966428Y-130180714D01*
X133966428Y-130589285D01*
X118695000Y-123856071D02*
X118695000Y-124170357D01*
X118506428Y-123793214D02*
X119166428Y-124013214D01*
X118506428Y-124233214D01*
X119166428Y-124390357D02*
X119166428Y-124830357D01*
X118506428Y-124547500D01*
X87966428Y-145124285D02*
X88626428Y-145124285D01*
X88626428Y-145281428D01*
X88595000Y-145375714D01*
X88532142Y-145438571D01*
X88469285Y-145470000D01*
X88343571Y-145501428D01*
X88249285Y-145501428D01*
X88123571Y-145470000D01*
X88060714Y-145438571D01*
X87997857Y-145375714D01*
X87966428Y-145281428D01*
X87966428Y-145124285D01*
X87966428Y-145784285D02*
X88626428Y-145784285D01*
X88626428Y-146224285D02*
X88626428Y-146350000D01*
X88595000Y-146412857D01*
X88532142Y-146475714D01*
X88406428Y-146507142D01*
X88186428Y-146507142D01*
X88060714Y-146475714D01*
X87997857Y-146412857D01*
X87966428Y-146350000D01*
X87966428Y-146224285D01*
X87997857Y-146161428D01*
X88060714Y-146098571D01*
X88186428Y-146067142D01*
X88406428Y-146067142D01*
X88532142Y-146098571D01*
X88595000Y-146161428D01*
X88626428Y-146224285D01*
X98815000Y-129222142D02*
X98846428Y-129159285D01*
X98846428Y-129065000D01*
X98815000Y-128970714D01*
X98752142Y-128907857D01*
X98689285Y-128876428D01*
X98563571Y-128845000D01*
X98469285Y-128845000D01*
X98343571Y-128876428D01*
X98280714Y-128907857D01*
X98217857Y-128970714D01*
X98186428Y-129065000D01*
X98186428Y-129127857D01*
X98217857Y-129222142D01*
X98249285Y-129253571D01*
X98469285Y-129253571D01*
X98469285Y-129127857D01*
X98186428Y-129536428D02*
X98846428Y-129536428D01*
X98186428Y-129913571D01*
X98846428Y-129913571D01*
X98186428Y-130227857D02*
X98846428Y-130227857D01*
X98846428Y-130385000D01*
X98815000Y-130479285D01*
X98752142Y-130542142D01*
X98689285Y-130573571D01*
X98563571Y-130605000D01*
X98469285Y-130605000D01*
X98343571Y-130573571D01*
X98280714Y-130542142D01*
X98217857Y-130479285D01*
X98186428Y-130385000D01*
X98186428Y-130227857D01*
X85426428Y-138238571D02*
X85740714Y-138018571D01*
X85426428Y-137861428D02*
X86086428Y-137861428D01*
X86086428Y-138112857D01*
X86055000Y-138175714D01*
X86023571Y-138207142D01*
X85960714Y-138238571D01*
X85866428Y-138238571D01*
X85803571Y-138207142D01*
X85772142Y-138175714D01*
X85740714Y-138112857D01*
X85740714Y-137861428D01*
X85457857Y-138490000D02*
X85426428Y-138584285D01*
X85426428Y-138741428D01*
X85457857Y-138804285D01*
X85489285Y-138835714D01*
X85552142Y-138867142D01*
X85615000Y-138867142D01*
X85677857Y-138835714D01*
X85709285Y-138804285D01*
X85740714Y-138741428D01*
X85772142Y-138615714D01*
X85803571Y-138552857D01*
X85835000Y-138521428D01*
X85897857Y-138490000D01*
X85960714Y-138490000D01*
X86023571Y-138521428D01*
X86055000Y-138552857D01*
X86086428Y-138615714D01*
X86086428Y-138772857D01*
X86055000Y-138867142D01*
X86086428Y-139055714D02*
X86086428Y-139432857D01*
X85426428Y-139244285D02*
X86086428Y-139244285D01*
X96306428Y-128907857D02*
X96306428Y-129316428D01*
X96055000Y-129096428D01*
X96055000Y-129190714D01*
X96023571Y-129253571D01*
X95992142Y-129285000D01*
X95929285Y-129316428D01*
X95772142Y-129316428D01*
X95709285Y-129285000D01*
X95677857Y-129253571D01*
X95646428Y-129190714D01*
X95646428Y-129002142D01*
X95677857Y-128939285D01*
X95709285Y-128907857D01*
X96306428Y-129505000D02*
X95646428Y-129725000D01*
X96306428Y-129945000D01*
X96306428Y-130102142D02*
X96306428Y-130510714D01*
X96055000Y-130290714D01*
X96055000Y-130385000D01*
X96023571Y-130447857D01*
X95992142Y-130479285D01*
X95929285Y-130510714D01*
X95772142Y-130510714D01*
X95709285Y-130479285D01*
X95677857Y-130447857D01*
X95646428Y-130385000D01*
X95646428Y-130196428D01*
X95677857Y-130133571D01*
X95709285Y-130102142D01*
X113772142Y-124060357D02*
X113740714Y-124154642D01*
X113709285Y-124186071D01*
X113646428Y-124217500D01*
X113552142Y-124217500D01*
X113489285Y-124186071D01*
X113457857Y-124154642D01*
X113426428Y-124091785D01*
X113426428Y-123840357D01*
X114086428Y-123840357D01*
X114086428Y-124060357D01*
X114055000Y-124123214D01*
X114023571Y-124154642D01*
X113960714Y-124186071D01*
X113897857Y-124186071D01*
X113835000Y-124154642D01*
X113803571Y-124123214D01*
X113772142Y-124060357D01*
X113772142Y-123840357D01*
X113426428Y-124846071D02*
X113426428Y-124468928D01*
X113426428Y-124657500D02*
X114086428Y-124657500D01*
X113992142Y-124594642D01*
X113929285Y-124531785D01*
X113897857Y-124468928D01*
X131395000Y-123856071D02*
X131395000Y-124170357D01*
X131206428Y-123793214D02*
X131866428Y-124013214D01*
X131206428Y-124233214D01*
X131803571Y-124421785D02*
X131835000Y-124453214D01*
X131866428Y-124516071D01*
X131866428Y-124673214D01*
X131835000Y-124736071D01*
X131803571Y-124767500D01*
X131740714Y-124798928D01*
X131677857Y-124798928D01*
X131583571Y-124767500D01*
X131206428Y-124390357D01*
X131206428Y-124798928D01*
X116312142Y-129457857D02*
X116280714Y-129552142D01*
X116249285Y-129583571D01*
X116186428Y-129615000D01*
X116092142Y-129615000D01*
X116029285Y-129583571D01*
X115997857Y-129552142D01*
X115966428Y-129489285D01*
X115966428Y-129237857D01*
X116626428Y-129237857D01*
X116626428Y-129457857D01*
X116595000Y-129520714D01*
X116563571Y-129552142D01*
X116500714Y-129583571D01*
X116437857Y-129583571D01*
X116375000Y-129552142D01*
X116343571Y-129520714D01*
X116312142Y-129457857D01*
X116312142Y-129237857D01*
X116626428Y-130180714D02*
X116626428Y-130055000D01*
X116595000Y-129992142D01*
X116563571Y-129960714D01*
X116469285Y-129897857D01*
X116343571Y-129866428D01*
X116092142Y-129866428D01*
X116029285Y-129897857D01*
X115997857Y-129929285D01*
X115966428Y-129992142D01*
X115966428Y-130117857D01*
X115997857Y-130180714D01*
X116029285Y-130212142D01*
X116092142Y-130243571D01*
X116249285Y-130243571D01*
X116312142Y-130212142D01*
X116343571Y-130180714D01*
X116375000Y-130117857D01*
X116375000Y-129992142D01*
X116343571Y-129929285D01*
X116312142Y-129897857D01*
X116249285Y-129866428D01*
D11*
X90082738Y-140882857D02*
X90035119Y-141025714D01*
X90035119Y-141263809D01*
X90082738Y-141359047D01*
X90130357Y-141406666D01*
X90225595Y-141454285D01*
X90320833Y-141454285D01*
X90416071Y-141406666D01*
X90463690Y-141359047D01*
X90511309Y-141263809D01*
X90558928Y-141073333D01*
X90606547Y-140978095D01*
X90654166Y-140930476D01*
X90749404Y-140882857D01*
X90844642Y-140882857D01*
X90939880Y-140930476D01*
X90987500Y-140978095D01*
X91035119Y-141073333D01*
X91035119Y-141311428D01*
X90987500Y-141454285D01*
X91035119Y-141787619D02*
X90035119Y-142025714D01*
X90749404Y-142216190D01*
X90035119Y-142406666D01*
X91035119Y-142644761D01*
X90035119Y-143025714D02*
X91035119Y-143025714D01*
X91035119Y-143263809D01*
X90987500Y-143406666D01*
X90892261Y-143501904D01*
X90797023Y-143549523D01*
X90606547Y-143597142D01*
X90463690Y-143597142D01*
X90273214Y-143549523D01*
X90177976Y-143501904D01*
X90082738Y-143406666D01*
X90035119Y-143263809D01*
X90035119Y-143025714D01*
D10*
X126315000Y-123856071D02*
X126315000Y-124170357D01*
X126126428Y-123793214D02*
X126786428Y-124013214D01*
X126126428Y-124233214D01*
X126566428Y-124736071D02*
X126126428Y-124736071D01*
X126817857Y-124578928D02*
X126346428Y-124421785D01*
X126346428Y-124830357D01*
X82279642Y-150237500D02*
X82248214Y-150331785D01*
X82216785Y-150363214D01*
X82153928Y-150394642D01*
X82059642Y-150394642D01*
X81996785Y-150363214D01*
X81965357Y-150331785D01*
X81933928Y-150268928D01*
X81933928Y-150017500D01*
X82593928Y-150017500D01*
X82593928Y-150237500D01*
X82562500Y-150300357D01*
X82531071Y-150331785D01*
X82468214Y-150363214D01*
X82405357Y-150363214D01*
X82342500Y-150331785D01*
X82311071Y-150300357D01*
X82279642Y-150237500D01*
X82279642Y-150017500D01*
X82593928Y-150803214D02*
X82593928Y-150928928D01*
X82562500Y-150991785D01*
X82499642Y-151054642D01*
X82373928Y-151086071D01*
X82153928Y-151086071D01*
X82028214Y-151054642D01*
X81965357Y-150991785D01*
X81933928Y-150928928D01*
X81933928Y-150803214D01*
X81965357Y-150740357D01*
X82028214Y-150677500D01*
X82153928Y-150646071D01*
X82373928Y-150646071D01*
X82499642Y-150677500D01*
X82562500Y-150740357D01*
X82593928Y-150803214D01*
X82593928Y-151494642D02*
X82593928Y-151620357D01*
X82562500Y-151683214D01*
X82499642Y-151746071D01*
X82373928Y-151777500D01*
X82153928Y-151777500D01*
X82028214Y-151746071D01*
X81965357Y-151683214D01*
X81933928Y-151620357D01*
X81933928Y-151494642D01*
X81965357Y-151431785D01*
X82028214Y-151368928D01*
X82153928Y-151337500D01*
X82373928Y-151337500D01*
X82499642Y-151368928D01*
X82562500Y-151431785D01*
X82593928Y-151494642D01*
X82593928Y-151966071D02*
X82593928Y-152343214D01*
X81933928Y-152154642D02*
X82593928Y-152154642D01*
X82593928Y-152688928D02*
X82593928Y-152751785D01*
X82562500Y-152814642D01*
X82531071Y-152846071D01*
X82468214Y-152877500D01*
X82342500Y-152908928D01*
X82185357Y-152908928D01*
X82059642Y-152877500D01*
X81996785Y-152846071D01*
X81965357Y-152814642D01*
X81933928Y-152751785D01*
X81933928Y-152688928D01*
X81965357Y-152626071D01*
X81996785Y-152594642D01*
X82059642Y-152563214D01*
X82185357Y-152531785D01*
X82342500Y-152531785D01*
X82468214Y-152563214D01*
X82531071Y-152594642D01*
X82562500Y-152626071D01*
X82593928Y-152688928D01*
X121235000Y-123856071D02*
X121235000Y-124170357D01*
X121046428Y-123793214D02*
X121706428Y-124013214D01*
X121046428Y-124233214D01*
X121706428Y-124736071D02*
X121706428Y-124610357D01*
X121675000Y-124547500D01*
X121643571Y-124516071D01*
X121549285Y-124453214D01*
X121423571Y-124421785D01*
X121172142Y-124421785D01*
X121109285Y-124453214D01*
X121077857Y-124484642D01*
X121046428Y-124547500D01*
X121046428Y-124673214D01*
X121077857Y-124736071D01*
X121109285Y-124767500D01*
X121172142Y-124798928D01*
X121329285Y-124798928D01*
X121392142Y-124767500D01*
X121423571Y-124736071D01*
X121455000Y-124673214D01*
X121455000Y-124547500D01*
X121423571Y-124484642D01*
X121392142Y-124453214D01*
X121329285Y-124421785D01*
X116312142Y-124060357D02*
X116280714Y-124154642D01*
X116249285Y-124186071D01*
X116186428Y-124217500D01*
X116092142Y-124217500D01*
X116029285Y-124186071D01*
X115997857Y-124154642D01*
X115966428Y-124091785D01*
X115966428Y-123840357D01*
X116626428Y-123840357D01*
X116626428Y-124060357D01*
X116595000Y-124123214D01*
X116563571Y-124154642D01*
X116500714Y-124186071D01*
X116437857Y-124186071D01*
X116375000Y-124154642D01*
X116343571Y-124123214D01*
X116312142Y-124060357D01*
X116312142Y-123840357D01*
X116626428Y-124626071D02*
X116626428Y-124688928D01*
X116595000Y-124751785D01*
X116563571Y-124783214D01*
X116500714Y-124814642D01*
X116375000Y-124846071D01*
X116217857Y-124846071D01*
X116092142Y-124814642D01*
X116029285Y-124783214D01*
X115997857Y-124751785D01*
X115966428Y-124688928D01*
X115966428Y-124626071D01*
X115997857Y-124563214D01*
X116029285Y-124531785D01*
X116092142Y-124500357D01*
X116217857Y-124468928D01*
X116375000Y-124468928D01*
X116500714Y-124500357D01*
X116563571Y-124531785D01*
X116595000Y-124563214D01*
X116626428Y-124626071D01*
X136632142Y-129143571D02*
X136600714Y-129237857D01*
X136569285Y-129269285D01*
X136506428Y-129300714D01*
X136412142Y-129300714D01*
X136349285Y-129269285D01*
X136317857Y-129237857D01*
X136286428Y-129175000D01*
X136286428Y-128923571D01*
X136946428Y-128923571D01*
X136946428Y-129143571D01*
X136915000Y-129206428D01*
X136883571Y-129237857D01*
X136820714Y-129269285D01*
X136757857Y-129269285D01*
X136695000Y-129237857D01*
X136663571Y-129206428D01*
X136632142Y-129143571D01*
X136632142Y-128923571D01*
X136286428Y-129929285D02*
X136286428Y-129552142D01*
X136286428Y-129740714D02*
X136946428Y-129740714D01*
X136852142Y-129677857D01*
X136789285Y-129615000D01*
X136757857Y-129552142D01*
X136946428Y-130526428D02*
X136946428Y-130212142D01*
X136632142Y-130180714D01*
X136663571Y-130212142D01*
X136695000Y-130275000D01*
X136695000Y-130432142D01*
X136663571Y-130495000D01*
X136632142Y-130526428D01*
X136569285Y-130557857D01*
X136412142Y-130557857D01*
X136349285Y-130526428D01*
X136317857Y-130495000D01*
X136286428Y-130432142D01*
X136286428Y-130275000D01*
X136317857Y-130212142D01*
X136349285Y-130180714D01*
X82917857Y-145088571D02*
X82886428Y-145182857D01*
X82886428Y-145340000D01*
X82917857Y-145402857D01*
X82949285Y-145434285D01*
X83012142Y-145465714D01*
X83075000Y-145465714D01*
X83137857Y-145434285D01*
X83169285Y-145402857D01*
X83200714Y-145340000D01*
X83232142Y-145214285D01*
X83263571Y-145151428D01*
X83295000Y-145120000D01*
X83357857Y-145088571D01*
X83420714Y-145088571D01*
X83483571Y-145120000D01*
X83515000Y-145151428D01*
X83546428Y-145214285D01*
X83546428Y-145371428D01*
X83515000Y-145465714D01*
X83546428Y-145685714D02*
X82886428Y-145842857D01*
X83357857Y-145968571D01*
X82886428Y-146094285D01*
X83546428Y-146251428D01*
X83546428Y-146628571D02*
X83546428Y-146754285D01*
X83515000Y-146817142D01*
X83452142Y-146880000D01*
X83326428Y-146911428D01*
X83106428Y-146911428D01*
X82980714Y-146880000D01*
X82917857Y-146817142D01*
X82886428Y-146754285D01*
X82886428Y-146628571D01*
X82917857Y-146565714D01*
X82980714Y-146502857D01*
X83106428Y-146471428D01*
X83326428Y-146471428D01*
X83452142Y-146502857D01*
X83515000Y-146565714D01*
X83546428Y-146628571D01*
X126315000Y-128939285D02*
X126315000Y-129253571D01*
X126126428Y-128876428D02*
X126786428Y-129096428D01*
X126126428Y-129316428D01*
X126126428Y-129882142D02*
X126126428Y-129505000D01*
X126126428Y-129693571D02*
X126786428Y-129693571D01*
X126692142Y-129630714D01*
X126629285Y-129567857D01*
X126597857Y-129505000D01*
X126786428Y-130290714D02*
X126786428Y-130353571D01*
X126755000Y-130416428D01*
X126723571Y-130447857D01*
X126660714Y-130479285D01*
X126535000Y-130510714D01*
X126377857Y-130510714D01*
X126252142Y-130479285D01*
X126189285Y-130447857D01*
X126157857Y-130416428D01*
X126126428Y-130353571D01*
X126126428Y-130290714D01*
X126157857Y-130227857D01*
X126189285Y-130196428D01*
X126252142Y-130165000D01*
X126377857Y-130133571D01*
X126535000Y-130133571D01*
X126660714Y-130165000D01*
X126723571Y-130196428D01*
X126755000Y-130227857D01*
X126786428Y-130290714D01*
X113772142Y-129457857D02*
X113740714Y-129552142D01*
X113709285Y-129583571D01*
X113646428Y-129615000D01*
X113552142Y-129615000D01*
X113489285Y-129583571D01*
X113457857Y-129552142D01*
X113426428Y-129489285D01*
X113426428Y-129237857D01*
X114086428Y-129237857D01*
X114086428Y-129457857D01*
X114055000Y-129520714D01*
X114023571Y-129552142D01*
X113960714Y-129583571D01*
X113897857Y-129583571D01*
X113835000Y-129552142D01*
X113803571Y-129520714D01*
X113772142Y-129457857D01*
X113772142Y-129237857D01*
X114086428Y-130212142D02*
X114086428Y-129897857D01*
X113772142Y-129866428D01*
X113803571Y-129897857D01*
X113835000Y-129960714D01*
X113835000Y-130117857D01*
X113803571Y-130180714D01*
X113772142Y-130212142D01*
X113709285Y-130243571D01*
X113552142Y-130243571D01*
X113489285Y-130212142D01*
X113457857Y-130180714D01*
X113426428Y-130117857D01*
X113426428Y-129960714D01*
X113457857Y-129897857D01*
X113489285Y-129866428D01*
X101386428Y-124201785D02*
X101386428Y-123887500D01*
X101072142Y-123856071D01*
X101103571Y-123887500D01*
X101135000Y-123950357D01*
X101135000Y-124107500D01*
X101103571Y-124170357D01*
X101072142Y-124201785D01*
X101009285Y-124233214D01*
X100852142Y-124233214D01*
X100789285Y-124201785D01*
X100757857Y-124170357D01*
X100726428Y-124107500D01*
X100726428Y-123950357D01*
X100757857Y-123887500D01*
X100789285Y-123856071D01*
X101386428Y-124421785D02*
X100726428Y-124641785D01*
X101386428Y-124861785D01*
X98815000Y-123824642D02*
X98846428Y-123761785D01*
X98846428Y-123667500D01*
X98815000Y-123573214D01*
X98752142Y-123510357D01*
X98689285Y-123478928D01*
X98563571Y-123447500D01*
X98469285Y-123447500D01*
X98343571Y-123478928D01*
X98280714Y-123510357D01*
X98217857Y-123573214D01*
X98186428Y-123667500D01*
X98186428Y-123730357D01*
X98217857Y-123824642D01*
X98249285Y-123856071D01*
X98469285Y-123856071D01*
X98469285Y-123730357D01*
X98186428Y-124138928D02*
X98846428Y-124138928D01*
X98186428Y-124516071D01*
X98846428Y-124516071D01*
X98186428Y-124830357D02*
X98846428Y-124830357D01*
X98846428Y-124987500D01*
X98815000Y-125081785D01*
X98752142Y-125144642D01*
X98689285Y-125176071D01*
X98563571Y-125207500D01*
X98469285Y-125207500D01*
X98343571Y-125176071D01*
X98280714Y-125144642D01*
X98217857Y-125081785D01*
X98186428Y-124987500D01*
X98186428Y-124830357D01*
X88918928Y-150488928D02*
X89233214Y-150268928D01*
X88918928Y-150111785D02*
X89578928Y-150111785D01*
X89578928Y-150363214D01*
X89547500Y-150426071D01*
X89516071Y-150457500D01*
X89453214Y-150488928D01*
X89358928Y-150488928D01*
X89296071Y-150457500D01*
X89264642Y-150426071D01*
X89233214Y-150363214D01*
X89233214Y-150111785D01*
X89264642Y-150771785D02*
X89264642Y-150991785D01*
X88918928Y-151086071D02*
X88918928Y-150771785D01*
X89578928Y-150771785D01*
X89578928Y-151086071D01*
X88950357Y-151337500D02*
X88918928Y-151431785D01*
X88918928Y-151588928D01*
X88950357Y-151651785D01*
X88981785Y-151683214D01*
X89044642Y-151714642D01*
X89107500Y-151714642D01*
X89170357Y-151683214D01*
X89201785Y-151651785D01*
X89233214Y-151588928D01*
X89264642Y-151463214D01*
X89296071Y-151400357D01*
X89327500Y-151368928D01*
X89390357Y-151337500D01*
X89453214Y-151337500D01*
X89516071Y-151368928D01*
X89547500Y-151400357D01*
X89578928Y-151463214D01*
X89578928Y-151620357D01*
X89547500Y-151714642D01*
X89264642Y-151997500D02*
X89264642Y-152217500D01*
X88918928Y-152311785D02*
X88918928Y-151997500D01*
X89578928Y-151997500D01*
X89578928Y-152311785D01*
X89578928Y-152500357D02*
X89578928Y-152877500D01*
X88918928Y-152688928D02*
X89578928Y-152688928D01*
X111232142Y-129457857D02*
X111200714Y-129552142D01*
X111169285Y-129583571D01*
X111106428Y-129615000D01*
X111012142Y-129615000D01*
X110949285Y-129583571D01*
X110917857Y-129552142D01*
X110886428Y-129489285D01*
X110886428Y-129237857D01*
X111546428Y-129237857D01*
X111546428Y-129457857D01*
X111515000Y-129520714D01*
X111483571Y-129552142D01*
X111420714Y-129583571D01*
X111357857Y-129583571D01*
X111295000Y-129552142D01*
X111263571Y-129520714D01*
X111232142Y-129457857D01*
X111232142Y-129237857D01*
X111263571Y-129992142D02*
X111295000Y-129929285D01*
X111326428Y-129897857D01*
X111389285Y-129866428D01*
X111420714Y-129866428D01*
X111483571Y-129897857D01*
X111515000Y-129929285D01*
X111546428Y-129992142D01*
X111546428Y-130117857D01*
X111515000Y-130180714D01*
X111483571Y-130212142D01*
X111420714Y-130243571D01*
X111389285Y-130243571D01*
X111326428Y-130212142D01*
X111295000Y-130180714D01*
X111263571Y-130117857D01*
X111263571Y-129992142D01*
X111232142Y-129929285D01*
X111200714Y-129897857D01*
X111137857Y-129866428D01*
X111012142Y-129866428D01*
X110949285Y-129897857D01*
X110917857Y-129929285D01*
X110886428Y-129992142D01*
X110886428Y-130117857D01*
X110917857Y-130180714D01*
X110949285Y-130212142D01*
X111012142Y-130243571D01*
X111137857Y-130243571D01*
X111200714Y-130212142D01*
X111232142Y-130180714D01*
X111263571Y-130117857D01*
D12*
X82399642Y-107091785D02*
X82328214Y-107306071D01*
X82256785Y-107377500D01*
X82113928Y-107448928D01*
X81899642Y-107448928D01*
X81756785Y-107377500D01*
X81685357Y-107306071D01*
X81613928Y-107163214D01*
X81613928Y-106591785D01*
X83113928Y-106591785D01*
X83113928Y-107091785D01*
X83042500Y-107234642D01*
X82971071Y-107306071D01*
X82828214Y-107377500D01*
X82685357Y-107377500D01*
X82542500Y-107306071D01*
X82471071Y-107234642D01*
X82399642Y-107091785D01*
X82399642Y-106591785D01*
X81613928Y-108306071D02*
X81685357Y-108163214D01*
X81828214Y-108091785D01*
X83113928Y-108091785D01*
X82613928Y-109520357D02*
X81613928Y-109520357D01*
X82613928Y-108877500D02*
X81828214Y-108877500D01*
X81685357Y-108948928D01*
X81613928Y-109091785D01*
X81613928Y-109306071D01*
X81685357Y-109448928D01*
X81756785Y-109520357D01*
X81685357Y-110806071D02*
X81613928Y-110663214D01*
X81613928Y-110377500D01*
X81685357Y-110234642D01*
X81828214Y-110163214D01*
X82399642Y-110163214D01*
X82542500Y-110234642D01*
X82613928Y-110377500D01*
X82613928Y-110663214D01*
X82542500Y-110806071D01*
X82399642Y-110877500D01*
X82256785Y-110877500D01*
X82113928Y-110163214D01*
X81613928Y-111520357D02*
X82613928Y-111520357D01*
X82328214Y-111520357D02*
X82471071Y-111591785D01*
X82542500Y-111663214D01*
X82613928Y-111806071D01*
X82613928Y-111948928D01*
X81613928Y-113591785D02*
X83113928Y-113591785D01*
X83113928Y-114163214D01*
X83042500Y-114306071D01*
X82971071Y-114377500D01*
X82828214Y-114448928D01*
X82613928Y-114448928D01*
X82471071Y-114377500D01*
X82399642Y-114306071D01*
X82328214Y-114163214D01*
X82328214Y-113591785D01*
X81613928Y-115091785D02*
X82613928Y-115091785D01*
X83113928Y-115091785D02*
X83042500Y-115020357D01*
X82971071Y-115091785D01*
X83042500Y-115163214D01*
X83113928Y-115091785D01*
X82971071Y-115091785D01*
X81613928Y-116020357D02*
X81685357Y-115877500D01*
X81828214Y-115806071D01*
X83113928Y-115806071D01*
X81613928Y-116806071D02*
X81685357Y-116663214D01*
X81828214Y-116591785D01*
X83113928Y-116591785D01*
D10*
X131395000Y-129253571D02*
X131395000Y-129567857D01*
X131206428Y-129190714D02*
X131866428Y-129410714D01*
X131206428Y-129630714D01*
X131583571Y-129945000D02*
X131615000Y-129882142D01*
X131646428Y-129850714D01*
X131709285Y-129819285D01*
X131740714Y-129819285D01*
X131803571Y-129850714D01*
X131835000Y-129882142D01*
X131866428Y-129945000D01*
X131866428Y-130070714D01*
X131835000Y-130133571D01*
X131803571Y-130165000D01*
X131740714Y-130196428D01*
X131709285Y-130196428D01*
X131646428Y-130165000D01*
X131615000Y-130133571D01*
X131583571Y-130070714D01*
X131583571Y-129945000D01*
X131552142Y-129882142D01*
X131520714Y-129850714D01*
X131457857Y-129819285D01*
X131332142Y-129819285D01*
X131269285Y-129850714D01*
X131237857Y-129882142D01*
X131206428Y-129945000D01*
X131206428Y-130070714D01*
X131237857Y-130133571D01*
X131269285Y-130165000D01*
X131332142Y-130196428D01*
X131457857Y-130196428D01*
X131520714Y-130165000D01*
X131552142Y-130133571D01*
X131583571Y-130070714D01*
X111232142Y-123746071D02*
X111200714Y-123840357D01*
X111169285Y-123871785D01*
X111106428Y-123903214D01*
X111012142Y-123903214D01*
X110949285Y-123871785D01*
X110917857Y-123840357D01*
X110886428Y-123777500D01*
X110886428Y-123526071D01*
X111546428Y-123526071D01*
X111546428Y-123746071D01*
X111515000Y-123808928D01*
X111483571Y-123840357D01*
X111420714Y-123871785D01*
X111357857Y-123871785D01*
X111295000Y-123840357D01*
X111263571Y-123808928D01*
X111232142Y-123746071D01*
X111232142Y-123526071D01*
X110886428Y-124531785D02*
X110886428Y-124154642D01*
X110886428Y-124343214D02*
X111546428Y-124343214D01*
X111452142Y-124280357D01*
X111389285Y-124217500D01*
X111357857Y-124154642D01*
X111546428Y-124940357D02*
X111546428Y-125003214D01*
X111515000Y-125066071D01*
X111483571Y-125097500D01*
X111420714Y-125128928D01*
X111295000Y-125160357D01*
X111137857Y-125160357D01*
X111012142Y-125128928D01*
X110949285Y-125097500D01*
X110917857Y-125066071D01*
X110886428Y-125003214D01*
X110886428Y-124940357D01*
X110917857Y-124877500D01*
X110949285Y-124846071D01*
X111012142Y-124814642D01*
X111137857Y-124783214D01*
X111295000Y-124783214D01*
X111420714Y-124814642D01*
X111483571Y-124846071D01*
X111515000Y-124877500D01*
X111546428Y-124940357D01*
X105869285Y-129300714D02*
X105837857Y-129269285D01*
X105806428Y-129175000D01*
X105806428Y-129112142D01*
X105837857Y-129017857D01*
X105900714Y-128955000D01*
X105963571Y-128923571D01*
X106089285Y-128892142D01*
X106183571Y-128892142D01*
X106309285Y-128923571D01*
X106372142Y-128955000D01*
X106435000Y-129017857D01*
X106466428Y-129112142D01*
X106466428Y-129175000D01*
X106435000Y-129269285D01*
X106403571Y-129300714D01*
X105806428Y-129929285D02*
X105806428Y-129552142D01*
X105806428Y-129740714D02*
X106466428Y-129740714D01*
X106372142Y-129677857D01*
X106309285Y-129615000D01*
X106277857Y-129552142D01*
X106246428Y-130495000D02*
X105806428Y-130495000D01*
X106497857Y-130337857D02*
X106026428Y-130180714D01*
X106026428Y-130589285D01*
X128855000Y-129253571D02*
X128855000Y-129567857D01*
X128666428Y-129190714D02*
X129326428Y-129410714D01*
X128666428Y-129630714D01*
X128666428Y-129882142D02*
X128666428Y-130007857D01*
X128697857Y-130070714D01*
X128729285Y-130102142D01*
X128823571Y-130165000D01*
X128949285Y-130196428D01*
X129200714Y-130196428D01*
X129263571Y-130165000D01*
X129295000Y-130133571D01*
X129326428Y-130070714D01*
X129326428Y-129945000D01*
X129295000Y-129882142D01*
X129263571Y-129850714D01*
X129200714Y-129819285D01*
X129043571Y-129819285D01*
X128980714Y-129850714D01*
X128949285Y-129882142D01*
X128917857Y-129945000D01*
X128917857Y-130070714D01*
X128949285Y-130133571D01*
X128980714Y-130165000D01*
X129043571Y-130196428D01*
X100789285Y-129300714D02*
X100757857Y-129269285D01*
X100726428Y-129175000D01*
X100726428Y-129112142D01*
X100757857Y-129017857D01*
X100820714Y-128955000D01*
X100883571Y-128923571D01*
X101009285Y-128892142D01*
X101103571Y-128892142D01*
X101229285Y-128923571D01*
X101292142Y-128955000D01*
X101355000Y-129017857D01*
X101386428Y-129112142D01*
X101386428Y-129175000D01*
X101355000Y-129269285D01*
X101323571Y-129300714D01*
X100726428Y-129929285D02*
X100726428Y-129552142D01*
X100726428Y-129740714D02*
X101386428Y-129740714D01*
X101292142Y-129677857D01*
X101229285Y-129615000D01*
X101197857Y-129552142D01*
X101386428Y-130149285D02*
X101386428Y-130557857D01*
X101135000Y-130337857D01*
X101135000Y-130432142D01*
X101103571Y-130495000D01*
X101072142Y-130526428D01*
X101009285Y-130557857D01*
X100852142Y-130557857D01*
X100789285Y-130526428D01*
X100757857Y-130495000D01*
X100726428Y-130432142D01*
X100726428Y-130243571D01*
X100757857Y-130180714D01*
X100789285Y-130149285D01*
X88626428Y-137782857D02*
X88626428Y-138191428D01*
X88375000Y-137971428D01*
X88375000Y-138065714D01*
X88343571Y-138128571D01*
X88312142Y-138160000D01*
X88249285Y-138191428D01*
X88092142Y-138191428D01*
X88029285Y-138160000D01*
X87997857Y-138128571D01*
X87966428Y-138065714D01*
X87966428Y-137877142D01*
X87997857Y-137814285D01*
X88029285Y-137782857D01*
X88626428Y-138380000D02*
X87966428Y-138600000D01*
X88626428Y-138820000D01*
X88626428Y-138977142D02*
X88626428Y-139385714D01*
X88375000Y-139165714D01*
X88375000Y-139260000D01*
X88343571Y-139322857D01*
X88312142Y-139354285D01*
X88249285Y-139385714D01*
X88092142Y-139385714D01*
X88029285Y-139354285D01*
X87997857Y-139322857D01*
X87966428Y-139260000D01*
X87966428Y-139071428D01*
X87997857Y-139008571D01*
X88029285Y-138977142D01*
X85426428Y-150316071D02*
X86086428Y-150316071D01*
X86086428Y-150567500D01*
X86055000Y-150630357D01*
X86023571Y-150661785D01*
X85960714Y-150693214D01*
X85866428Y-150693214D01*
X85803571Y-150661785D01*
X85772142Y-150630357D01*
X85740714Y-150567500D01*
X85740714Y-150316071D01*
X85489285Y-151353214D02*
X85457857Y-151321785D01*
X85426428Y-151227500D01*
X85426428Y-151164642D01*
X85457857Y-151070357D01*
X85520714Y-151007500D01*
X85583571Y-150976071D01*
X85709285Y-150944642D01*
X85803571Y-150944642D01*
X85929285Y-150976071D01*
X85992142Y-151007500D01*
X86055000Y-151070357D01*
X86086428Y-151164642D01*
X86086428Y-151227500D01*
X86055000Y-151321785D01*
X86023571Y-151353214D01*
X85426428Y-151981785D02*
X85426428Y-151604642D01*
X85426428Y-151793214D02*
X86086428Y-151793214D01*
X85992142Y-151730357D01*
X85929285Y-151667500D01*
X85897857Y-151604642D01*
X86086428Y-152201785D02*
X86086428Y-152610357D01*
X85835000Y-152390357D01*
X85835000Y-152484642D01*
X85803571Y-152547500D01*
X85772142Y-152578928D01*
X85709285Y-152610357D01*
X85552142Y-152610357D01*
X85489285Y-152578928D01*
X85457857Y-152547500D01*
X85426428Y-152484642D01*
X85426428Y-152296071D01*
X85457857Y-152233214D01*
X85489285Y-152201785D01*
X123775000Y-128939285D02*
X123775000Y-129253571D01*
X123586428Y-128876428D02*
X124246428Y-129096428D01*
X123586428Y-129316428D01*
X123586428Y-129882142D02*
X123586428Y-129505000D01*
X123586428Y-129693571D02*
X124246428Y-129693571D01*
X124152142Y-129630714D01*
X124089285Y-129567857D01*
X124057857Y-129505000D01*
X124246428Y-130479285D02*
X124246428Y-130165000D01*
X123932142Y-130133571D01*
X123963571Y-130165000D01*
X123995000Y-130227857D01*
X123995000Y-130385000D01*
X123963571Y-130447857D01*
X123932142Y-130479285D01*
X123869285Y-130510714D01*
X123712142Y-130510714D01*
X123649285Y-130479285D01*
X123617857Y-130447857D01*
X123586428Y-130385000D01*
X123586428Y-130227857D01*
X123617857Y-130165000D01*
X123649285Y-130133571D01*
X133935000Y-123856071D02*
X133935000Y-124170357D01*
X133746428Y-123793214D02*
X134406428Y-124013214D01*
X133746428Y-124233214D01*
X133746428Y-124798928D02*
X133746428Y-124421785D01*
X133746428Y-124610357D02*
X134406428Y-124610357D01*
X134312142Y-124547500D01*
X134249285Y-124484642D01*
X134217857Y-124421785D01*
X103612142Y-123746071D02*
X103580714Y-123840357D01*
X103549285Y-123871785D01*
X103486428Y-123903214D01*
X103392142Y-123903214D01*
X103329285Y-123871785D01*
X103297857Y-123840357D01*
X103266428Y-123777500D01*
X103266428Y-123526071D01*
X103926428Y-123526071D01*
X103926428Y-123746071D01*
X103895000Y-123808928D01*
X103863571Y-123840357D01*
X103800714Y-123871785D01*
X103737857Y-123871785D01*
X103675000Y-123840357D01*
X103643571Y-123808928D01*
X103612142Y-123746071D01*
X103612142Y-123526071D01*
X103266428Y-124531785D02*
X103266428Y-124154642D01*
X103266428Y-124343214D02*
X103926428Y-124343214D01*
X103832142Y-124280357D01*
X103769285Y-124217500D01*
X103737857Y-124154642D01*
X103926428Y-124751785D02*
X103926428Y-125160357D01*
X103675000Y-124940357D01*
X103675000Y-125034642D01*
X103643571Y-125097500D01*
X103612142Y-125128928D01*
X103549285Y-125160357D01*
X103392142Y-125160357D01*
X103329285Y-125128928D01*
X103297857Y-125097500D01*
X103266428Y-125034642D01*
X103266428Y-124846071D01*
X103297857Y-124783214D01*
X103329285Y-124751785D01*
X108409285Y-129300714D02*
X108377857Y-129269285D01*
X108346428Y-129175000D01*
X108346428Y-129112142D01*
X108377857Y-129017857D01*
X108440714Y-128955000D01*
X108503571Y-128923571D01*
X108629285Y-128892142D01*
X108723571Y-128892142D01*
X108849285Y-128923571D01*
X108912142Y-128955000D01*
X108975000Y-129017857D01*
X109006428Y-129112142D01*
X109006428Y-129175000D01*
X108975000Y-129269285D01*
X108943571Y-129300714D01*
X108346428Y-129929285D02*
X108346428Y-129552142D01*
X108346428Y-129740714D02*
X109006428Y-129740714D01*
X108912142Y-129677857D01*
X108849285Y-129615000D01*
X108817857Y-129552142D01*
X109006428Y-130526428D02*
X109006428Y-130212142D01*
X108692142Y-130180714D01*
X108723571Y-130212142D01*
X108755000Y-130275000D01*
X108755000Y-130432142D01*
X108723571Y-130495000D01*
X108692142Y-130526428D01*
X108629285Y-130557857D01*
X108472142Y-130557857D01*
X108409285Y-130526428D01*
X108377857Y-130495000D01*
X108346428Y-130432142D01*
X108346428Y-130275000D01*
X108377857Y-130212142D01*
X108409285Y-130180714D01*
X96306428Y-123510357D02*
X96306428Y-123918928D01*
X96055000Y-123698928D01*
X96055000Y-123793214D01*
X96023571Y-123856071D01*
X95992142Y-123887500D01*
X95929285Y-123918928D01*
X95772142Y-123918928D01*
X95709285Y-123887500D01*
X95677857Y-123856071D01*
X95646428Y-123793214D01*
X95646428Y-123604642D01*
X95677857Y-123541785D01*
X95709285Y-123510357D01*
X96306428Y-124107500D02*
X95646428Y-124327500D01*
X96306428Y-124547500D01*
X96306428Y-124704642D02*
X96306428Y-125113214D01*
X96055000Y-124893214D01*
X96055000Y-124987500D01*
X96023571Y-125050357D01*
X95992142Y-125081785D01*
X95929285Y-125113214D01*
X95772142Y-125113214D01*
X95709285Y-125081785D01*
X95677857Y-125050357D01*
X95646428Y-124987500D01*
X95646428Y-124798928D01*
X95677857Y-124736071D01*
X95709285Y-124704642D01*
X123775000Y-123856071D02*
X123775000Y-124170357D01*
X123586428Y-123793214D02*
X124246428Y-124013214D01*
X123586428Y-124233214D01*
X124246428Y-124767500D02*
X124246428Y-124453214D01*
X123932142Y-124421785D01*
X123963571Y-124453214D01*
X123995000Y-124516071D01*
X123995000Y-124673214D01*
X123963571Y-124736071D01*
X123932142Y-124767500D01*
X123869285Y-124798928D01*
X123712142Y-124798928D01*
X123649285Y-124767500D01*
X123617857Y-124736071D01*
X123586428Y-124673214D01*
X123586428Y-124516071D01*
X123617857Y-124453214D01*
X123649285Y-124421785D01*
X80437857Y-106221785D02*
X80406428Y-106316071D01*
X80406428Y-106473214D01*
X80437857Y-106536071D01*
X80469285Y-106567500D01*
X80532142Y-106598928D01*
X80595000Y-106598928D01*
X80657857Y-106567500D01*
X80689285Y-106536071D01*
X80720714Y-106473214D01*
X80752142Y-106347500D01*
X80783571Y-106284642D01*
X80815000Y-106253214D01*
X80877857Y-106221785D01*
X80940714Y-106221785D01*
X81003571Y-106253214D01*
X81035000Y-106284642D01*
X81066428Y-106347500D01*
X81066428Y-106504642D01*
X81035000Y-106598928D01*
X81066428Y-106787500D02*
X81066428Y-107164642D01*
X80406428Y-106976071D02*
X81066428Y-106976071D01*
X80406428Y-107384642D02*
X81066428Y-107384642D01*
X80595000Y-107604642D01*
X81066428Y-107824642D01*
X80406428Y-107824642D01*
X81066428Y-108076071D02*
X81066428Y-108484642D01*
X80815000Y-108264642D01*
X80815000Y-108358928D01*
X80783571Y-108421785D01*
X80752142Y-108453214D01*
X80689285Y-108484642D01*
X80532142Y-108484642D01*
X80469285Y-108453214D01*
X80437857Y-108421785D01*
X80406428Y-108358928D01*
X80406428Y-108170357D01*
X80437857Y-108107500D01*
X80469285Y-108076071D01*
X81003571Y-108736071D02*
X81035000Y-108767500D01*
X81066428Y-108830357D01*
X81066428Y-108987500D01*
X81035000Y-109050357D01*
X81003571Y-109081785D01*
X80940714Y-109113214D01*
X80877857Y-109113214D01*
X80783571Y-109081785D01*
X80406428Y-108704642D01*
X80406428Y-109113214D01*
X80752142Y-109616071D02*
X80752142Y-109396071D01*
X80406428Y-109396071D02*
X81066428Y-109396071D01*
X81066428Y-109710357D01*
X80406428Y-110307500D02*
X80406428Y-109930357D01*
X80406428Y-110118928D02*
X81066428Y-110118928D01*
X80972142Y-110056071D01*
X80909285Y-109993214D01*
X80877857Y-109930357D01*
X81066428Y-110716071D02*
X81066428Y-110778928D01*
X81035000Y-110841785D01*
X81003571Y-110873214D01*
X80940714Y-110904642D01*
X80815000Y-110936071D01*
X80657857Y-110936071D01*
X80532142Y-110904642D01*
X80469285Y-110873214D01*
X80437857Y-110841785D01*
X80406428Y-110778928D01*
X80406428Y-110716071D01*
X80437857Y-110653214D01*
X80469285Y-110621785D01*
X80532142Y-110590357D01*
X80657857Y-110558928D01*
X80815000Y-110558928D01*
X80940714Y-110590357D01*
X81003571Y-110621785D01*
X81035000Y-110653214D01*
X81066428Y-110716071D01*
X81066428Y-111156071D02*
X81066428Y-111596071D01*
X80406428Y-111313214D01*
X80406428Y-112633214D02*
X81066428Y-112633214D01*
X80437857Y-112633214D02*
X80406428Y-112570357D01*
X80406428Y-112444642D01*
X80437857Y-112381785D01*
X80469285Y-112350357D01*
X80532142Y-112318928D01*
X80720714Y-112318928D01*
X80783571Y-112350357D01*
X80815000Y-112381785D01*
X80846428Y-112444642D01*
X80846428Y-112570357D01*
X80815000Y-112633214D01*
X80437857Y-113198928D02*
X80406428Y-113136071D01*
X80406428Y-113010357D01*
X80437857Y-112947500D01*
X80500714Y-112916071D01*
X80752142Y-112916071D01*
X80815000Y-112947500D01*
X80846428Y-113010357D01*
X80846428Y-113136071D01*
X80815000Y-113198928D01*
X80752142Y-113230357D01*
X80689285Y-113230357D01*
X80626428Y-112916071D01*
X80846428Y-113450357D02*
X80406428Y-113607500D01*
X80846428Y-113764642D01*
X80406428Y-114518928D02*
X81066428Y-114518928D01*
X80815000Y-114518928D02*
X80846428Y-114581785D01*
X80846428Y-114707500D01*
X80815000Y-114770357D01*
X80783571Y-114801785D01*
X80720714Y-114833214D01*
X80532142Y-114833214D01*
X80469285Y-114801785D01*
X80437857Y-114770357D01*
X80406428Y-114707500D01*
X80406428Y-114581785D01*
X80437857Y-114518928D01*
X80406428Y-115210357D02*
X80437857Y-115147500D01*
X80469285Y-115116071D01*
X80532142Y-115084642D01*
X80720714Y-115084642D01*
X80783571Y-115116071D01*
X80815000Y-115147500D01*
X80846428Y-115210357D01*
X80846428Y-115304642D01*
X80815000Y-115367500D01*
X80783571Y-115398928D01*
X80720714Y-115430357D01*
X80532142Y-115430357D01*
X80469285Y-115398928D01*
X80437857Y-115367500D01*
X80406428Y-115304642D01*
X80406428Y-115210357D01*
X80406428Y-115996071D02*
X80752142Y-115996071D01*
X80815000Y-115964642D01*
X80846428Y-115901785D01*
X80846428Y-115776071D01*
X80815000Y-115713214D01*
X80437857Y-115996071D02*
X80406428Y-115933214D01*
X80406428Y-115776071D01*
X80437857Y-115713214D01*
X80500714Y-115681785D01*
X80563571Y-115681785D01*
X80626428Y-115713214D01*
X80657857Y-115776071D01*
X80657857Y-115933214D01*
X80689285Y-115996071D01*
X80406428Y-116310357D02*
X80846428Y-116310357D01*
X80720714Y-116310357D02*
X80783571Y-116341785D01*
X80815000Y-116373214D01*
X80846428Y-116436071D01*
X80846428Y-116498928D01*
X80406428Y-117001785D02*
X81066428Y-117001785D01*
X80437857Y-117001785D02*
X80406428Y-116938928D01*
X80406428Y-116813214D01*
X80437857Y-116750357D01*
X80469285Y-116718928D01*
X80532142Y-116687500D01*
X80720714Y-116687500D01*
X80783571Y-116718928D01*
X80815000Y-116750357D01*
X80846428Y-116813214D01*
X80846428Y-116938928D01*
X80815000Y-117001785D01*
X136475000Y-123856071D02*
X136475000Y-124170357D01*
X136286428Y-123793214D02*
X136946428Y-124013214D01*
X136286428Y-124233214D01*
X136946428Y-124578928D02*
X136946428Y-124641785D01*
X136915000Y-124704642D01*
X136883571Y-124736071D01*
X136820714Y-124767500D01*
X136695000Y-124798928D01*
X136537857Y-124798928D01*
X136412142Y-124767500D01*
X136349285Y-124736071D01*
X136317857Y-124704642D01*
X136286428Y-124641785D01*
X136286428Y-124578928D01*
X136317857Y-124516071D01*
X136349285Y-124484642D01*
X136412142Y-124453214D01*
X136537857Y-124421785D01*
X136695000Y-124421785D01*
X136820714Y-124453214D01*
X136883571Y-124484642D01*
X136915000Y-124516071D01*
X136946428Y-124578928D01*
X83505000Y-138047142D02*
X83536428Y-137984285D01*
X83536428Y-137890000D01*
X83505000Y-137795714D01*
X83442142Y-137732857D01*
X83379285Y-137701428D01*
X83253571Y-137670000D01*
X83159285Y-137670000D01*
X83033571Y-137701428D01*
X82970714Y-137732857D01*
X82907857Y-137795714D01*
X82876428Y-137890000D01*
X82876428Y-137952857D01*
X82907857Y-138047142D01*
X82939285Y-138078571D01*
X83159285Y-138078571D01*
X83159285Y-137952857D01*
X82876428Y-138361428D02*
X83536428Y-138361428D01*
X82876428Y-138738571D01*
X83536428Y-138738571D01*
X82876428Y-139052857D02*
X83536428Y-139052857D01*
X83536428Y-139210000D01*
X83505000Y-139304285D01*
X83442142Y-139367142D01*
X83379285Y-139398571D01*
X83253571Y-139430000D01*
X83159285Y-139430000D01*
X83033571Y-139398571D01*
X82970714Y-139367142D01*
X82907857Y-139304285D01*
X82876428Y-139210000D01*
X82876428Y-139052857D01*
X128855000Y-123856071D02*
X128855000Y-124170357D01*
X128666428Y-123793214D02*
X129326428Y-124013214D01*
X128666428Y-124233214D01*
X129326428Y-124390357D02*
X129326428Y-124798928D01*
X129075000Y-124578928D01*
X129075000Y-124673214D01*
X129043571Y-124736071D01*
X129012142Y-124767500D01*
X128949285Y-124798928D01*
X128792142Y-124798928D01*
X128729285Y-124767500D01*
X128697857Y-124736071D01*
X128666428Y-124673214D01*
X128666428Y-124484642D01*
X128697857Y-124421785D01*
X128729285Y-124390357D01*
X121392142Y-129457857D02*
X121360714Y-129552142D01*
X121329285Y-129583571D01*
X121266428Y-129615000D01*
X121172142Y-129615000D01*
X121109285Y-129583571D01*
X121077857Y-129552142D01*
X121046428Y-129489285D01*
X121046428Y-129237857D01*
X121706428Y-129237857D01*
X121706428Y-129457857D01*
X121675000Y-129520714D01*
X121643571Y-129552142D01*
X121580714Y-129583571D01*
X121517857Y-129583571D01*
X121455000Y-129552142D01*
X121423571Y-129520714D01*
X121392142Y-129457857D01*
X121392142Y-129237857D01*
X121486428Y-130180714D02*
X121046428Y-130180714D01*
X121737857Y-130023571D02*
X121266428Y-129866428D01*
X121266428Y-130275000D01*
X85489285Y-145507142D02*
X85457857Y-145475714D01*
X85426428Y-145381428D01*
X85426428Y-145318571D01*
X85457857Y-145224285D01*
X85520714Y-145161428D01*
X85583571Y-145130000D01*
X85709285Y-145098571D01*
X85803571Y-145098571D01*
X85929285Y-145130000D01*
X85992142Y-145161428D01*
X86055000Y-145224285D01*
X86086428Y-145318571D01*
X86086428Y-145381428D01*
X86055000Y-145475714D01*
X86023571Y-145507142D01*
X85426428Y-146104285D02*
X85426428Y-145790000D01*
X86086428Y-145790000D01*
X85426428Y-146324285D02*
X86086428Y-146324285D01*
X85426428Y-146701428D02*
X85803571Y-146418571D01*
X86086428Y-146701428D02*
X85709285Y-146324285D01*
X108692142Y-123746071D02*
X108660714Y-123840357D01*
X108629285Y-123871785D01*
X108566428Y-123903214D01*
X108472142Y-123903214D01*
X108409285Y-123871785D01*
X108377857Y-123840357D01*
X108346428Y-123777500D01*
X108346428Y-123526071D01*
X109006428Y-123526071D01*
X109006428Y-123746071D01*
X108975000Y-123808928D01*
X108943571Y-123840357D01*
X108880714Y-123871785D01*
X108817857Y-123871785D01*
X108755000Y-123840357D01*
X108723571Y-123808928D01*
X108692142Y-123746071D01*
X108692142Y-123526071D01*
X108346428Y-124531785D02*
X108346428Y-124154642D01*
X108346428Y-124343214D02*
X109006428Y-124343214D01*
X108912142Y-124280357D01*
X108849285Y-124217500D01*
X108817857Y-124154642D01*
X108346428Y-125160357D02*
X108346428Y-124783214D01*
X108346428Y-124971785D02*
X109006428Y-124971785D01*
X108912142Y-124908928D01*
X108849285Y-124846071D01*
X108817857Y-124783214D01*
D13*
%TO.C,C7*%
X89553170Y-135911250D02*
X89834330Y-135911250D01*
X89553170Y-136931250D02*
X89834330Y-136931250D01*
%TO.C,SW2*%
X87567500Y-153540000D02*
X87567500Y-153840000D01*
X90867500Y-153840000D02*
X90867500Y-153540000D01*
X87567500Y-156340000D02*
X87567500Y-156040000D01*
X90867500Y-153540000D02*
X87567500Y-153540000D01*
X90867500Y-156040000D02*
X90867500Y-156340000D01*
X90867500Y-156340000D02*
X87567500Y-156340000D01*
%TO.C,R3*%
X88746359Y-105982500D02*
X89053641Y-105982500D01*
X88746359Y-106742500D02*
X89053641Y-106742500D01*
%TO.C,SW1*%
X80582500Y-153540000D02*
X83882500Y-153540000D01*
X80582500Y-156040000D02*
X80582500Y-156340000D01*
X83882500Y-153540000D02*
X83882500Y-153840000D01*
X80582500Y-153840000D02*
X80582500Y-153540000D01*
X80582500Y-156340000D02*
X83882500Y-156340000D01*
X83882500Y-156340000D02*
X83882500Y-156040000D01*
%TO.C,R5*%
X85533859Y-117830000D02*
X85841141Y-117830000D01*
X85533859Y-118590000D02*
X85841141Y-118590000D01*
%TO.C,D1*%
X86487500Y-115887500D02*
X84202500Y-115887500D01*
X84202500Y-115887500D02*
X84202500Y-117357500D01*
X84202500Y-117357500D02*
X86487500Y-117357500D01*
%TO.C,C4*%
X81477164Y-131590000D02*
X81692836Y-131590000D01*
X81477164Y-130870000D02*
X81692836Y-130870000D01*
%TO.C,R6*%
X85571359Y-148210000D02*
X85878641Y-148210000D01*
X85571359Y-148970000D02*
X85878641Y-148970000D01*
%TO.C,R1*%
X82386141Y-148970000D02*
X82078859Y-148970000D01*
X82386141Y-148210000D02*
X82078859Y-148210000D01*
%TO.C,D2*%
X84990000Y-153455000D02*
X84990000Y-155740000D01*
X86460000Y-153455000D02*
X84990000Y-153455000D01*
X86460000Y-155740000D02*
X86460000Y-153455000D01*
%TO.C,C9*%
X82597164Y-133307500D02*
X82812836Y-133307500D01*
X82597164Y-134027500D02*
X82812836Y-134027500D01*
%TO.C,C8*%
X89109664Y-148230000D02*
X89325336Y-148230000D01*
X89109664Y-148950000D02*
X89325336Y-148950000D01*
%TO.C,C2*%
X90379664Y-123550000D02*
X90595336Y-123550000D01*
X90379664Y-122830000D02*
X90595336Y-122830000D01*
%TO.C,C5*%
X87261586Y-134027500D02*
X87045914Y-134027500D01*
X87261586Y-133307500D02*
X87045914Y-133307500D01*
%TO.C,C3*%
X82275000Y-122129664D02*
X82275000Y-122345336D01*
X81555000Y-122129664D02*
X81555000Y-122345336D01*
%TO.C,U2*%
X84500000Y-109340000D02*
X85760000Y-109340000D01*
X91320000Y-113100000D02*
X91320000Y-109340000D01*
X84500000Y-115350000D02*
X84500000Y-109340000D01*
X91320000Y-109340000D02*
X90060000Y-109340000D01*
%TO.C,C1*%
X80227500Y-119641252D02*
X80227500Y-119118748D01*
X81697500Y-119641252D02*
X81697500Y-119118748D01*
%TO.C,R2*%
X83348859Y-121665000D02*
X83656141Y-121665000D01*
X83348859Y-120905000D02*
X83656141Y-120905000D01*
%TO.C,Y1*%
X85820000Y-137540000D02*
X85820000Y-134240000D01*
X85820000Y-134240000D02*
X81820000Y-134240000D01*
%TO.C,R4*%
X82703641Y-105657500D02*
X82396359Y-105657500D01*
X82703641Y-104897500D02*
X82396359Y-104897500D01*
%TO.C,FB1*%
X87822500Y-135623471D02*
X87822500Y-135949029D01*
X86802500Y-135623471D02*
X86802500Y-135949029D01*
%TO.C,J4*%
X86980000Y-139635000D02*
X86980000Y-142235000D01*
X89580000Y-142235000D02*
X89580000Y-144835000D01*
X81840000Y-139635000D02*
X81840000Y-144835000D01*
X89580000Y-144835000D02*
X81840000Y-144835000D01*
X86980000Y-142235000D02*
X89580000Y-142235000D01*
X86980000Y-139635000D02*
X81840000Y-139635000D01*
X89580000Y-139635000D02*
X89580000Y-140965000D01*
X88250000Y-139635000D02*
X89580000Y-139635000D01*
%TO.C,U1*%
X89335000Y-130610000D02*
X88885000Y-130610000D01*
X82565000Y-130610000D02*
X82565000Y-131900000D01*
X89335000Y-130160000D02*
X89335000Y-130610000D01*
X89335000Y-123390000D02*
X88885000Y-123390000D01*
X89335000Y-123840000D02*
X89335000Y-123390000D01*
X82115000Y-123390000D02*
X82565000Y-123390000D01*
X82115000Y-130160000D02*
X82115000Y-130610000D01*
X82115000Y-123840000D02*
X82115000Y-123390000D01*
X82115000Y-130610000D02*
X82565000Y-130610000D01*
%TO.C,C6*%
X89553170Y-134165000D02*
X89834330Y-134165000D01*
X89553170Y-135185000D02*
X89834330Y-135185000D01*
%TO.C,C10*%
X84880336Y-133307500D02*
X84664664Y-133307500D01*
X84880336Y-134027500D02*
X84664664Y-134027500D01*
%TO.C,C12*%
X88962500Y-117313748D02*
X88962500Y-117836252D01*
X87492500Y-117313748D02*
X87492500Y-117836252D01*
%TO.C,C11*%
X91185000Y-117313748D02*
X91185000Y-117836252D01*
X89715000Y-117313748D02*
X89715000Y-117836252D01*
%TD*%
%LPC*%
D14*
%TO.C,C7*%
X88918750Y-136421250D03*
X90468750Y-136421250D03*
%TD*%
D15*
%TO.C,SW2*%
X90917500Y-154940000D03*
X87517500Y-154940000D03*
%TD*%
D16*
%TO.C,R3*%
X88390000Y-106362500D03*
X89410000Y-106362500D03*
%TD*%
D15*
%TO.C,SW1*%
X80532500Y-154940000D03*
X83932500Y-154940000D03*
%TD*%
D17*
%TO.C,J3*%
X82835000Y-101977500D03*
X88615000Y-101977500D03*
D18*
X88975000Y-103422500D03*
X88175000Y-103422500D03*
D19*
X86975000Y-103422500D03*
X85975000Y-103422500D03*
X85475000Y-103422500D03*
X84475000Y-103422500D03*
D18*
X83275000Y-103422500D03*
X82475000Y-103422500D03*
X82475000Y-103422500D03*
X83275000Y-103422500D03*
D19*
X83975000Y-103422500D03*
X84975000Y-103422500D03*
X86475000Y-103422500D03*
X87475000Y-103422500D03*
D18*
X88175000Y-103422500D03*
X88975000Y-103422500D03*
D20*
X90045000Y-98327500D03*
D21*
X90045000Y-102507500D03*
X81405000Y-102507500D03*
D20*
X81405000Y-98327500D03*
%TD*%
D16*
%TO.C,R5*%
X85177500Y-118210000D03*
X86197500Y-118210000D03*
%TD*%
D22*
%TO.C,D1*%
X84900000Y-116622500D03*
X86475000Y-116622500D03*
%TD*%
D23*
%TO.C,C4*%
X81105000Y-131230000D03*
X82065000Y-131230000D03*
%TD*%
D16*
%TO.C,R6*%
X85215000Y-148590000D03*
X86235000Y-148590000D03*
%TD*%
D24*
%TO.C,R1*%
X82742500Y-148590000D03*
X81722500Y-148590000D03*
%TD*%
D25*
%TO.C,D2*%
X85725000Y-154152500D03*
X85725000Y-155727500D03*
%TD*%
D23*
%TO.C,C9*%
X82225000Y-133667500D03*
X83185000Y-133667500D03*
%TD*%
%TO.C,C8*%
X88737500Y-148590000D03*
X89697500Y-148590000D03*
%TD*%
%TO.C,C2*%
X90007500Y-123190000D03*
X90967500Y-123190000D03*
%TD*%
D26*
%TO.C,C5*%
X87633750Y-133667500D03*
X86673750Y-133667500D03*
%TD*%
D27*
%TO.C,C3*%
X81915000Y-121757500D03*
X81915000Y-122717500D03*
%TD*%
D28*
%TO.C,U2*%
X85610000Y-114400000D03*
X87910000Y-114400000D03*
D29*
X87910000Y-108100000D03*
D28*
X90210000Y-114400000D03*
%TD*%
D30*
%TO.C,C1*%
X80962500Y-120330000D03*
X80962500Y-118430000D03*
%TD*%
D16*
%TO.C,R2*%
X82992500Y-121285000D03*
X84012500Y-121285000D03*
%TD*%
D31*
%TO.C,Y1*%
X84920000Y-135040000D03*
X82720000Y-135040000D03*
X82720000Y-136740000D03*
X84920000Y-136740000D03*
%TD*%
D24*
%TO.C,R4*%
X83060000Y-105277500D03*
X82040000Y-105277500D03*
%TD*%
D25*
%TO.C,FB1*%
X87312500Y-134998750D03*
X87312500Y-136573750D03*
%TD*%
D32*
%TO.C,J4*%
X88250000Y-140965000D03*
D33*
X88250000Y-143505000D03*
X85710000Y-140965000D03*
X85710000Y-143505000D03*
X83170000Y-140965000D03*
X83170000Y-143505000D03*
%TD*%
D34*
%TO.C,U1*%
X82975000Y-131162500D03*
X83475000Y-131162500D03*
X83975000Y-131162500D03*
X84475000Y-131162500D03*
X84975000Y-131162500D03*
X85475000Y-131162500D03*
X85975000Y-131162500D03*
X86475000Y-131162500D03*
X86975000Y-131162500D03*
X87475000Y-131162500D03*
X87975000Y-131162500D03*
X88475000Y-131162500D03*
D35*
X89887500Y-129750000D03*
X89887500Y-129250000D03*
X89887500Y-128750000D03*
X89887500Y-128250000D03*
X89887500Y-127750000D03*
X89887500Y-127250000D03*
X89887500Y-126750000D03*
X89887500Y-126250000D03*
X89887500Y-125750000D03*
X89887500Y-125250000D03*
X89887500Y-124750000D03*
X89887500Y-124250000D03*
D34*
X88475000Y-122837500D03*
X87975000Y-122837500D03*
X87475000Y-122837500D03*
X86975000Y-122837500D03*
X86475000Y-122837500D03*
X85975000Y-122837500D03*
X85475000Y-122837500D03*
X84975000Y-122837500D03*
X84475000Y-122837500D03*
X83975000Y-122837500D03*
X83475000Y-122837500D03*
X82975000Y-122837500D03*
D35*
X81562500Y-124250000D03*
X81562500Y-124750000D03*
X81562500Y-125250000D03*
X81562500Y-125750000D03*
X81562500Y-126250000D03*
X81562500Y-126750000D03*
X81562500Y-127250000D03*
X81562500Y-127750000D03*
X81562500Y-128250000D03*
X81562500Y-128750000D03*
X81562500Y-129250000D03*
X81562500Y-129750000D03*
%TD*%
D14*
%TO.C,C6*%
X88918750Y-134675000D03*
X90468750Y-134675000D03*
%TD*%
D26*
%TO.C,C10*%
X85252500Y-133667500D03*
X84292500Y-133667500D03*
%TD*%
D36*
%TO.C,C12*%
X88227500Y-116537500D03*
X88227500Y-118612500D03*
%TD*%
%TO.C,C11*%
X90450000Y-116537500D03*
X90450000Y-118612500D03*
%TD*%
D32*
%TO.C,J1*%
X95885000Y-121920000D03*
D33*
X98425000Y-121920000D03*
X100965000Y-121920000D03*
X103505000Y-121920000D03*
X106045000Y-121920000D03*
X108585000Y-121920000D03*
X111125000Y-121920000D03*
X113665000Y-121920000D03*
X116205000Y-121920000D03*
X118745000Y-121920000D03*
X121285000Y-121920000D03*
X123825000Y-121920000D03*
X126365000Y-121920000D03*
X128905000Y-121920000D03*
X131445000Y-121920000D03*
X133985000Y-121920000D03*
X136525000Y-121920000D03*
%TD*%
D32*
%TO.C,J2*%
X95885000Y-132080000D03*
D33*
X98425000Y-132080000D03*
X100965000Y-132080000D03*
X103505000Y-132080000D03*
X106045000Y-132080000D03*
X108585000Y-132080000D03*
X111125000Y-132080000D03*
X113665000Y-132080000D03*
X116205000Y-132080000D03*
X118745000Y-132080000D03*
X121285000Y-132080000D03*
X123825000Y-132080000D03*
X126365000Y-132080000D03*
X128905000Y-132080000D03*
X131445000Y-132080000D03*
X133985000Y-132080000D03*
X136525000Y-132080000D03*
%TD*%
M02*
