%TF.GenerationSoftware,KiCad,Pcbnew,(6.0.9-0)*%
%TF.CreationDate,2022-12-21T10:02:25+01:00*%
%TF.ProjectId,BluerPill,426c7565-7250-4696-9c6c-2e6b69636164,rev?*%
%TF.SameCoordinates,Original*%
%TF.FileFunction,Legend,Bot*%
%TF.FilePolarity,Positive*%
%FSLAX46Y46*%
G04 Gerber Fmt 4.6, Leading zero omitted, Abs format (unit mm)*
G04 Created by KiCad (PCBNEW (6.0.9-0)) date 2022-12-21 10:02:25*
%MOMM*%
%LPD*%
G01*
G04 APERTURE LIST*
%ADD10C,0.100000*%
%ADD11C,0.650000*%
%ADD12O,1.000000X1.600000*%
%ADD13O,1.000000X2.100000*%
%ADD14R,1.700000X1.700000*%
%ADD15O,1.700000X1.700000*%
G04 APERTURE END LIST*
D10*
X82421528Y-114848928D02*
X83081528Y-114848928D01*
X82421528Y-114471785D01*
X83081528Y-114471785D01*
X82421528Y-114157500D02*
X82861528Y-114157500D01*
X83081528Y-114157500D02*
X83050100Y-114188928D01*
X83018671Y-114157500D01*
X83050100Y-114126071D01*
X83081528Y-114157500D01*
X83018671Y-114157500D01*
X82452957Y-113560357D02*
X82421528Y-113623214D01*
X82421528Y-113748928D01*
X82452957Y-113811785D01*
X82484385Y-113843214D01*
X82547242Y-113874642D01*
X82735814Y-113874642D01*
X82798671Y-113843214D01*
X82830100Y-113811785D01*
X82861528Y-113748928D01*
X82861528Y-113623214D01*
X82830100Y-113560357D01*
X82421528Y-113183214D02*
X82452957Y-113246071D01*
X82484385Y-113277500D01*
X82547242Y-113308928D01*
X82735814Y-113308928D01*
X82798671Y-113277500D01*
X82830100Y-113246071D01*
X82861528Y-113183214D01*
X82861528Y-113088928D01*
X82830100Y-113026071D01*
X82798671Y-112994642D01*
X82735814Y-112963214D01*
X82547242Y-112963214D01*
X82484385Y-112994642D01*
X82452957Y-113026071D01*
X82421528Y-113088928D01*
X82421528Y-113183214D01*
X82452957Y-112208928D02*
X82421528Y-112114642D01*
X82421528Y-111957500D01*
X82452957Y-111894642D01*
X82484385Y-111863214D01*
X82547242Y-111831785D01*
X82610100Y-111831785D01*
X82672957Y-111863214D01*
X82704385Y-111894642D01*
X82735814Y-111957500D01*
X82767242Y-112083214D01*
X82798671Y-112146071D01*
X82830100Y-112177500D01*
X82892957Y-112208928D01*
X82955814Y-112208928D01*
X83018671Y-112177500D01*
X83050100Y-112146071D01*
X83081528Y-112083214D01*
X83081528Y-111926071D01*
X83050100Y-111831785D01*
X82452957Y-111266071D02*
X82421528Y-111328928D01*
X82421528Y-111454642D01*
X82452957Y-111517500D01*
X82484385Y-111548928D01*
X82547242Y-111580357D01*
X82735814Y-111580357D01*
X82798671Y-111548928D01*
X82830100Y-111517500D01*
X82861528Y-111454642D01*
X82861528Y-111328928D01*
X82830100Y-111266071D01*
X82421528Y-110983214D02*
X83081528Y-110983214D01*
X82421528Y-110700357D02*
X82767242Y-110700357D01*
X82830100Y-110731785D01*
X82861528Y-110794642D01*
X82861528Y-110888928D01*
X82830100Y-110951785D01*
X82798671Y-110983214D01*
X82421528Y-110291785D02*
X82452957Y-110354642D01*
X82515814Y-110386071D01*
X83081528Y-110386071D01*
X82861528Y-109757500D02*
X82421528Y-109757500D01*
X82861528Y-110040357D02*
X82515814Y-110040357D01*
X82452957Y-110008928D01*
X82421528Y-109946071D01*
X82421528Y-109851785D01*
X82452957Y-109788928D01*
X82484385Y-109757500D01*
X83081528Y-110008928D02*
X83050100Y-109977500D01*
X83018671Y-110008928D01*
X83050100Y-110040357D01*
X83081528Y-110008928D01*
X83018671Y-110008928D01*
X83081528Y-109757500D02*
X83050100Y-109726071D01*
X83018671Y-109757500D01*
X83050100Y-109788928D01*
X83081528Y-109757500D01*
X83018671Y-109757500D01*
X82861528Y-109537500D02*
X82861528Y-109286071D01*
X83081528Y-109443214D02*
X82515814Y-109443214D01*
X82452957Y-109411785D01*
X82421528Y-109348928D01*
X82421528Y-109286071D01*
X82452957Y-108814642D02*
X82421528Y-108877500D01*
X82421528Y-109003214D01*
X82452957Y-109066071D01*
X82515814Y-109097500D01*
X82767242Y-109097500D01*
X82830100Y-109066071D01*
X82861528Y-109003214D01*
X82861528Y-108877500D01*
X82830100Y-108814642D01*
X82767242Y-108783214D01*
X82704385Y-108783214D01*
X82641528Y-109097500D01*
X82421528Y-108500357D02*
X82861528Y-108500357D01*
X82735814Y-108500357D02*
X82798671Y-108468928D01*
X82830100Y-108437500D01*
X82861528Y-108374642D01*
X82861528Y-108311785D01*
X81956071Y-116483214D02*
X81987500Y-116451785D01*
X82018928Y-116388928D01*
X82018928Y-116231785D01*
X81987500Y-116168928D01*
X81956071Y-116137500D01*
X81893214Y-116106071D01*
X81830357Y-116106071D01*
X81736071Y-116137500D01*
X81358928Y-116514642D01*
X81358928Y-116106071D01*
X82018928Y-115697500D02*
X82018928Y-115634642D01*
X81987500Y-115571785D01*
X81956071Y-115540357D01*
X81893214Y-115508928D01*
X81767500Y-115477500D01*
X81610357Y-115477500D01*
X81484642Y-115508928D01*
X81421785Y-115540357D01*
X81390357Y-115571785D01*
X81358928Y-115634642D01*
X81358928Y-115697500D01*
X81390357Y-115760357D01*
X81421785Y-115791785D01*
X81484642Y-115823214D01*
X81610357Y-115854642D01*
X81767500Y-115854642D01*
X81893214Y-115823214D01*
X81956071Y-115791785D01*
X81987500Y-115760357D01*
X82018928Y-115697500D01*
X81956071Y-115226071D02*
X81987500Y-115194642D01*
X82018928Y-115131785D01*
X82018928Y-114974642D01*
X81987500Y-114911785D01*
X81956071Y-114880357D01*
X81893214Y-114848928D01*
X81830357Y-114848928D01*
X81736071Y-114880357D01*
X81358928Y-115257500D01*
X81358928Y-114848928D01*
X81956071Y-114597500D02*
X81987500Y-114566071D01*
X82018928Y-114503214D01*
X82018928Y-114346071D01*
X81987500Y-114283214D01*
X81956071Y-114251785D01*
X81893214Y-114220357D01*
X81830357Y-114220357D01*
X81736071Y-114251785D01*
X81358928Y-114628928D01*
X81358928Y-114220357D01*
X81610357Y-113937500D02*
X81610357Y-113434642D01*
X81358928Y-112774642D02*
X81358928Y-113151785D01*
X81358928Y-112963214D02*
X82018928Y-112963214D01*
X81924642Y-113026071D01*
X81861785Y-113088928D01*
X81830357Y-113151785D01*
X81956071Y-112523214D02*
X81987500Y-112491785D01*
X82018928Y-112428928D01*
X82018928Y-112271785D01*
X81987500Y-112208928D01*
X81956071Y-112177500D01*
X81893214Y-112146071D01*
X81830357Y-112146071D01*
X81736071Y-112177500D01*
X81358928Y-112554642D01*
X81358928Y-112146071D01*
X81610357Y-111863214D02*
X81610357Y-111360357D01*
X81956071Y-111077500D02*
X81987500Y-111046071D01*
X82018928Y-110983214D01*
X82018928Y-110826071D01*
X81987500Y-110763214D01*
X81956071Y-110731785D01*
X81893214Y-110700357D01*
X81830357Y-110700357D01*
X81736071Y-110731785D01*
X81358928Y-111108928D01*
X81358928Y-110700357D01*
X81358928Y-110071785D02*
X81358928Y-110448928D01*
X81358928Y-110260357D02*
X82018928Y-110260357D01*
X81924642Y-110323214D01*
X81861785Y-110386071D01*
X81830357Y-110448928D01*
X81358928Y-108908928D02*
X81673214Y-109128928D01*
X81358928Y-109286071D02*
X82018928Y-109286071D01*
X82018928Y-109034642D01*
X81987500Y-108971785D01*
X81956071Y-108940357D01*
X81893214Y-108908928D01*
X81798928Y-108908928D01*
X81736071Y-108940357D01*
X81704642Y-108971785D01*
X81673214Y-109034642D01*
X81673214Y-109286071D01*
X81390357Y-108374642D02*
X81358928Y-108437500D01*
X81358928Y-108563214D01*
X81390357Y-108626071D01*
X81453214Y-108657500D01*
X81704642Y-108657500D01*
X81767500Y-108626071D01*
X81798928Y-108563214D01*
X81798928Y-108437500D01*
X81767500Y-108374642D01*
X81704642Y-108343214D01*
X81641785Y-108343214D01*
X81578928Y-108657500D01*
X81798928Y-108123214D02*
X81358928Y-107966071D01*
X81798928Y-107808928D01*
X81547500Y-107086071D02*
X81547500Y-106771785D01*
X81358928Y-107148928D02*
X82018928Y-106928928D01*
X81358928Y-106708928D01*
X80296328Y-115791785D02*
X80296328Y-116106071D01*
X80956328Y-116106071D01*
X80296328Y-115571785D02*
X80736328Y-115571785D01*
X80956328Y-115571785D02*
X80924900Y-115603214D01*
X80893471Y-115571785D01*
X80924900Y-115540357D01*
X80956328Y-115571785D01*
X80893471Y-115571785D01*
X80327757Y-114974642D02*
X80296328Y-115037500D01*
X80296328Y-115163214D01*
X80327757Y-115226071D01*
X80359185Y-115257500D01*
X80422042Y-115288928D01*
X80610614Y-115288928D01*
X80673471Y-115257500D01*
X80704900Y-115226071D01*
X80736328Y-115163214D01*
X80736328Y-115037500D01*
X80704900Y-114974642D01*
X80327757Y-114440357D02*
X80296328Y-114503214D01*
X80296328Y-114628928D01*
X80327757Y-114691785D01*
X80390614Y-114723214D01*
X80642042Y-114723214D01*
X80704900Y-114691785D01*
X80736328Y-114628928D01*
X80736328Y-114503214D01*
X80704900Y-114440357D01*
X80642042Y-114408928D01*
X80579185Y-114408928D01*
X80516328Y-114723214D01*
X80736328Y-114126071D02*
X80296328Y-114126071D01*
X80673471Y-114126071D02*
X80704900Y-114094642D01*
X80736328Y-114031785D01*
X80736328Y-113937500D01*
X80704900Y-113874642D01*
X80642042Y-113843214D01*
X80296328Y-113843214D01*
X80327757Y-113560357D02*
X80296328Y-113497500D01*
X80296328Y-113371785D01*
X80327757Y-113308928D01*
X80390614Y-113277500D01*
X80422042Y-113277500D01*
X80484900Y-113308928D01*
X80516328Y-113371785D01*
X80516328Y-113466071D01*
X80547757Y-113528928D01*
X80610614Y-113560357D01*
X80642042Y-113560357D01*
X80704900Y-113528928D01*
X80736328Y-113466071D01*
X80736328Y-113371785D01*
X80704900Y-113308928D01*
X80327757Y-112743214D02*
X80296328Y-112806071D01*
X80296328Y-112931785D01*
X80327757Y-112994642D01*
X80390614Y-113026071D01*
X80642042Y-113026071D01*
X80704900Y-112994642D01*
X80736328Y-112931785D01*
X80736328Y-112806071D01*
X80704900Y-112743214D01*
X80642042Y-112711785D01*
X80579185Y-112711785D01*
X80516328Y-113026071D01*
X80359185Y-112428928D02*
X80327757Y-112397500D01*
X80296328Y-112428928D01*
X80327757Y-112460357D01*
X80359185Y-112428928D01*
X80296328Y-112428928D01*
X80704900Y-112428928D02*
X80673471Y-112397500D01*
X80642042Y-112428928D01*
X80673471Y-112460357D01*
X80704900Y-112428928D01*
X80642042Y-112428928D01*
X80956328Y-111611785D02*
X80422042Y-111611785D01*
X80359185Y-111580357D01*
X80327757Y-111548928D01*
X80296328Y-111486071D01*
X80296328Y-111360357D01*
X80327757Y-111297500D01*
X80359185Y-111266071D01*
X80422042Y-111234642D01*
X80956328Y-111234642D01*
X80736328Y-110920357D02*
X80296328Y-110920357D01*
X80673471Y-110920357D02*
X80704900Y-110888928D01*
X80736328Y-110826071D01*
X80736328Y-110731785D01*
X80704900Y-110668928D01*
X80642042Y-110637500D01*
X80296328Y-110637500D01*
X80296328Y-110228928D02*
X80327757Y-110291785D01*
X80390614Y-110323214D01*
X80956328Y-110323214D01*
X80296328Y-109977500D02*
X80736328Y-109977500D01*
X80956328Y-109977500D02*
X80924900Y-110008928D01*
X80893471Y-109977500D01*
X80924900Y-109946071D01*
X80956328Y-109977500D01*
X80893471Y-109977500D01*
X80327757Y-109380357D02*
X80296328Y-109443214D01*
X80296328Y-109568928D01*
X80327757Y-109631785D01*
X80359185Y-109663214D01*
X80422042Y-109694642D01*
X80610614Y-109694642D01*
X80673471Y-109663214D01*
X80704900Y-109631785D01*
X80736328Y-109568928D01*
X80736328Y-109443214D01*
X80704900Y-109380357D01*
X80327757Y-108846071D02*
X80296328Y-108908928D01*
X80296328Y-109034642D01*
X80327757Y-109097500D01*
X80390614Y-109128928D01*
X80642042Y-109128928D01*
X80704900Y-109097500D01*
X80736328Y-109034642D01*
X80736328Y-108908928D01*
X80704900Y-108846071D01*
X80642042Y-108814642D01*
X80579185Y-108814642D01*
X80516328Y-109128928D01*
X80736328Y-108531785D02*
X80296328Y-108531785D01*
X80673471Y-108531785D02*
X80704900Y-108500357D01*
X80736328Y-108437500D01*
X80736328Y-108343214D01*
X80704900Y-108280357D01*
X80642042Y-108248928D01*
X80296328Y-108248928D01*
X80327757Y-107966071D02*
X80296328Y-107903214D01*
X80296328Y-107777500D01*
X80327757Y-107714642D01*
X80390614Y-107683214D01*
X80422042Y-107683214D01*
X80484900Y-107714642D01*
X80516328Y-107777500D01*
X80516328Y-107871785D01*
X80547757Y-107934642D01*
X80610614Y-107966071D01*
X80642042Y-107966071D01*
X80704900Y-107934642D01*
X80736328Y-107871785D01*
X80736328Y-107777500D01*
X80704900Y-107714642D01*
X80327757Y-107148928D02*
X80296328Y-107211785D01*
X80296328Y-107337500D01*
X80327757Y-107400357D01*
X80390614Y-107431785D01*
X80642042Y-107431785D01*
X80704900Y-107400357D01*
X80736328Y-107337500D01*
X80736328Y-107211785D01*
X80704900Y-107148928D01*
X80642042Y-107117500D01*
X80579185Y-107117500D01*
X80516328Y-107431785D01*
%LPC*%
D11*
%TO.C,J3*%
X82835000Y-101977500D03*
X88615000Y-101977500D03*
D12*
X90045000Y-98327500D03*
D13*
X90045000Y-102507500D03*
X81405000Y-102507500D03*
D12*
X81405000Y-98327500D03*
%TD*%
D14*
%TO.C,J4*%
X88250000Y-140965000D03*
D15*
X88250000Y-143505000D03*
X85710000Y-140965000D03*
X85710000Y-143505000D03*
X83170000Y-140965000D03*
X83170000Y-143505000D03*
%TD*%
D14*
%TO.C,J1*%
X95885000Y-121920000D03*
D15*
X98425000Y-121920000D03*
X100965000Y-121920000D03*
X103505000Y-121920000D03*
X106045000Y-121920000D03*
X108585000Y-121920000D03*
X111125000Y-121920000D03*
X113665000Y-121920000D03*
X116205000Y-121920000D03*
X118745000Y-121920000D03*
X121285000Y-121920000D03*
X123825000Y-121920000D03*
X126365000Y-121920000D03*
X128905000Y-121920000D03*
X131445000Y-121920000D03*
X133985000Y-121920000D03*
X136525000Y-121920000D03*
%TD*%
D14*
%TO.C,J2*%
X95885000Y-132080000D03*
D15*
X98425000Y-132080000D03*
X100965000Y-132080000D03*
X103505000Y-132080000D03*
X106045000Y-132080000D03*
X108585000Y-132080000D03*
X111125000Y-132080000D03*
X113665000Y-132080000D03*
X116205000Y-132080000D03*
X118745000Y-132080000D03*
X121285000Y-132080000D03*
X123825000Y-132080000D03*
X126365000Y-132080000D03*
X128905000Y-132080000D03*
X131445000Y-132080000D03*
X133985000Y-132080000D03*
X136525000Y-132080000D03*
%TD*%
M02*
