%TF.GenerationSoftware,KiCad,Pcbnew,(6.0.9-0)*%
%TF.CreationDate,2022-12-21T10:02:25+01:00*%
%TF.ProjectId,BluerPill,426c7565-7250-4696-9c6c-2e6b69636164,rev?*%
%TF.SameCoordinates,Original*%
%TF.FileFunction,Copper,L2,Inr*%
%TF.FilePolarity,Positive*%
%FSLAX46Y46*%
G04 Gerber Fmt 4.6, Leading zero omitted, Abs format (unit mm)*
G04 Created by KiCad (PCBNEW (6.0.9-0)) date 2022-12-21 10:02:25*
%MOMM*%
%LPD*%
G01*
G04 APERTURE LIST*
%TA.AperFunction,ComponentPad*%
%ADD10O,1.000000X1.600000*%
%TD*%
%TA.AperFunction,ComponentPad*%
%ADD11O,1.000000X2.100000*%
%TD*%
%TA.AperFunction,ComponentPad*%
%ADD12R,1.700000X1.700000*%
%TD*%
%TA.AperFunction,ComponentPad*%
%ADD13O,1.700000X1.700000*%
%TD*%
%TA.AperFunction,ViaPad*%
%ADD14C,0.550000*%
%TD*%
G04 APERTURE END LIST*
D10*
%TO.N,unconnected-(J3-PadS1)*%
%TO.C,J3*%
X90045000Y-98327500D03*
D11*
X90045000Y-102507500D03*
X81405000Y-102507500D03*
D10*
X81405000Y-98327500D03*
%TD*%
D12*
%TO.N,+3.3V*%
%TO.C,J4*%
X88250000Y-140965000D03*
D13*
%TO.N,SWDIO*%
X88250000Y-143505000D03*
%TO.N,nRST*%
X85710000Y-140965000D03*
%TO.N,SWCLK*%
X85710000Y-143505000D03*
%TO.N,GND*%
X83170000Y-140965000D03*
%TO.N,SWO*%
X83170000Y-143505000D03*
%TD*%
D12*
%TO.N,+3.3V*%
%TO.C,J1*%
X95885000Y-121920000D03*
D13*
%TO.N,GND*%
X98425000Y-121920000D03*
%TO.N,VBUS*%
X100965000Y-121920000D03*
%TO.N,PB13*%
X103505000Y-121920000D03*
%TO.N,PB12*%
X106045000Y-121920000D03*
%TO.N,PB11*%
X108585000Y-121920000D03*
%TO.N,PB10*%
X111125000Y-121920000D03*
%TO.N,PB1*%
X113665000Y-121920000D03*
%TO.N,PB0*%
X116205000Y-121920000D03*
%TO.N,PA7*%
X118745000Y-121920000D03*
%TO.N,PA6*%
X121285000Y-121920000D03*
%TO.N,PA5*%
X123825000Y-121920000D03*
%TO.N,PA4*%
X126365000Y-121920000D03*
%TO.N,PA3*%
X128905000Y-121920000D03*
%TO.N,PA2*%
X131445000Y-121920000D03*
%TO.N,PA1*%
X133985000Y-121920000D03*
%TO.N,PA0*%
X136525000Y-121920000D03*
%TD*%
D12*
%TO.N,+3.3V*%
%TO.C,J2*%
X95885000Y-132080000D03*
D13*
%TO.N,GND*%
X98425000Y-132080000D03*
%TO.N,PC13*%
X100965000Y-132080000D03*
%TO.N,PB9*%
X103505000Y-132080000D03*
%TO.N,PC14*%
X106045000Y-132080000D03*
%TO.N,PC15*%
X108585000Y-132080000D03*
%TO.N,PB8*%
X111125000Y-132080000D03*
%TO.N,PB5*%
X113665000Y-132080000D03*
%TO.N,PB6*%
X116205000Y-132080000D03*
%TO.N,PB7*%
X118745000Y-132080000D03*
%TO.N,PB4*%
X121285000Y-132080000D03*
%TO.N,PA15*%
X123825000Y-132080000D03*
%TO.N,PA10*%
X126365000Y-132080000D03*
%TO.N,PA9*%
X128905000Y-132080000D03*
%TO.N,PA8*%
X131445000Y-132080000D03*
%TO.N,PB14*%
X133985000Y-132080000D03*
%TO.N,PB15*%
X136525000Y-132080000D03*
%TD*%
D14*
%TO.N,+3.3V*%
X88725000Y-110000000D03*
X81125000Y-121100000D03*
X80899500Y-130200000D03*
X87725000Y-111000000D03*
X86725000Y-112000000D03*
X83925000Y-153600000D03*
X87625000Y-109300000D03*
X89225000Y-122500000D03*
X86725000Y-110000000D03*
X88725000Y-112000000D03*
X87725000Y-112900000D03*
X87625000Y-138500000D03*
%TO.N,GND*%
X86925000Y-149900000D03*
X84825000Y-111400000D03*
X90125000Y-106600000D03*
X83925000Y-148000000D03*
X88025000Y-100900000D03*
X88425000Y-126100000D03*
X85325000Y-120500000D03*
X84825000Y-109800000D03*
X90525000Y-151100000D03*
X90725000Y-153200000D03*
X80387500Y-105277500D03*
X86425000Y-106400000D03*
X86725000Y-126900000D03*
X92925000Y-134000000D03*
X80125000Y-151000000D03*
X80425000Y-103600000D03*
X127525000Y-127000000D03*
X87825000Y-98200000D03*
X133625000Y-127100000D03*
X80925000Y-132600000D03*
X82725000Y-149400000D03*
X80925000Y-117600000D03*
X83525000Y-98100000D03*
X83625000Y-151100000D03*
X86425000Y-119700000D03*
X84025000Y-117800000D03*
X83025000Y-129600000D03*
X82075000Y-123350000D03*
X85725000Y-99300000D03*
X91225000Y-139600000D03*
X80725000Y-100200000D03*
X90225000Y-149000000D03*
X86625000Y-132974500D03*
X117425000Y-127000000D03*
X85725000Y-112000000D03*
X90825000Y-100200000D03*
X83625000Y-100800000D03*
X81125000Y-146400000D03*
X89225000Y-118600000D03*
X90125000Y-135500000D03*
X122625000Y-127000000D03*
X84525000Y-124800000D03*
X85825000Y-113000000D03*
X88425000Y-120100000D03*
X90825000Y-146300000D03*
X82025000Y-142100000D03*
X83725000Y-133800000D03*
X82025000Y-117500000D03*
X87025000Y-118400000D03*
X90325000Y-122400000D03*
X85525000Y-110600000D03*
X84925000Y-112600000D03*
%TO.N,PB9*%
X83825000Y-128900000D03*
%TO.N,PB8*%
X85425000Y-128300000D03*
%TO.N,PB7*%
X85925000Y-126900000D03*
%TO.N,PB6*%
X86725000Y-126100000D03*
%TO.N,PB5*%
X87525000Y-126900000D03*
%TO.N,PB4*%
X82825000Y-125500000D03*
%TO.N,PA15*%
X83425000Y-124900000D03*
%TO.N,PA10*%
X85225000Y-124300000D03*
%TO.N,PA9*%
X85725000Y-121400000D03*
%TO.N,PA8*%
X86187056Y-120711501D03*
%TO.N,PB15*%
X86904335Y-120494096D03*
%TO.N,PB14*%
X87725000Y-120500000D03*
%TO.N,PC13*%
X83275000Y-132350000D03*
%TO.N,PC14*%
X84725000Y-129000000D03*
%TO.N,PC15*%
X85508884Y-129100000D03*
%TO.N,SWDIO*%
X84225000Y-124100000D03*
%TO.N,BOOT0*%
X84225000Y-127428053D03*
X81825000Y-147500000D03*
%TD*%
%TA.AperFunction,Conductor*%
%TO.N,GND*%
G36*
X90786413Y-96772545D02*
G01*
X90790607Y-96772545D01*
X90805000Y-96775408D01*
X90819392Y-96772545D01*
X90821873Y-96772545D01*
X90834859Y-96773112D01*
X90969047Y-96784852D01*
X90994625Y-96789362D01*
X91141098Y-96828609D01*
X91165504Y-96837492D01*
X91302934Y-96901577D01*
X91325427Y-96914564D01*
X91449645Y-97001543D01*
X91469541Y-97018237D01*
X91576763Y-97125459D01*
X91593457Y-97145355D01*
X91680436Y-97269573D01*
X91693423Y-97292065D01*
X91709908Y-97327419D01*
X91757508Y-97429496D01*
X91766391Y-97453902D01*
X91805638Y-97600375D01*
X91810148Y-97625953D01*
X91821888Y-97760141D01*
X91822455Y-97773127D01*
X91822455Y-97775608D01*
X91819592Y-97790000D01*
X91822455Y-97804393D01*
X91822455Y-97808587D01*
X91824500Y-97829350D01*
X91824500Y-118070650D01*
X91822455Y-118091415D01*
X91822455Y-118095608D01*
X91819592Y-118110000D01*
X91820304Y-118113580D01*
X91837677Y-118422929D01*
X91890177Y-118731923D01*
X91976943Y-119033096D01*
X92096885Y-119322660D01*
X92248493Y-119596975D01*
X92429862Y-119852590D01*
X92432650Y-119855710D01*
X92432655Y-119855716D01*
X92616540Y-120061484D01*
X92638709Y-120086291D01*
X92641831Y-120089081D01*
X92869284Y-120292345D01*
X92869290Y-120292350D01*
X92872410Y-120295138D01*
X93128025Y-120476507D01*
X93131686Y-120478530D01*
X93131687Y-120478531D01*
X93396382Y-120624822D01*
X93402340Y-120628115D01*
X93406198Y-120629713D01*
X93406200Y-120629714D01*
X93496578Y-120667150D01*
X93691904Y-120748057D01*
X93993077Y-120834823D01*
X93997183Y-120835521D01*
X93997189Y-120835522D01*
X94282525Y-120884002D01*
X94302071Y-120887323D01*
X94399561Y-120892798D01*
X94597435Y-120903911D01*
X94597436Y-120903911D01*
X94611420Y-120904696D01*
X94615000Y-120905408D01*
X94629392Y-120902545D01*
X94633585Y-120902545D01*
X94654350Y-120900500D01*
X94685574Y-120900500D01*
X94760074Y-120920462D01*
X94814612Y-120975000D01*
X94834574Y-121049500D01*
X94834549Y-121050004D01*
X94834500Y-121050252D01*
X94834500Y-122789748D01*
X94835927Y-122796921D01*
X94835927Y-122796923D01*
X94838779Y-122811258D01*
X94846133Y-122848231D01*
X94854288Y-122860435D01*
X94854288Y-122860436D01*
X94881299Y-122900860D01*
X94890448Y-122914552D01*
X94902651Y-122922706D01*
X94941561Y-122948705D01*
X94956769Y-122958867D01*
X94971165Y-122961731D01*
X94971166Y-122961731D01*
X95008077Y-122969073D01*
X95008079Y-122969073D01*
X95015252Y-122970500D01*
X96754748Y-122970500D01*
X96761921Y-122969073D01*
X96761923Y-122969073D01*
X96798834Y-122961731D01*
X96798835Y-122961731D01*
X96813231Y-122958867D01*
X96828440Y-122948705D01*
X96867349Y-122922706D01*
X96879552Y-122914552D01*
X96888701Y-122900860D01*
X96915712Y-122860436D01*
X96915712Y-122860435D01*
X96923867Y-122848231D01*
X96931222Y-122811258D01*
X96934073Y-122796923D01*
X96934073Y-122796921D01*
X96935500Y-122789748D01*
X96935500Y-121050252D01*
X96938428Y-121050252D01*
X96948713Y-120987995D01*
X96997647Y-120928378D01*
X97069834Y-120901216D01*
X97084426Y-120900500D01*
X100133323Y-120900500D01*
X100207823Y-120920462D01*
X100262361Y-120975000D01*
X100282323Y-121049500D01*
X100262361Y-121124000D01*
X100235988Y-121154772D01*
X100237335Y-121156148D01*
X100232126Y-121161249D01*
X100226447Y-121165815D01*
X100221763Y-121171397D01*
X100221760Y-121171400D01*
X100151104Y-121255605D01*
X100094024Y-121323630D01*
X99994776Y-121504162D01*
X99992573Y-121511106D01*
X99992572Y-121511109D01*
X99972494Y-121574405D01*
X99932484Y-121700532D01*
X99931671Y-121707776D01*
X99931671Y-121707778D01*
X99916428Y-121843673D01*
X99909520Y-121905262D01*
X99926759Y-122110553D01*
X99983544Y-122308586D01*
X99986874Y-122315066D01*
X99986875Y-122315068D01*
X100007747Y-122355680D01*
X100077712Y-122491818D01*
X100205677Y-122653270D01*
X100211223Y-122657990D01*
X100350477Y-122776504D01*
X100362564Y-122786791D01*
X100542398Y-122887297D01*
X100738329Y-122950959D01*
X100793907Y-122957586D01*
X100935662Y-122974489D01*
X100935665Y-122974489D01*
X100942894Y-122975351D01*
X101104918Y-122962884D01*
X101141036Y-122960105D01*
X101141037Y-122960105D01*
X101148300Y-122959546D01*
X101241254Y-122933593D01*
X101339707Y-122906105D01*
X101339712Y-122906103D01*
X101346725Y-122904145D01*
X101353226Y-122900861D01*
X101353229Y-122900860D01*
X101524105Y-122814544D01*
X101524106Y-122814544D01*
X101530610Y-122811258D01*
X101692951Y-122684424D01*
X101827564Y-122528472D01*
X101846976Y-122494301D01*
X101925724Y-122355680D01*
X101925725Y-122355677D01*
X101929323Y-122349344D01*
X101994351Y-122153863D01*
X101996356Y-122137996D01*
X102019649Y-121953603D01*
X102020171Y-121949474D01*
X102020583Y-121920000D01*
X102000480Y-121714970D01*
X101957026Y-121571044D01*
X101943041Y-121524724D01*
X101943041Y-121524723D01*
X101940935Y-121517749D01*
X101937405Y-121511109D01*
X101884568Y-121411737D01*
X101844218Y-121335849D01*
X101834253Y-121323630D01*
X101718612Y-121181841D01*
X101718610Y-121181839D01*
X101714011Y-121176200D01*
X101699631Y-121164304D01*
X101654954Y-121101435D01*
X101647697Y-121024650D01*
X101679805Y-120954522D01*
X101742675Y-120909844D01*
X101794610Y-120900500D01*
X102673323Y-120900500D01*
X102747823Y-120920462D01*
X102802361Y-120975000D01*
X102822323Y-121049500D01*
X102802361Y-121124000D01*
X102775988Y-121154772D01*
X102777335Y-121156148D01*
X102772126Y-121161249D01*
X102766447Y-121165815D01*
X102761763Y-121171397D01*
X102761760Y-121171400D01*
X102691104Y-121255605D01*
X102634024Y-121323630D01*
X102534776Y-121504162D01*
X102532573Y-121511106D01*
X102532572Y-121511109D01*
X102512494Y-121574405D01*
X102472484Y-121700532D01*
X102471671Y-121707776D01*
X102471671Y-121707778D01*
X102456428Y-121843673D01*
X102449520Y-121905262D01*
X102466759Y-122110553D01*
X102523544Y-122308586D01*
X102526874Y-122315066D01*
X102526875Y-122315068D01*
X102547747Y-122355680D01*
X102617712Y-122491818D01*
X102745677Y-122653270D01*
X102751223Y-122657990D01*
X102890477Y-122776504D01*
X102902564Y-122786791D01*
X103082398Y-122887297D01*
X103278329Y-122950959D01*
X103333907Y-122957586D01*
X103475662Y-122974489D01*
X103475665Y-122974489D01*
X103482894Y-122975351D01*
X103644918Y-122962884D01*
X103681036Y-122960105D01*
X103681037Y-122960105D01*
X103688300Y-122959546D01*
X103781254Y-122933593D01*
X103879707Y-122906105D01*
X103879712Y-122906103D01*
X103886725Y-122904145D01*
X103893226Y-122900861D01*
X103893229Y-122900860D01*
X104064105Y-122814544D01*
X104064106Y-122814544D01*
X104070610Y-122811258D01*
X104232951Y-122684424D01*
X104367564Y-122528472D01*
X104386976Y-122494301D01*
X104465724Y-122355680D01*
X104465725Y-122355677D01*
X104469323Y-122349344D01*
X104534351Y-122153863D01*
X104536356Y-122137996D01*
X104559649Y-121953603D01*
X104560171Y-121949474D01*
X104560583Y-121920000D01*
X104540480Y-121714970D01*
X104497026Y-121571044D01*
X104483041Y-121524724D01*
X104483041Y-121524723D01*
X104480935Y-121517749D01*
X104477405Y-121511109D01*
X104424568Y-121411737D01*
X104384218Y-121335849D01*
X104374253Y-121323630D01*
X104258612Y-121181841D01*
X104258610Y-121181839D01*
X104254011Y-121176200D01*
X104239631Y-121164304D01*
X104194954Y-121101435D01*
X104187697Y-121024650D01*
X104219805Y-120954522D01*
X104282675Y-120909844D01*
X104334610Y-120900500D01*
X105213323Y-120900500D01*
X105287823Y-120920462D01*
X105342361Y-120975000D01*
X105362323Y-121049500D01*
X105342361Y-121124000D01*
X105315988Y-121154772D01*
X105317335Y-121156148D01*
X105312126Y-121161249D01*
X105306447Y-121165815D01*
X105301763Y-121171397D01*
X105301760Y-121171400D01*
X105231104Y-121255605D01*
X105174024Y-121323630D01*
X105074776Y-121504162D01*
X105072573Y-121511106D01*
X105072572Y-121511109D01*
X105052494Y-121574405D01*
X105012484Y-121700532D01*
X105011671Y-121707776D01*
X105011671Y-121707778D01*
X104996428Y-121843673D01*
X104989520Y-121905262D01*
X105006759Y-122110553D01*
X105063544Y-122308586D01*
X105066874Y-122315066D01*
X105066875Y-122315068D01*
X105087747Y-122355680D01*
X105157712Y-122491818D01*
X105285677Y-122653270D01*
X105291223Y-122657990D01*
X105430477Y-122776504D01*
X105442564Y-122786791D01*
X105622398Y-122887297D01*
X105818329Y-122950959D01*
X105873907Y-122957586D01*
X106015662Y-122974489D01*
X106015665Y-122974489D01*
X106022894Y-122975351D01*
X106184918Y-122962884D01*
X106221036Y-122960105D01*
X106221037Y-122960105D01*
X106228300Y-122959546D01*
X106321254Y-122933593D01*
X106419707Y-122906105D01*
X106419712Y-122906103D01*
X106426725Y-122904145D01*
X106433226Y-122900861D01*
X106433229Y-122900860D01*
X106604105Y-122814544D01*
X106604106Y-122814544D01*
X106610610Y-122811258D01*
X106772951Y-122684424D01*
X106907564Y-122528472D01*
X106926976Y-122494301D01*
X107005724Y-122355680D01*
X107005725Y-122355677D01*
X107009323Y-122349344D01*
X107074351Y-122153863D01*
X107076356Y-122137996D01*
X107099649Y-121953603D01*
X107100171Y-121949474D01*
X107100583Y-121920000D01*
X107080480Y-121714970D01*
X107037026Y-121571044D01*
X107023041Y-121524724D01*
X107023041Y-121524723D01*
X107020935Y-121517749D01*
X107017405Y-121511109D01*
X106964568Y-121411737D01*
X106924218Y-121335849D01*
X106914253Y-121323630D01*
X106798612Y-121181841D01*
X106798610Y-121181839D01*
X106794011Y-121176200D01*
X106779631Y-121164304D01*
X106734954Y-121101435D01*
X106727697Y-121024650D01*
X106759805Y-120954522D01*
X106822675Y-120909844D01*
X106874610Y-120900500D01*
X107753323Y-120900500D01*
X107827823Y-120920462D01*
X107882361Y-120975000D01*
X107902323Y-121049500D01*
X107882361Y-121124000D01*
X107855988Y-121154772D01*
X107857335Y-121156148D01*
X107852126Y-121161249D01*
X107846447Y-121165815D01*
X107841763Y-121171397D01*
X107841760Y-121171400D01*
X107771104Y-121255605D01*
X107714024Y-121323630D01*
X107614776Y-121504162D01*
X107612573Y-121511106D01*
X107612572Y-121511109D01*
X107592494Y-121574405D01*
X107552484Y-121700532D01*
X107551671Y-121707776D01*
X107551671Y-121707778D01*
X107536428Y-121843673D01*
X107529520Y-121905262D01*
X107546759Y-122110553D01*
X107603544Y-122308586D01*
X107606874Y-122315066D01*
X107606875Y-122315068D01*
X107627747Y-122355680D01*
X107697712Y-122491818D01*
X107825677Y-122653270D01*
X107831223Y-122657990D01*
X107970477Y-122776504D01*
X107982564Y-122786791D01*
X108162398Y-122887297D01*
X108358329Y-122950959D01*
X108413907Y-122957586D01*
X108555662Y-122974489D01*
X108555665Y-122974489D01*
X108562894Y-122975351D01*
X108724918Y-122962884D01*
X108761036Y-122960105D01*
X108761037Y-122960105D01*
X108768300Y-122959546D01*
X108861254Y-122933593D01*
X108959707Y-122906105D01*
X108959712Y-122906103D01*
X108966725Y-122904145D01*
X108973226Y-122900861D01*
X108973229Y-122900860D01*
X109144105Y-122814544D01*
X109144106Y-122814544D01*
X109150610Y-122811258D01*
X109312951Y-122684424D01*
X109447564Y-122528472D01*
X109466976Y-122494301D01*
X109545724Y-122355680D01*
X109545725Y-122355677D01*
X109549323Y-122349344D01*
X109614351Y-122153863D01*
X109616356Y-122137996D01*
X109639649Y-121953603D01*
X109640171Y-121949474D01*
X109640583Y-121920000D01*
X109620480Y-121714970D01*
X109577026Y-121571044D01*
X109563041Y-121524724D01*
X109563041Y-121524723D01*
X109560935Y-121517749D01*
X109557405Y-121511109D01*
X109504568Y-121411737D01*
X109464218Y-121335849D01*
X109454253Y-121323630D01*
X109338612Y-121181841D01*
X109338610Y-121181839D01*
X109334011Y-121176200D01*
X109319631Y-121164304D01*
X109274954Y-121101435D01*
X109267697Y-121024650D01*
X109299805Y-120954522D01*
X109362675Y-120909844D01*
X109414610Y-120900500D01*
X110293323Y-120900500D01*
X110367823Y-120920462D01*
X110422361Y-120975000D01*
X110442323Y-121049500D01*
X110422361Y-121124000D01*
X110395988Y-121154772D01*
X110397335Y-121156148D01*
X110392126Y-121161249D01*
X110386447Y-121165815D01*
X110381763Y-121171397D01*
X110381760Y-121171400D01*
X110311104Y-121255605D01*
X110254024Y-121323630D01*
X110154776Y-121504162D01*
X110152573Y-121511106D01*
X110152572Y-121511109D01*
X110132494Y-121574405D01*
X110092484Y-121700532D01*
X110091671Y-121707776D01*
X110091671Y-121707778D01*
X110076428Y-121843673D01*
X110069520Y-121905262D01*
X110086759Y-122110553D01*
X110143544Y-122308586D01*
X110146874Y-122315066D01*
X110146875Y-122315068D01*
X110167747Y-122355680D01*
X110237712Y-122491818D01*
X110365677Y-122653270D01*
X110371223Y-122657990D01*
X110510477Y-122776504D01*
X110522564Y-122786791D01*
X110702398Y-122887297D01*
X110898329Y-122950959D01*
X110953907Y-122957586D01*
X111095662Y-122974489D01*
X111095665Y-122974489D01*
X111102894Y-122975351D01*
X111264918Y-122962884D01*
X111301036Y-122960105D01*
X111301037Y-122960105D01*
X111308300Y-122959546D01*
X111401254Y-122933593D01*
X111499707Y-122906105D01*
X111499712Y-122906103D01*
X111506725Y-122904145D01*
X111513226Y-122900861D01*
X111513229Y-122900860D01*
X111684105Y-122814544D01*
X111684106Y-122814544D01*
X111690610Y-122811258D01*
X111852951Y-122684424D01*
X111987564Y-122528472D01*
X112006976Y-122494301D01*
X112085724Y-122355680D01*
X112085725Y-122355677D01*
X112089323Y-122349344D01*
X112154351Y-122153863D01*
X112156356Y-122137996D01*
X112179649Y-121953603D01*
X112180171Y-121949474D01*
X112180583Y-121920000D01*
X112160480Y-121714970D01*
X112117026Y-121571044D01*
X112103041Y-121524724D01*
X112103041Y-121524723D01*
X112100935Y-121517749D01*
X112097405Y-121511109D01*
X112044568Y-121411737D01*
X112004218Y-121335849D01*
X111994253Y-121323630D01*
X111878612Y-121181841D01*
X111878610Y-121181839D01*
X111874011Y-121176200D01*
X111859631Y-121164304D01*
X111814954Y-121101435D01*
X111807697Y-121024650D01*
X111839805Y-120954522D01*
X111902675Y-120909844D01*
X111954610Y-120900500D01*
X112833323Y-120900500D01*
X112907823Y-120920462D01*
X112962361Y-120975000D01*
X112982323Y-121049500D01*
X112962361Y-121124000D01*
X112935988Y-121154772D01*
X112937335Y-121156148D01*
X112932126Y-121161249D01*
X112926447Y-121165815D01*
X112921763Y-121171397D01*
X112921760Y-121171400D01*
X112851104Y-121255605D01*
X112794024Y-121323630D01*
X112694776Y-121504162D01*
X112692573Y-121511106D01*
X112692572Y-121511109D01*
X112672494Y-121574405D01*
X112632484Y-121700532D01*
X112631671Y-121707776D01*
X112631671Y-121707778D01*
X112616428Y-121843673D01*
X112609520Y-121905262D01*
X112626759Y-122110553D01*
X112683544Y-122308586D01*
X112686874Y-122315066D01*
X112686875Y-122315068D01*
X112707747Y-122355680D01*
X112777712Y-122491818D01*
X112905677Y-122653270D01*
X112911223Y-122657990D01*
X113050477Y-122776504D01*
X113062564Y-122786791D01*
X113242398Y-122887297D01*
X113438329Y-122950959D01*
X113493907Y-122957586D01*
X113635662Y-122974489D01*
X113635665Y-122974489D01*
X113642894Y-122975351D01*
X113804918Y-122962884D01*
X113841036Y-122960105D01*
X113841037Y-122960105D01*
X113848300Y-122959546D01*
X113941254Y-122933593D01*
X114039707Y-122906105D01*
X114039712Y-122906103D01*
X114046725Y-122904145D01*
X114053226Y-122900861D01*
X114053229Y-122900860D01*
X114224105Y-122814544D01*
X114224106Y-122814544D01*
X114230610Y-122811258D01*
X114392951Y-122684424D01*
X114527564Y-122528472D01*
X114546976Y-122494301D01*
X114625724Y-122355680D01*
X114625725Y-122355677D01*
X114629323Y-122349344D01*
X114694351Y-122153863D01*
X114696356Y-122137996D01*
X114719649Y-121953603D01*
X114720171Y-121949474D01*
X114720583Y-121920000D01*
X114700480Y-121714970D01*
X114657026Y-121571044D01*
X114643041Y-121524724D01*
X114643041Y-121524723D01*
X114640935Y-121517749D01*
X114637405Y-121511109D01*
X114584568Y-121411737D01*
X114544218Y-121335849D01*
X114534253Y-121323630D01*
X114418612Y-121181841D01*
X114418610Y-121181839D01*
X114414011Y-121176200D01*
X114399631Y-121164304D01*
X114354954Y-121101435D01*
X114347697Y-121024650D01*
X114379805Y-120954522D01*
X114442675Y-120909844D01*
X114494610Y-120900500D01*
X115373323Y-120900500D01*
X115447823Y-120920462D01*
X115502361Y-120975000D01*
X115522323Y-121049500D01*
X115502361Y-121124000D01*
X115475988Y-121154772D01*
X115477335Y-121156148D01*
X115472126Y-121161249D01*
X115466447Y-121165815D01*
X115461763Y-121171397D01*
X115461760Y-121171400D01*
X115391104Y-121255605D01*
X115334024Y-121323630D01*
X115234776Y-121504162D01*
X115232573Y-121511106D01*
X115232572Y-121511109D01*
X115212494Y-121574405D01*
X115172484Y-121700532D01*
X115171671Y-121707776D01*
X115171671Y-121707778D01*
X115156428Y-121843673D01*
X115149520Y-121905262D01*
X115166759Y-122110553D01*
X115223544Y-122308586D01*
X115226874Y-122315066D01*
X115226875Y-122315068D01*
X115247747Y-122355680D01*
X115317712Y-122491818D01*
X115445677Y-122653270D01*
X115451223Y-122657990D01*
X115590477Y-122776504D01*
X115602564Y-122786791D01*
X115782398Y-122887297D01*
X115978329Y-122950959D01*
X116033907Y-122957586D01*
X116175662Y-122974489D01*
X116175665Y-122974489D01*
X116182894Y-122975351D01*
X116344918Y-122962884D01*
X116381036Y-122960105D01*
X116381037Y-122960105D01*
X116388300Y-122959546D01*
X116481254Y-122933593D01*
X116579707Y-122906105D01*
X116579712Y-122906103D01*
X116586725Y-122904145D01*
X116593226Y-122900861D01*
X116593229Y-122900860D01*
X116764105Y-122814544D01*
X116764106Y-122814544D01*
X116770610Y-122811258D01*
X116932951Y-122684424D01*
X117067564Y-122528472D01*
X117086976Y-122494301D01*
X117165724Y-122355680D01*
X117165725Y-122355677D01*
X117169323Y-122349344D01*
X117234351Y-122153863D01*
X117236356Y-122137996D01*
X117259649Y-121953603D01*
X117260171Y-121949474D01*
X117260583Y-121920000D01*
X117240480Y-121714970D01*
X117197026Y-121571044D01*
X117183041Y-121524724D01*
X117183041Y-121524723D01*
X117180935Y-121517749D01*
X117177405Y-121511109D01*
X117124568Y-121411737D01*
X117084218Y-121335849D01*
X117074253Y-121323630D01*
X116958612Y-121181841D01*
X116958610Y-121181839D01*
X116954011Y-121176200D01*
X116939631Y-121164304D01*
X116894954Y-121101435D01*
X116887697Y-121024650D01*
X116919805Y-120954522D01*
X116982675Y-120909844D01*
X117034610Y-120900500D01*
X117913323Y-120900500D01*
X117987823Y-120920462D01*
X118042361Y-120975000D01*
X118062323Y-121049500D01*
X118042361Y-121124000D01*
X118015988Y-121154772D01*
X118017335Y-121156148D01*
X118012126Y-121161249D01*
X118006447Y-121165815D01*
X118001763Y-121171397D01*
X118001760Y-121171400D01*
X117931104Y-121255605D01*
X117874024Y-121323630D01*
X117774776Y-121504162D01*
X117772573Y-121511106D01*
X117772572Y-121511109D01*
X117752494Y-121574405D01*
X117712484Y-121700532D01*
X117711671Y-121707776D01*
X117711671Y-121707778D01*
X117696428Y-121843673D01*
X117689520Y-121905262D01*
X117706759Y-122110553D01*
X117763544Y-122308586D01*
X117766874Y-122315066D01*
X117766875Y-122315068D01*
X117787747Y-122355680D01*
X117857712Y-122491818D01*
X117985677Y-122653270D01*
X117991223Y-122657990D01*
X118130477Y-122776504D01*
X118142564Y-122786791D01*
X118322398Y-122887297D01*
X118518329Y-122950959D01*
X118573907Y-122957586D01*
X118715662Y-122974489D01*
X118715665Y-122974489D01*
X118722894Y-122975351D01*
X118884918Y-122962884D01*
X118921036Y-122960105D01*
X118921037Y-122960105D01*
X118928300Y-122959546D01*
X119021254Y-122933593D01*
X119119707Y-122906105D01*
X119119712Y-122906103D01*
X119126725Y-122904145D01*
X119133226Y-122900861D01*
X119133229Y-122900860D01*
X119304105Y-122814544D01*
X119304106Y-122814544D01*
X119310610Y-122811258D01*
X119472951Y-122684424D01*
X119607564Y-122528472D01*
X119626976Y-122494301D01*
X119705724Y-122355680D01*
X119705725Y-122355677D01*
X119709323Y-122349344D01*
X119774351Y-122153863D01*
X119776356Y-122137996D01*
X119799649Y-121953603D01*
X119800171Y-121949474D01*
X119800583Y-121920000D01*
X119780480Y-121714970D01*
X119737026Y-121571044D01*
X119723041Y-121524724D01*
X119723041Y-121524723D01*
X119720935Y-121517749D01*
X119717405Y-121511109D01*
X119664568Y-121411737D01*
X119624218Y-121335849D01*
X119614253Y-121323630D01*
X119498612Y-121181841D01*
X119498610Y-121181839D01*
X119494011Y-121176200D01*
X119479631Y-121164304D01*
X119434954Y-121101435D01*
X119427697Y-121024650D01*
X119459805Y-120954522D01*
X119522675Y-120909844D01*
X119574610Y-120900500D01*
X120453323Y-120900500D01*
X120527823Y-120920462D01*
X120582361Y-120975000D01*
X120602323Y-121049500D01*
X120582361Y-121124000D01*
X120555988Y-121154772D01*
X120557335Y-121156148D01*
X120552126Y-121161249D01*
X120546447Y-121165815D01*
X120541763Y-121171397D01*
X120541760Y-121171400D01*
X120471104Y-121255605D01*
X120414024Y-121323630D01*
X120314776Y-121504162D01*
X120312573Y-121511106D01*
X120312572Y-121511109D01*
X120292494Y-121574405D01*
X120252484Y-121700532D01*
X120251671Y-121707776D01*
X120251671Y-121707778D01*
X120236428Y-121843673D01*
X120229520Y-121905262D01*
X120246759Y-122110553D01*
X120303544Y-122308586D01*
X120306874Y-122315066D01*
X120306875Y-122315068D01*
X120327747Y-122355680D01*
X120397712Y-122491818D01*
X120525677Y-122653270D01*
X120531223Y-122657990D01*
X120670477Y-122776504D01*
X120682564Y-122786791D01*
X120862398Y-122887297D01*
X121058329Y-122950959D01*
X121113907Y-122957586D01*
X121255662Y-122974489D01*
X121255665Y-122974489D01*
X121262894Y-122975351D01*
X121424918Y-122962884D01*
X121461036Y-122960105D01*
X121461037Y-122960105D01*
X121468300Y-122959546D01*
X121561254Y-122933593D01*
X121659707Y-122906105D01*
X121659712Y-122906103D01*
X121666725Y-122904145D01*
X121673226Y-122900861D01*
X121673229Y-122900860D01*
X121844105Y-122814544D01*
X121844106Y-122814544D01*
X121850610Y-122811258D01*
X122012951Y-122684424D01*
X122147564Y-122528472D01*
X122166976Y-122494301D01*
X122245724Y-122355680D01*
X122245725Y-122355677D01*
X122249323Y-122349344D01*
X122314351Y-122153863D01*
X122316356Y-122137996D01*
X122339649Y-121953603D01*
X122340171Y-121949474D01*
X122340583Y-121920000D01*
X122320480Y-121714970D01*
X122277026Y-121571044D01*
X122263041Y-121524724D01*
X122263041Y-121524723D01*
X122260935Y-121517749D01*
X122257405Y-121511109D01*
X122204568Y-121411737D01*
X122164218Y-121335849D01*
X122154253Y-121323630D01*
X122038612Y-121181841D01*
X122038610Y-121181839D01*
X122034011Y-121176200D01*
X122019631Y-121164304D01*
X121974954Y-121101435D01*
X121967697Y-121024650D01*
X121999805Y-120954522D01*
X122062675Y-120909844D01*
X122114610Y-120900500D01*
X122993323Y-120900500D01*
X123067823Y-120920462D01*
X123122361Y-120975000D01*
X123142323Y-121049500D01*
X123122361Y-121124000D01*
X123095988Y-121154772D01*
X123097335Y-121156148D01*
X123092126Y-121161249D01*
X123086447Y-121165815D01*
X123081763Y-121171397D01*
X123081760Y-121171400D01*
X123011104Y-121255605D01*
X122954024Y-121323630D01*
X122854776Y-121504162D01*
X122852573Y-121511106D01*
X122852572Y-121511109D01*
X122832494Y-121574405D01*
X122792484Y-121700532D01*
X122791671Y-121707776D01*
X122791671Y-121707778D01*
X122776428Y-121843673D01*
X122769520Y-121905262D01*
X122786759Y-122110553D01*
X122843544Y-122308586D01*
X122846874Y-122315066D01*
X122846875Y-122315068D01*
X122867747Y-122355680D01*
X122937712Y-122491818D01*
X123065677Y-122653270D01*
X123071223Y-122657990D01*
X123210477Y-122776504D01*
X123222564Y-122786791D01*
X123402398Y-122887297D01*
X123598329Y-122950959D01*
X123653907Y-122957586D01*
X123795662Y-122974489D01*
X123795665Y-122974489D01*
X123802894Y-122975351D01*
X123964918Y-122962884D01*
X124001036Y-122960105D01*
X124001037Y-122960105D01*
X124008300Y-122959546D01*
X124101254Y-122933593D01*
X124199707Y-122906105D01*
X124199712Y-122906103D01*
X124206725Y-122904145D01*
X124213226Y-122900861D01*
X124213229Y-122900860D01*
X124384105Y-122814544D01*
X124384106Y-122814544D01*
X124390610Y-122811258D01*
X124552951Y-122684424D01*
X124687564Y-122528472D01*
X124706976Y-122494301D01*
X124785724Y-122355680D01*
X124785725Y-122355677D01*
X124789323Y-122349344D01*
X124854351Y-122153863D01*
X124856356Y-122137996D01*
X124879649Y-121953603D01*
X124880171Y-121949474D01*
X124880583Y-121920000D01*
X124860480Y-121714970D01*
X124817026Y-121571044D01*
X124803041Y-121524724D01*
X124803041Y-121524723D01*
X124800935Y-121517749D01*
X124797405Y-121511109D01*
X124744568Y-121411737D01*
X124704218Y-121335849D01*
X124694253Y-121323630D01*
X124578612Y-121181841D01*
X124578610Y-121181839D01*
X124574011Y-121176200D01*
X124559631Y-121164304D01*
X124514954Y-121101435D01*
X124507697Y-121024650D01*
X124539805Y-120954522D01*
X124602675Y-120909844D01*
X124654610Y-120900500D01*
X125533323Y-120900500D01*
X125607823Y-120920462D01*
X125662361Y-120975000D01*
X125682323Y-121049500D01*
X125662361Y-121124000D01*
X125635988Y-121154772D01*
X125637335Y-121156148D01*
X125632126Y-121161249D01*
X125626447Y-121165815D01*
X125621763Y-121171397D01*
X125621760Y-121171400D01*
X125551104Y-121255605D01*
X125494024Y-121323630D01*
X125394776Y-121504162D01*
X125392573Y-121511106D01*
X125392572Y-121511109D01*
X125372494Y-121574405D01*
X125332484Y-121700532D01*
X125331671Y-121707776D01*
X125331671Y-121707778D01*
X125316428Y-121843673D01*
X125309520Y-121905262D01*
X125326759Y-122110553D01*
X125383544Y-122308586D01*
X125386874Y-122315066D01*
X125386875Y-122315068D01*
X125407747Y-122355680D01*
X125477712Y-122491818D01*
X125605677Y-122653270D01*
X125611223Y-122657990D01*
X125750477Y-122776504D01*
X125762564Y-122786791D01*
X125942398Y-122887297D01*
X126138329Y-122950959D01*
X126193907Y-122957586D01*
X126335662Y-122974489D01*
X126335665Y-122974489D01*
X126342894Y-122975351D01*
X126504918Y-122962884D01*
X126541036Y-122960105D01*
X126541037Y-122960105D01*
X126548300Y-122959546D01*
X126641254Y-122933593D01*
X126739707Y-122906105D01*
X126739712Y-122906103D01*
X126746725Y-122904145D01*
X126753226Y-122900861D01*
X126753229Y-122900860D01*
X126924105Y-122814544D01*
X126924106Y-122814544D01*
X126930610Y-122811258D01*
X127092951Y-122684424D01*
X127227564Y-122528472D01*
X127246976Y-122494301D01*
X127325724Y-122355680D01*
X127325725Y-122355677D01*
X127329323Y-122349344D01*
X127394351Y-122153863D01*
X127396356Y-122137996D01*
X127419649Y-121953603D01*
X127420171Y-121949474D01*
X127420583Y-121920000D01*
X127400480Y-121714970D01*
X127357026Y-121571044D01*
X127343041Y-121524724D01*
X127343041Y-121524723D01*
X127340935Y-121517749D01*
X127337405Y-121511109D01*
X127284568Y-121411737D01*
X127244218Y-121335849D01*
X127234253Y-121323630D01*
X127118612Y-121181841D01*
X127118610Y-121181839D01*
X127114011Y-121176200D01*
X127099631Y-121164304D01*
X127054954Y-121101435D01*
X127047697Y-121024650D01*
X127079805Y-120954522D01*
X127142675Y-120909844D01*
X127194610Y-120900500D01*
X128073323Y-120900500D01*
X128147823Y-120920462D01*
X128202361Y-120975000D01*
X128222323Y-121049500D01*
X128202361Y-121124000D01*
X128175988Y-121154772D01*
X128177335Y-121156148D01*
X128172126Y-121161249D01*
X128166447Y-121165815D01*
X128161763Y-121171397D01*
X128161760Y-121171400D01*
X128091104Y-121255605D01*
X128034024Y-121323630D01*
X127934776Y-121504162D01*
X127932573Y-121511106D01*
X127932572Y-121511109D01*
X127912494Y-121574405D01*
X127872484Y-121700532D01*
X127871671Y-121707776D01*
X127871671Y-121707778D01*
X127856428Y-121843673D01*
X127849520Y-121905262D01*
X127866759Y-122110553D01*
X127923544Y-122308586D01*
X127926874Y-122315066D01*
X127926875Y-122315068D01*
X127947747Y-122355680D01*
X128017712Y-122491818D01*
X128145677Y-122653270D01*
X128151223Y-122657990D01*
X128290477Y-122776504D01*
X128302564Y-122786791D01*
X128482398Y-122887297D01*
X128678329Y-122950959D01*
X128733907Y-122957586D01*
X128875662Y-122974489D01*
X128875665Y-122974489D01*
X128882894Y-122975351D01*
X129044918Y-122962884D01*
X129081036Y-122960105D01*
X129081037Y-122960105D01*
X129088300Y-122959546D01*
X129181254Y-122933593D01*
X129279707Y-122906105D01*
X129279712Y-122906103D01*
X129286725Y-122904145D01*
X129293226Y-122900861D01*
X129293229Y-122900860D01*
X129464105Y-122814544D01*
X129464106Y-122814544D01*
X129470610Y-122811258D01*
X129632951Y-122684424D01*
X129767564Y-122528472D01*
X129786976Y-122494301D01*
X129865724Y-122355680D01*
X129865725Y-122355677D01*
X129869323Y-122349344D01*
X129934351Y-122153863D01*
X129936356Y-122137996D01*
X129959649Y-121953603D01*
X129960171Y-121949474D01*
X129960583Y-121920000D01*
X129940480Y-121714970D01*
X129897026Y-121571044D01*
X129883041Y-121524724D01*
X129883041Y-121524723D01*
X129880935Y-121517749D01*
X129877405Y-121511109D01*
X129824568Y-121411737D01*
X129784218Y-121335849D01*
X129774253Y-121323630D01*
X129658612Y-121181841D01*
X129658610Y-121181839D01*
X129654011Y-121176200D01*
X129639631Y-121164304D01*
X129594954Y-121101435D01*
X129587697Y-121024650D01*
X129619805Y-120954522D01*
X129682675Y-120909844D01*
X129734610Y-120900500D01*
X130613323Y-120900500D01*
X130687823Y-120920462D01*
X130742361Y-120975000D01*
X130762323Y-121049500D01*
X130742361Y-121124000D01*
X130715988Y-121154772D01*
X130717335Y-121156148D01*
X130712126Y-121161249D01*
X130706447Y-121165815D01*
X130701763Y-121171397D01*
X130701760Y-121171400D01*
X130631104Y-121255605D01*
X130574024Y-121323630D01*
X130474776Y-121504162D01*
X130472573Y-121511106D01*
X130472572Y-121511109D01*
X130452494Y-121574405D01*
X130412484Y-121700532D01*
X130411671Y-121707776D01*
X130411671Y-121707778D01*
X130396428Y-121843673D01*
X130389520Y-121905262D01*
X130406759Y-122110553D01*
X130463544Y-122308586D01*
X130466874Y-122315066D01*
X130466875Y-122315068D01*
X130487747Y-122355680D01*
X130557712Y-122491818D01*
X130685677Y-122653270D01*
X130691223Y-122657990D01*
X130830477Y-122776504D01*
X130842564Y-122786791D01*
X131022398Y-122887297D01*
X131218329Y-122950959D01*
X131273907Y-122957586D01*
X131415662Y-122974489D01*
X131415665Y-122974489D01*
X131422894Y-122975351D01*
X131584918Y-122962884D01*
X131621036Y-122960105D01*
X131621037Y-122960105D01*
X131628300Y-122959546D01*
X131721254Y-122933593D01*
X131819707Y-122906105D01*
X131819712Y-122906103D01*
X131826725Y-122904145D01*
X131833226Y-122900861D01*
X131833229Y-122900860D01*
X132004105Y-122814544D01*
X132004106Y-122814544D01*
X132010610Y-122811258D01*
X132172951Y-122684424D01*
X132307564Y-122528472D01*
X132326976Y-122494301D01*
X132405724Y-122355680D01*
X132405725Y-122355677D01*
X132409323Y-122349344D01*
X132474351Y-122153863D01*
X132476356Y-122137996D01*
X132499649Y-121953603D01*
X132500171Y-121949474D01*
X132500583Y-121920000D01*
X132480480Y-121714970D01*
X132437026Y-121571044D01*
X132423041Y-121524724D01*
X132423041Y-121524723D01*
X132420935Y-121517749D01*
X132417405Y-121511109D01*
X132364568Y-121411737D01*
X132324218Y-121335849D01*
X132314253Y-121323630D01*
X132198612Y-121181841D01*
X132198610Y-121181839D01*
X132194011Y-121176200D01*
X132179631Y-121164304D01*
X132134954Y-121101435D01*
X132127697Y-121024650D01*
X132159805Y-120954522D01*
X132222675Y-120909844D01*
X132274610Y-120900500D01*
X133153323Y-120900500D01*
X133227823Y-120920462D01*
X133282361Y-120975000D01*
X133302323Y-121049500D01*
X133282361Y-121124000D01*
X133255988Y-121154772D01*
X133257335Y-121156148D01*
X133252126Y-121161249D01*
X133246447Y-121165815D01*
X133241763Y-121171397D01*
X133241760Y-121171400D01*
X133171104Y-121255605D01*
X133114024Y-121323630D01*
X133014776Y-121504162D01*
X133012573Y-121511106D01*
X133012572Y-121511109D01*
X132992494Y-121574405D01*
X132952484Y-121700532D01*
X132951671Y-121707776D01*
X132951671Y-121707778D01*
X132936428Y-121843673D01*
X132929520Y-121905262D01*
X132946759Y-122110553D01*
X133003544Y-122308586D01*
X133006874Y-122315066D01*
X133006875Y-122315068D01*
X133027747Y-122355680D01*
X133097712Y-122491818D01*
X133225677Y-122653270D01*
X133231223Y-122657990D01*
X133370477Y-122776504D01*
X133382564Y-122786791D01*
X133562398Y-122887297D01*
X133758329Y-122950959D01*
X133813907Y-122957586D01*
X133955662Y-122974489D01*
X133955665Y-122974489D01*
X133962894Y-122975351D01*
X134124918Y-122962884D01*
X134161036Y-122960105D01*
X134161037Y-122960105D01*
X134168300Y-122959546D01*
X134261254Y-122933593D01*
X134359707Y-122906105D01*
X134359712Y-122906103D01*
X134366725Y-122904145D01*
X134373226Y-122900861D01*
X134373229Y-122900860D01*
X134544105Y-122814544D01*
X134544106Y-122814544D01*
X134550610Y-122811258D01*
X134712951Y-122684424D01*
X134847564Y-122528472D01*
X134866976Y-122494301D01*
X134945724Y-122355680D01*
X134945725Y-122355677D01*
X134949323Y-122349344D01*
X135014351Y-122153863D01*
X135016356Y-122137996D01*
X135039649Y-121953603D01*
X135040171Y-121949474D01*
X135040583Y-121920000D01*
X135020480Y-121714970D01*
X134977026Y-121571044D01*
X134963041Y-121524724D01*
X134963041Y-121524723D01*
X134960935Y-121517749D01*
X134957405Y-121511109D01*
X134904568Y-121411737D01*
X134864218Y-121335849D01*
X134854253Y-121323630D01*
X134738612Y-121181841D01*
X134738610Y-121181839D01*
X134734011Y-121176200D01*
X134719631Y-121164304D01*
X134674954Y-121101435D01*
X134667697Y-121024650D01*
X134699805Y-120954522D01*
X134762675Y-120909844D01*
X134814610Y-120900500D01*
X135693323Y-120900500D01*
X135767823Y-120920462D01*
X135822361Y-120975000D01*
X135842323Y-121049500D01*
X135822361Y-121124000D01*
X135795988Y-121154772D01*
X135797335Y-121156148D01*
X135792126Y-121161249D01*
X135786447Y-121165815D01*
X135781763Y-121171397D01*
X135781760Y-121171400D01*
X135711104Y-121255605D01*
X135654024Y-121323630D01*
X135554776Y-121504162D01*
X135552573Y-121511106D01*
X135552572Y-121511109D01*
X135532494Y-121574405D01*
X135492484Y-121700532D01*
X135491671Y-121707776D01*
X135491671Y-121707778D01*
X135476428Y-121843673D01*
X135469520Y-121905262D01*
X135486759Y-122110553D01*
X135543544Y-122308586D01*
X135546874Y-122315066D01*
X135546875Y-122315068D01*
X135567747Y-122355680D01*
X135637712Y-122491818D01*
X135765677Y-122653270D01*
X135771223Y-122657990D01*
X135910477Y-122776504D01*
X135922564Y-122786791D01*
X136102398Y-122887297D01*
X136298329Y-122950959D01*
X136353907Y-122957586D01*
X136495662Y-122974489D01*
X136495665Y-122974489D01*
X136502894Y-122975351D01*
X136664918Y-122962884D01*
X136701036Y-122960105D01*
X136701037Y-122960105D01*
X136708300Y-122959546D01*
X136801254Y-122933593D01*
X136899707Y-122906105D01*
X136899712Y-122906103D01*
X136906725Y-122904145D01*
X136913226Y-122900861D01*
X136913229Y-122900860D01*
X137084105Y-122814544D01*
X137084106Y-122814544D01*
X137090610Y-122811258D01*
X137252951Y-122684424D01*
X137282707Y-122649951D01*
X137346498Y-122606598D01*
X137423419Y-122600949D01*
X137492859Y-122634517D01*
X137536212Y-122698308D01*
X137544500Y-122747310D01*
X137544500Y-131249411D01*
X137524538Y-131323911D01*
X137470000Y-131378449D01*
X137395500Y-131398411D01*
X137321000Y-131378449D01*
X137283902Y-131346876D01*
X137283756Y-131347021D01*
X137282025Y-131345278D01*
X137280031Y-131343581D01*
X137278613Y-131341843D01*
X137274011Y-131336200D01*
X137268401Y-131331559D01*
X137268398Y-131331556D01*
X137120890Y-131209527D01*
X137120889Y-131209526D01*
X137115275Y-131204882D01*
X137108871Y-131201420D01*
X137108869Y-131201418D01*
X136940468Y-131110364D01*
X136940464Y-131110362D01*
X136934055Y-131106897D01*
X136737254Y-131045977D01*
X136730008Y-131045215D01*
X136730006Y-131045215D01*
X136539610Y-131025204D01*
X136539609Y-131025204D01*
X136532369Y-131024443D01*
X136327203Y-131043114D01*
X136320214Y-131045171D01*
X136136560Y-131099223D01*
X136136557Y-131099224D01*
X136129572Y-131101280D01*
X136123117Y-131104655D01*
X136123116Y-131104655D01*
X136112196Y-131110364D01*
X135947002Y-131196726D01*
X135786447Y-131325815D01*
X135781763Y-131331397D01*
X135781760Y-131331400D01*
X135725531Y-131398411D01*
X135654024Y-131483630D01*
X135554776Y-131664162D01*
X135552573Y-131671106D01*
X135552572Y-131671109D01*
X135550466Y-131677749D01*
X135492484Y-131860532D01*
X135491671Y-131867776D01*
X135491671Y-131867778D01*
X135477723Y-131992126D01*
X135469520Y-132065262D01*
X135486759Y-132270553D01*
X135543544Y-132468586D01*
X135546874Y-132475066D01*
X135546875Y-132475068D01*
X135560936Y-132502427D01*
X135637712Y-132651818D01*
X135765677Y-132813270D01*
X135790798Y-132834649D01*
X135793596Y-132837031D01*
X135837393Y-132900518D01*
X135843578Y-132977398D01*
X135810495Y-133047070D01*
X135747008Y-133090867D01*
X135697026Y-133099500D01*
X134816590Y-133099500D01*
X134742090Y-133079538D01*
X134687552Y-133025000D01*
X134667590Y-132950500D01*
X134687552Y-132876000D01*
X134711521Y-132845541D01*
X134712951Y-132844424D01*
X134763963Y-132785326D01*
X134842803Y-132693988D01*
X134842804Y-132693986D01*
X134847564Y-132688472D01*
X134865140Y-132657533D01*
X134945724Y-132515680D01*
X134945725Y-132515677D01*
X134949323Y-132509344D01*
X135014351Y-132313863D01*
X135040171Y-132109474D01*
X135040583Y-132080000D01*
X135020480Y-131874970D01*
X134960935Y-131677749D01*
X134957405Y-131671109D01*
X134950316Y-131657778D01*
X134864218Y-131495849D01*
X134854253Y-131483630D01*
X134738612Y-131341841D01*
X134738610Y-131341839D01*
X134734011Y-131336200D01*
X134728401Y-131331559D01*
X134728398Y-131331556D01*
X134580890Y-131209527D01*
X134580889Y-131209526D01*
X134575275Y-131204882D01*
X134568871Y-131201420D01*
X134568869Y-131201418D01*
X134400468Y-131110364D01*
X134400464Y-131110362D01*
X134394055Y-131106897D01*
X134197254Y-131045977D01*
X134190008Y-131045215D01*
X134190006Y-131045215D01*
X133999610Y-131025204D01*
X133999609Y-131025204D01*
X133992369Y-131024443D01*
X133787203Y-131043114D01*
X133780214Y-131045171D01*
X133596560Y-131099223D01*
X133596557Y-131099224D01*
X133589572Y-131101280D01*
X133583117Y-131104655D01*
X133583116Y-131104655D01*
X133572196Y-131110364D01*
X133407002Y-131196726D01*
X133246447Y-131325815D01*
X133241763Y-131331397D01*
X133241760Y-131331400D01*
X133185531Y-131398411D01*
X133114024Y-131483630D01*
X133014776Y-131664162D01*
X133012573Y-131671106D01*
X133012572Y-131671109D01*
X133010466Y-131677749D01*
X132952484Y-131860532D01*
X132951671Y-131867776D01*
X132951671Y-131867778D01*
X132937723Y-131992126D01*
X132929520Y-132065262D01*
X132946759Y-132270553D01*
X133003544Y-132468586D01*
X133006874Y-132475066D01*
X133006875Y-132475068D01*
X133020936Y-132502427D01*
X133097712Y-132651818D01*
X133225677Y-132813270D01*
X133250798Y-132834649D01*
X133253596Y-132837031D01*
X133297393Y-132900518D01*
X133303578Y-132977398D01*
X133270495Y-133047070D01*
X133207008Y-133090867D01*
X133157026Y-133099500D01*
X132276590Y-133099500D01*
X132202090Y-133079538D01*
X132147552Y-133025000D01*
X132127590Y-132950500D01*
X132147552Y-132876000D01*
X132171521Y-132845541D01*
X132172951Y-132844424D01*
X132223963Y-132785326D01*
X132302803Y-132693988D01*
X132302804Y-132693986D01*
X132307564Y-132688472D01*
X132325140Y-132657533D01*
X132405724Y-132515680D01*
X132405725Y-132515677D01*
X132409323Y-132509344D01*
X132474351Y-132313863D01*
X132500171Y-132109474D01*
X132500583Y-132080000D01*
X132480480Y-131874970D01*
X132420935Y-131677749D01*
X132417405Y-131671109D01*
X132410316Y-131657778D01*
X132324218Y-131495849D01*
X132314253Y-131483630D01*
X132198612Y-131341841D01*
X132198610Y-131341839D01*
X132194011Y-131336200D01*
X132188401Y-131331559D01*
X132188398Y-131331556D01*
X132040890Y-131209527D01*
X132040889Y-131209526D01*
X132035275Y-131204882D01*
X132028871Y-131201420D01*
X132028869Y-131201418D01*
X131860468Y-131110364D01*
X131860464Y-131110362D01*
X131854055Y-131106897D01*
X131657254Y-131045977D01*
X131650008Y-131045215D01*
X131650006Y-131045215D01*
X131459610Y-131025204D01*
X131459609Y-131025204D01*
X131452369Y-131024443D01*
X131247203Y-131043114D01*
X131240214Y-131045171D01*
X131056560Y-131099223D01*
X131056557Y-131099224D01*
X131049572Y-131101280D01*
X131043117Y-131104655D01*
X131043116Y-131104655D01*
X131032196Y-131110364D01*
X130867002Y-131196726D01*
X130706447Y-131325815D01*
X130701763Y-131331397D01*
X130701760Y-131331400D01*
X130645531Y-131398411D01*
X130574024Y-131483630D01*
X130474776Y-131664162D01*
X130472573Y-131671106D01*
X130472572Y-131671109D01*
X130470466Y-131677749D01*
X130412484Y-131860532D01*
X130411671Y-131867776D01*
X130411671Y-131867778D01*
X130397723Y-131992126D01*
X130389520Y-132065262D01*
X130406759Y-132270553D01*
X130463544Y-132468586D01*
X130466874Y-132475066D01*
X130466875Y-132475068D01*
X130480936Y-132502427D01*
X130557712Y-132651818D01*
X130685677Y-132813270D01*
X130710798Y-132834649D01*
X130713596Y-132837031D01*
X130757393Y-132900518D01*
X130763578Y-132977398D01*
X130730495Y-133047070D01*
X130667008Y-133090867D01*
X130617026Y-133099500D01*
X129736590Y-133099500D01*
X129662090Y-133079538D01*
X129607552Y-133025000D01*
X129587590Y-132950500D01*
X129607552Y-132876000D01*
X129631521Y-132845541D01*
X129632951Y-132844424D01*
X129683963Y-132785326D01*
X129762803Y-132693988D01*
X129762804Y-132693986D01*
X129767564Y-132688472D01*
X129785140Y-132657533D01*
X129865724Y-132515680D01*
X129865725Y-132515677D01*
X129869323Y-132509344D01*
X129934351Y-132313863D01*
X129960171Y-132109474D01*
X129960583Y-132080000D01*
X129940480Y-131874970D01*
X129880935Y-131677749D01*
X129877405Y-131671109D01*
X129870316Y-131657778D01*
X129784218Y-131495849D01*
X129774253Y-131483630D01*
X129658612Y-131341841D01*
X129658610Y-131341839D01*
X129654011Y-131336200D01*
X129648401Y-131331559D01*
X129648398Y-131331556D01*
X129500890Y-131209527D01*
X129500889Y-131209526D01*
X129495275Y-131204882D01*
X129488871Y-131201420D01*
X129488869Y-131201418D01*
X129320468Y-131110364D01*
X129320464Y-131110362D01*
X129314055Y-131106897D01*
X129117254Y-131045977D01*
X129110008Y-131045215D01*
X129110006Y-131045215D01*
X128919610Y-131025204D01*
X128919609Y-131025204D01*
X128912369Y-131024443D01*
X128707203Y-131043114D01*
X128700214Y-131045171D01*
X128516560Y-131099223D01*
X128516557Y-131099224D01*
X128509572Y-131101280D01*
X128503117Y-131104655D01*
X128503116Y-131104655D01*
X128492196Y-131110364D01*
X128327002Y-131196726D01*
X128166447Y-131325815D01*
X128161763Y-131331397D01*
X128161760Y-131331400D01*
X128105531Y-131398411D01*
X128034024Y-131483630D01*
X127934776Y-131664162D01*
X127932573Y-131671106D01*
X127932572Y-131671109D01*
X127930466Y-131677749D01*
X127872484Y-131860532D01*
X127871671Y-131867776D01*
X127871671Y-131867778D01*
X127857723Y-131992126D01*
X127849520Y-132065262D01*
X127866759Y-132270553D01*
X127923544Y-132468586D01*
X127926874Y-132475066D01*
X127926875Y-132475068D01*
X127940936Y-132502427D01*
X128017712Y-132651818D01*
X128145677Y-132813270D01*
X128170798Y-132834649D01*
X128173596Y-132837031D01*
X128217393Y-132900518D01*
X128223578Y-132977398D01*
X128190495Y-133047070D01*
X128127008Y-133090867D01*
X128077026Y-133099500D01*
X127196590Y-133099500D01*
X127122090Y-133079538D01*
X127067552Y-133025000D01*
X127047590Y-132950500D01*
X127067552Y-132876000D01*
X127091521Y-132845541D01*
X127092951Y-132844424D01*
X127143963Y-132785326D01*
X127222803Y-132693988D01*
X127222804Y-132693986D01*
X127227564Y-132688472D01*
X127245140Y-132657533D01*
X127325724Y-132515680D01*
X127325725Y-132515677D01*
X127329323Y-132509344D01*
X127394351Y-132313863D01*
X127420171Y-132109474D01*
X127420583Y-132080000D01*
X127400480Y-131874970D01*
X127340935Y-131677749D01*
X127337405Y-131671109D01*
X127330316Y-131657778D01*
X127244218Y-131495849D01*
X127234253Y-131483630D01*
X127118612Y-131341841D01*
X127118610Y-131341839D01*
X127114011Y-131336200D01*
X127108401Y-131331559D01*
X127108398Y-131331556D01*
X126960890Y-131209527D01*
X126960889Y-131209526D01*
X126955275Y-131204882D01*
X126948871Y-131201420D01*
X126948869Y-131201418D01*
X126780468Y-131110364D01*
X126780464Y-131110362D01*
X126774055Y-131106897D01*
X126577254Y-131045977D01*
X126570008Y-131045215D01*
X126570006Y-131045215D01*
X126379610Y-131025204D01*
X126379609Y-131025204D01*
X126372369Y-131024443D01*
X126167203Y-131043114D01*
X126160214Y-131045171D01*
X125976560Y-131099223D01*
X125976557Y-131099224D01*
X125969572Y-131101280D01*
X125963117Y-131104655D01*
X125963116Y-131104655D01*
X125952196Y-131110364D01*
X125787002Y-131196726D01*
X125626447Y-131325815D01*
X125621763Y-131331397D01*
X125621760Y-131331400D01*
X125565531Y-131398411D01*
X125494024Y-131483630D01*
X125394776Y-131664162D01*
X125392573Y-131671106D01*
X125392572Y-131671109D01*
X125390466Y-131677749D01*
X125332484Y-131860532D01*
X125331671Y-131867776D01*
X125331671Y-131867778D01*
X125317723Y-131992126D01*
X125309520Y-132065262D01*
X125326759Y-132270553D01*
X125383544Y-132468586D01*
X125386874Y-132475066D01*
X125386875Y-132475068D01*
X125400936Y-132502427D01*
X125477712Y-132651818D01*
X125605677Y-132813270D01*
X125630798Y-132834649D01*
X125633596Y-132837031D01*
X125677393Y-132900518D01*
X125683578Y-132977398D01*
X125650495Y-133047070D01*
X125587008Y-133090867D01*
X125537026Y-133099500D01*
X124656590Y-133099500D01*
X124582090Y-133079538D01*
X124527552Y-133025000D01*
X124507590Y-132950500D01*
X124527552Y-132876000D01*
X124551521Y-132845541D01*
X124552951Y-132844424D01*
X124603963Y-132785326D01*
X124682803Y-132693988D01*
X124682804Y-132693986D01*
X124687564Y-132688472D01*
X124705140Y-132657533D01*
X124785724Y-132515680D01*
X124785725Y-132515677D01*
X124789323Y-132509344D01*
X124854351Y-132313863D01*
X124880171Y-132109474D01*
X124880583Y-132080000D01*
X124860480Y-131874970D01*
X124800935Y-131677749D01*
X124797405Y-131671109D01*
X124790316Y-131657778D01*
X124704218Y-131495849D01*
X124694253Y-131483630D01*
X124578612Y-131341841D01*
X124578610Y-131341839D01*
X124574011Y-131336200D01*
X124568401Y-131331559D01*
X124568398Y-131331556D01*
X124420890Y-131209527D01*
X124420889Y-131209526D01*
X124415275Y-131204882D01*
X124408871Y-131201420D01*
X124408869Y-131201418D01*
X124240468Y-131110364D01*
X124240464Y-131110362D01*
X124234055Y-131106897D01*
X124037254Y-131045977D01*
X124030008Y-131045215D01*
X124030006Y-131045215D01*
X123839610Y-131025204D01*
X123839609Y-131025204D01*
X123832369Y-131024443D01*
X123627203Y-131043114D01*
X123620214Y-131045171D01*
X123436560Y-131099223D01*
X123436557Y-131099224D01*
X123429572Y-131101280D01*
X123423117Y-131104655D01*
X123423116Y-131104655D01*
X123412196Y-131110364D01*
X123247002Y-131196726D01*
X123086447Y-131325815D01*
X123081763Y-131331397D01*
X123081760Y-131331400D01*
X123025531Y-131398411D01*
X122954024Y-131483630D01*
X122854776Y-131664162D01*
X122852573Y-131671106D01*
X122852572Y-131671109D01*
X122850466Y-131677749D01*
X122792484Y-131860532D01*
X122791671Y-131867776D01*
X122791671Y-131867778D01*
X122777723Y-131992126D01*
X122769520Y-132065262D01*
X122786759Y-132270553D01*
X122843544Y-132468586D01*
X122846874Y-132475066D01*
X122846875Y-132475068D01*
X122860936Y-132502427D01*
X122937712Y-132651818D01*
X123065677Y-132813270D01*
X123090798Y-132834649D01*
X123093596Y-132837031D01*
X123137393Y-132900518D01*
X123143578Y-132977398D01*
X123110495Y-133047070D01*
X123047008Y-133090867D01*
X122997026Y-133099500D01*
X122116590Y-133099500D01*
X122042090Y-133079538D01*
X121987552Y-133025000D01*
X121967590Y-132950500D01*
X121987552Y-132876000D01*
X122011521Y-132845541D01*
X122012951Y-132844424D01*
X122063963Y-132785326D01*
X122142803Y-132693988D01*
X122142804Y-132693986D01*
X122147564Y-132688472D01*
X122165140Y-132657533D01*
X122245724Y-132515680D01*
X122245725Y-132515677D01*
X122249323Y-132509344D01*
X122314351Y-132313863D01*
X122340171Y-132109474D01*
X122340583Y-132080000D01*
X122320480Y-131874970D01*
X122260935Y-131677749D01*
X122257405Y-131671109D01*
X122250316Y-131657778D01*
X122164218Y-131495849D01*
X122154253Y-131483630D01*
X122038612Y-131341841D01*
X122038610Y-131341839D01*
X122034011Y-131336200D01*
X122028401Y-131331559D01*
X122028398Y-131331556D01*
X121880890Y-131209527D01*
X121880889Y-131209526D01*
X121875275Y-131204882D01*
X121868871Y-131201420D01*
X121868869Y-131201418D01*
X121700468Y-131110364D01*
X121700464Y-131110362D01*
X121694055Y-131106897D01*
X121497254Y-131045977D01*
X121490008Y-131045215D01*
X121490006Y-131045215D01*
X121299610Y-131025204D01*
X121299609Y-131025204D01*
X121292369Y-131024443D01*
X121087203Y-131043114D01*
X121080214Y-131045171D01*
X120896560Y-131099223D01*
X120896557Y-131099224D01*
X120889572Y-131101280D01*
X120883117Y-131104655D01*
X120883116Y-131104655D01*
X120872196Y-131110364D01*
X120707002Y-131196726D01*
X120546447Y-131325815D01*
X120541763Y-131331397D01*
X120541760Y-131331400D01*
X120485531Y-131398411D01*
X120414024Y-131483630D01*
X120314776Y-131664162D01*
X120312573Y-131671106D01*
X120312572Y-131671109D01*
X120310466Y-131677749D01*
X120252484Y-131860532D01*
X120251671Y-131867776D01*
X120251671Y-131867778D01*
X120237723Y-131992126D01*
X120229520Y-132065262D01*
X120246759Y-132270553D01*
X120303544Y-132468586D01*
X120306874Y-132475066D01*
X120306875Y-132475068D01*
X120320936Y-132502427D01*
X120397712Y-132651818D01*
X120525677Y-132813270D01*
X120550798Y-132834649D01*
X120553596Y-132837031D01*
X120597393Y-132900518D01*
X120603578Y-132977398D01*
X120570495Y-133047070D01*
X120507008Y-133090867D01*
X120457026Y-133099500D01*
X119576590Y-133099500D01*
X119502090Y-133079538D01*
X119447552Y-133025000D01*
X119427590Y-132950500D01*
X119447552Y-132876000D01*
X119471521Y-132845541D01*
X119472951Y-132844424D01*
X119523963Y-132785326D01*
X119602803Y-132693988D01*
X119602804Y-132693986D01*
X119607564Y-132688472D01*
X119625140Y-132657533D01*
X119705724Y-132515680D01*
X119705725Y-132515677D01*
X119709323Y-132509344D01*
X119774351Y-132313863D01*
X119800171Y-132109474D01*
X119800583Y-132080000D01*
X119780480Y-131874970D01*
X119720935Y-131677749D01*
X119717405Y-131671109D01*
X119710316Y-131657778D01*
X119624218Y-131495849D01*
X119614253Y-131483630D01*
X119498612Y-131341841D01*
X119498610Y-131341839D01*
X119494011Y-131336200D01*
X119488401Y-131331559D01*
X119488398Y-131331556D01*
X119340890Y-131209527D01*
X119340889Y-131209526D01*
X119335275Y-131204882D01*
X119328871Y-131201420D01*
X119328869Y-131201418D01*
X119160468Y-131110364D01*
X119160464Y-131110362D01*
X119154055Y-131106897D01*
X118957254Y-131045977D01*
X118950008Y-131045215D01*
X118950006Y-131045215D01*
X118759610Y-131025204D01*
X118759609Y-131025204D01*
X118752369Y-131024443D01*
X118547203Y-131043114D01*
X118540214Y-131045171D01*
X118356560Y-131099223D01*
X118356557Y-131099224D01*
X118349572Y-131101280D01*
X118343117Y-131104655D01*
X118343116Y-131104655D01*
X118332196Y-131110364D01*
X118167002Y-131196726D01*
X118006447Y-131325815D01*
X118001763Y-131331397D01*
X118001760Y-131331400D01*
X117945531Y-131398411D01*
X117874024Y-131483630D01*
X117774776Y-131664162D01*
X117772573Y-131671106D01*
X117772572Y-131671109D01*
X117770466Y-131677749D01*
X117712484Y-131860532D01*
X117711671Y-131867776D01*
X117711671Y-131867778D01*
X117697723Y-131992126D01*
X117689520Y-132065262D01*
X117706759Y-132270553D01*
X117763544Y-132468586D01*
X117766874Y-132475066D01*
X117766875Y-132475068D01*
X117780936Y-132502427D01*
X117857712Y-132651818D01*
X117985677Y-132813270D01*
X118010798Y-132834649D01*
X118013596Y-132837031D01*
X118057393Y-132900518D01*
X118063578Y-132977398D01*
X118030495Y-133047070D01*
X117967008Y-133090867D01*
X117917026Y-133099500D01*
X117036590Y-133099500D01*
X116962090Y-133079538D01*
X116907552Y-133025000D01*
X116887590Y-132950500D01*
X116907552Y-132876000D01*
X116931521Y-132845541D01*
X116932951Y-132844424D01*
X116983963Y-132785326D01*
X117062803Y-132693988D01*
X117062804Y-132693986D01*
X117067564Y-132688472D01*
X117085140Y-132657533D01*
X117165724Y-132515680D01*
X117165725Y-132515677D01*
X117169323Y-132509344D01*
X117234351Y-132313863D01*
X117260171Y-132109474D01*
X117260583Y-132080000D01*
X117240480Y-131874970D01*
X117180935Y-131677749D01*
X117177405Y-131671109D01*
X117170316Y-131657778D01*
X117084218Y-131495849D01*
X117074253Y-131483630D01*
X116958612Y-131341841D01*
X116958610Y-131341839D01*
X116954011Y-131336200D01*
X116948401Y-131331559D01*
X116948398Y-131331556D01*
X116800890Y-131209527D01*
X116800889Y-131209526D01*
X116795275Y-131204882D01*
X116788871Y-131201420D01*
X116788869Y-131201418D01*
X116620468Y-131110364D01*
X116620464Y-131110362D01*
X116614055Y-131106897D01*
X116417254Y-131045977D01*
X116410008Y-131045215D01*
X116410006Y-131045215D01*
X116219610Y-131025204D01*
X116219609Y-131025204D01*
X116212369Y-131024443D01*
X116007203Y-131043114D01*
X116000214Y-131045171D01*
X115816560Y-131099223D01*
X115816557Y-131099224D01*
X115809572Y-131101280D01*
X115803117Y-131104655D01*
X115803116Y-131104655D01*
X115792196Y-131110364D01*
X115627002Y-131196726D01*
X115466447Y-131325815D01*
X115461763Y-131331397D01*
X115461760Y-131331400D01*
X115405531Y-131398411D01*
X115334024Y-131483630D01*
X115234776Y-131664162D01*
X115232573Y-131671106D01*
X115232572Y-131671109D01*
X115230466Y-131677749D01*
X115172484Y-131860532D01*
X115171671Y-131867776D01*
X115171671Y-131867778D01*
X115157723Y-131992126D01*
X115149520Y-132065262D01*
X115166759Y-132270553D01*
X115223544Y-132468586D01*
X115226874Y-132475066D01*
X115226875Y-132475068D01*
X115240936Y-132502427D01*
X115317712Y-132651818D01*
X115445677Y-132813270D01*
X115470798Y-132834649D01*
X115473596Y-132837031D01*
X115517393Y-132900518D01*
X115523578Y-132977398D01*
X115490495Y-133047070D01*
X115427008Y-133090867D01*
X115377026Y-133099500D01*
X114496590Y-133099500D01*
X114422090Y-133079538D01*
X114367552Y-133025000D01*
X114347590Y-132950500D01*
X114367552Y-132876000D01*
X114391521Y-132845541D01*
X114392951Y-132844424D01*
X114443963Y-132785326D01*
X114522803Y-132693988D01*
X114522804Y-132693986D01*
X114527564Y-132688472D01*
X114545140Y-132657533D01*
X114625724Y-132515680D01*
X114625725Y-132515677D01*
X114629323Y-132509344D01*
X114694351Y-132313863D01*
X114720171Y-132109474D01*
X114720583Y-132080000D01*
X114700480Y-131874970D01*
X114640935Y-131677749D01*
X114637405Y-131671109D01*
X114630316Y-131657778D01*
X114544218Y-131495849D01*
X114534253Y-131483630D01*
X114418612Y-131341841D01*
X114418610Y-131341839D01*
X114414011Y-131336200D01*
X114408401Y-131331559D01*
X114408398Y-131331556D01*
X114260890Y-131209527D01*
X114260889Y-131209526D01*
X114255275Y-131204882D01*
X114248871Y-131201420D01*
X114248869Y-131201418D01*
X114080468Y-131110364D01*
X114080464Y-131110362D01*
X114074055Y-131106897D01*
X113877254Y-131045977D01*
X113870008Y-131045215D01*
X113870006Y-131045215D01*
X113679610Y-131025204D01*
X113679609Y-131025204D01*
X113672369Y-131024443D01*
X113467203Y-131043114D01*
X113460214Y-131045171D01*
X113276560Y-131099223D01*
X113276557Y-131099224D01*
X113269572Y-131101280D01*
X113263117Y-131104655D01*
X113263116Y-131104655D01*
X113252196Y-131110364D01*
X113087002Y-131196726D01*
X112926447Y-131325815D01*
X112921763Y-131331397D01*
X112921760Y-131331400D01*
X112865531Y-131398411D01*
X112794024Y-131483630D01*
X112694776Y-131664162D01*
X112692573Y-131671106D01*
X112692572Y-131671109D01*
X112690466Y-131677749D01*
X112632484Y-131860532D01*
X112631671Y-131867776D01*
X112631671Y-131867778D01*
X112617723Y-131992126D01*
X112609520Y-132065262D01*
X112626759Y-132270553D01*
X112683544Y-132468586D01*
X112686874Y-132475066D01*
X112686875Y-132475068D01*
X112700936Y-132502427D01*
X112777712Y-132651818D01*
X112905677Y-132813270D01*
X112930798Y-132834649D01*
X112933596Y-132837031D01*
X112977393Y-132900518D01*
X112983578Y-132977398D01*
X112950495Y-133047070D01*
X112887008Y-133090867D01*
X112837026Y-133099500D01*
X111956590Y-133099500D01*
X111882090Y-133079538D01*
X111827552Y-133025000D01*
X111807590Y-132950500D01*
X111827552Y-132876000D01*
X111851521Y-132845541D01*
X111852951Y-132844424D01*
X111903963Y-132785326D01*
X111982803Y-132693988D01*
X111982804Y-132693986D01*
X111987564Y-132688472D01*
X112005140Y-132657533D01*
X112085724Y-132515680D01*
X112085725Y-132515677D01*
X112089323Y-132509344D01*
X112154351Y-132313863D01*
X112180171Y-132109474D01*
X112180583Y-132080000D01*
X112160480Y-131874970D01*
X112100935Y-131677749D01*
X112097405Y-131671109D01*
X112090316Y-131657778D01*
X112004218Y-131495849D01*
X111994253Y-131483630D01*
X111878612Y-131341841D01*
X111878610Y-131341839D01*
X111874011Y-131336200D01*
X111868401Y-131331559D01*
X111868398Y-131331556D01*
X111720890Y-131209527D01*
X111720889Y-131209526D01*
X111715275Y-131204882D01*
X111708871Y-131201420D01*
X111708869Y-131201418D01*
X111540468Y-131110364D01*
X111540464Y-131110362D01*
X111534055Y-131106897D01*
X111337254Y-131045977D01*
X111330008Y-131045215D01*
X111330006Y-131045215D01*
X111139610Y-131025204D01*
X111139609Y-131025204D01*
X111132369Y-131024443D01*
X110927203Y-131043114D01*
X110920214Y-131045171D01*
X110736560Y-131099223D01*
X110736557Y-131099224D01*
X110729572Y-131101280D01*
X110723117Y-131104655D01*
X110723116Y-131104655D01*
X110712196Y-131110364D01*
X110547002Y-131196726D01*
X110386447Y-131325815D01*
X110381763Y-131331397D01*
X110381760Y-131331400D01*
X110325531Y-131398411D01*
X110254024Y-131483630D01*
X110154776Y-131664162D01*
X110152573Y-131671106D01*
X110152572Y-131671109D01*
X110150466Y-131677749D01*
X110092484Y-131860532D01*
X110091671Y-131867776D01*
X110091671Y-131867778D01*
X110077723Y-131992126D01*
X110069520Y-132065262D01*
X110086759Y-132270553D01*
X110143544Y-132468586D01*
X110146874Y-132475066D01*
X110146875Y-132475068D01*
X110160936Y-132502427D01*
X110237712Y-132651818D01*
X110365677Y-132813270D01*
X110390798Y-132834649D01*
X110393596Y-132837031D01*
X110437393Y-132900518D01*
X110443578Y-132977398D01*
X110410495Y-133047070D01*
X110347008Y-133090867D01*
X110297026Y-133099500D01*
X109416590Y-133099500D01*
X109342090Y-133079538D01*
X109287552Y-133025000D01*
X109267590Y-132950500D01*
X109287552Y-132876000D01*
X109311521Y-132845541D01*
X109312951Y-132844424D01*
X109363963Y-132785326D01*
X109442803Y-132693988D01*
X109442804Y-132693986D01*
X109447564Y-132688472D01*
X109465140Y-132657533D01*
X109545724Y-132515680D01*
X109545725Y-132515677D01*
X109549323Y-132509344D01*
X109614351Y-132313863D01*
X109640171Y-132109474D01*
X109640583Y-132080000D01*
X109620480Y-131874970D01*
X109560935Y-131677749D01*
X109557405Y-131671109D01*
X109550316Y-131657778D01*
X109464218Y-131495849D01*
X109454253Y-131483630D01*
X109338612Y-131341841D01*
X109338610Y-131341839D01*
X109334011Y-131336200D01*
X109328401Y-131331559D01*
X109328398Y-131331556D01*
X109180890Y-131209527D01*
X109180889Y-131209526D01*
X109175275Y-131204882D01*
X109168871Y-131201420D01*
X109168869Y-131201418D01*
X109000468Y-131110364D01*
X109000464Y-131110362D01*
X108994055Y-131106897D01*
X108797254Y-131045977D01*
X108790008Y-131045215D01*
X108790006Y-131045215D01*
X108599610Y-131025204D01*
X108599609Y-131025204D01*
X108592369Y-131024443D01*
X108387203Y-131043114D01*
X108380214Y-131045171D01*
X108196560Y-131099223D01*
X108196557Y-131099224D01*
X108189572Y-131101280D01*
X108183117Y-131104655D01*
X108183116Y-131104655D01*
X108172196Y-131110364D01*
X108007002Y-131196726D01*
X107846447Y-131325815D01*
X107841763Y-131331397D01*
X107841760Y-131331400D01*
X107785531Y-131398411D01*
X107714024Y-131483630D01*
X107614776Y-131664162D01*
X107612573Y-131671106D01*
X107612572Y-131671109D01*
X107610466Y-131677749D01*
X107552484Y-131860532D01*
X107551671Y-131867776D01*
X107551671Y-131867778D01*
X107537723Y-131992126D01*
X107529520Y-132065262D01*
X107546759Y-132270553D01*
X107603544Y-132468586D01*
X107606874Y-132475066D01*
X107606875Y-132475068D01*
X107620936Y-132502427D01*
X107697712Y-132651818D01*
X107825677Y-132813270D01*
X107850798Y-132834649D01*
X107853596Y-132837031D01*
X107897393Y-132900518D01*
X107903578Y-132977398D01*
X107870495Y-133047070D01*
X107807008Y-133090867D01*
X107757026Y-133099500D01*
X106876590Y-133099500D01*
X106802090Y-133079538D01*
X106747552Y-133025000D01*
X106727590Y-132950500D01*
X106747552Y-132876000D01*
X106771521Y-132845541D01*
X106772951Y-132844424D01*
X106823963Y-132785326D01*
X106902803Y-132693988D01*
X106902804Y-132693986D01*
X106907564Y-132688472D01*
X106925140Y-132657533D01*
X107005724Y-132515680D01*
X107005725Y-132515677D01*
X107009323Y-132509344D01*
X107074351Y-132313863D01*
X107100171Y-132109474D01*
X107100583Y-132080000D01*
X107080480Y-131874970D01*
X107020935Y-131677749D01*
X107017405Y-131671109D01*
X107010316Y-131657778D01*
X106924218Y-131495849D01*
X106914253Y-131483630D01*
X106798612Y-131341841D01*
X106798610Y-131341839D01*
X106794011Y-131336200D01*
X106788401Y-131331559D01*
X106788398Y-131331556D01*
X106640890Y-131209527D01*
X106640889Y-131209526D01*
X106635275Y-131204882D01*
X106628871Y-131201420D01*
X106628869Y-131201418D01*
X106460468Y-131110364D01*
X106460464Y-131110362D01*
X106454055Y-131106897D01*
X106257254Y-131045977D01*
X106250008Y-131045215D01*
X106250006Y-131045215D01*
X106059610Y-131025204D01*
X106059609Y-131025204D01*
X106052369Y-131024443D01*
X105847203Y-131043114D01*
X105840214Y-131045171D01*
X105656560Y-131099223D01*
X105656557Y-131099224D01*
X105649572Y-131101280D01*
X105643117Y-131104655D01*
X105643116Y-131104655D01*
X105632196Y-131110364D01*
X105467002Y-131196726D01*
X105306447Y-131325815D01*
X105301763Y-131331397D01*
X105301760Y-131331400D01*
X105245531Y-131398411D01*
X105174024Y-131483630D01*
X105074776Y-131664162D01*
X105072573Y-131671106D01*
X105072572Y-131671109D01*
X105070466Y-131677749D01*
X105012484Y-131860532D01*
X105011671Y-131867776D01*
X105011671Y-131867778D01*
X104997723Y-131992126D01*
X104989520Y-132065262D01*
X105006759Y-132270553D01*
X105063544Y-132468586D01*
X105066874Y-132475066D01*
X105066875Y-132475068D01*
X105080936Y-132502427D01*
X105157712Y-132651818D01*
X105285677Y-132813270D01*
X105310798Y-132834649D01*
X105313596Y-132837031D01*
X105357393Y-132900518D01*
X105363578Y-132977398D01*
X105330495Y-133047070D01*
X105267008Y-133090867D01*
X105217026Y-133099500D01*
X104336590Y-133099500D01*
X104262090Y-133079538D01*
X104207552Y-133025000D01*
X104187590Y-132950500D01*
X104207552Y-132876000D01*
X104231521Y-132845541D01*
X104232951Y-132844424D01*
X104283963Y-132785326D01*
X104362803Y-132693988D01*
X104362804Y-132693986D01*
X104367564Y-132688472D01*
X104385140Y-132657533D01*
X104465724Y-132515680D01*
X104465725Y-132515677D01*
X104469323Y-132509344D01*
X104534351Y-132313863D01*
X104560171Y-132109474D01*
X104560583Y-132080000D01*
X104540480Y-131874970D01*
X104480935Y-131677749D01*
X104477405Y-131671109D01*
X104470316Y-131657778D01*
X104384218Y-131495849D01*
X104374253Y-131483630D01*
X104258612Y-131341841D01*
X104258610Y-131341839D01*
X104254011Y-131336200D01*
X104248401Y-131331559D01*
X104248398Y-131331556D01*
X104100890Y-131209527D01*
X104100889Y-131209526D01*
X104095275Y-131204882D01*
X104088871Y-131201420D01*
X104088869Y-131201418D01*
X103920468Y-131110364D01*
X103920464Y-131110362D01*
X103914055Y-131106897D01*
X103717254Y-131045977D01*
X103710008Y-131045215D01*
X103710006Y-131045215D01*
X103519610Y-131025204D01*
X103519609Y-131025204D01*
X103512369Y-131024443D01*
X103307203Y-131043114D01*
X103300214Y-131045171D01*
X103116560Y-131099223D01*
X103116557Y-131099224D01*
X103109572Y-131101280D01*
X103103117Y-131104655D01*
X103103116Y-131104655D01*
X103092196Y-131110364D01*
X102927002Y-131196726D01*
X102766447Y-131325815D01*
X102761763Y-131331397D01*
X102761760Y-131331400D01*
X102705531Y-131398411D01*
X102634024Y-131483630D01*
X102534776Y-131664162D01*
X102532573Y-131671106D01*
X102532572Y-131671109D01*
X102530466Y-131677749D01*
X102472484Y-131860532D01*
X102471671Y-131867776D01*
X102471671Y-131867778D01*
X102457723Y-131992126D01*
X102449520Y-132065262D01*
X102466759Y-132270553D01*
X102523544Y-132468586D01*
X102526874Y-132475066D01*
X102526875Y-132475068D01*
X102540936Y-132502427D01*
X102617712Y-132651818D01*
X102745677Y-132813270D01*
X102770798Y-132834649D01*
X102773596Y-132837031D01*
X102817393Y-132900518D01*
X102823578Y-132977398D01*
X102790495Y-133047070D01*
X102727008Y-133090867D01*
X102677026Y-133099500D01*
X101796590Y-133099500D01*
X101722090Y-133079538D01*
X101667552Y-133025000D01*
X101647590Y-132950500D01*
X101667552Y-132876000D01*
X101691521Y-132845541D01*
X101692951Y-132844424D01*
X101743963Y-132785326D01*
X101822803Y-132693988D01*
X101822804Y-132693986D01*
X101827564Y-132688472D01*
X101845140Y-132657533D01*
X101925724Y-132515680D01*
X101925725Y-132515677D01*
X101929323Y-132509344D01*
X101994351Y-132313863D01*
X102020171Y-132109474D01*
X102020583Y-132080000D01*
X102000480Y-131874970D01*
X101940935Y-131677749D01*
X101937405Y-131671109D01*
X101930316Y-131657778D01*
X101844218Y-131495849D01*
X101834253Y-131483630D01*
X101718612Y-131341841D01*
X101718610Y-131341839D01*
X101714011Y-131336200D01*
X101708401Y-131331559D01*
X101708398Y-131331556D01*
X101560890Y-131209527D01*
X101560889Y-131209526D01*
X101555275Y-131204882D01*
X101548871Y-131201420D01*
X101548869Y-131201418D01*
X101380468Y-131110364D01*
X101380464Y-131110362D01*
X101374055Y-131106897D01*
X101177254Y-131045977D01*
X101170008Y-131045215D01*
X101170006Y-131045215D01*
X100979610Y-131025204D01*
X100979609Y-131025204D01*
X100972369Y-131024443D01*
X100767203Y-131043114D01*
X100760214Y-131045171D01*
X100576560Y-131099223D01*
X100576557Y-131099224D01*
X100569572Y-131101280D01*
X100563117Y-131104655D01*
X100563116Y-131104655D01*
X100552196Y-131110364D01*
X100387002Y-131196726D01*
X100226447Y-131325815D01*
X100221763Y-131331397D01*
X100221760Y-131331400D01*
X100165531Y-131398411D01*
X100094024Y-131483630D01*
X99994776Y-131664162D01*
X99992573Y-131671106D01*
X99992572Y-131671109D01*
X99990466Y-131677749D01*
X99932484Y-131860532D01*
X99931671Y-131867776D01*
X99931671Y-131867778D01*
X99917723Y-131992126D01*
X99909520Y-132065262D01*
X99926759Y-132270553D01*
X99983544Y-132468586D01*
X99986874Y-132475066D01*
X99986875Y-132475068D01*
X100000936Y-132502427D01*
X100077712Y-132651818D01*
X100205677Y-132813270D01*
X100230798Y-132834649D01*
X100233596Y-132837031D01*
X100277393Y-132900518D01*
X100283578Y-132977398D01*
X100250495Y-133047070D01*
X100187008Y-133090867D01*
X100137026Y-133099500D01*
X97194350Y-133099500D01*
X97173584Y-133097455D01*
X97169392Y-133097455D01*
X97155000Y-133094592D01*
X97152772Y-133095035D01*
X97115708Y-133096568D01*
X97090657Y-133097604D01*
X97015396Y-133080737D01*
X96958651Y-133028500D01*
X96935500Y-132948731D01*
X96935500Y-131210252D01*
X96932810Y-131196726D01*
X96926731Y-131166166D01*
X96926731Y-131166165D01*
X96923867Y-131151769D01*
X96879552Y-131085448D01*
X96813231Y-131041133D01*
X96798835Y-131038269D01*
X96798834Y-131038269D01*
X96761923Y-131030927D01*
X96761921Y-131030927D01*
X96754748Y-131029500D01*
X95015252Y-131029500D01*
X95008079Y-131030927D01*
X95008077Y-131030927D01*
X94971166Y-131038269D01*
X94971165Y-131038269D01*
X94956769Y-131041133D01*
X94890448Y-131085448D01*
X94846133Y-131151769D01*
X94843269Y-131166165D01*
X94843269Y-131166166D01*
X94837190Y-131196726D01*
X94834500Y-131210252D01*
X94834500Y-132949748D01*
X94835927Y-132956921D01*
X94835927Y-132956923D01*
X94838779Y-132971258D01*
X94846133Y-133008231D01*
X94854288Y-133020435D01*
X94854288Y-133020436D01*
X94872085Y-133047070D01*
X94890448Y-133074552D01*
X94902651Y-133082706D01*
X94941154Y-133108433D01*
X94956769Y-133118867D01*
X94971165Y-133121731D01*
X94971166Y-133121731D01*
X95008077Y-133129073D01*
X95008079Y-133129073D01*
X95015252Y-133130500D01*
X95280654Y-133130500D01*
X95355154Y-133150462D01*
X95409692Y-133205000D01*
X95429654Y-133279500D01*
X95409692Y-133354000D01*
X95355154Y-133408538D01*
X95334817Y-133418307D01*
X95014796Y-133543179D01*
X95014786Y-133543183D01*
X95011932Y-133544297D01*
X95009170Y-133545647D01*
X95009166Y-133545649D01*
X94890198Y-133603809D01*
X94615794Y-133737957D01*
X94613145Y-133739535D01*
X94613144Y-133739536D01*
X94239641Y-133962095D01*
X94239636Y-133962098D01*
X94237000Y-133963669D01*
X94234497Y-133965456D01*
X94234491Y-133965460D01*
X94111902Y-134052987D01*
X93878140Y-134219890D01*
X93541664Y-134504871D01*
X93229871Y-134816664D01*
X92944890Y-135153140D01*
X92688669Y-135512000D01*
X92462957Y-135890794D01*
X92269297Y-136286932D01*
X92268183Y-136289786D01*
X92268179Y-136289796D01*
X92110131Y-136694839D01*
X92109011Y-136697710D01*
X92108135Y-136700651D01*
X92108132Y-136700661D01*
X91984071Y-137117374D01*
X91983194Y-137120321D01*
X91892706Y-137551878D01*
X91838165Y-137989434D01*
X91820035Y-138427772D01*
X91819592Y-138430000D01*
X91822455Y-138444392D01*
X91822455Y-138448584D01*
X91824500Y-138469350D01*
X91824500Y-156170650D01*
X91822455Y-156191413D01*
X91822455Y-156195607D01*
X91819592Y-156210000D01*
X91822455Y-156224392D01*
X91822455Y-156226873D01*
X91821888Y-156239859D01*
X91810148Y-156374047D01*
X91805638Y-156399625D01*
X91766391Y-156546098D01*
X91757508Y-156570504D01*
X91693423Y-156707934D01*
X91680436Y-156730427D01*
X91593457Y-156854645D01*
X91576763Y-156874541D01*
X91469541Y-156981763D01*
X91449645Y-156998457D01*
X91325427Y-157085436D01*
X91302934Y-157098423D01*
X91165504Y-157162508D01*
X91141098Y-157171391D01*
X90994625Y-157210638D01*
X90969047Y-157215148D01*
X90834859Y-157226888D01*
X90821873Y-157227455D01*
X90819392Y-157227455D01*
X90805000Y-157224592D01*
X90790607Y-157227455D01*
X90786413Y-157227455D01*
X90765650Y-157229500D01*
X80684350Y-157229500D01*
X80663587Y-157227455D01*
X80659393Y-157227455D01*
X80645000Y-157224592D01*
X80630608Y-157227455D01*
X80628127Y-157227455D01*
X80615141Y-157226888D01*
X80480953Y-157215148D01*
X80455375Y-157210638D01*
X80308902Y-157171391D01*
X80284496Y-157162508D01*
X80147066Y-157098423D01*
X80124573Y-157085436D01*
X80000355Y-156998457D01*
X79980459Y-156981763D01*
X79873237Y-156874541D01*
X79856543Y-156854645D01*
X79769564Y-156730427D01*
X79756577Y-156707934D01*
X79692492Y-156570504D01*
X79683609Y-156546098D01*
X79644362Y-156399625D01*
X79639852Y-156374047D01*
X79628112Y-156239859D01*
X79627545Y-156226873D01*
X79627545Y-156224392D01*
X79630408Y-156210000D01*
X79627545Y-156195607D01*
X79627545Y-156191413D01*
X79625500Y-156170650D01*
X79625500Y-153594131D01*
X83444646Y-153594131D01*
X83462306Y-153729186D01*
X83517162Y-153853856D01*
X83523993Y-153861983D01*
X83523994Y-153861984D01*
X83547613Y-153890082D01*
X83604804Y-153958119D01*
X83718187Y-154033593D01*
X83848195Y-154074210D01*
X83858808Y-154074405D01*
X83858811Y-154074405D01*
X83973765Y-154076512D01*
X83973769Y-154076512D01*
X83984377Y-154076706D01*
X84115786Y-154040880D01*
X84124832Y-154035326D01*
X84222815Y-153975165D01*
X84222818Y-153975163D01*
X84231858Y-153969612D01*
X84323261Y-153868631D01*
X84382649Y-153746054D01*
X84405247Y-153611737D01*
X84405390Y-153600000D01*
X84404550Y-153594131D01*
X84387586Y-153475679D01*
X84387586Y-153475678D01*
X84386081Y-153465171D01*
X84357894Y-153403176D01*
X84334100Y-153350843D01*
X84334098Y-153350840D01*
X84329706Y-153341180D01*
X84240796Y-153237996D01*
X84126501Y-153163913D01*
X84048758Y-153140663D01*
X84006179Y-153127929D01*
X84006177Y-153127929D01*
X83996006Y-153124887D01*
X83985388Y-153124822D01*
X83985387Y-153124822D01*
X83929194Y-153124479D01*
X83859804Y-153124055D01*
X83849599Y-153126972D01*
X83849596Y-153126972D01*
X83739051Y-153158566D01*
X83739049Y-153158567D01*
X83728842Y-153161484D01*
X83719864Y-153167149D01*
X83719861Y-153167150D01*
X83650130Y-153211148D01*
X83613650Y-153234165D01*
X83523487Y-153336255D01*
X83465601Y-153459548D01*
X83444646Y-153594131D01*
X79625500Y-153594131D01*
X79625500Y-147494131D01*
X81344646Y-147494131D01*
X81362306Y-147629186D01*
X81417162Y-147753856D01*
X81423993Y-147761983D01*
X81423994Y-147761984D01*
X81447613Y-147790082D01*
X81504804Y-147858119D01*
X81618187Y-147933593D01*
X81748195Y-147974210D01*
X81758808Y-147974405D01*
X81758811Y-147974405D01*
X81873765Y-147976512D01*
X81873769Y-147976512D01*
X81884377Y-147976706D01*
X82015786Y-147940880D01*
X82024832Y-147935326D01*
X82122815Y-147875165D01*
X82122818Y-147875163D01*
X82131858Y-147869612D01*
X82223261Y-147768631D01*
X82282649Y-147646054D01*
X82305247Y-147511737D01*
X82305390Y-147500000D01*
X82304550Y-147494131D01*
X82287586Y-147375679D01*
X82287586Y-147375678D01*
X82286081Y-147365171D01*
X82257893Y-147303175D01*
X82234100Y-147250843D01*
X82234098Y-147250840D01*
X82229706Y-147241180D01*
X82140796Y-147137996D01*
X82026501Y-147063913D01*
X81948758Y-147040663D01*
X81906179Y-147027929D01*
X81906177Y-147027929D01*
X81896006Y-147024887D01*
X81885388Y-147024822D01*
X81885387Y-147024822D01*
X81829194Y-147024479D01*
X81759804Y-147024055D01*
X81749599Y-147026972D01*
X81749596Y-147026972D01*
X81639051Y-147058566D01*
X81639049Y-147058567D01*
X81628842Y-147061484D01*
X81619864Y-147067149D01*
X81619861Y-147067150D01*
X81550130Y-147111148D01*
X81513650Y-147134165D01*
X81423487Y-147236255D01*
X81365601Y-147359548D01*
X81344646Y-147494131D01*
X79625500Y-147494131D01*
X79625500Y-143490262D01*
X82114520Y-143490262D01*
X82131759Y-143695553D01*
X82188544Y-143893586D01*
X82282712Y-144076818D01*
X82410677Y-144238270D01*
X82567564Y-144371791D01*
X82747398Y-144472297D01*
X82943329Y-144535959D01*
X82998907Y-144542586D01*
X83140662Y-144559489D01*
X83140665Y-144559489D01*
X83147894Y-144560351D01*
X83309918Y-144547884D01*
X83346036Y-144545105D01*
X83346037Y-144545105D01*
X83353300Y-144544546D01*
X83421016Y-144525639D01*
X83544707Y-144491105D01*
X83544712Y-144491103D01*
X83551725Y-144489145D01*
X83558226Y-144485861D01*
X83558229Y-144485860D01*
X83729105Y-144399544D01*
X83729106Y-144399544D01*
X83735610Y-144396258D01*
X83897951Y-144269424D01*
X84032564Y-144113472D01*
X84050140Y-144082533D01*
X84130724Y-143940680D01*
X84130725Y-143940677D01*
X84134323Y-143934344D01*
X84199351Y-143738863D01*
X84225171Y-143534474D01*
X84225583Y-143505000D01*
X84224138Y-143490262D01*
X84654520Y-143490262D01*
X84671759Y-143695553D01*
X84728544Y-143893586D01*
X84822712Y-144076818D01*
X84950677Y-144238270D01*
X85107564Y-144371791D01*
X85287398Y-144472297D01*
X85483329Y-144535959D01*
X85538907Y-144542586D01*
X85680662Y-144559489D01*
X85680665Y-144559489D01*
X85687894Y-144560351D01*
X85849918Y-144547884D01*
X85886036Y-144545105D01*
X85886037Y-144545105D01*
X85893300Y-144544546D01*
X85961016Y-144525639D01*
X86084707Y-144491105D01*
X86084712Y-144491103D01*
X86091725Y-144489145D01*
X86098226Y-144485861D01*
X86098229Y-144485860D01*
X86269105Y-144399544D01*
X86269106Y-144399544D01*
X86275610Y-144396258D01*
X86437951Y-144269424D01*
X86572564Y-144113472D01*
X86590140Y-144082533D01*
X86670724Y-143940680D01*
X86670725Y-143940677D01*
X86674323Y-143934344D01*
X86739351Y-143738863D01*
X86765171Y-143534474D01*
X86765583Y-143505000D01*
X86764138Y-143490262D01*
X87194520Y-143490262D01*
X87211759Y-143695553D01*
X87268544Y-143893586D01*
X87362712Y-144076818D01*
X87490677Y-144238270D01*
X87647564Y-144371791D01*
X87827398Y-144472297D01*
X88023329Y-144535959D01*
X88078907Y-144542586D01*
X88220662Y-144559489D01*
X88220665Y-144559489D01*
X88227894Y-144560351D01*
X88389918Y-144547884D01*
X88426036Y-144545105D01*
X88426037Y-144545105D01*
X88433300Y-144544546D01*
X88501016Y-144525639D01*
X88624707Y-144491105D01*
X88624712Y-144491103D01*
X88631725Y-144489145D01*
X88638226Y-144485861D01*
X88638229Y-144485860D01*
X88809105Y-144399544D01*
X88809106Y-144399544D01*
X88815610Y-144396258D01*
X88977951Y-144269424D01*
X89112564Y-144113472D01*
X89130140Y-144082533D01*
X89210724Y-143940680D01*
X89210725Y-143940677D01*
X89214323Y-143934344D01*
X89279351Y-143738863D01*
X89305171Y-143534474D01*
X89305583Y-143505000D01*
X89285480Y-143299970D01*
X89225935Y-143102749D01*
X89222405Y-143096109D01*
X89215316Y-143082778D01*
X89129218Y-142920849D01*
X89119253Y-142908630D01*
X89003612Y-142766841D01*
X89003610Y-142766839D01*
X88999011Y-142761200D01*
X88993401Y-142756559D01*
X88993398Y-142756556D01*
X88845890Y-142634527D01*
X88845889Y-142634526D01*
X88840275Y-142629882D01*
X88833871Y-142626420D01*
X88833869Y-142626418D01*
X88665468Y-142535364D01*
X88665464Y-142535362D01*
X88659055Y-142531897D01*
X88462254Y-142470977D01*
X88455008Y-142470215D01*
X88455006Y-142470215D01*
X88264610Y-142450204D01*
X88264609Y-142450204D01*
X88257369Y-142449443D01*
X88052203Y-142468114D01*
X88045214Y-142470171D01*
X87861560Y-142524223D01*
X87861557Y-142524224D01*
X87854572Y-142526280D01*
X87848117Y-142529655D01*
X87848116Y-142529655D01*
X87837196Y-142535364D01*
X87672002Y-142621726D01*
X87511447Y-142750815D01*
X87506763Y-142756397D01*
X87506760Y-142756400D01*
X87383707Y-142903049D01*
X87379024Y-142908630D01*
X87279776Y-143089162D01*
X87277573Y-143096106D01*
X87277572Y-143096109D01*
X87275466Y-143102749D01*
X87217484Y-143285532D01*
X87216671Y-143292776D01*
X87216671Y-143292778D01*
X87215051Y-143307223D01*
X87194520Y-143490262D01*
X86764138Y-143490262D01*
X86745480Y-143299970D01*
X86685935Y-143102749D01*
X86682405Y-143096109D01*
X86675316Y-143082778D01*
X86589218Y-142920849D01*
X86579253Y-142908630D01*
X86463612Y-142766841D01*
X86463610Y-142766839D01*
X86459011Y-142761200D01*
X86453401Y-142756559D01*
X86453398Y-142756556D01*
X86305890Y-142634527D01*
X86305889Y-142634526D01*
X86300275Y-142629882D01*
X86293871Y-142626420D01*
X86293869Y-142626418D01*
X86125468Y-142535364D01*
X86125464Y-142535362D01*
X86119055Y-142531897D01*
X85922254Y-142470977D01*
X85915008Y-142470215D01*
X85915006Y-142470215D01*
X85724610Y-142450204D01*
X85724609Y-142450204D01*
X85717369Y-142449443D01*
X85512203Y-142468114D01*
X85505214Y-142470171D01*
X85321560Y-142524223D01*
X85321557Y-142524224D01*
X85314572Y-142526280D01*
X85308117Y-142529655D01*
X85308116Y-142529655D01*
X85297196Y-142535364D01*
X85132002Y-142621726D01*
X84971447Y-142750815D01*
X84966763Y-142756397D01*
X84966760Y-142756400D01*
X84843707Y-142903049D01*
X84839024Y-142908630D01*
X84739776Y-143089162D01*
X84737573Y-143096106D01*
X84737572Y-143096109D01*
X84735466Y-143102749D01*
X84677484Y-143285532D01*
X84676671Y-143292776D01*
X84676671Y-143292778D01*
X84675051Y-143307223D01*
X84654520Y-143490262D01*
X84224138Y-143490262D01*
X84205480Y-143299970D01*
X84145935Y-143102749D01*
X84142405Y-143096109D01*
X84135316Y-143082778D01*
X84049218Y-142920849D01*
X84039253Y-142908630D01*
X83923612Y-142766841D01*
X83923610Y-142766839D01*
X83919011Y-142761200D01*
X83913401Y-142756559D01*
X83913398Y-142756556D01*
X83765890Y-142634527D01*
X83765889Y-142634526D01*
X83760275Y-142629882D01*
X83753871Y-142626420D01*
X83753869Y-142626418D01*
X83585468Y-142535364D01*
X83585464Y-142535362D01*
X83579055Y-142531897D01*
X83382254Y-142470977D01*
X83375008Y-142470215D01*
X83375006Y-142470215D01*
X83184610Y-142450204D01*
X83184609Y-142450204D01*
X83177369Y-142449443D01*
X82972203Y-142468114D01*
X82965214Y-142470171D01*
X82781560Y-142524223D01*
X82781557Y-142524224D01*
X82774572Y-142526280D01*
X82768117Y-142529655D01*
X82768116Y-142529655D01*
X82757196Y-142535364D01*
X82592002Y-142621726D01*
X82431447Y-142750815D01*
X82426763Y-142756397D01*
X82426760Y-142756400D01*
X82303707Y-142903049D01*
X82299024Y-142908630D01*
X82199776Y-143089162D01*
X82197573Y-143096106D01*
X82197572Y-143096109D01*
X82195466Y-143102749D01*
X82137484Y-143285532D01*
X82136671Y-143292776D01*
X82136671Y-143292778D01*
X82135051Y-143307223D01*
X82114520Y-143490262D01*
X79625500Y-143490262D01*
X79625500Y-140950262D01*
X84654520Y-140950262D01*
X84671759Y-141155553D01*
X84728544Y-141353586D01*
X84822712Y-141536818D01*
X84950677Y-141698270D01*
X85107564Y-141831791D01*
X85287398Y-141932297D01*
X85483329Y-141995959D01*
X85538907Y-142002586D01*
X85680662Y-142019489D01*
X85680665Y-142019489D01*
X85687894Y-142020351D01*
X85849918Y-142007884D01*
X85886036Y-142005105D01*
X85886037Y-142005105D01*
X85893300Y-142004546D01*
X85961016Y-141985639D01*
X86084707Y-141951105D01*
X86084712Y-141951103D01*
X86091725Y-141949145D01*
X86098226Y-141945861D01*
X86098229Y-141945860D01*
X86269105Y-141859544D01*
X86269106Y-141859544D01*
X86275610Y-141856258D01*
X86303142Y-141834748D01*
X87199500Y-141834748D01*
X87200927Y-141841921D01*
X87200927Y-141841923D01*
X87203779Y-141856258D01*
X87211133Y-141893231D01*
X87219288Y-141905435D01*
X87219288Y-141905436D01*
X87246299Y-141945860D01*
X87255448Y-141959552D01*
X87267651Y-141967706D01*
X87306561Y-141993705D01*
X87321769Y-142003867D01*
X87336165Y-142006731D01*
X87336166Y-142006731D01*
X87373077Y-142014073D01*
X87373079Y-142014073D01*
X87380252Y-142015500D01*
X89119748Y-142015500D01*
X89126921Y-142014073D01*
X89126923Y-142014073D01*
X89163834Y-142006731D01*
X89163835Y-142006731D01*
X89178231Y-142003867D01*
X89193440Y-141993705D01*
X89232349Y-141967706D01*
X89244552Y-141959552D01*
X89253701Y-141945860D01*
X89280712Y-141905436D01*
X89280712Y-141905435D01*
X89288867Y-141893231D01*
X89296222Y-141856258D01*
X89299073Y-141841923D01*
X89299073Y-141841921D01*
X89300500Y-141834748D01*
X89300500Y-140095252D01*
X89297810Y-140081726D01*
X89291731Y-140051166D01*
X89291731Y-140051165D01*
X89288867Y-140036769D01*
X89244552Y-139970448D01*
X89178231Y-139926133D01*
X89163835Y-139923269D01*
X89163834Y-139923269D01*
X89126923Y-139915927D01*
X89126921Y-139915927D01*
X89119748Y-139914500D01*
X87380252Y-139914500D01*
X87373079Y-139915927D01*
X87373077Y-139915927D01*
X87336166Y-139923269D01*
X87336165Y-139923269D01*
X87321769Y-139926133D01*
X87255448Y-139970448D01*
X87211133Y-140036769D01*
X87208269Y-140051165D01*
X87208269Y-140051166D01*
X87202190Y-140081726D01*
X87199500Y-140095252D01*
X87199500Y-141834748D01*
X86303142Y-141834748D01*
X86437951Y-141729424D01*
X86572564Y-141573472D01*
X86590140Y-141542533D01*
X86670724Y-141400680D01*
X86670725Y-141400677D01*
X86674323Y-141394344D01*
X86739351Y-141198863D01*
X86765171Y-140994474D01*
X86765583Y-140965000D01*
X86745480Y-140759970D01*
X86685935Y-140562749D01*
X86682405Y-140556109D01*
X86675316Y-140542778D01*
X86589218Y-140380849D01*
X86579253Y-140368630D01*
X86463612Y-140226841D01*
X86463610Y-140226839D01*
X86459011Y-140221200D01*
X86453401Y-140216559D01*
X86453398Y-140216556D01*
X86305890Y-140094527D01*
X86305889Y-140094526D01*
X86300275Y-140089882D01*
X86293871Y-140086420D01*
X86293869Y-140086418D01*
X86125468Y-139995364D01*
X86125464Y-139995362D01*
X86119055Y-139991897D01*
X85922254Y-139930977D01*
X85915008Y-139930215D01*
X85915006Y-139930215D01*
X85724610Y-139910204D01*
X85724609Y-139910204D01*
X85717369Y-139909443D01*
X85512203Y-139928114D01*
X85505214Y-139930171D01*
X85321560Y-139984223D01*
X85321557Y-139984224D01*
X85314572Y-139986280D01*
X85308117Y-139989655D01*
X85308116Y-139989655D01*
X85297196Y-139995364D01*
X85132002Y-140081726D01*
X84971447Y-140210815D01*
X84966763Y-140216397D01*
X84966760Y-140216400D01*
X84843707Y-140363049D01*
X84839024Y-140368630D01*
X84739776Y-140549162D01*
X84737573Y-140556106D01*
X84737572Y-140556109D01*
X84735466Y-140562749D01*
X84677484Y-140745532D01*
X84676671Y-140752776D01*
X84676671Y-140752778D01*
X84675051Y-140767223D01*
X84654520Y-140950262D01*
X79625500Y-140950262D01*
X79625500Y-138494131D01*
X87144646Y-138494131D01*
X87162306Y-138629186D01*
X87217162Y-138753856D01*
X87223993Y-138761983D01*
X87223994Y-138761984D01*
X87247613Y-138790082D01*
X87304804Y-138858119D01*
X87418187Y-138933593D01*
X87548195Y-138974210D01*
X87558808Y-138974405D01*
X87558811Y-138974405D01*
X87673765Y-138976512D01*
X87673769Y-138976512D01*
X87684377Y-138976706D01*
X87815786Y-138940880D01*
X87824832Y-138935326D01*
X87922815Y-138875165D01*
X87922818Y-138875163D01*
X87931858Y-138869612D01*
X88023261Y-138768631D01*
X88082649Y-138646054D01*
X88105247Y-138511737D01*
X88105390Y-138500000D01*
X88104550Y-138494131D01*
X88087586Y-138375679D01*
X88087586Y-138375678D01*
X88086081Y-138365171D01*
X88057893Y-138303175D01*
X88034100Y-138250843D01*
X88034098Y-138250840D01*
X88029706Y-138241180D01*
X87940796Y-138137996D01*
X87826501Y-138063913D01*
X87748758Y-138040663D01*
X87706179Y-138027929D01*
X87706177Y-138027929D01*
X87696006Y-138024887D01*
X87685388Y-138024822D01*
X87685387Y-138024822D01*
X87629194Y-138024479D01*
X87559804Y-138024055D01*
X87549599Y-138026972D01*
X87549596Y-138026972D01*
X87439051Y-138058566D01*
X87439049Y-138058567D01*
X87428842Y-138061484D01*
X87419864Y-138067149D01*
X87419861Y-138067150D01*
X87350130Y-138111148D01*
X87313650Y-138134165D01*
X87223487Y-138236255D01*
X87165601Y-138359548D01*
X87163968Y-138370036D01*
X87150790Y-138454674D01*
X87144646Y-138494131D01*
X79625500Y-138494131D01*
X79625500Y-132344131D01*
X82794646Y-132344131D01*
X82812306Y-132479186D01*
X82867162Y-132603856D01*
X82873993Y-132611983D01*
X82873994Y-132611984D01*
X82897613Y-132640082D01*
X82954804Y-132708119D01*
X83068187Y-132783593D01*
X83198195Y-132824210D01*
X83208808Y-132824405D01*
X83208811Y-132824405D01*
X83323765Y-132826512D01*
X83323769Y-132826512D01*
X83334377Y-132826706D01*
X83465786Y-132790880D01*
X83474832Y-132785326D01*
X83572815Y-132725165D01*
X83572818Y-132725163D01*
X83581858Y-132719612D01*
X83673261Y-132618631D01*
X83732649Y-132496054D01*
X83737258Y-132468658D01*
X83754291Y-132367421D01*
X83754291Y-132367417D01*
X83755247Y-132361737D01*
X83755390Y-132350000D01*
X83754550Y-132344131D01*
X83737586Y-132225679D01*
X83737586Y-132225678D01*
X83736081Y-132215171D01*
X83688024Y-132109474D01*
X83684100Y-132100843D01*
X83684098Y-132100840D01*
X83679706Y-132091180D01*
X83590796Y-131987996D01*
X83476501Y-131913913D01*
X83398758Y-131890663D01*
X83356179Y-131877929D01*
X83356177Y-131877929D01*
X83346006Y-131874887D01*
X83335388Y-131874822D01*
X83335387Y-131874822D01*
X83279194Y-131874479D01*
X83209804Y-131874055D01*
X83199599Y-131876972D01*
X83199596Y-131876972D01*
X83089051Y-131908566D01*
X83089049Y-131908567D01*
X83078842Y-131911484D01*
X83069864Y-131917149D01*
X83069861Y-131917150D01*
X83000130Y-131961148D01*
X82963650Y-131984165D01*
X82873487Y-132086255D01*
X82815601Y-132209548D01*
X82813968Y-132220036D01*
X82798282Y-132320782D01*
X82794646Y-132344131D01*
X79625500Y-132344131D01*
X79625500Y-130194131D01*
X80419146Y-130194131D01*
X80436806Y-130329186D01*
X80491662Y-130453856D01*
X80498493Y-130461983D01*
X80498494Y-130461984D01*
X80522113Y-130490082D01*
X80579304Y-130558119D01*
X80692687Y-130633593D01*
X80822695Y-130674210D01*
X80833308Y-130674405D01*
X80833311Y-130674405D01*
X80948265Y-130676512D01*
X80948269Y-130676512D01*
X80958877Y-130676706D01*
X81090286Y-130640880D01*
X81099332Y-130635326D01*
X81197315Y-130575165D01*
X81197318Y-130575163D01*
X81206358Y-130569612D01*
X81297761Y-130468631D01*
X81357149Y-130346054D01*
X81379747Y-130211737D01*
X81379890Y-130200000D01*
X81379050Y-130194131D01*
X81362086Y-130075679D01*
X81362086Y-130075678D01*
X81360581Y-130065171D01*
X81332393Y-130003175D01*
X81308600Y-129950843D01*
X81308598Y-129950840D01*
X81304206Y-129941180D01*
X81215296Y-129837996D01*
X81101001Y-129763913D01*
X81023258Y-129740663D01*
X80980679Y-129727929D01*
X80980677Y-129727929D01*
X80970506Y-129724887D01*
X80959888Y-129724822D01*
X80959887Y-129724822D01*
X80903694Y-129724479D01*
X80834304Y-129724055D01*
X80824099Y-129726972D01*
X80824096Y-129726972D01*
X80713551Y-129758566D01*
X80713549Y-129758567D01*
X80703342Y-129761484D01*
X80694364Y-129767149D01*
X80694361Y-129767150D01*
X80624630Y-129811148D01*
X80588150Y-129834165D01*
X80497987Y-129936255D01*
X80440101Y-130059548D01*
X80419146Y-130194131D01*
X79625500Y-130194131D01*
X79625500Y-128894131D01*
X83344646Y-128894131D01*
X83362306Y-129029186D01*
X83417162Y-129153856D01*
X83423993Y-129161983D01*
X83423994Y-129161984D01*
X83447613Y-129190082D01*
X83504804Y-129258119D01*
X83618187Y-129333593D01*
X83715521Y-129364002D01*
X83733478Y-129369612D01*
X83748195Y-129374210D01*
X83758808Y-129374405D01*
X83758811Y-129374405D01*
X83873765Y-129376512D01*
X83873769Y-129376512D01*
X83884377Y-129376706D01*
X84015786Y-129340880D01*
X84131858Y-129269612D01*
X84136055Y-129264975D01*
X84203954Y-129233743D01*
X84280752Y-129240865D01*
X84343120Y-129284737D01*
X84404804Y-129358119D01*
X84518187Y-129433593D01*
X84615521Y-129464002D01*
X84633478Y-129469612D01*
X84648195Y-129474210D01*
X84658808Y-129474405D01*
X84658811Y-129474405D01*
X84773765Y-129476512D01*
X84773769Y-129476512D01*
X84784377Y-129476706D01*
X84915786Y-129440880D01*
X84926164Y-129434508D01*
X84976820Y-129403406D01*
X85050753Y-129381436D01*
X85125765Y-129399375D01*
X85168839Y-129434505D01*
X85188688Y-129458119D01*
X85302071Y-129533593D01*
X85432079Y-129574210D01*
X85442692Y-129574405D01*
X85442695Y-129574405D01*
X85557649Y-129576512D01*
X85557653Y-129576512D01*
X85568261Y-129576706D01*
X85699670Y-129540880D01*
X85708716Y-129535326D01*
X85806699Y-129475165D01*
X85806702Y-129475163D01*
X85815742Y-129469612D01*
X85833499Y-129449995D01*
X85848388Y-129433545D01*
X85907145Y-129368631D01*
X85966533Y-129246054D01*
X85979559Y-129168631D01*
X85988175Y-129117421D01*
X85988175Y-129117417D01*
X85989131Y-129111737D01*
X85989274Y-129100000D01*
X85969965Y-128965171D01*
X85932896Y-128883641D01*
X85917984Y-128850843D01*
X85917982Y-128850840D01*
X85913590Y-128841180D01*
X85906664Y-128833142D01*
X85906662Y-128833139D01*
X85833083Y-128747748D01*
X85799575Y-128678279D01*
X85805290Y-128601363D01*
X85819760Y-128572499D01*
X85823261Y-128568631D01*
X85828138Y-128558566D01*
X85844455Y-128524887D01*
X85882649Y-128446054D01*
X85885487Y-128429186D01*
X85904291Y-128317421D01*
X85904291Y-128317417D01*
X85905247Y-128311737D01*
X85905390Y-128300000D01*
X85904550Y-128294131D01*
X85887586Y-128175679D01*
X85887586Y-128175678D01*
X85886081Y-128165171D01*
X85857894Y-128103176D01*
X85834100Y-128050843D01*
X85834098Y-128050840D01*
X85829706Y-128041180D01*
X85740796Y-127937996D01*
X85626501Y-127863913D01*
X85548758Y-127840663D01*
X85506179Y-127827929D01*
X85506177Y-127827929D01*
X85496006Y-127824887D01*
X85485388Y-127824822D01*
X85485387Y-127824822D01*
X85429194Y-127824479D01*
X85359804Y-127824055D01*
X85349599Y-127826972D01*
X85349596Y-127826972D01*
X85239051Y-127858566D01*
X85239049Y-127858567D01*
X85228842Y-127861484D01*
X85219864Y-127867149D01*
X85219861Y-127867150D01*
X85150130Y-127911148D01*
X85113650Y-127934165D01*
X85023487Y-128036255D01*
X84965601Y-128159548D01*
X84944646Y-128294131D01*
X84946023Y-128304660D01*
X84952973Y-128357815D01*
X84942839Y-128434274D01*
X84895832Y-128495422D01*
X84824549Y-128524875D01*
X84796008Y-128524613D01*
X84796006Y-128524887D01*
X84659804Y-128524055D01*
X84649599Y-128526972D01*
X84649596Y-128526972D01*
X84539051Y-128558566D01*
X84539049Y-128558567D01*
X84528842Y-128561484D01*
X84519864Y-128567149D01*
X84519861Y-128567150D01*
X84465638Y-128601363D01*
X84413650Y-128634165D01*
X84413020Y-128634878D01*
X84348133Y-128665690D01*
X84271253Y-128659507D01*
X84208355Y-128616401D01*
X84147725Y-128546037D01*
X84147724Y-128546036D01*
X84140796Y-128537996D01*
X84120572Y-128524887D01*
X84035406Y-128469685D01*
X84026501Y-128463913D01*
X83931788Y-128435588D01*
X83906179Y-128427929D01*
X83906177Y-128427929D01*
X83896006Y-128424887D01*
X83885388Y-128424822D01*
X83885387Y-128424822D01*
X83829194Y-128424479D01*
X83759804Y-128424055D01*
X83749599Y-128426972D01*
X83749596Y-128426972D01*
X83639051Y-128458566D01*
X83639049Y-128458567D01*
X83628842Y-128461484D01*
X83619864Y-128467149D01*
X83619861Y-128467150D01*
X83550130Y-128511148D01*
X83513650Y-128534165D01*
X83423487Y-128636255D01*
X83407826Y-128669612D01*
X83374225Y-128741180D01*
X83365601Y-128759548D01*
X83363968Y-128770036D01*
X83352891Y-128841180D01*
X83344646Y-128894131D01*
X79625500Y-128894131D01*
X79625500Y-127422184D01*
X83744646Y-127422184D01*
X83762306Y-127557239D01*
X83817162Y-127681909D01*
X83823993Y-127690036D01*
X83823994Y-127690037D01*
X83847613Y-127718135D01*
X83904804Y-127786172D01*
X84018187Y-127861646D01*
X84148195Y-127902263D01*
X84158808Y-127902458D01*
X84158811Y-127902458D01*
X84273765Y-127904565D01*
X84273769Y-127904565D01*
X84284377Y-127904759D01*
X84415786Y-127868933D01*
X84424832Y-127863379D01*
X84522815Y-127803218D01*
X84522818Y-127803216D01*
X84531858Y-127797665D01*
X84623261Y-127696684D01*
X84682649Y-127574107D01*
X84705247Y-127439790D01*
X84705390Y-127428053D01*
X84704550Y-127422184D01*
X84687586Y-127303732D01*
X84687586Y-127303731D01*
X84686081Y-127293224D01*
X84657894Y-127231229D01*
X84634100Y-127178896D01*
X84634098Y-127178893D01*
X84629706Y-127169233D01*
X84540796Y-127066049D01*
X84426501Y-126991966D01*
X84348758Y-126968716D01*
X84306179Y-126955982D01*
X84306177Y-126955982D01*
X84296006Y-126952940D01*
X84285388Y-126952875D01*
X84285387Y-126952875D01*
X84229194Y-126952532D01*
X84159804Y-126952108D01*
X84149599Y-126955025D01*
X84149596Y-126955025D01*
X84039051Y-126986619D01*
X84039049Y-126986620D01*
X84028842Y-126989537D01*
X84019864Y-126995202D01*
X84019861Y-126995203D01*
X83982688Y-127018658D01*
X83913650Y-127062218D01*
X83823487Y-127164308D01*
X83818977Y-127173915D01*
X83771440Y-127275165D01*
X83765601Y-127287601D01*
X83763968Y-127298089D01*
X83752116Y-127374210D01*
X83744646Y-127422184D01*
X79625500Y-127422184D01*
X79625500Y-126894131D01*
X85444646Y-126894131D01*
X85452336Y-126952940D01*
X85457042Y-126988926D01*
X85462306Y-127029186D01*
X85517162Y-127153856D01*
X85523993Y-127161983D01*
X85523994Y-127161984D01*
X85538210Y-127178896D01*
X85604804Y-127258119D01*
X85718187Y-127333593D01*
X85848195Y-127374210D01*
X85858808Y-127374405D01*
X85858811Y-127374405D01*
X85973765Y-127376512D01*
X85973769Y-127376512D01*
X85984377Y-127376706D01*
X86115786Y-127340880D01*
X86124832Y-127335326D01*
X86222815Y-127275165D01*
X86222818Y-127275163D01*
X86231858Y-127269612D01*
X86323261Y-127168631D01*
X86382649Y-127046054D01*
X86390778Y-126997738D01*
X86404291Y-126917421D01*
X86404291Y-126917417D01*
X86405247Y-126911737D01*
X86405390Y-126900000D01*
X86404550Y-126894131D01*
X86387586Y-126775679D01*
X86387586Y-126775678D01*
X86386081Y-126765171D01*
X86379350Y-126750367D01*
X86366686Y-126674286D01*
X86393760Y-126602066D01*
X86453317Y-126553058D01*
X86529398Y-126540394D01*
X86559418Y-126546474D01*
X86648195Y-126574210D01*
X86658808Y-126574405D01*
X86658811Y-126574405D01*
X86773765Y-126576512D01*
X86773769Y-126576512D01*
X86784377Y-126576706D01*
X86794617Y-126573914D01*
X86794619Y-126573914D01*
X86894216Y-126546761D01*
X86971343Y-126546424D01*
X87038306Y-126584697D01*
X87077160Y-126651323D01*
X87077497Y-126728450D01*
X87072330Y-126742684D01*
X87070111Y-126749941D01*
X87065601Y-126759548D01*
X87044646Y-126894131D01*
X87052336Y-126952940D01*
X87057042Y-126988926D01*
X87062306Y-127029186D01*
X87117162Y-127153856D01*
X87123993Y-127161983D01*
X87123994Y-127161984D01*
X87138210Y-127178896D01*
X87204804Y-127258119D01*
X87318187Y-127333593D01*
X87448195Y-127374210D01*
X87458808Y-127374405D01*
X87458811Y-127374405D01*
X87573765Y-127376512D01*
X87573769Y-127376512D01*
X87584377Y-127376706D01*
X87715786Y-127340880D01*
X87724832Y-127335326D01*
X87822815Y-127275165D01*
X87822818Y-127275163D01*
X87831858Y-127269612D01*
X87923261Y-127168631D01*
X87982649Y-127046054D01*
X87990778Y-126997738D01*
X88004291Y-126917421D01*
X88004291Y-126917417D01*
X88005247Y-126911737D01*
X88005390Y-126900000D01*
X88004550Y-126894131D01*
X87987586Y-126775679D01*
X87987586Y-126775678D01*
X87986081Y-126765171D01*
X87957894Y-126703176D01*
X87934100Y-126650843D01*
X87934098Y-126650840D01*
X87929706Y-126641180D01*
X87873984Y-126576512D01*
X87847725Y-126546037D01*
X87847724Y-126546036D01*
X87840796Y-126537996D01*
X87726501Y-126463913D01*
X87648758Y-126440663D01*
X87606179Y-126427929D01*
X87606177Y-126427929D01*
X87596006Y-126424887D01*
X87585388Y-126424822D01*
X87585387Y-126424822D01*
X87529194Y-126424479D01*
X87459804Y-126424055D01*
X87449599Y-126426972D01*
X87449596Y-126426972D01*
X87358051Y-126453136D01*
X87280933Y-126454415D01*
X87213508Y-126416963D01*
X87173842Y-126350817D01*
X87172563Y-126273699D01*
X87175160Y-126264569D01*
X87178019Y-126255610D01*
X87182649Y-126246054D01*
X87205247Y-126111737D01*
X87205390Y-126100000D01*
X87204550Y-126094131D01*
X87187586Y-125975679D01*
X87187586Y-125975678D01*
X87186081Y-125965171D01*
X87145158Y-125875165D01*
X87134100Y-125850843D01*
X87134098Y-125850840D01*
X87129706Y-125841180D01*
X87040796Y-125737996D01*
X86926501Y-125663913D01*
X86848758Y-125640663D01*
X86806179Y-125627929D01*
X86806177Y-125627929D01*
X86796006Y-125624887D01*
X86785388Y-125624822D01*
X86785387Y-125624822D01*
X86729194Y-125624479D01*
X86659804Y-125624055D01*
X86649599Y-125626972D01*
X86649596Y-125626972D01*
X86539051Y-125658566D01*
X86539049Y-125658567D01*
X86528842Y-125661484D01*
X86519864Y-125667149D01*
X86519861Y-125667150D01*
X86450130Y-125711148D01*
X86413650Y-125734165D01*
X86323487Y-125836255D01*
X86310460Y-125864002D01*
X86274366Y-125940880D01*
X86265601Y-125959548D01*
X86244646Y-126094131D01*
X86262306Y-126229186D01*
X86271947Y-126251096D01*
X86283680Y-126327323D01*
X86255726Y-126399207D01*
X86195576Y-126447484D01*
X86119345Y-126459218D01*
X86092873Y-126453856D01*
X86006179Y-126427929D01*
X86006177Y-126427929D01*
X85996006Y-126424887D01*
X85985388Y-126424822D01*
X85985387Y-126424822D01*
X85929194Y-126424479D01*
X85859804Y-126424055D01*
X85849599Y-126426972D01*
X85849596Y-126426972D01*
X85739051Y-126458566D01*
X85739049Y-126458567D01*
X85728842Y-126461484D01*
X85719864Y-126467149D01*
X85719861Y-126467150D01*
X85650130Y-126511148D01*
X85613650Y-126534165D01*
X85523487Y-126636255D01*
X85494544Y-126697901D01*
X85473519Y-126742684D01*
X85465601Y-126759548D01*
X85444646Y-126894131D01*
X79625500Y-126894131D01*
X79625500Y-125494131D01*
X82344646Y-125494131D01*
X82362306Y-125629186D01*
X82417162Y-125753856D01*
X82423993Y-125761983D01*
X82423994Y-125761984D01*
X82447613Y-125790082D01*
X82504804Y-125858119D01*
X82618187Y-125933593D01*
X82748195Y-125974210D01*
X82758808Y-125974405D01*
X82758811Y-125974405D01*
X82873765Y-125976512D01*
X82873769Y-125976512D01*
X82884377Y-125976706D01*
X83015786Y-125940880D01*
X83024832Y-125935326D01*
X83122815Y-125875165D01*
X83122818Y-125875163D01*
X83131858Y-125869612D01*
X83223261Y-125768631D01*
X83282649Y-125646054D01*
X83285699Y-125627929D01*
X83304291Y-125517419D01*
X83305247Y-125511737D01*
X83305261Y-125510568D01*
X83331326Y-125439434D01*
X83390516Y-125389985D01*
X83455923Y-125376185D01*
X83473764Y-125376512D01*
X83473768Y-125376512D01*
X83484377Y-125376706D01*
X83615786Y-125340880D01*
X83624832Y-125335326D01*
X83722815Y-125275165D01*
X83722818Y-125275163D01*
X83731858Y-125269612D01*
X83823261Y-125168631D01*
X83882649Y-125046054D01*
X83885487Y-125029186D01*
X83904291Y-124917421D01*
X83904291Y-124917417D01*
X83905247Y-124911737D01*
X83905390Y-124900000D01*
X83904550Y-124894131D01*
X83887586Y-124775679D01*
X83887586Y-124775678D01*
X83886081Y-124765171D01*
X83879350Y-124750367D01*
X83866686Y-124674286D01*
X83893760Y-124602066D01*
X83953317Y-124553058D01*
X84029398Y-124540394D01*
X84059418Y-124546474D01*
X84148195Y-124574210D01*
X84158808Y-124574405D01*
X84158811Y-124574405D01*
X84273765Y-124576512D01*
X84273769Y-124576512D01*
X84284377Y-124576706D01*
X84415786Y-124540880D01*
X84426723Y-124534165D01*
X84522815Y-124475165D01*
X84522818Y-124475163D01*
X84531858Y-124469612D01*
X84544628Y-124455504D01*
X84609419Y-124413666D01*
X84686452Y-124409829D01*
X84755083Y-124445022D01*
X84791477Y-124495482D01*
X84817162Y-124553856D01*
X84823993Y-124561983D01*
X84823994Y-124561984D01*
X84836206Y-124576512D01*
X84904804Y-124658119D01*
X85018187Y-124733593D01*
X85148195Y-124774210D01*
X85158808Y-124774405D01*
X85158811Y-124774405D01*
X85273765Y-124776512D01*
X85273769Y-124776512D01*
X85284377Y-124776706D01*
X85415786Y-124740880D01*
X85424832Y-124735326D01*
X85522815Y-124675165D01*
X85522818Y-124675163D01*
X85531858Y-124669612D01*
X85623261Y-124568631D01*
X85682649Y-124446054D01*
X85685487Y-124429186D01*
X85704291Y-124317421D01*
X85704291Y-124317417D01*
X85705247Y-124311737D01*
X85705390Y-124300000D01*
X85704550Y-124294131D01*
X85687586Y-124175679D01*
X85687586Y-124175678D01*
X85686081Y-124165171D01*
X85649012Y-124083641D01*
X85634100Y-124050843D01*
X85634098Y-124050840D01*
X85629706Y-124041180D01*
X85540796Y-123937996D01*
X85426501Y-123863913D01*
X85348758Y-123840663D01*
X85306179Y-123827929D01*
X85306177Y-123827929D01*
X85296006Y-123824887D01*
X85285388Y-123824822D01*
X85285387Y-123824822D01*
X85229194Y-123824479D01*
X85159804Y-123824055D01*
X85149599Y-123826972D01*
X85149596Y-123826972D01*
X85039051Y-123858566D01*
X85039049Y-123858567D01*
X85028842Y-123861484D01*
X85019864Y-123867149D01*
X85019861Y-123867150D01*
X84959018Y-123905540D01*
X84913650Y-123934165D01*
X84906619Y-123942126D01*
X84906287Y-123942502D01*
X84905790Y-123942832D01*
X84898541Y-123949001D01*
X84897800Y-123948130D01*
X84842009Y-123985128D01*
X84765029Y-123989904D01*
X84695974Y-123955549D01*
X84658969Y-123905540D01*
X84634100Y-123850843D01*
X84634098Y-123850840D01*
X84629706Y-123841180D01*
X84540796Y-123737996D01*
X84426501Y-123663913D01*
X84348758Y-123640663D01*
X84306179Y-123627929D01*
X84306177Y-123627929D01*
X84296006Y-123624887D01*
X84285388Y-123624822D01*
X84285387Y-123624822D01*
X84229194Y-123624479D01*
X84159804Y-123624055D01*
X84149599Y-123626972D01*
X84149596Y-123626972D01*
X84039051Y-123658566D01*
X84039049Y-123658567D01*
X84028842Y-123661484D01*
X84019864Y-123667149D01*
X84019861Y-123667150D01*
X83950130Y-123711148D01*
X83913650Y-123734165D01*
X83823487Y-123836255D01*
X83818977Y-123845862D01*
X83770553Y-123949001D01*
X83765601Y-123959548D01*
X83763968Y-123970036D01*
X83752891Y-124041180D01*
X83744646Y-124094131D01*
X83762306Y-124229186D01*
X83771947Y-124251096D01*
X83783680Y-124327323D01*
X83755726Y-124399207D01*
X83695576Y-124447484D01*
X83619345Y-124459218D01*
X83592873Y-124453856D01*
X83506179Y-124427929D01*
X83506177Y-124427929D01*
X83496006Y-124424887D01*
X83485388Y-124424822D01*
X83485387Y-124424822D01*
X83429194Y-124424479D01*
X83359804Y-124424055D01*
X83349599Y-124426972D01*
X83349596Y-124426972D01*
X83239051Y-124458566D01*
X83239049Y-124458567D01*
X83228842Y-124461484D01*
X83219864Y-124467149D01*
X83219861Y-124467150D01*
X83150130Y-124511148D01*
X83113650Y-124534165D01*
X83023487Y-124636255D01*
X83005219Y-124675165D01*
X82974366Y-124740880D01*
X82965601Y-124759548D01*
X82944646Y-124894131D01*
X82941702Y-124893673D01*
X82925484Y-124951360D01*
X82870281Y-125005224D01*
X82796459Y-125024279D01*
X82759804Y-125024055D01*
X82749599Y-125026972D01*
X82749596Y-125026972D01*
X82639051Y-125058566D01*
X82639049Y-125058567D01*
X82628842Y-125061484D01*
X82619864Y-125067149D01*
X82619861Y-125067150D01*
X82550130Y-125111148D01*
X82513650Y-125134165D01*
X82423487Y-125236255D01*
X82407826Y-125269612D01*
X82374366Y-125340880D01*
X82365601Y-125359548D01*
X82344646Y-125494131D01*
X79625500Y-125494131D01*
X79625500Y-122494131D01*
X88744646Y-122494131D01*
X88749858Y-122533988D01*
X88758614Y-122600949D01*
X88762306Y-122629186D01*
X88817162Y-122753856D01*
X88823993Y-122761983D01*
X88823994Y-122761984D01*
X88840877Y-122782068D01*
X88904804Y-122858119D01*
X89018187Y-122933593D01*
X89148195Y-122974210D01*
X89158808Y-122974405D01*
X89158811Y-122974405D01*
X89273765Y-122976512D01*
X89273769Y-122976512D01*
X89284377Y-122976706D01*
X89415786Y-122940880D01*
X89424832Y-122935326D01*
X89522815Y-122875165D01*
X89522818Y-122875163D01*
X89531858Y-122869612D01*
X89623261Y-122768631D01*
X89682649Y-122646054D01*
X89690238Y-122600949D01*
X89704291Y-122517421D01*
X89704291Y-122517417D01*
X89705247Y-122511737D01*
X89705390Y-122500000D01*
X89704550Y-122494131D01*
X89687586Y-122375679D01*
X89687586Y-122375678D01*
X89686081Y-122365171D01*
X89657169Y-122301582D01*
X89634100Y-122250843D01*
X89634098Y-122250840D01*
X89629706Y-122241180D01*
X89540796Y-122137996D01*
X89426501Y-122063913D01*
X89348758Y-122040663D01*
X89306179Y-122027929D01*
X89306177Y-122027929D01*
X89296006Y-122024887D01*
X89285388Y-122024822D01*
X89285387Y-122024822D01*
X89229194Y-122024479D01*
X89159804Y-122024055D01*
X89149599Y-122026972D01*
X89149596Y-122026972D01*
X89039051Y-122058566D01*
X89039049Y-122058567D01*
X89028842Y-122061484D01*
X89019864Y-122067149D01*
X89019861Y-122067150D01*
X88962593Y-122103284D01*
X88913650Y-122134165D01*
X88823487Y-122236255D01*
X88818977Y-122245862D01*
X88770392Y-122349344D01*
X88765601Y-122359548D01*
X88744646Y-122494131D01*
X79625500Y-122494131D01*
X79625500Y-121094131D01*
X80644646Y-121094131D01*
X80651537Y-121146827D01*
X80656948Y-121188207D01*
X80662306Y-121229186D01*
X80717162Y-121353856D01*
X80723993Y-121361983D01*
X80723994Y-121361984D01*
X80742199Y-121383641D01*
X80804804Y-121458119D01*
X80918187Y-121533593D01*
X81048195Y-121574210D01*
X81058808Y-121574405D01*
X81058811Y-121574405D01*
X81173765Y-121576512D01*
X81173769Y-121576512D01*
X81184377Y-121576706D01*
X81315786Y-121540880D01*
X81324832Y-121535326D01*
X81422815Y-121475165D01*
X81422818Y-121475163D01*
X81431858Y-121469612D01*
X81500180Y-121394131D01*
X85244646Y-121394131D01*
X85262306Y-121529186D01*
X85317162Y-121653856D01*
X85323993Y-121661983D01*
X85323994Y-121661984D01*
X85347613Y-121690082D01*
X85404804Y-121758119D01*
X85518187Y-121833593D01*
X85648195Y-121874210D01*
X85658808Y-121874405D01*
X85658811Y-121874405D01*
X85773765Y-121876512D01*
X85773769Y-121876512D01*
X85784377Y-121876706D01*
X85915786Y-121840880D01*
X85924832Y-121835326D01*
X86022815Y-121775165D01*
X86022818Y-121775163D01*
X86031858Y-121769612D01*
X86123261Y-121668631D01*
X86182649Y-121546054D01*
X86184454Y-121535326D01*
X86204291Y-121417421D01*
X86204291Y-121417417D01*
X86205247Y-121411737D01*
X86205390Y-121400000D01*
X86204550Y-121394131D01*
X86198653Y-121352961D01*
X86196396Y-121337198D01*
X86205595Y-121260621D01*
X86251850Y-121198902D01*
X86304699Y-121172322D01*
X86328566Y-121165815D01*
X86377842Y-121152381D01*
X86386888Y-121146827D01*
X86484871Y-121086666D01*
X86484874Y-121086664D01*
X86493914Y-121081113D01*
X86583113Y-120982567D01*
X86647905Y-120940732D01*
X86724938Y-120936896D01*
X86738000Y-120940335D01*
X86827530Y-120968306D01*
X86838143Y-120968501D01*
X86838146Y-120968501D01*
X86953100Y-120970608D01*
X86953104Y-120970608D01*
X86963712Y-120970802D01*
X87095121Y-120934976D01*
X87116677Y-120921741D01*
X87151271Y-120900500D01*
X87211193Y-120863708D01*
X87217034Y-120857255D01*
X87286151Y-120825464D01*
X87362950Y-120832587D01*
X87404235Y-120857442D01*
X87404804Y-120858119D01*
X87413642Y-120864002D01*
X87413643Y-120864003D01*
X87449028Y-120887557D01*
X87518187Y-120933593D01*
X87619263Y-120965171D01*
X87637287Y-120970802D01*
X87648195Y-120974210D01*
X87658808Y-120974405D01*
X87658811Y-120974405D01*
X87773765Y-120976512D01*
X87773769Y-120976512D01*
X87784377Y-120976706D01*
X87915786Y-120940880D01*
X87925402Y-120934976D01*
X88022815Y-120875165D01*
X88022818Y-120875163D01*
X88031858Y-120869612D01*
X88058040Y-120840687D01*
X88069253Y-120828298D01*
X88123261Y-120768631D01*
X88182649Y-120646054D01*
X88185667Y-120628115D01*
X88204291Y-120517421D01*
X88204291Y-120517417D01*
X88205247Y-120511737D01*
X88205390Y-120500000D01*
X88202316Y-120478531D01*
X88187586Y-120375679D01*
X88187586Y-120375678D01*
X88186081Y-120365171D01*
X88140868Y-120265729D01*
X88134100Y-120250843D01*
X88134098Y-120250840D01*
X88129706Y-120241180D01*
X88040796Y-120137996D01*
X87926501Y-120063913D01*
X87848758Y-120040663D01*
X87806179Y-120027929D01*
X87806177Y-120027929D01*
X87796006Y-120024887D01*
X87785388Y-120024822D01*
X87785387Y-120024822D01*
X87729194Y-120024479D01*
X87659804Y-120024055D01*
X87649599Y-120026972D01*
X87649596Y-120026972D01*
X87539051Y-120058566D01*
X87539049Y-120058567D01*
X87528842Y-120061484D01*
X87519864Y-120067149D01*
X87519861Y-120067150D01*
X87434592Y-120120952D01*
X87413650Y-120134165D01*
X87411222Y-120136914D01*
X87344990Y-120168366D01*
X87268110Y-120162183D01*
X87223608Y-120136127D01*
X87220131Y-120132092D01*
X87105836Y-120058009D01*
X87002055Y-120026972D01*
X86985514Y-120022025D01*
X86985512Y-120022025D01*
X86975341Y-120018983D01*
X86964723Y-120018918D01*
X86964722Y-120018918D01*
X86908529Y-120018575D01*
X86839139Y-120018151D01*
X86828934Y-120021068D01*
X86828931Y-120021068D01*
X86718386Y-120052662D01*
X86718384Y-120052663D01*
X86708177Y-120055580D01*
X86699199Y-120061245D01*
X86699196Y-120061246D01*
X86664451Y-120083169D01*
X86592985Y-120128261D01*
X86510541Y-120221611D01*
X86446265Y-120264235D01*
X86369285Y-120269011D01*
X86356179Y-120265731D01*
X86278254Y-120242427D01*
X86268234Y-120239430D01*
X86258062Y-120236388D01*
X86247444Y-120236323D01*
X86247443Y-120236323D01*
X86191250Y-120235980D01*
X86121860Y-120235556D01*
X86111655Y-120238473D01*
X86111652Y-120238473D01*
X86001107Y-120270067D01*
X86001105Y-120270068D01*
X85990898Y-120272985D01*
X85981920Y-120278650D01*
X85981917Y-120278651D01*
X85951941Y-120297565D01*
X85875706Y-120345666D01*
X85785543Y-120447756D01*
X85727657Y-120571049D01*
X85726024Y-120581537D01*
X85718801Y-120627929D01*
X85706702Y-120705632D01*
X85715899Y-120775964D01*
X85705765Y-120852422D01*
X85658760Y-120913571D01*
X85609101Y-120938546D01*
X85528842Y-120961484D01*
X85519864Y-120967149D01*
X85519861Y-120967150D01*
X85480843Y-120991769D01*
X85413650Y-121034165D01*
X85323487Y-121136255D01*
X85299923Y-121186445D01*
X85275293Y-121238905D01*
X85265601Y-121259548D01*
X85263968Y-121270036D01*
X85247391Y-121376504D01*
X85244646Y-121394131D01*
X81500180Y-121394131D01*
X81523261Y-121368631D01*
X81582649Y-121246054D01*
X81590582Y-121198902D01*
X81604291Y-121117421D01*
X81604291Y-121117417D01*
X81605247Y-121111737D01*
X81605390Y-121100000D01*
X81604550Y-121094131D01*
X81587586Y-120975679D01*
X81587586Y-120975678D01*
X81586081Y-120965171D01*
X81545158Y-120875165D01*
X81534100Y-120850843D01*
X81534098Y-120850840D01*
X81529706Y-120841180D01*
X81454462Y-120753856D01*
X81447725Y-120746037D01*
X81447724Y-120746036D01*
X81440796Y-120737996D01*
X81326501Y-120663913D01*
X81231788Y-120635588D01*
X81206179Y-120627929D01*
X81206177Y-120627929D01*
X81196006Y-120624887D01*
X81185388Y-120624822D01*
X81185387Y-120624822D01*
X81129194Y-120624479D01*
X81059804Y-120624055D01*
X81049599Y-120626972D01*
X81049596Y-120626972D01*
X80939051Y-120658566D01*
X80939049Y-120658567D01*
X80928842Y-120661484D01*
X80919864Y-120667149D01*
X80919861Y-120667150D01*
X80875497Y-120695142D01*
X80813650Y-120734165D01*
X80723487Y-120836255D01*
X80707990Y-120869263D01*
X80671541Y-120946897D01*
X80665601Y-120959548D01*
X80663968Y-120970036D01*
X80647898Y-121073247D01*
X80644646Y-121094131D01*
X79625500Y-121094131D01*
X79625500Y-112894131D01*
X87244646Y-112894131D01*
X87262306Y-113029186D01*
X87317162Y-113153856D01*
X87323993Y-113161983D01*
X87323994Y-113161984D01*
X87347613Y-113190082D01*
X87404804Y-113258119D01*
X87518187Y-113333593D01*
X87648195Y-113374210D01*
X87658808Y-113374405D01*
X87658811Y-113374405D01*
X87773765Y-113376512D01*
X87773769Y-113376512D01*
X87784377Y-113376706D01*
X87915786Y-113340880D01*
X87924832Y-113335326D01*
X88022815Y-113275165D01*
X88022818Y-113275163D01*
X88031858Y-113269612D01*
X88123261Y-113168631D01*
X88182649Y-113046054D01*
X88205247Y-112911737D01*
X88205390Y-112900000D01*
X88204550Y-112894131D01*
X88187586Y-112775679D01*
X88187586Y-112775678D01*
X88186081Y-112765171D01*
X88157893Y-112703175D01*
X88134100Y-112650843D01*
X88134098Y-112650840D01*
X88129706Y-112641180D01*
X88040796Y-112537996D01*
X87926501Y-112463913D01*
X87848758Y-112440663D01*
X87806179Y-112427929D01*
X87806177Y-112427929D01*
X87796006Y-112424887D01*
X87785388Y-112424822D01*
X87785387Y-112424822D01*
X87729194Y-112424479D01*
X87659804Y-112424055D01*
X87649599Y-112426972D01*
X87649596Y-112426972D01*
X87539051Y-112458566D01*
X87539049Y-112458567D01*
X87528842Y-112461484D01*
X87519864Y-112467149D01*
X87519861Y-112467150D01*
X87450130Y-112511148D01*
X87413650Y-112534165D01*
X87323487Y-112636255D01*
X87265601Y-112759548D01*
X87244646Y-112894131D01*
X79625500Y-112894131D01*
X79625500Y-111994131D01*
X86244646Y-111994131D01*
X86262306Y-112129186D01*
X86317162Y-112253856D01*
X86323993Y-112261983D01*
X86323994Y-112261984D01*
X86347613Y-112290082D01*
X86404804Y-112358119D01*
X86518187Y-112433593D01*
X86648195Y-112474210D01*
X86658808Y-112474405D01*
X86658811Y-112474405D01*
X86773765Y-112476512D01*
X86773769Y-112476512D01*
X86784377Y-112476706D01*
X86915786Y-112440880D01*
X86924832Y-112435326D01*
X87022815Y-112375165D01*
X87022818Y-112375163D01*
X87031858Y-112369612D01*
X87123261Y-112268631D01*
X87182649Y-112146054D01*
X87205247Y-112011737D01*
X87205390Y-112000000D01*
X87204550Y-111994131D01*
X88244646Y-111994131D01*
X88262306Y-112129186D01*
X88317162Y-112253856D01*
X88323993Y-112261983D01*
X88323994Y-112261984D01*
X88347613Y-112290082D01*
X88404804Y-112358119D01*
X88518187Y-112433593D01*
X88648195Y-112474210D01*
X88658808Y-112474405D01*
X88658811Y-112474405D01*
X88773765Y-112476512D01*
X88773769Y-112476512D01*
X88784377Y-112476706D01*
X88915786Y-112440880D01*
X88924832Y-112435326D01*
X89022815Y-112375165D01*
X89022818Y-112375163D01*
X89031858Y-112369612D01*
X89123261Y-112268631D01*
X89182649Y-112146054D01*
X89205247Y-112011737D01*
X89205390Y-112000000D01*
X89204550Y-111994131D01*
X89187586Y-111875679D01*
X89187586Y-111875678D01*
X89186081Y-111865171D01*
X89157893Y-111803175D01*
X89134100Y-111750843D01*
X89134098Y-111750840D01*
X89129706Y-111741180D01*
X89040796Y-111637996D01*
X88926501Y-111563913D01*
X88848758Y-111540663D01*
X88806179Y-111527929D01*
X88806177Y-111527929D01*
X88796006Y-111524887D01*
X88785388Y-111524822D01*
X88785387Y-111524822D01*
X88729194Y-111524479D01*
X88659804Y-111524055D01*
X88649599Y-111526972D01*
X88649596Y-111526972D01*
X88539051Y-111558566D01*
X88539049Y-111558567D01*
X88528842Y-111561484D01*
X88519864Y-111567149D01*
X88519861Y-111567150D01*
X88450130Y-111611148D01*
X88413650Y-111634165D01*
X88323487Y-111736255D01*
X88265601Y-111859548D01*
X88244646Y-111994131D01*
X87204550Y-111994131D01*
X87187586Y-111875679D01*
X87187586Y-111875678D01*
X87186081Y-111865171D01*
X87157893Y-111803175D01*
X87134100Y-111750843D01*
X87134098Y-111750840D01*
X87129706Y-111741180D01*
X87040796Y-111637996D01*
X86926501Y-111563913D01*
X86848758Y-111540663D01*
X86806179Y-111527929D01*
X86806177Y-111527929D01*
X86796006Y-111524887D01*
X86785388Y-111524822D01*
X86785387Y-111524822D01*
X86729194Y-111524479D01*
X86659804Y-111524055D01*
X86649599Y-111526972D01*
X86649596Y-111526972D01*
X86539051Y-111558566D01*
X86539049Y-111558567D01*
X86528842Y-111561484D01*
X86519864Y-111567149D01*
X86519861Y-111567150D01*
X86450130Y-111611148D01*
X86413650Y-111634165D01*
X86323487Y-111736255D01*
X86265601Y-111859548D01*
X86244646Y-111994131D01*
X79625500Y-111994131D01*
X79625500Y-110994131D01*
X87244646Y-110994131D01*
X87262306Y-111129186D01*
X87317162Y-111253856D01*
X87323993Y-111261983D01*
X87323994Y-111261984D01*
X87347613Y-111290082D01*
X87404804Y-111358119D01*
X87518187Y-111433593D01*
X87648195Y-111474210D01*
X87658808Y-111474405D01*
X87658811Y-111474405D01*
X87773765Y-111476512D01*
X87773769Y-111476512D01*
X87784377Y-111476706D01*
X87915786Y-111440880D01*
X87924832Y-111435326D01*
X88022815Y-111375165D01*
X88022818Y-111375163D01*
X88031858Y-111369612D01*
X88123261Y-111268631D01*
X88182649Y-111146054D01*
X88205247Y-111011737D01*
X88205390Y-111000000D01*
X88204550Y-110994131D01*
X88187586Y-110875679D01*
X88187586Y-110875678D01*
X88186081Y-110865171D01*
X88157893Y-110803175D01*
X88134100Y-110750843D01*
X88134098Y-110750840D01*
X88129706Y-110741180D01*
X88040796Y-110637996D01*
X87926501Y-110563913D01*
X87848758Y-110540663D01*
X87806179Y-110527929D01*
X87806177Y-110527929D01*
X87796006Y-110524887D01*
X87785388Y-110524822D01*
X87785387Y-110524822D01*
X87729194Y-110524479D01*
X87659804Y-110524055D01*
X87649599Y-110526972D01*
X87649596Y-110526972D01*
X87539051Y-110558566D01*
X87539049Y-110558567D01*
X87528842Y-110561484D01*
X87519864Y-110567149D01*
X87519861Y-110567150D01*
X87450130Y-110611148D01*
X87413650Y-110634165D01*
X87323487Y-110736255D01*
X87265601Y-110859548D01*
X87244646Y-110994131D01*
X79625500Y-110994131D01*
X79625500Y-109994131D01*
X86244646Y-109994131D01*
X86262306Y-110129186D01*
X86317162Y-110253856D01*
X86323993Y-110261983D01*
X86323994Y-110261984D01*
X86347613Y-110290082D01*
X86404804Y-110358119D01*
X86518187Y-110433593D01*
X86648195Y-110474210D01*
X86658808Y-110474405D01*
X86658811Y-110474405D01*
X86773765Y-110476512D01*
X86773769Y-110476512D01*
X86784377Y-110476706D01*
X86915786Y-110440880D01*
X86924832Y-110435326D01*
X87022815Y-110375165D01*
X87022818Y-110375163D01*
X87031858Y-110369612D01*
X87123261Y-110268631D01*
X87182649Y-110146054D01*
X87205247Y-110011737D01*
X87205390Y-110000000D01*
X87204574Y-109994299D01*
X87204550Y-109994131D01*
X88244646Y-109994131D01*
X88262306Y-110129186D01*
X88317162Y-110253856D01*
X88323993Y-110261983D01*
X88323994Y-110261984D01*
X88347613Y-110290082D01*
X88404804Y-110358119D01*
X88518187Y-110433593D01*
X88648195Y-110474210D01*
X88658808Y-110474405D01*
X88658811Y-110474405D01*
X88773765Y-110476512D01*
X88773769Y-110476512D01*
X88784377Y-110476706D01*
X88915786Y-110440880D01*
X88924832Y-110435326D01*
X89022815Y-110375165D01*
X89022818Y-110375163D01*
X89031858Y-110369612D01*
X89123261Y-110268631D01*
X89182649Y-110146054D01*
X89205247Y-110011737D01*
X89205390Y-110000000D01*
X89204550Y-109994131D01*
X89187586Y-109875679D01*
X89187586Y-109875678D01*
X89186081Y-109865171D01*
X89145859Y-109776706D01*
X89134100Y-109750843D01*
X89134098Y-109750840D01*
X89129706Y-109741180D01*
X89072823Y-109675165D01*
X89047725Y-109646037D01*
X89047724Y-109646036D01*
X89040796Y-109637996D01*
X88926501Y-109563913D01*
X88848758Y-109540663D01*
X88806179Y-109527929D01*
X88806177Y-109527929D01*
X88796006Y-109524887D01*
X88785388Y-109524822D01*
X88785387Y-109524822D01*
X88729194Y-109524479D01*
X88659804Y-109524055D01*
X88649599Y-109526972D01*
X88649596Y-109526972D01*
X88539051Y-109558566D01*
X88539049Y-109558567D01*
X88528842Y-109561484D01*
X88519864Y-109567149D01*
X88519861Y-109567150D01*
X88450130Y-109611148D01*
X88413650Y-109634165D01*
X88323487Y-109736255D01*
X88265601Y-109859548D01*
X88244646Y-109994131D01*
X87204550Y-109994131D01*
X87188015Y-109878672D01*
X87197214Y-109802095D01*
X87243470Y-109740377D01*
X87314388Y-109710055D01*
X87390965Y-109719254D01*
X87399487Y-109723742D01*
X87399773Y-109723142D01*
X87409347Y-109727709D01*
X87418187Y-109733593D01*
X87548195Y-109774210D01*
X87558808Y-109774405D01*
X87558811Y-109774405D01*
X87673765Y-109776512D01*
X87673769Y-109776512D01*
X87684377Y-109776706D01*
X87815786Y-109740880D01*
X87824832Y-109735326D01*
X87922815Y-109675165D01*
X87922818Y-109675163D01*
X87931858Y-109669612D01*
X88023261Y-109568631D01*
X88082649Y-109446054D01*
X88105247Y-109311737D01*
X88105390Y-109300000D01*
X88104550Y-109294131D01*
X88087586Y-109175679D01*
X88087586Y-109175678D01*
X88086081Y-109165171D01*
X88057894Y-109103176D01*
X88034100Y-109050843D01*
X88034098Y-109050840D01*
X88029706Y-109041180D01*
X87940796Y-108937996D01*
X87826501Y-108863913D01*
X87748758Y-108840663D01*
X87706179Y-108827929D01*
X87706177Y-108827929D01*
X87696006Y-108824887D01*
X87685388Y-108824822D01*
X87685387Y-108824822D01*
X87629194Y-108824479D01*
X87559804Y-108824055D01*
X87549599Y-108826972D01*
X87549596Y-108826972D01*
X87439051Y-108858566D01*
X87439049Y-108858567D01*
X87428842Y-108861484D01*
X87419864Y-108867149D01*
X87419861Y-108867150D01*
X87350130Y-108911148D01*
X87313650Y-108934165D01*
X87223487Y-109036255D01*
X87165601Y-109159548D01*
X87144646Y-109294131D01*
X87159327Y-109406407D01*
X87161581Y-109423642D01*
X87151447Y-109500101D01*
X87104441Y-109561250D01*
X87033158Y-109590703D01*
X86956699Y-109580569D01*
X86940375Y-109571981D01*
X86935407Y-109569685D01*
X86926501Y-109563913D01*
X86848758Y-109540663D01*
X86806179Y-109527929D01*
X86806177Y-109527929D01*
X86796006Y-109524887D01*
X86785388Y-109524822D01*
X86785387Y-109524822D01*
X86729194Y-109524479D01*
X86659804Y-109524055D01*
X86649599Y-109526972D01*
X86649596Y-109526972D01*
X86539051Y-109558566D01*
X86539049Y-109558567D01*
X86528842Y-109561484D01*
X86519864Y-109567149D01*
X86519861Y-109567150D01*
X86450130Y-109611148D01*
X86413650Y-109634165D01*
X86323487Y-109736255D01*
X86265601Y-109859548D01*
X86244646Y-109994131D01*
X79625500Y-109994131D01*
X79625500Y-103100016D01*
X80704500Y-103100016D01*
X80719724Y-103225820D01*
X80779655Y-103384423D01*
X80875688Y-103524151D01*
X80882395Y-103530126D01*
X80882396Y-103530128D01*
X80995572Y-103630965D01*
X80995576Y-103630968D01*
X81002279Y-103636940D01*
X81010217Y-103641143D01*
X81010220Y-103641145D01*
X81017966Y-103645246D01*
X81152119Y-103716276D01*
X81160832Y-103718465D01*
X81160833Y-103718465D01*
X81170866Y-103720985D01*
X81316559Y-103757581D01*
X81420998Y-103758128D01*
X81477127Y-103758422D01*
X81486105Y-103758469D01*
X81518221Y-103750759D01*
X81642235Y-103720985D01*
X81642238Y-103720984D01*
X81650968Y-103718888D01*
X81658947Y-103714770D01*
X81658949Y-103714769D01*
X81793647Y-103645246D01*
X81793648Y-103645245D01*
X81801631Y-103641125D01*
X81808398Y-103635221D01*
X81808402Y-103635219D01*
X81922627Y-103535574D01*
X81929396Y-103529669D01*
X82026887Y-103390953D01*
X82088476Y-103232987D01*
X82105500Y-103103674D01*
X82105500Y-102411098D01*
X82125462Y-102336598D01*
X82180000Y-102282060D01*
X82254500Y-102262098D01*
X82329000Y-102282060D01*
X82372707Y-102320389D01*
X82424549Y-102387951D01*
X82544767Y-102480198D01*
X82684764Y-102538187D01*
X82694445Y-102539462D01*
X82694447Y-102539462D01*
X82792438Y-102552363D01*
X82792445Y-102552363D01*
X82797280Y-102553000D01*
X82872720Y-102553000D01*
X82877555Y-102552363D01*
X82877562Y-102552363D01*
X82975553Y-102539462D01*
X82975555Y-102539462D01*
X82985236Y-102538187D01*
X83125233Y-102480198D01*
X83245451Y-102387951D01*
X83318396Y-102292888D01*
X83331753Y-102275481D01*
X83331754Y-102275480D01*
X83337698Y-102267733D01*
X83395687Y-102127736D01*
X83415466Y-101977500D01*
X88034534Y-101977500D01*
X88054313Y-102127736D01*
X88112302Y-102267733D01*
X88118246Y-102275480D01*
X88118247Y-102275481D01*
X88131604Y-102292888D01*
X88204549Y-102387951D01*
X88324767Y-102480198D01*
X88464764Y-102538187D01*
X88474445Y-102539462D01*
X88474447Y-102539462D01*
X88572438Y-102552363D01*
X88572445Y-102552363D01*
X88577280Y-102553000D01*
X88652720Y-102553000D01*
X88657555Y-102552363D01*
X88657562Y-102552363D01*
X88755553Y-102539462D01*
X88755555Y-102539462D01*
X88765236Y-102538187D01*
X88905233Y-102480198D01*
X89025451Y-102387951D01*
X89077293Y-102320390D01*
X89138480Y-102273440D01*
X89214949Y-102263373D01*
X89286206Y-102292888D01*
X89333158Y-102354078D01*
X89344500Y-102411098D01*
X89344500Y-103100016D01*
X89359724Y-103225820D01*
X89419655Y-103384423D01*
X89515688Y-103524151D01*
X89522395Y-103530126D01*
X89522396Y-103530128D01*
X89635572Y-103630965D01*
X89635576Y-103630968D01*
X89642279Y-103636940D01*
X89650217Y-103641143D01*
X89650220Y-103641145D01*
X89657966Y-103645246D01*
X89792119Y-103716276D01*
X89800832Y-103718465D01*
X89800833Y-103718465D01*
X89810866Y-103720985D01*
X89956559Y-103757581D01*
X90060998Y-103758128D01*
X90117127Y-103758422D01*
X90126105Y-103758469D01*
X90158221Y-103750759D01*
X90282235Y-103720985D01*
X90282238Y-103720984D01*
X90290968Y-103718888D01*
X90298947Y-103714770D01*
X90298949Y-103714769D01*
X90433647Y-103645246D01*
X90433648Y-103645245D01*
X90441631Y-103641125D01*
X90448398Y-103635221D01*
X90448402Y-103635219D01*
X90562627Y-103535574D01*
X90569396Y-103529669D01*
X90666887Y-103390953D01*
X90728476Y-103232987D01*
X90745500Y-103103674D01*
X90745500Y-101914984D01*
X90730276Y-101789180D01*
X90670345Y-101630577D01*
X90574312Y-101490849D01*
X90562974Y-101480747D01*
X90454428Y-101384035D01*
X90454424Y-101384032D01*
X90447721Y-101378060D01*
X90439783Y-101373857D01*
X90439780Y-101373855D01*
X90305823Y-101302929D01*
X90297881Y-101298724D01*
X90289168Y-101296535D01*
X90289167Y-101296535D01*
X90216691Y-101278330D01*
X90133441Y-101257419D01*
X90029002Y-101256872D01*
X89972873Y-101256578D01*
X89963895Y-101256531D01*
X89955164Y-101258627D01*
X89955165Y-101258627D01*
X89807765Y-101294015D01*
X89807762Y-101294016D01*
X89799032Y-101296112D01*
X89791053Y-101300230D01*
X89791051Y-101300231D01*
X89785824Y-101302929D01*
X89648369Y-101373875D01*
X89641602Y-101379779D01*
X89641598Y-101379781D01*
X89594864Y-101420550D01*
X89520604Y-101485331D01*
X89423113Y-101624047D01*
X89419853Y-101632409D01*
X89419848Y-101632418D01*
X89396966Y-101691107D01*
X89351305Y-101753266D01*
X89280681Y-101784267D01*
X89204019Y-101775802D01*
X89141860Y-101730141D01*
X89126710Y-101704522D01*
X89126319Y-101704748D01*
X89121435Y-101696288D01*
X89117698Y-101687267D01*
X89080645Y-101638978D01*
X89031397Y-101574798D01*
X89025451Y-101567049D01*
X88918955Y-101485331D01*
X88912981Y-101480747D01*
X88912980Y-101480746D01*
X88905233Y-101474802D01*
X88765236Y-101416813D01*
X88755555Y-101415538D01*
X88755553Y-101415538D01*
X88657562Y-101402637D01*
X88657555Y-101402637D01*
X88652720Y-101402000D01*
X88577280Y-101402000D01*
X88572445Y-101402637D01*
X88572438Y-101402637D01*
X88474447Y-101415538D01*
X88474445Y-101415538D01*
X88464764Y-101416813D01*
X88324767Y-101474802D01*
X88317020Y-101480746D01*
X88317019Y-101480747D01*
X88311045Y-101485331D01*
X88204549Y-101567049D01*
X88198603Y-101574798D01*
X88149356Y-101638978D01*
X88112302Y-101687267D01*
X88054313Y-101827264D01*
X88053038Y-101836945D01*
X88053038Y-101836947D01*
X88043246Y-101911326D01*
X88034534Y-101977500D01*
X83415466Y-101977500D01*
X83406754Y-101911326D01*
X83396962Y-101836947D01*
X83396962Y-101836945D01*
X83395687Y-101827264D01*
X83337698Y-101687267D01*
X83300645Y-101638978D01*
X83251397Y-101574798D01*
X83245451Y-101567049D01*
X83138955Y-101485331D01*
X83132981Y-101480747D01*
X83132980Y-101480746D01*
X83125233Y-101474802D01*
X82985236Y-101416813D01*
X82975555Y-101415538D01*
X82975553Y-101415538D01*
X82877562Y-101402637D01*
X82877555Y-101402637D01*
X82872720Y-101402000D01*
X82797280Y-101402000D01*
X82792445Y-101402637D01*
X82792438Y-101402637D01*
X82694447Y-101415538D01*
X82694445Y-101415538D01*
X82684764Y-101416813D01*
X82544767Y-101474802D01*
X82537020Y-101480746D01*
X82537019Y-101480747D01*
X82531045Y-101485331D01*
X82424549Y-101567049D01*
X82418603Y-101574798D01*
X82369356Y-101638978D01*
X82332302Y-101687267D01*
X82328565Y-101696288D01*
X82323681Y-101704748D01*
X82321949Y-101703748D01*
X82282655Y-101754952D01*
X82211397Y-101784464D01*
X82134929Y-101774394D01*
X82073741Y-101727438D01*
X82052576Y-101689409D01*
X82030345Y-101630577D01*
X81934312Y-101490849D01*
X81922974Y-101480747D01*
X81814428Y-101384035D01*
X81814424Y-101384032D01*
X81807721Y-101378060D01*
X81799783Y-101373857D01*
X81799780Y-101373855D01*
X81665823Y-101302929D01*
X81657881Y-101298724D01*
X81649168Y-101296535D01*
X81649167Y-101296535D01*
X81576691Y-101278330D01*
X81493441Y-101257419D01*
X81389002Y-101256872D01*
X81332873Y-101256578D01*
X81323895Y-101256531D01*
X81315164Y-101258627D01*
X81315165Y-101258627D01*
X81167765Y-101294015D01*
X81167762Y-101294016D01*
X81159032Y-101296112D01*
X81151053Y-101300230D01*
X81151051Y-101300231D01*
X81145824Y-101302929D01*
X81008369Y-101373875D01*
X81001602Y-101379779D01*
X81001598Y-101379781D01*
X80954864Y-101420550D01*
X80880604Y-101485331D01*
X80783113Y-101624047D01*
X80721524Y-101782013D01*
X80704500Y-101911326D01*
X80704500Y-103100016D01*
X79625500Y-103100016D01*
X79625500Y-98670016D01*
X80704500Y-98670016D01*
X80719724Y-98795820D01*
X80779655Y-98954423D01*
X80875688Y-99094151D01*
X80882395Y-99100126D01*
X80882396Y-99100128D01*
X80995572Y-99200965D01*
X80995576Y-99200968D01*
X81002279Y-99206940D01*
X81010217Y-99211143D01*
X81010220Y-99211145D01*
X81017966Y-99215246D01*
X81152119Y-99286276D01*
X81160832Y-99288465D01*
X81160833Y-99288465D01*
X81170866Y-99290985D01*
X81316559Y-99327581D01*
X81420998Y-99328128D01*
X81477127Y-99328422D01*
X81486105Y-99328469D01*
X81518221Y-99320759D01*
X81642235Y-99290985D01*
X81642238Y-99290984D01*
X81650968Y-99288888D01*
X81658947Y-99284770D01*
X81658949Y-99284769D01*
X81793647Y-99215246D01*
X81793648Y-99215245D01*
X81801631Y-99211125D01*
X81808398Y-99205221D01*
X81808402Y-99205219D01*
X81922627Y-99105574D01*
X81929396Y-99099669D01*
X82026887Y-98960953D01*
X82088476Y-98802987D01*
X82105500Y-98673674D01*
X82105500Y-98670016D01*
X89344500Y-98670016D01*
X89359724Y-98795820D01*
X89419655Y-98954423D01*
X89515688Y-99094151D01*
X89522395Y-99100126D01*
X89522396Y-99100128D01*
X89635572Y-99200965D01*
X89635576Y-99200968D01*
X89642279Y-99206940D01*
X89650217Y-99211143D01*
X89650220Y-99211145D01*
X89657966Y-99215246D01*
X89792119Y-99286276D01*
X89800832Y-99288465D01*
X89800833Y-99288465D01*
X89810866Y-99290985D01*
X89956559Y-99327581D01*
X90060998Y-99328128D01*
X90117127Y-99328422D01*
X90126105Y-99328469D01*
X90158221Y-99320759D01*
X90282235Y-99290985D01*
X90282238Y-99290984D01*
X90290968Y-99288888D01*
X90298947Y-99284770D01*
X90298949Y-99284769D01*
X90433647Y-99215246D01*
X90433648Y-99215245D01*
X90441631Y-99211125D01*
X90448398Y-99205221D01*
X90448402Y-99205219D01*
X90562627Y-99105574D01*
X90569396Y-99099669D01*
X90666887Y-98960953D01*
X90728476Y-98802987D01*
X90745500Y-98673674D01*
X90745500Y-97984984D01*
X90730276Y-97859180D01*
X90670345Y-97700577D01*
X90574312Y-97560849D01*
X90567604Y-97554872D01*
X90454428Y-97454035D01*
X90454424Y-97454032D01*
X90447721Y-97448060D01*
X90439783Y-97443857D01*
X90439780Y-97443855D01*
X90305823Y-97372929D01*
X90297881Y-97368724D01*
X90289168Y-97366535D01*
X90289167Y-97366535D01*
X90216691Y-97348330D01*
X90133441Y-97327419D01*
X90029002Y-97326872D01*
X89972873Y-97326578D01*
X89963895Y-97326531D01*
X89955164Y-97328627D01*
X89955165Y-97328627D01*
X89807765Y-97364015D01*
X89807762Y-97364016D01*
X89799032Y-97366112D01*
X89791053Y-97370230D01*
X89791051Y-97370231D01*
X89656353Y-97439754D01*
X89648369Y-97443875D01*
X89641602Y-97449779D01*
X89641598Y-97449781D01*
X89636722Y-97454035D01*
X89520604Y-97555331D01*
X89423113Y-97694047D01*
X89361524Y-97852013D01*
X89344500Y-97981326D01*
X89344500Y-98670016D01*
X82105500Y-98670016D01*
X82105500Y-97984984D01*
X82090276Y-97859180D01*
X82030345Y-97700577D01*
X81934312Y-97560849D01*
X81927604Y-97554872D01*
X81814428Y-97454035D01*
X81814424Y-97454032D01*
X81807721Y-97448060D01*
X81799783Y-97443857D01*
X81799780Y-97443855D01*
X81665823Y-97372929D01*
X81657881Y-97368724D01*
X81649168Y-97366535D01*
X81649167Y-97366535D01*
X81576691Y-97348330D01*
X81493441Y-97327419D01*
X81389002Y-97326872D01*
X81332873Y-97326578D01*
X81323895Y-97326531D01*
X81315164Y-97328627D01*
X81315165Y-97328627D01*
X81167765Y-97364015D01*
X81167762Y-97364016D01*
X81159032Y-97366112D01*
X81151053Y-97370230D01*
X81151051Y-97370231D01*
X81016353Y-97439754D01*
X81008369Y-97443875D01*
X81001602Y-97449779D01*
X81001598Y-97449781D01*
X80996722Y-97454035D01*
X80880604Y-97555331D01*
X80783113Y-97694047D01*
X80721524Y-97852013D01*
X80704500Y-97981326D01*
X80704500Y-98670016D01*
X79625500Y-98670016D01*
X79625500Y-97829350D01*
X79627545Y-97808587D01*
X79627545Y-97804393D01*
X79630408Y-97790000D01*
X79627545Y-97775608D01*
X79627545Y-97773127D01*
X79628112Y-97760141D01*
X79639852Y-97625953D01*
X79644362Y-97600375D01*
X79683609Y-97453902D01*
X79692492Y-97429496D01*
X79740092Y-97327419D01*
X79756577Y-97292065D01*
X79769564Y-97269573D01*
X79856543Y-97145355D01*
X79873237Y-97125459D01*
X79980459Y-97018237D01*
X80000355Y-97001543D01*
X80124573Y-96914564D01*
X80147066Y-96901577D01*
X80284496Y-96837492D01*
X80308902Y-96828609D01*
X80455375Y-96789362D01*
X80480953Y-96784852D01*
X80615141Y-96773112D01*
X80628127Y-96772545D01*
X80630608Y-96772545D01*
X80645000Y-96775408D01*
X80659393Y-96772545D01*
X80663587Y-96772545D01*
X80684350Y-96770500D01*
X90765650Y-96770500D01*
X90786413Y-96772545D01*
G37*
%TD.AperFunction*%
%TD*%
M02*
